<svg width="1036" height="444" viewBox="0 0 1036 444" fill="none" xmlns="http://www.w3.org/2000/svg">
<path d="M666.381 16.0317L668.057 15.7724L669.498 15.8473L670.949 15.962L671.722 16.1315L673.956 17.0589L675.412 17.8169L677.501 19.2231L678.658 19.8465L679.217 21.3075L679.865 23.1775H680.792L681.491 22.0804L683.266 21.8809L685.599 22.6488L687.654 24.833L690.606 26.7777L692.411 27.7451L694.246 27.7402L696.575 26.7777L699.053 24.9127L700.838 24.5886L701.895 24.7732L702.499 26.2242L703.237 26.7777L705.162 26.6132L709.176 26.8924L712.372 26.4984L713.1 27.3313L713.748 28.6427L715.045 29.0565L716.805 28.6427L719.573 28.9269L719.194 29.1364L718.785 29.0915L718.251 29.4056L717.588 30.0738L716.057 31.0263L713.664 32.2679L710.901 33.4048L705.301 35.4543L701.811 37.5786L700.265 38.8502L694.256 45.213L690.631 48.5889L684.762 53.3161L684.203 53.9145L684.168 54.473L684.647 54.9964L685.844 55.7544L686.776 55.8492L687.968 55.6946L692.68 54.3882L694.665 53.4806L696.615 51.9547L696.814 51.9048L697.627 52.1841L697.881 52.3187L700.414 50.5585L701.247 50.334L701.9 50.3789L702.713 51.0721L702.903 51.491L702.628 52.2988L701.9 53.4905L701.546 54.4929L701.566 55.3057L701.252 56.1833L700.454 57.3751L700.743 57.6942L702.883 56.8366L703.197 56.5024L703.232 56.303L703.102 56.0637L703.346 55.9539L705.032 57.1257L706.154 57.774L707.096 58.0832L708.882 57.7091L711.509 56.652L713.753 55.3655L715.608 53.8396L717.922 52.9022L720.7 52.5581L722.684 52.0196L723.881 51.2815L725.487 49.8404L726.389 49.4166L727.526 49.2869L728.379 48.7284L728.952 47.7411L730.039 46.6191L731.635 45.3626L732.548 44.8539L732.772 45.0932L732.857 45.5371L732.797 46.1903L733.196 46.7139L734.049 47.1178L734.438 47.6513L734.363 48.3145L734.592 48.878L735.131 49.3467L735.27 50.364L735.021 51.9248L734.991 52.937L735.181 53.3958L735.37 53.6552L735.674 53.4057L736.058 52.8573L736.198 52.5182L736.298 52.1742L738.631 50.5984L739.085 50.5186L739.848 50.9275L743.378 51.4959L744.77 51.8998L746.231 52.8024L746.729 53.1515L748.52 56.0637L749.337 57.2006L749.846 57.5147L750.135 57.9586L750.365 58.9858L750.644 59.2948L753.267 59.5143L754.454 59.3298L755.177 58.9159L755.979 59.1853L756.862 60.1326L757.73 60.3969L758.582 59.983L759.385 59.993L760.138 60.4368L760.487 60.7559L760.717 60.741L762.208 59.2948L764.003 58.0083L766.401 56.6171L767.793 55.9988L768.176 56.1484L770.385 55.6846L772.375 55.6447L775.013 55.924L777.456 55.5998L779.705 54.6674L781.695 54.1488L783.425 54.0391L784.078 54.2984L783.655 54.9316L783.425 56.0137L783.395 57.5497L783.246 58.5171L782.981 58.926L782.952 59.3148L783.151 59.6838L784.831 59.9232L785.714 60.4219L786.726 60.4418L787.868 59.988L788.741 60.1625L789.349 60.9554L790.232 61.1L791.09 60.5316L791.693 59.998L792.212 59.7637L792.615 59.7138L793.044 59.983L793.333 60.4368L794.062 61.6834L794.421 62.5262L794.64 63.7778L794.795 64.1917L794.775 64.9197L794.286 65.4134L794.156 65.8072L794.451 66.2012L796.106 66.311L796.859 66.6999L797.138 67.1338L796.949 67.6124L797.053 68.1261L797.457 68.6645L798.784 69.4823L799.108 69.8713L799.013 70.2852L798.619 70.5495L797.926 70.6691L792.86 69.9013L791.369 69.7766L791.149 70.0609L791.01 70.1008L790.77 70.0259L790.337 70.011L790.117 69.8264L789.933 69.3128L789.494 68.9838L788.791 68.8391L788.187 69.228L787.484 70.749L787.594 71.0332L787.479 72.0056L787.659 72.2699L787.649 72.4893L787.449 72.6738L787.036 72.6488L786.407 72.4195L784.029 70.1207L782.229 68.9737L780 68.131L778.234 67.7172L776.938 67.7372L775.871 68.3305L775.038 69.4873L773.736 70.1457L771.966 70.3051L771.009 70.6194L770.859 71.0831L770.221 71.0931L769.094 70.6542L767.932 70.5296L766.73 70.7241L765.853 71.1779L764.92 72.5989L764.736 73.2971L764.063 73.9055L762.272 74.853L762.183 75.2019L761.24 76.279L760.941 76.8725L760.946 77.4558L760.632 77.4209L759.999 76.7676L759.974 75.89L760.557 74.7831L761.081 74.2496L761.539 74.2844L761.824 73.7908L761.933 72.7735L761.769 72.2649L760.876 72.4644L760.407 72.8683L759.814 72.958L759.101 72.7286L758.473 73.2822L757.929 74.6235L757.281 75.5011L756.528 75.915L756.019 75.4563L755.76 74.1248V73.0827L756.064 71.8211L755.91 71.5767L755.59 71.9806L755.112 73.0328L754.473 75.3267L754.065 76.0696L753.511 76.3837L752.633 77.77L751.437 80.2234L750.085 82.602L748.579 84.8957L747.672 86.1274L747.368 86.302L747.233 86.7109L747.158 88.1818L746.889 89.1792L746.101 89.9621L744.042 90.9495L743.718 91.6225L743.673 92.1762L742.346 94.4649L741.698 95.8661L741.274 97.3222L741.409 98.2398L742.102 98.6137L742.665 98.4691L743.094 97.8059L743.752 97.2026L744.645 96.664L745.293 95.8712L746.196 93.9413L747.208 92.8293L747.747 92.7645L747.896 92.7945L748.948 92.2907L749.796 92.4554L750.31 93.2132L750.833 93.7319L750.948 94.2205L750.689 95.3077L750.205 96.4546L749.502 97.6564L748.864 99.4565L748.29 101.855L748.17 103.665L748.5 104.887L748.185 105.979L747.228 106.936L746.455 108.218L745.872 109.818L745.543 111.16L745.463 112.247L745.548 113.06L745.907 114.157L745.882 114.71L744.844 117.119L744.471 118.286L744.406 119.208L744.146 120.116L743.354 121.956L743.104 122.978L743.059 123.915L743.239 125.451L743.139 125.97L743.184 126.364L743.378 126.628V127.112L743.174 127.815L743.254 128.358L743.613 128.747L743.842 129.49L743.947 130.582L744.221 131.495L744.665 132.223L744.745 133.285L744.461 134.671L744.316 137.274L744.311 141.089L744.52 143.532L744.949 144.615L745.428 145.412L745.956 145.926L746.565 147.502L747.253 150.145L747.886 151.89L748.475 152.738L749.003 153.206L749.422 153.48L749.731 153.521L749.906 153.934L750.694 154.184L752.135 154.288L753.461 154.124L754.668 153.695L758.508 151.471L759.999 150.259L760.826 149.172L761.629 147.741L762.402 145.966L763.978 143.303L764.746 141.692L765.484 139.648L766.042 137.504L766.416 135.255L766.596 132.916L766.576 130.493L766.197 128.049L765.464 125.581L765.07 124.319L764.915 123.985L763.589 120.814L762.093 116.386L762.113 116.007L763.509 113.359L763.544 113L763.394 110.846L763.095 109.764L762.382 108.308L762.407 107.938L763.858 106.079L764.736 104.662L765.534 102.942L766.052 100.932L766.287 98.6336L766.282 97.0979L766.027 96.3298L766.052 95.7365L766.356 95.3226L767.912 94.784L768.436 93.8716L768.545 92.2658L768.865 91.4681L769.393 91.483L769.882 91.1538L770.331 90.4806L770.924 90.2863L771.662 90.5804L772.694 89.5831L774.021 87.2943L775.038 86.0127L775.751 85.7435L775.886 85.9529L775.447 86.636L775.312 87.389L775.482 88.2068L775.332 88.9996L775.003 90.0817L775.208 90.4208L774.639 92.1611L774.614 93.0288L774.958 93.687L775.367 93.4576L775.841 92.3356L775.985 91.7373L775.791 91.6626L775.866 91.1838L776.2 90.3062L776.499 89.8873L776.758 89.9372L776.828 90.4159L776.713 91.3284L775.96 93.4776L775.811 94.1309L775.98 94.3153L776.888 92.969L777.646 90.8247L778.224 89.1792L778.329 88.2816L778.154 85.9629L778.189 85.0105L778.409 84.3523L779.197 83.6092L780.548 82.7815L781.884 82.3376L783.206 82.2828L784.128 82.0584L784.652 81.6645L784.467 81.3454L783.58 81.1109L782.902 80.5925L782.443 79.7896L782.288 78.8671L782.443 77.8298L783.006 76.8077L783.984 75.8053L784.293 75.0722L783.929 74.5985L784.348 74.429L785.545 74.5637L786.382 74.434L786.856 74.04L786.986 74.0899L787.988 74.464L789.778 75.6955L791.479 76.4137L793.089 76.618L794.266 77.0519L795.004 77.7151L795.538 78.4582L795.862 79.281L796.63 79.7447L797.841 79.8494L798.794 80.1985L799.487 80.7918L803.336 82.3227L804.947 83.1305L805.835 83.9184L806.084 84.427L806.009 84.9257L806.099 85.4592L806.757 86.4965L807.007 86.5911L807.161 87.0898L807.216 87.9974L807.411 88.6058L807.74 88.9149L807.535 89.0396L806.348 88.516L805.675 88.6755L805.361 89.3537L805.311 89.997L805.526 90.6004L807.041 92.4154L807.435 94.0709L807.51 96.0705L807.321 96.8484L807.161 98.5589L807.031 101.202L807.002 102.104L806.503 102.987L805.152 104.254L805.132 104.014L804.807 103.949L804.458 104.144L803.97 105.226L803.551 107.201L803.042 108.273L802.439 108.442L802.075 108.726L801.955 109.125L801.312 109.395L800.14 109.534L799.337 110.133L798.739 111.818L798.764 112.626L798.485 113.628L798.505 114.486L798.819 115.199L799.766 115.912L801.342 116.625L802.284 116.735L802.933 116.436L803.611 115.269L804.269 114.81L805.072 114.616L805.376 114.087L806.697 111.748V111.23L806.214 111.03L806.284 110.886L806.907 110.791L807.445 110.477L807.904 109.938L808.707 109.539L810.662 108.926L811.709 108.228L812.372 108.113L813.339 108.487L814.606 109.345L815.608 110.596L816.346 112.237L817.279 116.48L818.406 123.297L819.174 127.097L819.588 127.905L819.792 128.309L818.8 133.599L818.002 135.778L816.606 137.04L815.219 138.262L813.489 140.306L811.589 141.313L810.617 141.907L810.407 142.291L810.173 142.171L809.654 143.278L809.191 144.809L809.006 145.991L809.171 146.639L808.777 147.053L808.064 147.831L807.929 148.115L807.979 148.569L807.829 148.788L807.485 148.778L807.221 148.998L806.578 149.81L805.471 151.935L805.261 152.379L805.446 152.708L806.712 152.912L807.575 153.301L808.248 153.885L810.677 155.026L811.42 155.735L812.158 156.123L812.891 156.193L813.394 155.969L813.664 155.45L814.008 155.415L814.427 155.864L815.793 156.353L815.838 156.507L812.048 157.355L811.255 157.749L812.203 158.023L813.16 157.958L814.122 157.55L815.229 157.569L816.202 157.764L816.511 157.599L816.636 157.515L818.291 158.627L818.909 158.791L819.553 158.667L820.216 158.248L821.677 157.704L823.931 157.031L826.1 156.757L828.184 156.881L829.501 156.692L830.708 155.994L833.37 153.7L836.427 151.85L841.459 149.551L848.938 146.784L850.095 146.14L851.267 145.507L851.875 145.143L852.554 144.814L857.76 141.912L860.442 140.196L861.784 138.95L863.2 137.913L864.686 137.085L865.863 136.023L866.735 134.726L867.698 133.759L868.75 133.125L869.318 132.457L869.398 131.759L869.199 130.812L868.73 129.62L868.665 128.682L869.004 127.994L869.079 127.531L868.889 127.291L866.68 126.608L866.775 123.317L866.745 123.222L866.86 123.182L871.951 121.721L875.197 121.218L879.152 121.083L883.864 121.806L885.694 122.464L886.851 123.302L888.188 123.526L889.703 123.137L891.803 123.008L894.49 123.137L895.927 123.337L896.116 123.601L896.3 123.521L896.485 123.103L897.203 122.639L899.218 121.946L899.487 122.09L899.901 121.741L900.459 120.894L901.487 119.956L902.982 118.929L904.334 118.395L905.545 118.35L906.354 118.101L906.762 117.637L906.887 117.228L906.727 116.874L906.797 116.48L906.867 116.286L906.807 116.126L906.662 115.792L906.548 114.107L906.314 113.314L905.984 112.726L905.566 112.347L905.615 111.953L906.343 111.464L906.289 111.918L906.478 112.057L906.817 111.848L907.595 110.831L907.685 110.447L908.213 110.053L908.607 109.439L908.174 109.35L907.141 109.534L906.907 109.35L907.44 108.532L907.341 108.068L907.171 107.874L906.832 107.794L905.67 108.512L905.311 108.577L905.261 108.198L904.663 107.355L906.269 105.859L911.943 101.685L912.522 101.052L912.736 100.484L912.581 99.985L912.422 99.8603L912.507 99.7357L917.977 94.3403L921.084 91.842L923.647 90.4458L925.601 89.7826L926.923 89.8774L927.671 89.7826H928.309L931.565 89.7775L937.39 89.7677L943.214 89.7626L949.038 89.7526L954.857 89.7427L960.682 89.7327L966.506 89.7228L972.325 89.7127L973.706 85.903L974.988 84.1228L976.748 84.7113L977.686 84.6614L978.728 83.7439L979.571 83.1854L980.124 83.2702L980.598 84.1079L980.992 84.6664L981.456 84.5019L981.849 83.709L981.834 82.607L982.373 81.8391L983.016 81.7243L983.61 81.7493L983.909 81.3753L983.874 80.8417L983.664 79.974L983.739 78.9319L985.22 77.0819L987.036 75.8302L987.669 75.2019L987.853 73.9305L988.895 72.6089L989.414 71.8459L989.539 71.1827L989.269 70.3649L989.294 68.8042L989.653 66.9393L990.082 64.9047L991.04 63.0697L992.61 61.0651L993.019 58.4223L993.443 55.6298L995.348 52.9022L997.507 49.7955L998.739 48.0254L1000.95 44.7991L1002.53 42.4953L1003.32 41.4381L1004.15 40.1816L1005.5 40.5605L1006.85 40.9345L1006.65 42.7596L1006.87 44.086L1007.51 44.849L1008.43 45.3674L1009.13 45.542L1009.95 45.5321L1012.19 44.4999L1014.83 43.8317L1016.28 43.2084L1016.54 42.6249L1017.2 42.4205L1018.25 42.5949L1020.2 44.056L1022.46 46.2601L1024.25 48.0004L1024.31 51.0123L1024.34 54.1937L1024.38 57.5346L1024.4 59.9133L1024.45 63.1744L1024.48 65.7575L1024.53 69.1233L1024.55 70.9186L1024.8 71.4372L1024.65 72.1402L1024.58 72.4942L1024.6 72.7785L1024.7 73.1326L1024.68 73.6263L1024.45 74.07L1024.34 74.5886L1024.31 75.4314L1024.55 75.95L1024.96 76.254H1025.31L1025.75 76.5582L1026.32 77.0968L1027.2 77.5655L1028.1 77.7302L1028.72 77.6154L1029.48 77.9196L1029.74 78.6676L1029.59 79.3706L1029.17 79.6998L1028.71 79.9541L1028.62 80.4926L1028.85 81.0511L1029.18 81.5398L1029.54 82.3976L1029.39 83.1455L1029.06 83.7739L1028.92 84.422L1029.2 84.9805L1029.93 85.7236L1030.39 86.4415L1031.12 86.8355L1031.46 86.5563L1031.74 86.1822L1032.03 85.903L1032.54 86.0676L1033.14 86.277L1033.78 86.5263L1033.7 87.1297L1034.09 88.142L1034.4 90.0868L1033.93 90.9694L1034.03 92.1361L1035.32 92.4753L1035.64 92.8343L1035.7 93.2632L1032.84 96.2501L1030.42 95.8362L1029.11 96.629L1027.74 96.8585L1027.14 98.1899L1026.38 98.4742L1025.35 98.3943L1024.46 98.0204L1023.78 98.2048L1022.83 100.603L1022.05 100.394L1021.74 101.257L1021.33 101.636L1020.73 101.955L1020.22 100.893L1019.89 99.8803L1019.4 99.6608L1018.75 99.4015L1018.09 99.4116L1017.64 99.5561L1017.09 100.209L1016.29 100.773L1015.69 100.304L1015.21 99.5511L1014.81 100.763L1014.22 102.04L1014.32 103.526L1014.07 104.408L1013.51 104.174L1012.96 103.401L1011.4 102.782L1010.16 102.837L1010.41 102.01L1011.58 100.823L1011.22 100.593L1010.65 100.758L1010.4 100.593L1010.81 99.5112L1010.85 98.3195L1010.33 98.7335L1009.67 99.99L1008.07 100.992L1008.15 102.668L1006.65 106.088L1006.58 107.545L1005.62 108.702L1004.37 109.699L1002.71 109.419L1001.44 110.282L1000.8 111.275L1000.24 111.424L999.951 110.163L999.741 109.774L999.272 111.639L998.799 111.753L998.619 110.432L998.395 109.559L997.747 110.312L997.318 112.307L996.869 112.137L996.724 111.399L996.4 111.175L996.29 112.022L996.45 113.214L996.216 113.848L995.767 113.508L995.318 112.935L994.575 113.369L993.892 113.543V112.96L994.022 112.242L992.665 112.636L991.035 113.957L989.768 115.782L990.207 116.087L990.701 116.665L988.502 119.472L986.248 121.996L984.547 126.099L983.864 126.578L983.276 127.326L982.652 129.794L981.934 131.984L982.338 132.961L982.602 133.963L983.241 134.951L983.784 135.04L984.373 134.861L984.802 134.901L985.081 135.32L984.961 135.823L984.283 135.948L983.016 136.825L981.904 137.165L981.351 138.222L980.518 139.443L978.897 141.348L979.59 141.937L982.089 142.595L983.206 143.273L984.891 146.814L984.507 147.168L984.353 147.816L985.854 148.723L986.332 151.257L987.564 152.119L989.399 152.648L991.648 151.885L993.518 150.833L993.453 149.97L992.276 147.955L991.992 147.013L991.119 146.4L990.79 146.918L990.227 146.245L990.162 145.866L990.686 145.682L991.299 145.756L992.012 146.11L993.847 148.31L994.356 151.182L994.465 153.002L994.256 153.625L993.722 153.496L992.705 153.62L987.873 154.563L986.801 155.39L984.343 156.288L984.188 155.839L984.368 154.912L984.213 153.007L983.729 152.917L979.905 156.024L978.429 156.218L977.187 157.126L976.908 156.622L976.688 154.298L977.466 152.344L977.052 152.374L975.756 153.545L975.202 152.822L974.923 152.029L974.524 151.581L974.09 151.411L974.464 153.141L973.582 154.438L973.342 157.784L972.235 159.17L968.785 160.063L966.536 159.873L964.521 160.153L961.844 160.791L960.363 160.412L958.847 161.085L953.701 161.27L952.613 160.911L951.227 162.182L949.008 162.935L943.398 165.782L942.162 166.82L940.656 168.43L939.643 169.298L938.811 169.582L938.297 170.305L937.738 170.774L938.277 169.168L938.861 167.812L939.349 165.174L939.205 163.04L938.601 162.162L937.978 161.574L938.706 163.683L938.826 166.266L938.571 167.777L937.195 170.684L936.612 171.357L935.928 171.956L935.41 172.21L934.931 172.674L934.378 173.407L933.854 174.863L934.173 176.189L936.856 176.673L937.579 176.264L937.943 177.211L938.152 178.528L937.948 179.954L937.499 181.4L937.16 183.195L936.871 185.923L936.437 188.371L936.377 187.628L936.652 184.646L936.213 184.961L935.909 185.649L935.091 189.488L933.964 191.528L932.927 192.939L931.854 192.705L932.094 193.827L931.8 194.41L931.55 195.627L930.912 196.43L930.314 196.355L929.456 196.908L929.117 197.332L929.092 198.145L928.513 198.858L926.434 202.558L924.629 203.645L924.2 203.486L924.674 201.74L924.998 199.975L923.901 199.207L922.854 198.798L921.652 198.853L920.321 197.477L918.61 196.479L916.222 193.767L916.292 193.014L916.232 191.747L916.96 189.748L917.653 188.346L918.615 187.618L921.408 186.88L922.106 185.768L922.52 184.831L921.138 186.442L919.069 186.99L917.952 187.593L917.059 188.511L916.531 189.663L915.334 191.049L915.419 191.977L915.618 192.635L915.524 194.011L916.282 195.348L917.777 197.537L918.067 200.927L919.209 203.191L920.964 205.824L922.31 206.572L922.38 207.55L921.757 209.165L920.934 209.903L922.001 209.754L922.53 210.123L923.048 211.469L923.008 212.84L922.834 213.608L922.51 213.917L922.52 213.129L922.29 212.855L921.911 213.194L921.667 213.583L921.562 215.114L921.303 215.877L920.385 216.101L919.453 218.106L918.59 219.243L915.194 226.902L915.324 228.179L914.701 228.588L913.763 228.922L912.811 229.685L912.178 230.523L911.589 232.776L910.462 235.31L909.759 234.257L909.58 233.355L909.894 230.991L911.111 227.117L912.452 224.703L913.474 223.556L914.312 221.213L913.25 220.864L911.629 220.904L911.933 219.821L912.407 218.869L911.564 217.917L911.065 217.797L910.552 217.408L911.155 216.615L911.45 215.777L911.27 214.755L911.524 213.982L911.106 214.097L910.427 214.915L910.008 215.239L909.754 214.516L909.46 214.68L909.27 215.179L908.837 215.448L907.924 214.77L906.593 213.997L905.855 212.661L905.431 211.624L905.86 209.749L906.782 209.415L907.979 209.719H909.545L909.32 209.305L908.762 209.375L907.111 207.849L906.578 206.926L905.665 206.672L905.251 207.559L904.788 207.794L905.356 205.854L906.104 205.774L907.206 205.236L906.887 204.109L906.189 203.615L904.932 204.233L904.947 203.441L905.181 202.428H906.129L906.962 202.758L907.67 201.117L907.7 200.384L906.528 201.451L906.264 199.152L907.415 196.933L908.517 195.961L909.894 195.991L911.29 195.836L910.412 195.427L909.51 195.208L910.188 194.325L910.766 194.166L911.335 193.398L909.974 193.512L910.133 192.056L909.47 192.356L908.677 192.49L908.368 193.109L908.428 194.136L908.198 194.809L907.58 195.348L906.538 195.766L906.438 195.038L906.094 194.709L905.965 196.27L905.69 196.799L904.927 195.338L904.698 195.632L904.728 196.046L904.533 196.764L903.88 197.138L903.92 198.055L903.666 198.559L901.576 197.761L901.526 198.03L902.708 199.751L903.571 200.339L903.675 201.277L902.933 202.054L901.91 201.386L901.736 201.436L902.294 202.583L902.643 203.585L902.284 204.423L902.339 205.46L902.259 206.398L902.04 207.215L902.539 210.97L903.137 211.993L903.725 212.965L904.039 213.877L903.416 214.007L902.419 213.259L901.541 212.686L900.499 210.856L900.33 210.123L900.075 209.544L900.195 210.871L900.569 212.352L903.83 215.663L904.434 216.929L904.892 217.927L904.778 218.874L903.925 218.201L903.192 217.343L901.242 216.371L898.784 215.757L897.398 213.493L897.402 214.436L897.094 215.239L896.246 214.261L895.712 213.429L895.533 212.516L894.475 212.576L893.369 213.374L892.296 213.184L892.172 211.634L892.461 210.811L893.663 208.866L894.8 207.869L895.298 206.582L895.129 204.588L894.919 206.617L894.271 207.619L893.249 208.387L891.907 209.754L891.583 211.015L891.164 213.374L891.728 214.172L892.306 214.381L894.012 213.848L894.894 214.087L896.859 216.919L900.519 218.036L901.855 218.734L902.943 220.21L904.578 221.058L905.85 222.29L905.885 223.093L905.446 224.04L905.271 225.322L904.733 226.129L903.441 226.224L902.658 226.015L898.455 221.502L897.951 221.088L896.39 218.719L894.56 217.448L893.992 217.473L896.595 219.821L897.657 221.462L899.527 223.756L900.863 224.728L901.845 226.244L902.763 226.952L905.261 227.959L904.394 228.687L905.78 229.306L905.979 230.438L905.855 231.729L903.93 231.216L903.865 232.168L904.039 232.726L903.192 233.19L902.01 232.562L898.943 229.121L898.968 229.58L899.218 230.114L900.998 232.328L902.589 233.654L903.935 234.252L904.972 235.364L905.341 236.033L905.585 237.05L904.817 237.738L903.94 238.122L903.087 237.434L902.459 236.706L901.123 235.474L900.719 234.093L899.701 234.163L895.453 232.412L892.037 232.208L892.371 232.562L892.8 232.796L895.518 233.225L896.59 234.033L898.824 234.751L900.135 234.946L900.664 237.14L902.474 238.651L902.708 239.768L903.945 239.892L906.119 238.8L907.52 239.184L909.545 239.498L910.008 240.381L910.353 242.056L911.071 243.941L912.926 251.351L915.713 257.38L916.057 258.417L915.409 257.505L913.34 253.515L912.198 250.623L911.026 245.507L910.687 244.36L910.283 243.901L910.019 244.275L909.904 244.929L910.098 245.432L909.634 247.118L909.834 247.891L910.582 248.688L911.4 250.678L912.053 253.356L911.171 252.269L910.233 251.695L908.772 251.256L907.471 250.484L907.565 251.591L907.44 252.787L906.438 252.423L905.755 252.025L906.363 253.296L905.052 252.917L904.174 252.997L903.606 254.129L902.843 254.812L901.716 255.031L900.04 253.999L899.502 252.742L899.278 251.341L899.188 252.997L899.487 254.717L899.382 256.024L900.993 256.263L902.499 256.054L904.533 256.108L905.86 255.864L906.658 255.45L908.572 255.809L908.707 257.385L908.488 258.951L908.378 260.611L908.906 260.601L909.53 260.068L909.844 257.081L911.594 255.974L912.182 256.054L912.741 257.011L912.931 257.983L913.13 259.32L912.721 261.354L910.033 263.728L908.109 265.917L907.121 266.361L905.705 266.106L904.095 265.558L903.302 265.448L902.703 265.633L902.339 264.955L902.105 263.723L901.481 263.314L901.008 263.359L900.689 264.665L899.188 265.039L897.148 264.496L895.009 263.399L895.927 264.576L901.227 266.775L901.826 267.188L902.384 267.787L901.646 268.729L901.063 269.791L900.978 270.624L900.773 271.148L898.659 272.559L897.517 272.31L894.59 269.761L895.927 271.966L896.994 272.898L899.148 273.397L903.182 272.574L904.509 273.472L903.421 275.062L902.344 276.174L900.928 276.299L899.681 276.603L899.312 277.366L898.425 277.416L897.034 277.461L894.884 277.531L893.702 277.351L892.052 278.912L891.429 279.126L890.561 278.832L890.197 277.575L889.808 276.957L889.798 279.306L889.953 279.939L890.267 280.413L888.337 281.684L886.487 283.27L885.824 283.699L885.071 284.492L883.53 286.781L883.151 288.446L882.592 290.301L882.523 289.468L882.617 288.062L882.238 286.451L881.994 289.404L881.396 290.77L875.901 290.675L873.497 291.418L869.807 293.916L868.705 295.013L865.653 299.237L864.875 301.935L864.252 300.803L864.407 299.955L864.417 299.257L863.654 300.678L864.382 302.852L863.728 303.68L861.714 305.226L860.612 305.475L859.375 305.914L858.986 307.435L857.306 308.836L856.328 309.454L854.533 309.08L855.087 310.427L854.429 311.449L853.292 312.232L851.88 312.741L851.073 312.676L850.384 312.945L849.841 313.593L848.52 314.202L847.148 313.863L845.592 313.658L844.725 314.022L846.181 314.625L846.964 315.493L846.804 316.665L846.415 317.114L845.493 317.727L845.089 317.637L844.844 317.089L844.545 315.942L844.116 316.186L844.042 316.72L843.673 316.914L842.366 315.084L842.431 316.48L842.885 317.552L843.323 318.096L843.767 318.415L843.877 318.914L842.984 320.126L842.526 320.395L841.708 320.589L841.249 321.332L841.384 321.976L840.666 323.367L838.955 324.234L838.437 324.2L838.013 324.454L838.262 325.072L838.686 325.521L838.671 325.94L838.222 326.508L837.33 326.668L836.831 327.311L836.991 327.924L837.285 328.264L837.22 328.847L836.208 329.435L835.968 330.014L836.472 330.183L836.861 330.014L837.145 330.138L836.537 331.106L835.993 331.694L835.475 332.751L834.273 333.046L834.318 333.39L834.996 333.694L835.564 334.507L834.497 336.008L833.829 335.883L833.42 335.554L833.161 336.736L833.261 337.364L833.006 338.655L832.597 340.201L832.318 340.835L832.378 342.016L832.553 343.158L833.206 344.624L834.208 350.613L834.891 352.688L836.118 358.272L838.148 363.668L841.01 370.165L845.707 378.004L846.271 379.116L845.657 380.059L845.473 381.036L845.418 382.507L845.587 383.943L846.141 385.694L847.208 388.366L846.61 387.838L845.064 383.998L844.884 381.744L845.104 378.538L844.74 378.618L844.445 379.66L844.281 380.882L843.887 381.355L843.353 379.485L843.393 378.643L843.962 377.655L843.797 377.301L842.875 376.793L842.68 376L842.805 375.212L842.281 374.793L841.867 374.813L842.147 376.753L842.581 377.939L843.119 380.787L843.992 382.507L844.5 383.948L850.434 399.257L851.841 401.197L852.359 402.588L852.898 405.495L853.017 409.22L852.05 416.007L851.831 420.619L851.691 420.479L851.596 419.991L851.372 419.926L850.534 422.035L849.392 423.935L849.013 426.887L848.465 428.363L846.814 429.924L845.792 429.884L843.289 431.056L841.528 430.752L839.434 431.41L838.058 431.335L837.26 429.944L837.38 429.321L837.694 428.697L838.232 428.553L840.082 430.014L840.431 429.395L839.873 428.667L838.801 428.258L838.013 427.81L836.422 424.479L834.772 422.19L834.492 420.654L831.645 419.717L829.586 418.295L828.239 415.772L827.466 411.289L826.559 410.786L826.175 410.437L827.062 408.766L828 407.365L827.262 407.714L826.718 408.233L826.025 409.469L825.517 409.659L825.053 409.469L824.519 407.096L824.674 404.179L825.422 403.086L824.27 403.057L823.078 403.471L823.253 404.443L823.083 404.976L822.216 404.837L821.552 404.498L820.66 403.48L819.438 401.546L816.93 396.2L816.441 395.447L815.608 394.654L816.002 394.41L816.715 394.265L818.326 391.852L819.588 390.391L820.006 389.379L819.932 388.945L819.373 388.316L818.64 388.865L818.326 388.71L817.498 387.439L816.71 387.08L816.162 387.354L816.74 388.391L817.259 388.78L817.055 390.291L816.845 390.78L816.356 391.214L815.593 390.979L815.209 391.353L814.756 390.959L814.307 390.296L813.803 389.204L815.135 383.041L816.366 379.101L816.506 374.593L816.601 373.925L816.496 372.723L814.845 370.115L807.55 363.728L801.9 356.128L797.004 353.271L793.289 353.899L792.645 354.473L792.371 355.221L792.6 356.074L792.266 356.427L791.269 356.383L789.928 356.582L786.422 358.582L785.185 358.507L784.064 359.025L783.221 359.414L781.027 359.624L779.167 360.068L778.364 359.828L777.84 358.666V357.465L778.264 358.387L778.922 359.11L779.227 358.821L779.336 358.183L778.683 356.931L776.574 355.326L774.175 352.977L774.908 353.057L775.093 352.553L774.35 351.89L774.664 351.127L775.188 350.324L774.175 350.444L773.263 351.007L773.233 351.7L773.053 352.254L772.565 352.174L771.657 351.491L767.189 349.586L763.28 348.509L766.282 348.025L767.907 348.399L767.713 347.821L767.319 347.452L766.037 346.988L764.402 347.162L763.369 346.943L762.317 347.407L761.16 348.09L760.128 348.439L756.099 348.933L752.833 349.466L753.357 348.903L753.915 348.539L755.845 347.985L756.134 346.838L755.68 345.731L755.172 345.996L754.638 346.858L753.985 346.235L753.262 346.24L753.062 347.611L752.13 348.534L751.711 349.461L748.983 350.189L748.634 349.95L749.432 349.067L749.367 348.579L748.46 348.998L746.934 350.663L741.563 351.207L741.858 350.828L742.994 350.748L744.585 350.224L744.261 349.337L743.648 348.359L743.079 348.25L742.705 347.676L742.725 345.871L742.361 344.814L741.489 343.727L741.194 343.936L740.551 345.801L740.018 348.24L739.753 349.028L738.163 349.082L736.751 348.913L731.964 349.207L730.179 348.379L729.436 348.22L728.982 348.24L726.903 348.998L724.529 349.576L723.971 349.392L723.173 349.367L721.453 351.336L719.423 352.259L714.307 350.598L713.035 349.267L711.903 348.983L710.512 348.818L709.021 350.459L707.884 352.668L709.674 353.879L711.21 354.458L713.743 353.974L715.145 352.902L716.287 352.937L716.835 352.723L717.334 352.164L718.311 352.603L718.346 353.047L717.653 353.67L716.775 354.194L716.247 354.812L717.244 356.054L718.815 356.472L719.403 356.293L719.767 354.897L720.735 353.994L722.046 354.188L721.861 354.757L722.046 355.291L722.649 356.203L722.58 357.51L722.694 357.824L721.283 358.397L720.231 358.592L719.388 359.345L719.832 359.778L718.974 360.162L718.396 360.008L718.102 360.147L718.012 360.611L717.568 361.035L718.211 362.327L719.533 363.164L720.465 364.222L724.215 365.608L725.123 365.568L726.015 366.964L726.738 367.443L727.431 367.687L727.352 368.645L726.115 369.348L725.781 370.185L725.472 370.654L724.913 370.061L724.345 369.627L723.023 370.938L722.385 371.218L722.699 369.801L722.201 369.248L721.448 367.827L720.346 366.949L719.568 366.655L718.964 366.101L718.231 365.877L717.608 365.937L716.551 365.613L716.481 364.855L716.187 364.286L715.359 363.618L711.415 362.352L711.39 362.875L711.664 363.269L712.232 363.533L712.911 364.042L712.906 365.553L712.611 366.191L712.487 367.099L712.223 368.026L711.739 368.754L710.662 369.248L710.188 368.834L709.42 366.844L708.333 366.221L706.608 366.146L705.436 366.595L704.159 368.525L703.127 368.839L699.602 367.842L695.583 366.316L695.687 365.807L696.32 365.643L697.537 365.852L697.472 365.328L696.231 363.623L696.006 362.855L696.166 361.918L695.762 361.938L695.019 362.725L692.456 362.057L691.748 361.255L690.242 359.001L688.118 358.926L687.155 357.56L685.415 358.133L684.537 358.766L683.764 359.749L684.064 360.257L684.837 361.065L684.487 361.459L682.009 362.032L676.265 361.389L674.584 360.786L672.33 359.509L669.209 358.472L667.703 358.302L666.232 358.507L661.943 358.612L660.951 358.886L660.103 359.33L659.555 358.841L659.3 357.968L659.799 357.829L660.353 357.315L660.851 356.298L660.911 355.68L660.562 355.281L659.899 355.241L658.433 357.889L659.271 359.37L659.216 359.903L656.289 360.207L649.642 363.184L647.049 364.79L647.183 364.251L650.315 362.172L649.208 361.853L647.428 362.371L646.789 362.172L647.542 360.452L647.298 358.931L646.031 358.891L645.224 360.103L644.665 360.053L643.932 359.534L643.364 359.699L643.782 362.446L644.58 363.573L645.248 365.014L643.428 366.784L641.738 368.246L641.553 369.657L639.853 371.492L638.257 372.534L634.502 374.977L633.43 375.496L631.735 376.628L629.401 377.476L627.157 378.822L626.404 379.027L627.835 377.885L629.531 376.758L628.075 376.912L625.831 376.394L624.46 376.364L624.455 376.777L623.412 377.361L622.33 376.508L621.862 375.935L621.637 375.436L621.178 375.316L620.74 375.546L622.355 379.036L623.043 379.186L623.801 379.53L622.854 380.343L621.832 380.961L620.226 381.37L618.87 380.099L618.575 381.694L618.401 383.285L617.947 383.694L617.219 384.277L616.825 383.839L616.636 383.22L616.167 383.769L615.484 384.183L614.357 384.267L613.514 384.487L613.534 385.145L613.729 385.808L615.224 385.285L614.681 386.985L613.305 388.665L612.183 389.059L610.467 388.815L610.043 388.985L609.664 389.334L611.664 391.952L610.378 395.896L609.555 397.327L608.986 397.512L608.358 397.556L606.144 396.29L604.937 395.307L606.004 397.975L608.907 398.753L609.056 399.765L609.041 400.623L608.468 401.635L607.934 402.977L608.328 403.909L608.787 406.218L609.181 407.275L609.61 410.481L610.068 411.868L612.706 416.964L613.594 417.004L613.734 417.552L613.649 418.61L611.754 418.919L610.956 419.387L610.801 419.796L610.687 420.016L610.442 419.996L609.54 419.702L607.48 418.256L604.484 417.358L600.544 417.009L597.851 416.286L596.405 415.184L594.899 414.526L593.329 414.321L592.022 413.723L590.99 412.73L589.479 412.097L587.489 411.818L586.193 411.075L585.295 409.25L585.29 409.225L584.483 406.173L583.465 404.258L581.491 401.885L581.311 401.571L581.296 401.182L581.54 399.8L581.331 398.803L580.708 397.99L580.563 397.133L580.902 396.23L580.922 395.143L580.628 393.871L579.371 392.495L577.147 391.019L575.252 388.855L573.692 386.008L572.146 384.033L570.615 382.931L569.573 381.585L569.009 379.994L568.845 379.071L569.074 378.817L568.137 377.047L566.027 373.761L564.816 371.352L564.501 369.826L563.16 368.011L560.787 365.902L559.5 364.531L559.186 363.578H559.181L555.481 360.796L554.404 359.055L553.566 358.507L552.604 358.567L552.11 358.397L552.085 358.003L551.771 357.983L551.168 358.342L549.198 358.412L545.862 358.203L543.453 357.729L541.972 356.996L540.935 357.096L540.337 358.033L539.07 358.636L537.13 358.906L535.465 360.641L534.069 363.842L533.455 365.897L533.625 366.814L533.256 367.478L532.348 367.892L531.426 368.819L530.488 370.26L529.391 370.958L528.14 370.908L525.826 369.801L522.455 367.627L519.812 366.281L517.897 365.767L516.207 364.76L514.741 363.259L513.389 362.257L512.153 361.753L510.707 360.088L509.051 357.255L508.223 355.066V352.752L506.059 347.701L504.912 345.507L504.06 344.495L502.394 343.288L499.906 341.882L496.575 339.069L492.396 334.836L489.439 332.283L487.704 331.415L486.198 329.884L484.921 327.69L483.675 326.289L483.545 326.224L483.435 326.194L480.359 326.174L477.282 326.154L474.205 326.134L471.129 326.119L468.052 326.099L464.975 326.084L461.899 326.065L458.822 326.045L458.812 327.885L458.762 329.74L458.757 331.575L458.747 333.41L453.8 333.42L448.854 333.43L443.907 333.44L438.961 333.45L434.014 333.46L429.067 333.469L424.121 333.479L419.174 333.489L412.537 331.076L405.9 328.657L399.263 326.234L392.626 323.806L385.989 321.377L379.351 318.944L372.714 316.505L366.077 314.062L366.746 313.129L367.633 310.636L366.032 310.816L362.028 311.17L358.024 311.524L354.02 311.878L350.016 312.232L346.012 312.586L342.007 312.94L338.003 313.294L333.999 313.648L333.969 313.543L333.869 311.733L333.221 311.095L332.388 311.489L332.009 309.135L332.219 308.023L332.119 306.936L331.336 304.258L329.257 301.007L324.764 296.953L322.475 295.597L320.68 293.881L319.538 293.403L318.102 293.273L317.688 294.046L316.062 293.517L316.307 291.598L314.721 288.925L313.425 288.626L310.158 288.805L305.795 287.334L304.509 286.457L304.065 284.886L302.02 283.519L299.328 282.178L297.827 282.492L295.867 282.283L293.069 281.315L291.439 281.196L288.262 281.48L287.076 281.275L285.974 280.054L284.787 279.44L285.036 277.934L284.887 276.573L285.066 275.511L284.532 273.182L284.946 271.018L284.587 270.235L283.914 269.632L281.81 268.744L281.426 267.632L281.77 266.086L281.221 265.064L279.496 264.112L277.885 261.948L275.841 260.761L275.003 258.771L273.747 257.54L273.308 256.448L270.515 252.543L267.533 249.486L267.075 247.721L266.96 245.303L268.127 243.827L268.755 242.525L268.69 241.333L268.511 240.456L267.484 238.93L263.514 238.022L260.288 234.237L260.099 231.335L258.832 228.363L258.817 226.424L258.622 224.324L259.585 223.866L260.443 224.035L260.358 224.868L260.647 226.369L261.659 227.496L262.622 227.989L263.499 229.081L264.158 229.411L264.836 229.49L264.472 228.787L264.083 228.338L263.609 226.882L262.711 225.022L261.679 223.995L261.156 222.12L260.707 221.686L260.428 220.988L261.425 220.16L262.786 219.572L264.611 219.413L269.787 219.692L270.889 219.208L271.802 219.363L272.47 219.303L271.064 218.804L270.276 218.969L269.344 218.864L267.494 218.964L266.746 218.754L265.923 218.166L265.384 218.106L263.674 219.133L262.911 219.009L261.106 217.887L260.318 217.727L259.051 218.365L258.897 221.113L259.291 223.152L258.533 223.362L257.65 222.524L256.299 222.025L255.182 221.263L253.606 219.841L252.778 219.323L251.841 220.505L251.806 219.961L252.27 218.585L252.14 216.276L253.551 218.121L253.112 216.824L252.015 215.393L251.183 214.895L250.135 212.332L247.777 210.791L245.887 208.298L242.017 204.154L241.763 200.504L240.352 195.871L240.945 193.228L240.865 191.353L240.172 188.511L239.449 186.965L236.313 182.712L233.296 179.839L232.842 177.66L232.633 175.461L233.291 173.501L233.864 171.432L234.278 170.884L234.443 171.113L234.328 171.552L234.757 171.686L234.922 170.774L235.176 170.305L234.727 170.245L234.772 169.956L235.041 169.378L235.979 166.655L235.879 163.214L236.881 158.981L236.831 157.58L236.193 154.558L235.555 152.743L234.418 151.456L234.922 149.571L234.882 147.771L232.872 145.173L232.104 141.757L231.96 140.311L232.159 136.481L231.635 134.841L230.294 132.133L230.867 129.775L231.486 128.333L232.997 122.035L233.361 121.522L233.989 121.537L235.091 120.465L234.582 120.215L233.815 120.729L234.498 118.226L235.266 116.077L235.764 115.304L236.019 108.263L236.457 102.852L237.18 101.062L236.926 99.2121L237.22 96.7039L237.011 94.1607L238.562 81.849L238.357 80.3531L238.831 78.3434L238.387 73.0328L238.587 67.0589L238.193 66.296L237.993 65.4682L238.362 65.3436L239.08 66.2161L242.411 66.2063L244.536 65.3983L245.308 65.6627L246.206 66.7597L247.338 66.9792L248.749 66.7847L248.32 66.5105L247.657 66.4356L246.171 65.4233L245.328 64.411L242.73 64.4809L242.202 63.8326L239.3 64.4809L238.402 63.8177L236.821 64.2465L237.21 62.3617L237.141 59.9781L237.225 57.6544L237.614 59.3498L238.597 61.1499L239.07 59.1104L239.394 56.5374L238.437 55.5501L236.841 54.817L236.268 52.4135L240.043 50.359L238.038 49.9251L237.25 49.0027L236.278 48.8881L236.203 49.601L235.889 50.5336L235.55 49.2919L235.45 47.8309L235.051 45.3326L233.505 41.2985L232.568 36.0477L231.391 33.4447L229.137 30.9514L228.549 29.4954L228.01 25.7903L228.314 22.978L227.896 20.9933L228.978 21.108L231.825 22.6687L235.37 23.8906L236.442 24.7781L238.163 25.4364L247.697 26.4585L248.32 26.3589L249.552 25.7255L250.076 25.8054L251.477 27.2564L252.18 27.431L253.092 27.3561L253.766 27.0819L254.917 26.0895L255.072 26.4585L255.052 27.381L255.461 28.6925L256.304 30.3879L256.623 31.4401L254.917 34.4022L254.593 34.467L254.544 33.4646L254.319 33.2651L251.108 38.2617L249.981 40.6203L249.871 41.6825L249.911 42.3058L250.36 42.4604L251.387 42.216L252.908 41.2386L252.983 41.0242L251.567 41.3733L250.888 41.4032L250.983 40.2863L251.143 39.7576L252.07 38.1021L253.043 37.1099L254.424 36.0527L255.222 35.18L255.77 33.9035L257.306 32.3776L257.59 31.9537L257.525 30.6971L257.62 30.4578L258.363 30.6273L258.672 32.7915L258.488 33.7539L257.161 34.9257L256.997 35.3396L257.226 36.9402L257.022 37.0948L256.518 36.9053L256.364 37.01L257.615 38.7453L258.014 40.0918L258.069 41.2935L257.73 43.5923L257.366 43.9762L256.743 43.8367L255.915 43.1186L255.73 43.3479L255.072 45.1331L254.858 44.9785L254.449 42.8593L254.224 42.6998L252.953 43.6672L252.439 44.5945L252 46.0707L251.442 46.7637L253.028 46.9133L254.459 46.6141L255.606 47.3173L255.995 47.3372L257.042 46.6491L257.361 46.1852L258.229 43.9563L258.662 43.5575L259.306 43.5424L259.929 43.2084L260.856 41.9817L260.896 41.493L260.557 38.7453L260.657 37.1846L260.482 36.6909L260.069 36.1773L260.118 35.6786L260.443 34.8558L260.467 34.1129L260.188 33.4497L260.313 32.6967L261.191 31.0712L261.355 30.3531L262.422 28.7324L262.153 28.0792L261.365 27.2814L260.866 26.5783L260.368 25.4813L259.989 25.1122L259.864 25.2818L260.398 27.0768L260.283 27.1966L258.897 26.2292L258.573 25.6158L258.403 24.7831L258.523 24.1598L259.271 23.5415L260.163 23.317L260.089 22.7984L258.972 21.113L258.229 20.3451L257.655 19.9711L256.882 19.8714L256.538 19.597L256.448 19.2032L256.613 18.6846L257.027 18.5151L258.219 18.7245L258.862 18.3554L258.802 17.6822L258.607 17.3083L258.637 14.8948L258.184 12.9302L257.949 12.596L257.695 12.5611L257.426 12.8253L256.678 12.8952L256.214 12.2519L255.7 11.0053L254.773 8.03327H256.209H262.178H268.142H274.111H280.08H286.043H292.012H297.981H303.95H309.914H315.883H321.852H327.816H333.785H339.753H345.722H351.686H357.655H363.624H369.588H375.557H381.526H387.494H393.458H399.427H405.396H411.36H417.329H423.298H429.267H435.231H441.199H447.168H453.132H459.101H465.07H471.039H477.003H482.972H488.941H494.904H500.873H506.842H512.806H518.775H524.744H530.713H536.677H542.646H548.614H554.578H560.547H566.516H572.485H578.439H584.408H590.377H596.34H602.309H608.278H614.247H620.211H626.18H632.149H638.113L641.414 8.06325L641.469 3.56033L641.508 0L644.53 0.433856L645.433 1.08213L645.722 1.3912L645.637 2.37366L645.887 5.35054L646.435 7.82387L647.702 10.7909L647.707 10.7959L647.811 11.9527L648.225 12.6757L648.988 13.349L651.88 14.1617L656.902 15.1142L659.749 16.2062L660.422 17.438L661.764 17.9316L663.773 17.6922L665.18 17.1786L666.381 16.0317ZM254.878 14.8449L255.062 15.3037L254.499 15.7524L254.1 15.8223L253.461 15.1042L253.182 15.0145L253.407 16.1215L253.327 16.5004L252.025 15.8223L251.786 15.2837L252.15 14.7154L252.973 14.1269L253.257 14.057L254.878 14.8449ZM251.646 18.4702L252.015 19.1633L250.509 18.7194L249.876 18.3206L249.687 17.9316L249.462 16.66L249.567 16.2461L250.24 16.1015L251.497 17.6773L251.646 18.4702ZM254.334 19.9312L254.115 20.1406L253.367 19.8664L252.928 19.3977L252.778 18.8142L253.058 17.6922L253.431 17.403L253.666 17.4678L253.766 18.4553L254.429 19.4974L254.334 19.9312ZM257.81 25.6957L258.493 28.4332L258.787 27.2913L260.692 29.2661V30.2383L260.463 30.5625L260.064 30.6772L259.7 30.3929L259.365 29.7098L258.937 29.3508L258.024 29.1213L257.55 28.3434L257.386 27.8149L257.341 26.279L257.112 25.8004L256.628 25.6957L256.164 25.3317L255.446 24.2546L255.346 23.9653L255.685 23.0877L256.463 21.6166L257.027 20.9185L257.376 20.9933L257.81 21.4372L258.328 22.2449L258.229 22.8135L256.134 23.9254L256.064 24.1847L257.082 24.4988L257.456 24.7781L257.81 25.6957ZM728.274 30.5077L728.204 30.8517L728.713 30.9564L728.618 31.131L728.065 31.4451L726.499 32.0833L725.452 32.2878L724.913 32.0585L724.858 31.6345L725.282 31.0112V30.7022H724.848L724.953 30.4527L725.596 29.9591L731.072 26.8127L733.41 25.6657L734.657 25.3017L734.856 25.4813L733.505 26.6679L733.291 27.1517L733.341 27.4759L732.897 28.0992L728.893 30.3031L728.274 30.5077ZM258.867 37.3841L258.792 37.7829L258.019 37.3092L257.765 36.8705L257.795 35.888L257.989 35.2498L258.134 35.1202L258.588 35.3994L258.717 35.5641L258.867 37.3841ZM260.308 41.5029L260.243 41.9716L259.71 42.3356L259.43 42.241L259.41 41.6875L259.266 41.6027L258.687 42.2659L258.732 40.9545L259.016 39.5732L259.266 39.5482L259.635 40.4558L260.308 41.5029ZM738.536 45.3026L738.277 45.966L738.327 46.3648L736.627 48.12L736.008 49.2271L735.495 49.4017L735.081 48.6487V48.0403L735.5 47.5815L735.914 46.9283L735.963 46.0258L735.804 45.6966L735.285 46.5094L735.574 46.6839L735.659 46.8236L735.56 47.1178L733.605 46.6839L733.021 46.0507L733.121 45.1681L733.774 44.0361L736.123 41.6376L737.16 40.9694L740.102 39.9122L741.723 39.668H743.354L744.535 40.0169L745.268 40.7101L744.575 41.1689L741.354 41.5627L741.264 41.6875L741.882 42.0664L741.997 42.3356L741.429 43.0388L738.536 45.3026ZM253.885 45.4224L253.751 45.8263L253.551 45.8063L253.112 44.9835L253.058 44.4051L253.431 43.9863L253.935 45.188L253.885 45.4224ZM707.68 49.0874L707.221 49.4065L707.047 49.2569L707.156 48.6287L707.386 48.2647L707.74 48.1599L707.914 48.3145L707.909 48.7234L707.68 49.0874ZM703.745 51.1021L703.536 51.2467L703.002 50.9026L702.928 50.6183L703.072 50.334L703.322 50.3989L703.671 50.8128L703.745 51.1021ZM706.004 51.2666L705.536 51.3813L704.533 51.2018L704.548 50.9026L705.59 50.4887L706.054 50.3739L706.164 50.5485L706.004 51.2666ZM703.711 54.0391L702.908 54.3183L702.574 54.2684L702.708 53.8845L703.122 53.4257L704.987 52.2789L705.311 52.2988L705.411 52.573L704.508 53.1365L704.169 53.4357L704.129 53.7498L703.711 54.0391ZM795.762 62.586V63.0198L795.333 62.9201L794.974 62.6258L794.685 62.1372L794.326 60.9155L793.777 60.0478L794.6 59.0655L795.094 58.9508L795.622 59.1702L795.697 59.7438L795.308 60.6711L795.328 61.6186L795.762 62.586ZM795.931 64.9347L795.732 65.0444L795.029 64.2566L794.879 63.7728L794.984 63.3689L795.253 63.349L795.692 63.718L795.941 64.1468L795.996 64.6355L795.931 64.9347ZM804.568 69.622L804.703 70.0708L804.364 70.729L803.381 71.0631L801.387 71.0283L800.095 70.7738L799.502 70.3051L799.372 70.0609L799.427 69.5373L799.716 69.5024L800.14 69.7865L800.773 69.6669L801.616 69.1382L802.06 68.7394L802.1 68.4751L801.831 67.9665L802.045 67.7521L803.102 67.9516L803.496 68.2806L804.209 69.4175L804.568 69.622ZM789.823 73.4815L791.613 73.7608L791.788 73.6063L792.296 74.1348L792.376 74.5836L792.162 74.9576L791.848 75.167L791.444 75.2019L790.795 74.823L789.738 73.8157L789.823 73.4815ZM775.906 77.8399L775.427 77.9396L775.063 77.7052L775.123 76.7676L775.611 75.1322L776.09 74.3841L776.738 74.6883L776.609 74.8878L776.738 76.6331L776.504 77.396L775.906 77.8399ZM757.57 82.8164L757.151 83.0159L756.383 82.946L756.104 82.4973L756.508 81.3553L756.672 81.5647L757.341 81.5798L757.57 81.6895L757.645 81.9736L757.57 82.8164ZM755.75 85.0205L755.491 85.2748L755.057 85.1053L754.887 85.4792L754.987 86.3918L754.842 86.8106L754.458 86.7407L754.439 86.9104L754.778 87.3143L754.812 87.758L754.548 88.2418L754.289 88.4661L754.045 88.4312L753.661 88.9797L753.142 90.1117L752.963 90.7649L753.127 90.9444L753.007 91.3234L751.716 93.0387L751.217 93.2034L750.674 92.964L750.29 92.4653L750.065 91.7024L750.001 91.114L750.09 90.6952L751.227 89.1742L751.731 88.1818L752.02 87.0648L752.544 86.3519L753.312 86.0427L753.935 85.3495L754.409 84.2675L754.957 83.7987L755.575 83.9384L755.845 84.3473L755.75 85.0205ZM769.962 87.7681L769.797 88.0473L769.408 88.0223L769.099 87.753L768.795 86.8804L768.895 86.6909L769.647 86.8156L769.912 87.1846L769.962 87.7681ZM1018.91 102.877L1018.1 103.256L1017.2 103.092L1017.22 104.119L1017.12 104.488L1016.14 103.959L1015.77 103.62L1015.8 102.259L1016.68 100.967L1017.34 100.454L1018.2 100.808L1018.86 102.254L1018.91 102.877ZM908.019 103.949L907.58 104.109L907.475 103.879L907.545 103.665L907.909 103.396H908.523L908.453 103.61L908.019 103.949ZM1012.81 105.535L1012.28 105.919L1011.71 105.794L1011.69 104.837L1011.87 104.513L1012.06 104.368L1012.36 104.637L1012.81 105.535ZM905.909 109.529L905.7 109.589L905.72 109.175L905.934 108.906L906.343 108.786L906.333 108.996L905.909 109.529ZM868.575 128.139L868.147 128.792L867.733 128.727L867.428 128.518L867.324 128.104L867.398 127.585L867.768 127.356L868.77 127.556L868.805 127.765L868.575 128.139ZM976.175 156.971L975.482 157.48L974.709 157.39L975.103 156.702L975.252 155.69L975.636 154.578L975.856 154.238L976.31 153.939L976.175 156.971ZM974.44 157.096L974.051 157.44L973.906 156.542L974.18 155.505L974.454 155.485L974.594 156.034L974.44 157.096ZM986.407 159.12L982.552 160.028L981.939 159.444L982.901 159.17L984.113 157.779L984.921 157.619L986.188 158.407L986.407 159.12ZM993.852 161.18L992.775 161.479L990.282 160.796L992.331 160.217L992.665 160.013L992.935 159.16L992.969 158.731L993.747 160.566L993.852 161.18ZM958.423 166.356L957.43 167.548L958.328 167.667L959.101 167.318L959.829 166.61L961.529 165.653L962.98 165.234L963.434 165.144L964.127 165.817L965.499 165.279L966.91 164.975L960.811 168.051L959.565 168.395L957.779 169.313L956.094 169.961L954.882 170.195L948.844 172.469L948.365 172.519L947.846 172.3L942.87 173.467L940.83 173.596L938.97 174.005L940.346 173.063L940.377 172.709L940.047 172.434L939.314 172.514L938.561 173.482L937.36 173.806L937.12 172.754L937.524 171.936L938.068 171.158L939.26 169.936L940.97 169.163L941.838 168.495L942.441 169.083L942.571 168.286L943.034 167.827L943.538 167.578L944.745 167.573L945.398 167.448L945.866 167.184L946.35 167.134L947.677 167.498L948.968 167.393L950.011 166.894L951.097 166.725L953.965 166.615L956.812 166.251L957.954 165.603L960.348 163.778L961.724 163.269L959.579 165.388L958.423 166.356ZM934.936 174.878L934.268 174.952L934.936 173.192L936.163 172.385L936.607 172.554L936.622 173.177L936.452 173.706L935.629 174.529L934.936 174.878ZM935.704 190.226L934.063 192.964L934.029 192.44L936.078 189.04L935.704 190.226ZM918.91 222.275L918.271 222.564L920.406 219.024L921.647 216.047L922.201 215.014L921.662 217.099L920.724 219.014L918.91 222.275ZM914.676 257.679L914.466 258.028L913.534 256.128L914.491 256.742L914.661 257.255L914.676 257.679ZM915.957 268.226L914.083 268.689L913.918 268.54L916.067 267.567L916.745 264.137L916.84 262.551L916.521 259.749L916.531 259.17L916.88 260.073L917.189 262.686L917.074 264.66L916.451 267.538L915.957 268.226ZM912.631 269.078L910.088 270.295L909.799 270.22L911.47 269.353L912.631 269.078ZM902.529 278.373L902.18 278.568L903.461 276.453L905.99 273.766L906.672 273.352L904.568 275.646L902.529 278.373ZM901.935 278.174L901.621 278.214L901.073 278.029L900.315 277.67L900.145 277.406L900.868 277.501L901.935 278.174ZM295.458 287.883L298.305 288.745L299.841 288.331L300.12 288.745L299.941 289.109L296.48 289.758L295.418 289.304L295.323 288.68L294.964 288.082L295.458 287.883ZM289.524 288.8L288.781 288.845L287.634 288.665L288.038 288.272L288.671 287.987L288.876 288.202L289.524 288.8ZM293.204 290.585L292.222 290.82L291.479 290.6L290.292 288.995L292.81 288.78L293.897 289.478L294.042 289.673L293.204 290.585ZM316.935 299.506L317.643 300.733L316.626 300.583L315.564 300.653L315.24 299.985L314.925 299.052L314.711 298.818L313.983 298.733L313.928 298.648L313.843 298.195L314.048 297.98L316.332 299.017L316.935 299.506ZM301.676 302.314L301.053 302.344L300.195 302.189L299.756 301.291L300.459 301.232L301.108 301.356L301.621 302.059L301.676 302.314ZM316.9 308.786L316.082 308.936L315.18 308.597L314.402 306.996L313.544 305.744L314.008 305.385L314.701 306.592L316.441 308.427L316.9 308.786ZM833.739 339.234L833.116 343.188L832.847 341.787L832.822 340.431L833.291 339.623L833.739 339.234ZM740.641 350.873L739.409 351.217L737.584 351.182L737.215 351.062L737.943 350.833L740.107 350.523L740.641 350.873ZM733.834 351.461L733.655 351.64L732.413 351.306L731.66 350.992L731.525 350.678L733.605 351.242L733.834 351.461ZM724.509 353.58L724.559 354.328L723.871 353.954L722.854 353.919L723.303 353.665L723.617 353.416L723.776 353.146L725.058 352.214L724.694 352.897L724.509 353.58ZM730.059 358.023L729.665 358.537L730.054 356.088L729.511 354.024L730.084 354.932L730.274 356.009L730.059 358.023ZM729.197 359.549L728.439 360.387L728.474 360.068L729.032 359.23L729.431 358.901L729.197 359.549ZM784.916 360.671L783.51 361.25L781.989 360.831L782.932 360.751L783.615 360.92L785.345 360.093L786.253 359.469L787.3 359.235L784.916 360.671ZM688.551 362.94L688.033 363.169L685.719 361.783L685.575 361.19L686.716 360.651L687.415 360.701L688.517 361.409L688.921 361.603L689.11 361.888L689.005 362.332L688.551 362.94ZM643.124 368.61L642.426 368.764L645.478 366.311L646.116 365.493L646.934 365.528L645.573 366.899L643.124 368.61ZM618.984 384.367L618.471 384.432L619.109 383.579L620.146 383.15L622.42 381.51L623.348 381.395L623.831 380.832L624.041 380.747L623.906 381.44L622.081 382.427L618.984 384.367ZM615.489 388.326L615.185 388.366L615.863 387.075L615.987 386.556L617.099 384.921L617.688 384.676L617.932 385.374L616.79 386.521L615.489 388.326ZM850.983 398.115L851.212 399.267L849.926 396.589L848.335 392.385L847.487 389.129L848.061 390.012L848.624 391.832L850.983 398.115ZM610.742 397.776L610.303 398.678L610.422 397.337L611.559 394.28L613.868 390.256L614.841 389.583L612.178 393.996L610.742 397.776ZM613.3 415.553L613.105 416.276L611.948 412.91L610.063 405.271L609.994 400.902L610.293 399.396L610.777 405.57L612.861 413.374L613.3 415.553ZM824.439 409.449L824.42 410.362L823.711 408.831L823.243 407.136L823.916 407.684L824.439 409.449ZM825.088 410.985L824.589 411.394L823.577 411.095L823.028 410.561L822.789 409.519L823.667 410.626L823.981 410.875L825.088 410.985ZM848.255 431.26L845.473 434.148L845.782 433.425L846.869 431.879L847.218 431.151L847.951 430.692L848.634 429.859L848.684 428.882L849.676 428.199L850 428.099L848.255 431.26ZM844.665 434.931L844.291 435.005L844.844 434.352L844.999 434.402L844.665 434.931ZM841.992 436.456H841.728L841.857 436.237L842.411 435.803L842.61 435.973L842.591 436.192L841.992 436.456ZM838.985 437.788L838.347 438.152L837.684 437.883L838.412 437.518L840.581 437.13L839.763 437.613L838.985 437.788ZM834.921 438.805L834.502 439.119L834.303 439.02V438.561L833.704 437.543L833.724 437.279L835.091 438.271L835.126 438.541L834.921 438.805ZM831.675 439.578L830.767 439.728L831.5 439.124L831.735 438.207L832.164 438.92L832.159 439.354L831.675 439.578ZM828.633 440.426L828.279 440.461L828.249 440.226L828.863 439.937L829.271 439.957L829.256 440.276L828.633 440.426Z" fill="#2E62FF"/>
<path d="M499 171.8V195.2H495V171.8H499ZM504.2 185.2H497.8V181.8H504C505.2 181.8 506 181.6 506.6 181C507.2 180.4 507.4 179.6 507.4 178.6C507.4 177.6 507 176.8 506.4 176.2C505.8 175.6 504.8 175.4 503.8 175.4H497.6V171.8H504.2C506.6 171.8 508.4 172.4 509.6 173.4C510.8 174.4 511.6 176 511.6 178C511.6 179.4 511.2 180.6 510.6 181.6C510 182.6 509 183.2 507.6 183.6V183.2C509 183.6 510.2 184.2 510.8 185.2C511.4 186.2 512 187.4 512 188.8C512 190.2 511.8 191.2 511.2 192.2C510.6 193.2 509.8 193.8 508.6 194.4C507.4 194.8 506.2 195.2 504.6 195.2H497.8V191.6H504.4C505.6 191.6 506.4 191.4 507 190.8C507.6 190.2 508 189.4 508 188.4C508 187.4 507.6 186.6 507 186.2C506.2 185.6 505.2 185.2 504.2 185.2ZM519.8 171.8V195.2H515.8V171.8H519.8ZM525 185.2H518.6V181.8H524.8C526 181.8 526.8 181.6 527.4 181C528 180.4 528.2 179.6 528.2 178.6C528.2 177.6 527.8 176.8 527.2 176.2C526.6 175.6 525.6 175.4 524.6 175.4H518.4V171.8H525C527.4 171.8 529.2 172.4 530.4 173.4C531.8 174.6 532.4 176 532.4 178C532.4 179.4 532 180.6 531.4 181.6C530.8 182.6 529.8 183.2 528.4 183.6V183.2C529.8 183.6 531 184.2 531.6 185.2C532.4 186.2 532.8 187.4 532.8 188.8C532.8 190.2 532.6 191.2 532 192.2C531.4 193.2 530.6 193.8 529.4 194.4C528.2 194.8 527 195.2 525.4 195.2H518.6V191.6H525.2C526.4 191.6 527.2 191.4 527.8 190.8C528.4 190.2 528.8 189.4 528.8 188.4C528.8 187.4 528.4 186.6 527.8 186.2C527 185.6 526.2 185.2 525 185.2ZM535.2 178.4C535.2 177 535.6 175.8 536.2 174.8C537 173.8 537.8 173 539.2 172.4C540.4 171.8 542 171.6 543.6 171.6C545.2 171.6 546.6 171.8 547.6 172.4C548.8 173 549.6 173.8 550.4 174.8C551 175.8 551.4 177 551.4 178.4H547.4C547.4 177.4 547 176.6 546.4 176C545.8 175.4 544.8 175.2 543.6 175.2C542.4 175.2 541.4 175.4 540.6 176C539.8 176.6 539.4 177.4 539.4 178.4C539.4 179.2 539.6 179.8 540 180.4C540.4 180.8 541.2 181.2 542.2 181.4L545.8 182.2C547.8 182.6 549.2 183.4 550.2 184.4C551.2 185.4 551.6 186.8 551.6 188.6C551.6 190 551.2 191.2 550.6 192.4C549.8 193.4 548.8 194.4 547.6 195C546.4 195.6 544.8 195.8 543 195.8C541.4 195.8 540 195.6 538.6 195C537.4 194.4 536.4 193.6 535.6 192.6C535 191.6 534.6 190.4 534.6 189H538.6C538.6 190 539 190.8 539.8 191.4C540.6 192 541.6 192.2 543 192.2C544.4 192.2 545.4 192 546.2 191.4C547 190.8 547.4 190 547.4 189.2C547.4 188.4 547.2 187.8 546.8 187.2C546.4 186.8 545.6 186.4 544.8 186.2L541 185.4C539 185 537.6 184.2 536.4 183C535.6 181.6 535.2 180.2 535.2 178.4ZM555.4 186.6V171.8H559.4V186.4C559.4 188 559.8 189.4 560.8 190.2C561.6 191 563 191.6 564.6 191.6C566.2 191.6 567.6 191.2 568.4 190.2C569.2 189.2 569.8 188 569.8 186.4V171.8H573.8V186.6C573.8 188.4 573.4 190 572.6 191.4C571.8 192.8 570.8 193.8 569.4 194.6C568 195.4 566.4 195.6 564.4 195.6C562.6 195.6 560.8 195.2 559.6 194.6C558.2 193.8 557.2 192.8 556.4 191.4C555.6 190 555.4 188.4 555.4 186.6ZM583 195.2H579V171.8H588C590.6 171.8 592.8 172.4 594.2 173.8C595.6 175 596.4 176.8 596.4 179.2C596.4 180.8 596 182 595.4 183.2C594.6 184.2 593.6 185.2 592.2 185.6L596.6 195.2H592L588 186.4H583V195.2ZM583 175.4V182.8H587.8C589.2 182.8 590.2 182.4 590.8 181.8C591.6 181.2 591.8 180.2 591.8 179C591.8 177.8 591.4 177 590.8 176.4C590 175.8 589 175.4 587.8 175.4H583Z" fill="white"/>
<path fill-rule="evenodd" clip-rule="evenodd" d="M440.999 173.8C440.599 174 440.399 174.4 440.399 174.8L442.799 182.8C442.999 183.2 443.399 183.4 443.799 183.4L465.199 176.8C465.599 176.6 465.799 176.2 465.799 175.8L463.399 167.8C463.199 167.4 462.799 167.2 462.399 167.2L440.999 173.8ZM461.399 179.6C461.599 179.2 462.199 179.2 462.599 179.4L480.999 192C481.399 192.2 481.399 192.8 481.199 193.2L476.399 200.2C476.199 200.6 475.599 200.6 475.199 200.4L456.799 187.8C456.399 187.6 456.399 187 456.599 186.6L461.399 179.6ZM438.199 191.8C438.199 191.4 438.599 191 438.999 191H461.399C461.799 191 462.199 191.4 462.199 191.8V200.2C462.199 200.6 461.799 201 461.399 201H438.999C438.599 201 438.199 200.6 438.199 200.2V191.8Z" fill="white"/>
<path d="M175.632 222.798V217.549L175.155 217.387L173.849 217.293L173.544 217.618L173.109 217.499L172.37 216.387L171.289 215.375L167.55 213.56L166.768 212.286L164.981 210.554L161.788 209.033L161.425 209.419L160.922 209.524L159.611 209.305L158.486 209.296L156.501 210.179L154.295 210.458L153.03 211.505L149.413 211.016L149.166 210.552L147.896 210.238L145.501 208.221L144.035 208.293L142.638 207.737L139.739 207.633L137.749 208.03L133.732 207.16L133.199 206.734L132.705 205.558L131.644 205.329L130.996 204.582L130.332 204.558L129.567 205.338L128.892 205.285L127.584 203.443L126.606 203.277L123.95 201.855L123.068 202.032L122.232 201.626L120.194 201.686L118.429 202.929L117.672 203.106L116.86 202.925L115.983 202.054L115.238 201.682L113.26 202.534L112.328 202.779L111.725 203.396L107.222 202.77L108.004 201.655L108.126 201.15L108.32 200.731L105.793 200.796L105.29 200.576L105.187 199.694L104.379 199.587L103.933 198.956L104.14 197.442L105.419 195.968L104.998 195.271L103.804 194.616L102.681 194.427L101.968 194.71L99.167 193.622L97.5115 194.42L96.2392 194.373L94.8823 194.685L93.151 196.145L91.9189 195.432L90.6266 195.246L89.4613 194.358L89.8289 193.714L90.1587 192.57L89.2585 191.383L88.4698 190.712L87.075 190.398L86.6828 190.728L86.1592 192.031L84.4948 194.358L83.6904 195.069L82.6633 195.504L82.0305 195.363L81.6027 194.205L80.9476 193.714L83.0866 192.408L84.1494 191.129L84.4948 189.974L84.0804 188.772L83.0443 188.662L78.9245 186.645L78.3162 185.663L78.7574 184.922L79.3924 184.575L78.9245 184.357L76.9682 186.104L75.7784 187.847L74.3903 190.513L73.5815 191.553L71.8235 193.453L69.9229 195.015L69.3659 195.297L66.3267 195.378L66.1618 195.78L65.4733 196.184L63.1271 196.134L62.6347 196.7L61.534 197.15L61.202 197.072L60.9792 196.522L61.4649 195.899L61.9596 195.553L61.9061 195.022L61.6566 194.694L61.1396 194.66L58.8491 196.419L56.3425 199.313L57.0911 199.329L58.4392 201.289L60.6873 201.401L58.8313 202.294L58.0069 201.92L57.8331 202.75L57.7395 203.948L57.7529 205.163L57.6883 206.009L57.4254 205.027L56.2534 204.993L56.8126 202.851L56.1821 202.38L57.0778 200.576L56.5631 200.246L56.1152 200.141L52.8822 202.873L52.7976 203.358L50.6185 205.527L46.5989 206.835L45.7901 207.539L44.3574 208.12L43.8784 208.181L44.0745 207.907L44.89 207.373L45.4737 206.574L45.8324 206.404L45.7144 206.036L45.5116 205.803L45.0838 205.02L44.4777 205.843L43.8962 206.969L42.1494 209.437L38.3861 215.595L37.5015 218.267L37.2675 221.077L37.0782 222.266L36.9177 222.401L36.8041 222.186L36.5211 223.027L34.7386 226.14L32.6598 228.494L30.8951 229.819L29.9437 230.25L26.2718 230.845L25.307 231.195L22.3948 231.455L18.021 231.145L18.1904 232.682L17.5598 236.558L16.9493 239.1L16.5327 239.697L15.7617 240.195L15.2782 239.977L15.9155 239.113L15.3027 239.394L14.4115 240.219L15.7372 240.89L16.7711 241.099L17.8539 241.61L19.5807 243.679L23.168 245.538L31.0533 252.854L32.1941 254.98L33.0876 258.359L33.5822 259.583L34.7631 261.089L38.0786 262.305L39.5803 262.157L40.6944 262.446L41.7795 261.066L41.7661 261.771L41.8909 262.423L44.5557 261.946L46.0909 262.412L46.7014 263.076L46.0196 263.985L45.0972 265.887L45.2353 267.538L46.336 268.409L47.0178 269.263L48.1029 269.891L50.2709 268.292L51.4429 268.005L52.8198 269.05L54.589 268.931L55.2039 269.566L55.4245 270.576L55.3978 271.966L52.7797 272.707L51.942 272.529L50.2931 271.116L49.6203 270.784L48.4928 270.766L46.8975 271.347L44.9055 269.768L44.0232 268.061L44.2304 266.201L43.5197 265.925L42.7554 264.05L42.0803 263.588L41.3495 263.852L40.5429 264.438L40.9417 265.865L41.4185 266.973L42.3544 267.004L43.1453 267.65L45.0437 270.818L44.8588 272.097L45.4136 272.74L47.1871 272.173L49.8386 273.315L50.1572 273.936L50.3778 275.587L49.9099 274.795L49.3351 275.109L48.4349 274.676L47.7442 274.142L47.1092 274.625L45.4849 277.687L44.7518 277.853L42.996 277.418L40.6654 277.732L39.8232 277.593L38.7938 276.982L37.0113 277.353L33.736 277.222L31.6193 275.174L32.0493 274.522L32.4927 274.057L32.437 272.624L33.1188 270.827L33.2324 270.219L32.8403 269.737L32.4927 269.51L32.9806 269.389L34.0925 269.528L33.5332 268.866L31.4655 268.958L28.95 269.31L27.6153 269.84L25.1778 271.688L24.3378 271.655L22.7669 272.126L20.7238 273.55L20.5009 274.028L20.3227 274.705L22.074 275.921L21.8868 276.262L21.6373 276.478L21.0513 276.767L19.2688 276.63L18.9658 276.538L17.9832 275.868L16.8312 276.271L15.9467 276.951L14.6477 277.707L13.7297 279.14L13.0858 279.977L12.6045 280.406L10.5346 280.679L9.44055 282.229L7.35057 283.407L7.27036 282.9L7.24808 282.384L6.75343 282.828L6.26102 283.766L6.59301 284.713L6.89158 285.137L10.539 287.344L15.1579 288.609L15.5077 288.392L18.0834 289.103L18.3352 289.399L18.558 289.776L17.5687 289.581L16.4948 289.978L15.9979 291.366L14.5496 291.663L13.9592 291.476L13.6495 291.23L13.5113 291.331L14.1463 292.241L15.8731 294.372L16.7198 294.765L16.7621 296.239L16.3277 296.674L16.3076 297.699L17.2835 299.204L18.4243 299.835L22.7803 300.858L24.7054 301.553L25.7036 301.721L26.1982 301.62L26.4634 301.336L26.6372 300.88L27.0427 300.613L27.2767 300.705L27.4995 300.939L29.9237 299.819L33.6179 299.756L35.0372 300.319L36.4075 301.41L37.174 302.159L37.4235 301.36L37.7533 300.759L36.989 300.566L36.5256 300.122L36.1847 299.498L36.8041 298.821L38.8517 300.808L39.2862 302.881L39.8878 302.834L40.358 301.766L42.2407 299.397L43.2567 298.44L45.1573 297.488L45.8391 296.403L46.6234 296.753L47.6729 296.717L49.4197 294.803L49.774 294.783L50.1929 295.101L50.7922 296.055L51.2958 296.705L51.4896 297.295L51.6144 298.379L51.2535 299.393L51.0151 299.889L50.2842 300.541L49.3818 300.806L47.996 300.66L47.5214 302.013L48.1787 301.923L49.2125 302.556L50.6675 304.665L51.1889 307.837L51.5855 309.216L51.9731 310.872L51.6723 312.146L51.0462 313.122L49.9634 314.573L48.9229 315.432L47.4256 315.838L44.4956 316.054L43.9809 315.796L43.6288 314.91L43.1231 314.816L42.5638 314.982L42.0825 316.061L40.4449 318.681L39.2818 319.506L38.4061 320.783L37.6909 321.272L36.2805 321.734L35.8371 321.743L35.436 321.204L34.928 320.908L34.0212 321.59L33.4664 322.151L33.3973 321.958L33.5421 321.716L33.9298 321.404L34.1148 321.124L34.2239 320.641L33.4731 319.699L32.1807 318.941L31.1514 318.739L29.2664 319.39L28.9277 319.807L28.5422 320.608L29.4803 321.631L29.4246 321.958L29.1483 321.819L27.5886 322.097L27.0472 322.788L26.8243 323.515L26.5391 325.128L26.7063 326.828L26.8689 327.566L27.5173 326.833L28.1389 326.386L28.0966 326.698L27.524 327.771L26.5458 328.143L26.8466 329.09L27.085 329.292L26.9513 329.505L26.2473 329.009L25.5721 328.787L24.848 329.074L24.3556 329.606L22.7736 331.907L21.1493 334.651L20.9198 335.842L21.0357 336.542L21.1582 336.968L21.7398 337.744L20.3583 338.177L19.3735 338.213L18.8276 338.628L19.1953 339.357L20.5143 340.05L20.3539 340.272L18.6895 340.726L18.4979 340.564L18.2661 340.652L18.2951 341.468L18.3619 342.036L18.7296 342.552L19.5584 341.971L20.2848 342.163L20.5856 342.758L19.9038 343.909L20.1689 344.802L21.2474 345.27L21.6462 347.029L22.0317 347.848L22.5664 347.944L23.1903 347.796L23.1992 346.982L23.119 346.415L23.4844 345.712L23.8587 345.598L24.0436 345.679L23.6248 346.217L23.4109 346.607L23.8231 346.989L24.2977 347.209L24.6341 346.765L24.7745 346.69L24.7121 347.503L25.0909 347.969L25.9398 347.7L26.3921 347.74L26.3498 348.066L25.5721 348.626L24.4737 349.638L24.8525 350.062L25.1599 350.219L27.1095 350.08L29.0614 350.874L31.8554 350.942L33.3906 349.584L33.9543 349.993L34.4044 350.448L33.9766 350.775L32.838 350.737L32.4058 351.081L34.1794 351.487L34.8745 351.798L35.4427 352.321L34.7698 353.515L33.5109 354.47L32.9405 353.467L32.4793 352.48L32.2209 352.312L31.8242 352.213L30.9954 353.171L29.8836 354.259L29.4914 354.448L29.81 353.746L30.1576 352.743L29.8279 352.144L29.5048 351.825L28.6113 351.527L27.5507 350.85L26.782 350.585L26.1893 350.829L25.463 352.545L23.3507 355.094L24.1595 355.318L24.8547 355.287L25.3983 355.612L25.258 356.076L25.18 356.734L26.0646 357.548L26.8132 358.071L27.6755 358.113L28.8742 360.069L30.9932 362.023L30.933 362.591L30.9219 363.246L32.3969 364.372L33.814 364.437L36.6972 363.885L38.8317 362.918L39.7408 362.028L40.7523 362.077L40.9729 361.465L41.1935 360.354L41.0286 359.437L40.8972 359.033L40.0393 358.553L40.5719 358.199L41.3918 356.956L42.6641 354.396L43.0718 353.896L43.4573 353.239L43.894 353.12L44.558 353.113L44.6538 353.248L43.4506 354.152L42.5192 356.164L41.6837 358.362L42.8022 359.699L43.455 362.198L44.89 365.525L45.389 367.086L45.3712 368.006L45.1172 369.074L44.8186 369.85L44.1725 370.855L44.4376 372.547L45.0014 373.404L45.6052 372.995L46.5432 372.993L45.6408 374.133L45.6319 374.943L45.6921 375.582L46.0441 376.836L45.2175 377.771L44.2661 378.159L43.4149 378.653L45.8503 379.041L48.3146 378.346L48.5218 377.448L48.7736 377.24L49.0298 376.773L49.2236 376.755L51.0462 375.887L51.7169 375.896L52.7196 374.882L53.5752 374.245L54.5555 373.709L55.195 374.68L55.8724 375.479L57.3251 376.524L57.8754 376.329L58.4436 375.62L58.8892 375.416L60.2395 376.852L60.8411 377.72L62.5634 380.753L63.39 381.536L64.4038 381.098L64.5063 380.145L63.9493 377.749L64.0964 376.838L64.4863 375.519L64.2746 374.651L64.5799 374.94L65.0946 375.194L65.6805 374.483L66.1195 373.444L66.6921 373.235L67.9555 373.877L68.8311 374.61L68.1515 374.579L67.3672 374.22L66.6721 374.341L66.3557 375.084L66.1863 376.156L66.5852 376.977L66.8971 377.426L67.4408 378.682L68.1382 379.014L69.1943 378.702L71.4224 377.392L74.6978 375.824L75.814 374.469L76.7788 372.692L76.0636 374.776L75.3305 377.1L75.5266 377.444L75.7427 377.538L74.1541 378.693L72.7036 380.356L72.3114 381.338L72.307 382.184L72.532 383.346L73.1247 383.572L73.4634 383.575L74.3747 384.055L72.8172 384.317L72.1154 384.701L71.7655 385.762L71.7009 387.606L71.3088 389.391L71.2263 390.15L71.3288 390.637L71.7856 391.065L72.0106 391.776L72.2491 391.949L72.6211 392.041L72.6969 392.182L72.2379 392.447L71.5494 392.279L71.3712 392.092L71.2263 391.792L70.9768 391.689L70.2972 391.924L69.9942 392.119L69.0472 393.311L68.4969 393.813L67.9287 394.091L67.3249 394.612L66.369 395.758L65.6694 396.743L65.1993 397.606L65.0968 398.091L65.05 398.703L65.0745 399.354L65.1681 400.043L65.1101 400.422L64.8985 400.494L64.4395 400.411L63.7354 400.173L63.5906 399.816V399.417L63.1383 399.67L62.0844 400.702L61.309 401.635L58.1696 403.085L56.5363 404.502L55.8924 404.964L54.9365 405.898L54.4642 406.719L53.9428 407.892L53.6064 408.776L53.4548 409.37L53.5261 409.835L53.8247 410.167L54.8964 410.961L55.1348 411.322L54.9989 411.625L54.6513 411.683L54.0921 411.495L53.7111 411.259L53.5083 410.974L53.0738 410.853L52.4076 410.898L52.0823 411.075L52.1625 412.006L52.0556 412.172L51.8038 412.197L51.5008 412.002L50.536 410.712L50.5182 410.436L51.1799 410.104L51.3337 409.776L51.2044 409.516L50.7655 409.785L49.6626 409.992L49.3662 409.958L49.1791 409.698L49.4554 409.281L49.2236 409.202L46.2112 410.483L44.7162 411.414L43.337 412.583L42.136 413.971L41.1111 415.577L40.1998 416.674L39.4043 417.269L38.9609 417.753L38.8696 418.133L38.6512 418.386L38.3036 418.516L38.0162 418.483L37.7845 418.287L37.3522 418.406L36.3251 419.2L36.1713 419.485L36.1557 419.894L36.2827 420.427L36.2159 421.091L35.9552 421.888L35.9708 422.294L36.2627 422.312L36.6882 422.031L37.2475 421.45L37.4413 420.827L37.2675 420.156L37.3188 419.829L38.0942 420.028L38.9119 421.035L39.1949 421.085L40.1039 420.573L40.4493 420.116L40.4783 419.752L40.2911 418.142L40.378 417.825L40.9328 417.87L41.2247 418.247L41.6525 418.942L41.7416 419.364L41.4921 419.519L41.4609 419.685L41.6458 419.862L41.9065 419.963L42.2407 419.986L42.6061 419.732L43.0005 419.205L43.2812 418.958L43.8606 419.007L44.4466 418.355L45.9394 416.23L46.0731 415.903L46.3026 414.691L46.4853 414.319L46.8329 413.991L47.3431 413.709L47.7063 413.588L48.3413 413.776L48.9808 414.146L49.2326 414.359L49.3128 414.539L48.6176 414.371L48.2455 414.397L47.9915 414.622L47.8021 414.875L47.5971 415.411L47.5726 416.154L47.6773 416.322L48.1898 416.446L49.4643 416.253L49.9545 416.067L50.4246 415.683L50.8747 415.1L51.2223 414.871L52.0088 415.205L52.2873 415.026L52.5614 414.572L52.9223 414.44L53.3724 414.626L53.7111 414.606L53.9406 414.377L54.2859 413.754L54.4998 413.518L55.3086 413.235L56.5475 412.094L57.0689 411.737L57.3741 411.766L57.6192 411.676L58.0203 411.313L58.2631 411.219L58.4414 411.19L58.8447 411.403L58.9271 411.735L58.8959 413.406L58.9628 413.619L59.2725 413.321L59.5376 412.85L59.7025 412.255L59.8161 411.569L60.391 411.196L64.3905 409.581L64.923 408.949L65.4109 407.692L65.6338 407.356L65.8655 407.374L65.939 407.555L66.0593 408.619L66.1774 408.735L66.3557 408.585L66.632 408.179L67.6079 407.223L67.5098 407.138L67.3494 406.568L67.1801 406.272L66.9172 406.032L66.4091 405.844L65.9769 405.963L65.8789 405.907L65.9724 405.649L66.7411 404.509L67.1288 404.309L68.1493 404.029L68.5548 403.769L68.889 403.663L69.4461 403.672L69.7714 403.549L69.7781 403.421L69.4684 403.291L68.8422 403.19L69.1586 402.732L70.1524 402.124L70.7673 402.05L71.3734 402.259L71.7745 402.324L71.9705 402.248L72.2802 401.806L72.5253 400.814L72.8328 400.464L73.147 400.24L73.5012 400.171L73.8956 400.256L74.3011 400.213L74.7178 400.047L75.1723 399.661L75.6603 399.056L76.068 398.719L76.3911 398.656L76.6897 398.412L76.966 397.988L77.3871 397.867L77.9085 397.936L78.1402 397.299L78.7061 397.014L78.871 396.835L79.3367 395.679L79.3545 395.264L79.0671 394.648L78.8799 394.45L78.851 394.251L79.1161 393.876L80.3282 392.835L80.8674 392.669L81.2818 392.884L81.498 392.855L81.6116 391.933L81.8433 391.716L83.0086 391.552L83.2315 391.444L83.5389 390.76L84.165 390.215L84.37 389.885L84.4057 389.504L84.7845 389.205L85.5086 388.99L86.1414 388.635L87.1752 387.754L87.476 387.382L88.0531 386.166L90.6912 385.695L90.709 385.051L90.7803 384.952L91.7897 384.604L92.5829 384.611L92.8035 384.461L92.8792 383.563L93.0486 382.915L92.5873 382.859L92.5428 382.729L93.8128 381.993L94.0022 381.618L93.9599 381.082L94.2272 380.468L95.2143 379.326L95.4661 379.131L96.2348 378.861L96.7428 378.518L97.868 377.307L98.3337 376.49L98.5119 376.057L98.5587 375.737L98.4852 375.443L97.9883 374.817L96.4999 373.857L95.6777 373.5L94.9803 373.377L93.541 372.865L93.2379 372.428L93.4875 371.385L93.9331 370.202L93.8017 369.87L95.5173 368.506L95.9028 368.06L96.1412 367.62L96.716 366.961L96.7963 366.757L96.413 366.51L96.5267 366.36L97.5895 365.438L98.015 365.2L98.3158 365.328L98.3582 365.483L98.2089 366.108L98.3314 366.2L99.1291 366.061L100.02 365.586L100.303 365.325L100.45 364.527L100.355 364.32L99.2851 363.917L99.441 363.739L99.9424 363.511L101.5 363.224L102.108 362.939L102.73 361.981L102.928 361.429L102.919 360.891L102.703 360.368L102.155 359.708L101.275 358.914L100.41 358.295L100.45 358.214L101.085 358.25L101.87 358.829L102.311 358.957L102.77 358.939L103.476 358.598L104.552 357.698L105.036 357.128L105.23 356.767L104.951 356.211L104.942 355.966L105.167 355.253L106.885 353.279L107.698 352.613L108.204 352.534L108.423 352.346L108.209 351.339L108.227 351.018L108.525 350.336L109.403 349.445L110.236 348.999L111.35 348.638L112.175 348.068L112.707 347.287L113.454 346.603L115.539 345.257L115.82 345.183L116.032 345.268L116.415 345.795L118.685 345.692L119.519 345.544L119.71 345.349L120.158 344.317L120.47 343.788L121.272 343.034L121.709 342.834L122.91 342.639L123.563 342.684L121.894 343.738L121.011 344.445L120.434 345.176L120.105 345.748L120.022 346.168L119.826 346.408L119.251 346.657L119.035 346.957L119.57 347.601L121.916 349.264L122.752 349.64L124.732 350.017L125.176 350.666L125.151 350.782L124.541 350.731L121.667 349.804L120.267 349.67L119.385 350.022L118.663 350.051L118.102 349.762L117.609 349.373L117.186 348.889L116.611 348.878L114.496 350.286L113.407 351.238L111.105 352.503L110.887 352.759L110.896 353.568L111.13 354.928L111.161 356.04L110.64 358.481L110.292 359.39L109.289 360.787L108.523 362.093L108.218 362.936L107.781 364.677L108.008 365.44L108.34 365.7L109.911 366.308L110.301 366.319L110.591 366.173L112.556 364.587L112.756 364.679L112.823 364.81L111.93 366.481L111.475 367.127L110.615 367.986L109.909 368.403L108.784 368.657L107.801 369.348L107.585 369.594L107.291 370.133L107.088 370.842L107.179 371.088L107.464 371.154L108.501 372.028L109.243 372.044L110.132 371.512L110.825 371.329L111.319 371.492L111.727 371.528L112.05 371.436L112.097 371.189L111.869 370.788L111.972 370.651L112.716 370.927L113.36 371.351L113.525 371.288L113.746 370.629L114.035 370.146L115.131 369.096L115.472 368.446L115.484 367.759L115.57 367.407L115.731 367.394L116.078 367.73L116.332 367.755L117.253 367.185L117.513 367.161L117.75 367.313L118.126 367.367L119.574 365.832L119.614 365.545L119.265 364.749L119.331 364.655L119.583 364.682L120.606 365.236L120.724 365.081L120.59 364.051L120.646 363.762L121.152 362.963L121.335 363.268L121.68 364.653L121.785 364.877L121.878 364.83L122.183 363.282L122.743 362.38L122.914 361.943L123.023 360.693L123.146 360.624L123.71 361.783L123.948 361.976L124.855 361.532L125.176 361.952L125.588 362.207L126.597 362.568L127.172 362.611L127.843 362.497L128.277 362.331L128.476 362.113L128.703 362.093L128.959 362.272L129.175 362.091L129.786 360.417L130.047 360.121L130.336 360.105L130.532 360.011L130.632 359.841L130.501 358.578L130.519 357.876L130.597 357.344L130.735 356.985L131.063 356.716L131.582 356.536L131.925 356.236L132.094 355.814L131.969 355.323L131.553 354.762L131.125 354.661L130.686 355.02L130.018 355.21L129.12 355.237L128.436 355.43L127.965 355.791L127.867 355.753L128.139 355.316L128.683 354.786L128.946 354.699L129.755 354.728L129.964 354.555L130.093 354.223L130.267 353.378L130.196 353.064L129.737 352.747L129.378 352.622L128.387 351.736L128.393 351.424L128.926 351.314L129.411 351.361L129.717 351.081L130.038 349.966L130.566 348.797L130.459 348.613L130.073 348.714L129.396 349.091L129.302 349.035L129.44 348.705L129.732 348.4L130.182 348.122L130.566 348.036L130.882 348.149L131.562 348.108L131.956 347.799L132.841 346.758L133.284 346.347L133.422 346.332L132.052 348.934L131.84 349.589L131.929 349.851L132.553 350.605L133.075 350.663L134.024 350.352L134.226 350.046L134.418 349.445L134.576 349.246L134.853 349.564L135.414 349.824L135.681 350.242L135.864 350.289L136.116 350.147L136.339 349.871L136.53 349.463L136.905 349.223L137.462 349.149L137.91 349.232L138.248 349.47L138.912 349.118L139.901 348.176L140.735 347.52L141.976 347.417L142.598 347.718L140.632 348.487L140.401 349.279L140.385 350.511L140.603 350.852L141.051 351.267L141.927 351.628L141.278 352.326L140.96 352.476L140.811 352.68L141.232 353.046L142.205 352.566L142.807 352.424L143.237 352.608L143.331 352.855L143.335 353.153L143.444 353.559L146.41 353.683L146.314 354.057L145.88 354.825L145.561 355.302L145.008 355.897L145.329 356.011L146.138 356.032L147.109 356.375L148.244 357.039L149.079 357.144L149.614 356.696L150.031 356.209L150.73 355.145L151.485 354.327L152.352 353.533L152.559 353.452L151.962 354.535L151.726 355.188L151.49 356.137L151.247 357.716L151.552 358.225L152.247 358.508L152.684 358.804L152.862 359.116L153.569 359.363L154.803 359.542L155.723 360.051L156.329 360.891L156.356 361.16L155.877 361.377L155.964 361.747L157.013 361.842L158.103 361.79L159.972 361.261L163.477 360.733L165.959 360.87L168.74 361.532L171.454 362.331L172.33 362.017L172.849 361.707L173.083 361.42L173.005 360.875L173.007 360.581L173.089 360.469L173.379 360.626L173.584 360.908L173.831 361.898L173.802 362.201L173.092 363.17L173.568 363.533L176.625 365.094L177.844 365.415L179.275 365.57L180.545 365.373L182.418 364.386L182.837 364.071L184.328 362.284L184.907 361.734L185.455 361.795L185.636 361.936L186.636 363.293L188.227 364.015L187.851 364.101L187.033 363.957L186.77 364.206L186.614 364.677L186.532 365.162L186.489 366.167L186.422 366.692L186.356 366.808L186.148 365.218L186.182 363.854L186.079 363.49L185.355 362.49L185.128 362.402L184.945 362.53L184.684 362.784L184.591 363.046L184.504 363.45L184.497 363.854L184.644 364.581L184.974 365.377L184.927 365.729L184.312 366.822L183.922 367.113L183.348 367.369L183.14 367.616L183.303 367.851L183.671 368.141L184.531 368.655L186.006 369.727L188.86 371.434L189.985 372.04L191.171 372.307L191.133 372.473L190.885 372.755L191.03 372.928L191.567 372.989L192.184 373.269L192.884 373.763L194.221 375.048L194.635 375.663L194.802 376.199L195.241 376.944L195.952 377.895L196.509 378.464L196.91 378.653L197.113 378.875L197.162 379.308L197.242 379.413L200.194 381.65L201.489 382.401L202.527 383.191L203.1 383.46L203.256 383.447L204.007 382.457L206.088 382.188L206.391 382.022L206.549 381.785L206.513 380.961L206.255 380.317L205.493 379.16L204.898 378.893L203.873 378.976L204.37 378.227L204.332 377.975L203.561 377.495L203.463 377.35L203.345 376.937L203.06 376.659L202.271 376.161L201.402 375.781L200.876 375.757L200.406 375.963L200.277 375.878L200.722 375.252L200.972 375.133L200.943 374.743L200.636 374.083L200.718 373.92L201.705 374.539L203.361 375.061L203.704 375.474L203.913 376.017L204.078 376.212L204.521 376.443L205.029 376.935L205.486 377.195L205.734 377.139L205.981 376.912L206.121 376.537L206.157 376.015L206.123 375.64L205.898 374.992L205.956 373.756L206.059 373.859L206.266 374.344L206.587 375.642L206.792 375.876L207.322 375.512L207.979 375.582L206.625 376.51L206.609 376.905L207.585 378.918L207.759 379.469L207.543 380.831L207.536 381.594L207.688 381.666L209.575 381.452L210.337 381.883L210.881 382.816L211.259 383.323L212.266 383.593L212.587 383.445L212.772 383.05L212.839 382.718L212.763 382.309L212.202 380.252L211.997 379.317L211.856 378.337L211.544 377.042L211.063 375.44L210.738 373.269L210.012 371.862L210.439 371.759L210.649 371.793L210.544 371.38L210.125 370.552L210.571 370.431L210.633 370.005L210.876 369.186L210.967 369.303L210.909 370.353L211.085 371.409L211.792 373.401L212.327 376.25L212.674 376.809L213.238 377.186L213.372 377.471L213.512 378.63L214.552 380.95L215.257 381.78L216.371 381.989L217.333 382.798L217.794 383.46L218.1 383.595L218.585 383.041L219.18 381.412L219.757 380.416L219.962 380.212L220.178 380.176L220.105 380.409L219.822 380.782L219.125 382.922L219.011 383.855L219.053 384.84L219.214 385.508L220.067 386.444L220.526 387.119L221.007 388.086L221.145 388.209L221.553 388.247L221.749 388.059L222.164 387.26L222.551 387.258L224.448 387.814L224.336 387.956L222.467 387.785L222.309 387.976L222.315 388.342L222.44 389.024L222.939 389.589L224.933 391.478L224.773 391.608L223.525 390.72L222.199 389.968L221.892 389.973L221.745 390.186L221.609 390.589L222.295 391.621L222.935 394.158L222.752 396.072L226.206 397.514L226.763 397.42L226.827 397.595L226.673 398.524L226.729 398.865L226.903 399.273L227.531 400.112L227.921 400.408L228.875 400.752L228.946 402.089L229.205 402.266L229.684 402.36L229.815 402.62L229.844 403.136L230.013 403.569L230.323 403.919L230.784 404.697L231.09 404.933L231.787 405.157L232.159 405.797L232.377 406.371L232.622 406.725L232.897 406.86L234.728 407.118L233.561 407.632L232.899 407.643L231.885 410.229L231.355 411.243L230.934 411.901L230.624 412.206L230.526 412.567L230.951 413.92L231.179 414.249L232.028 414.635L232.266 414.422L232.738 413.388L232.963 412.41L233.153 412.062L233.18 411.874L233.01 411.286L233.077 411.075L233.273 410.826L234.204 410.203L236.379 409.307L237.972 408.453L237.714 408.944L237.299 409.471L237.38 409.891L238.322 411.551L238.687 412.399L238.93 413.781L238.968 414.456L238.928 415.472L239.077 416.627L239.209 416.881L239.752 417.036L239.739 417.269L238.277 417.852L237.89 418.561L237.879 418.801L238.304 419.86L238.585 421.074L239.115 422.633L240.577 422.814L240.831 423.048L241.343 422.345L242.473 421.125L243.088 420.25L243.061 419.873L243.353 419.032L244.198 417.26L244.182 416.755L244.055 415.995L243.674 414.752L243.549 414.079L243.511 413.307L243.571 412.585L243.727 411.91L243.961 411.282L244.271 410.698L244.34 409.998L244.284 409.281L244.077 408.711L243.814 408.215L243.084 408.513L241.842 408.067L241.441 406.849L240.367 406.474L239.788 405.599L238.609 405.171L237.654 404.872L236.925 404.368L236.072 403.776L235.22 403.143L234.574 402.663L234.098 402.694L233.017 402.764L232.963 401.68L232.631 401.025L232.756 400.444L232.155 400.146L231.268 399.708L231.526 398.596L231.722 397.752L230.938 397.503L229.806 397.142L230.172 396.379L230.468 395.762L230.033 394.858L229.153 393.34L228.478 392.252L227.596 390.549L226.82 389.048L226.185 387.819L225.657 386.967L224.913 385.439L223.944 383.709L223.024 382.345L223.157 381.459L222.248 380.347L221.451 379.218L220.533 377.915L219.626 377.275L218.977 376.818L218.044 376.158L217.554 375.566L217.349 375.064L217.137 374.711L216.952 374.218L216.845 373.644L216.654 373.289L215.522 372.432L215.176 371.894L214.394 371.27L213.739 371.01L213.51 370.799L212.712 368.91L212.841 368.235L212.93 367.558L212.841 367.21L211.529 365.763L210.86 365.162L210.185 364.538L208.768 365.343L207.318 366.167L206.302 366.47L204.898 366.887L205.364 367.78L205.172 368.432L204.735 368.733L203.993 368.695L203.991 370.905L203.292 372.473L201.825 372.5L201.037 373.038L199.867 373.834L198.92 374.478L197.913 375.514L197.398 375.366L197.628 374.442L197.256 372.874L196.946 371.564L196.3 370.889L195.212 369.751L194.397 368.895L193.232 367.67L192.416 366.811L191.567 365.913L190.451 364.729L189.992 363.19L188.971 362.631L187.88 362.035L186.993 360.897L187.294 359.773L187.655 358.423V357.606L186.681 357.656L185.221 357.732L183.92 357.799L182.955 358.757L182.064 359.641L180.667 358.952L179.067 358.163L178.613 359.192L177.129 358.676L175.632 358.156V354.432V350.675V346.883V343.054V339.191V335.29V331.353V327.376V323.358V319.3V315.201V311.063V306.879V302.65V298.377V294.056V289.688V285.271V280.805V276.287V271.717V267.092V262.412V257.677V252.883V248.028V243.113V238.133V233.088V227.978V222.798Z" fill="#2E62FF"/>
<path d="M18.3864 275.078L18.6271 274.99L19.6765 274.199L20.3784 273.588L20.4274 273.418L19.1128 274.205L18.3998 274.84L18.3864 275.078Z" fill="#2E62FF"/>
<path d="M131.515 351.534L132.306 351.428L132.23 350.791L132.096 350.47L131.637 350.161L131.239 350.264L131.25 350.54L131.1 351.193L131.152 351.37L131.515 351.534Z" fill="#2E62FF"/>
<path d="M106.428 357.42L106.729 357.373L106.943 357.218L107.565 355.96L107.489 355.735L107.112 355.565L106.832 356.792L106.428 357.42Z" fill="#2E62FF"/>
<path d="M134.006 356.579L134.008 356.245L133.819 355.72L133.727 355.778L133.513 356.281L133.371 356.39L133.284 356.312L133.253 356.043L133.157 356.121L132.887 357.25L132.861 357.505L132.778 357.882L132.549 358.163L132.676 359.047L133.088 359.035L132.985 359.39L133.023 359.612L133.199 359.704L133.373 359.549L133.547 359.145L133.672 358.504L133.997 357.492L133.81 356.902L134.006 356.579Z" fill="#2E62FF"/>
<path d="M142.056 356.606L141.916 356.256L140.882 355.859L140.597 356.02L140.193 356.469L139.991 356.776V356.942L140.115 357.386L140.318 357.705L140.519 358.49L140.661 358.557L141.762 357.84L143.117 357.292L143.58 356.98L143.743 356.745L143.605 356.583L143.259 356.521L142.056 356.606Z" fill="#2E62FF"/>
<path d="M149.69 357.997L149.89 357.687L149.988 357.037L149.828 356.873L148.852 357.689L149.144 357.887L149.69 357.997Z" fill="#2E62FF"/>
<path d="M19.0415 357.727L18.4667 357.097L18.157 356.924L17.7693 356.996L17.0384 357.33L16.6864 357.115L16.341 357.102L15.5701 357.662L14.7457 357.947L14.4115 358.199L14.0862 359.206L11.4882 358.997L10.9089 359.112L10.334 359.338L11.2164 360.74L12.1923 361.839L13.1548 362.149L15.3896 363.645L17.1699 364.024L17.6779 364.269L18.1414 364.783L18.3842 364.904L18.6471 364.762L18.4934 364.208L18.6895 363.834L19.6476 363.327L20.7572 363.286L21.8668 363.037L21.7843 362.288L21.6239 361.59L21.1137 361.074L21.1471 360.682L21.1003 359.769L21.2563 359.121L21.2162 358.394L21.0045 357.979L20.6636 357.707L20.3093 357.573L19.3468 357.763L19.0415 357.727Z" fill="#2E62FF"/>
<path d="M132.834 364.469L133.525 364.287L133.943 364.06L134.093 363.784L134.36 363.634L134.748 363.609L135.004 363.324L135.129 362.779L135.327 362.447L135.601 362.326L135.773 362.059L135.96 361.294L136.134 361L138.208 358.739L138.389 358.302L138.001 357.75L137.375 357.357L136.994 357.42L136.842 358.017L136.022 359.612L135.214 360.727L134.333 361.487L133.54 362.53L133.324 362.654L133.034 363.176L132.671 364.098L132.834 364.469Z" fill="#2E62FF"/>
<path d="M131.408 361.51L131.735 361.124L132.406 360.783L131.372 360.036L130.428 360.516L130.171 361.276L131.408 361.51Z" fill="#2E62FF"/>
<path d="M153.047 364.296L153.348 364.224L154.362 362.941L155.327 362.174L155.409 361.759L154.669 361.996L154.101 362.566L153.497 363.475L153.047 364.296Z" fill="#2E62FF"/>
<path d="M50.6296 379.653L51.0886 379.46L52.3653 376.822L52.0311 376.894L50.6697 377.533L50.0547 378.323L49.7606 378.361L50.1439 379.557L50.6296 379.653Z" fill="#2E62FF"/>
<path d="M103.637 380.645L103.822 380.569L104.405 379.893L104.595 379.532L104.628 379.243L104.559 379.048L104.385 378.949L103.962 378.96L103.077 379.588L102.879 379.887L103.18 380.277L103.637 380.645Z" fill="#2E62FF"/>
<path d="M104.479 382.161L104.252 382.065L103.864 381.589L103.456 381.248L103.026 381.037L102.636 380.979L101.596 381.39L101.578 381.639L102.048 382.238L102.028 383.038L101.761 383.074L101.255 382.857L100.749 382.819L99.8755 383.519L98.2156 385.32L98.6902 385.607L100.709 386.39L101.048 386.43L101.596 386.193L101.965 386.168L102.077 385.984L102.583 385.605L102.861 385.147L103.115 384.425L103.282 384.358L103.365 384.948L103.494 385.156L104.033 384.82L104.474 384.88L104.924 384.766L104.949 384.526L104.777 384.14L104.768 383.882L105.181 383.362L105.285 383.368L105.461 383.81L105.693 384.16L105.825 384.236L106.177 384.441L106.428 384.241L106.97 383.449L107.021 382.666L106.874 382.615L106.631 382.704L106.368 382.637L106.076 381.894L105.622 382.029L104.882 381.426L104.715 381.448L104.479 382.161Z" fill="#2E62FF"/>
<path d="M216.752 384.708L215.163 384.436L214.831 383.685L214.18 382.549L213.639 382.137L213.579 382.444L213.739 383.236L213.973 383.961L214.285 384.618L214.526 385.439L214.697 386.421L215.067 389.481L215.288 390.632L215.695 391.455L216.371 392.46L216.355 393.183L215.814 395.377L215.539 395.798L215.58 396.465L215.716 396.996L215.945 397.393L216.188 397.566L216.694 397.4L217.79 396.361L218.79 394.582L219.882 394.156L219.971 393.972L219.987 393.784L219.581 392.819L219.911 392.346L219.811 391.296L219.659 390.915L218.893 389.762L217.745 387.729L217.536 386.796L217.496 385.955L217.587 385.831L217.852 385.78L218.086 385.912L218.289 386.231L218.305 386.574L218.761 387.79L218.995 388.259L219.218 388.483L219.443 388.979L219.884 390.246L220.497 390.87L220.524 390.74L220.232 389.813L220.014 388.851L219.63 387.853L218.977 386.424L217.915 384.647L216.752 384.708Z" fill="#2E62FF"/>
<path d="M217.416 383.931L217.46 383.635L216.921 382.94L216.163 382.397L215.363 382.637L215.279 382.895L215.702 383.467L216.562 383.902L217.416 383.931Z" fill="#2E62FF"/>
<path d="M209.49 384.613L208.597 383.451L208.233 383.162L207.641 383.418L207.231 383.911L206.937 384.021L206.311 384.001L206.01 384.528L206.001 385.188L205.364 384.485L204.887 383.754L204.59 384.658L204.06 385.075L203.697 385.219L203.617 385.757L203.345 386.688L204.025 387.859L204.535 388.25L206.422 390.199L206.923 391.837L207.46 392.869L208.828 393.18L209.292 392.474L209.274 391.11L209.35 390.48L209.628 390.296L210.045 390.343L211.781 391.384L212.627 392.117L213.588 392.467L213.953 391.202L213.806 390.511L213.294 389.614L211.6 389.517L211.043 389.093L211.714 388.537L212.13 388.77L212.52 388.799L213.345 388.521L213.612 386.919L213.445 386.177L213.149 385.753L212.144 385.221L210.994 384.885L210.818 384.909L210.528 385.143L209.586 386.258L209.327 386.455L208.967 386.217L208.828 385.901L209.314 385.677L209.497 384.88L209.49 384.613Z" fill="#2E62FF"/>
<path d="M101.288 389.089L101.244 388.44L101.544 387.577L100.963 387.112L99.6037 386.688L99.1937 386.859L99.5502 387.415L99.5101 387.792L99.3475 387.976L99.3519 388.487L99.245 388.772L99.0266 388.835L98.3715 388.667L98.1643 388.741L97.9616 388.968L97.7655 389.344L97.5538 389.533H97.3243L97.048 389.178L96.4598 388.039L96.2548 387.88L95.7958 387.772L95.5641 387.835L95.3413 387.978L94.9469 388.485L94.938 388.828L95.1051 389.223L95.5485 389.724L96.2704 390.327L96.2882 390.594L95.6042 390.524L95.3613 390.65L95.4861 391.123L95.6153 392.905L95.8716 393.795L96.3038 394.513L95.8849 394.277L95.5663 393.896L95.0895 392.954L94.6795 391.888L94.3008 391.583L94.2517 391.458L94.3832 391.22L94.1648 390.711L93.6234 390.471L93.229 390.457L92.5896 390.625L91.93 391.184L91.0031 391.547L90.1409 392.873L89.898 393.804L89.9359 394.165L90.7915 395.668L91.2326 397.629L92.2331 398.964L92.721 399.069L93.053 398.47L93.2001 397.992L93.1577 397.636L93.0441 397.322L92.8569 397.05L92.6675 396.904L91.9701 396.938L91.9969 396.817L92.3244 396.53L92.8302 396.4L93.512 396.426L93.9465 396.509L94.1359 396.646L94.196 396.801L93.8529 397.348L93.7125 397.808L93.8328 397.822L94.3609 397.476L95.1073 398.012L95.5797 398.078L95.6488 398.172L93.9131 400.114L93.9175 400.301L94.0378 400.485L94.1849 400.606L94.5258 400.651L95.8716 399.684L96.5846 398.506L96.6581 398.241L96.6492 397.934L96.5645 397.712L96.0253 397.449L96.9277 397.156L97.3288 396.864L97.4602 396.46L97.8323 396.121L98.8929 395.435L100.285 395.305L100.669 394.789L101.364 394.338L101.925 394.34L102.393 394.219L102.612 394.055L102.527 393.654L102.358 393.288L101.97 392.792L100.874 392.712L100.62 392.611L100.974 392.27L101.154 392.151L101.66 392.214L102.912 392.577L104.281 392.777L104.477 392.714L104.753 392.456L105.506 391.345L105.51 391.103L105.377 390.901L104.283 390.536L103.837 389.863L103.819 389.497L104.234 388.934L104.281 388.656L104.176 388.422L103.659 388.117L103.006 388.149L102.505 388.344L101.542 389.01L101.288 389.089Z" fill="#2E62FF"/>
<path d="M98.9263 388.461L99.1024 388.133L98.7926 387.568L98.4361 387.155L97.5984 386.702L97.3533 386.884L97.3733 387.047L97.6986 387.431L98.4116 387.992L98.7615 388.375L98.9263 388.461Z" fill="#2E62FF"/>
<path d="M213.884 395.258L213.354 393.981L212.754 393.221L212.344 393.046L210.996 391.859L210.355 391.846L210.114 392.054L209.599 393.127L209.53 393.53L209.256 393.945L208.904 394.199L208.24 394.378L208.017 394.807L208.026 395.388L208.36 396.893L208.271 397.389L208.08 397.943L209.02 397.663L209.35 397.227L210.018 395.231L210.312 395.166L210.811 395.872L211.023 397.111L211.487 397.488L211.839 397.532L211.912 397.737L211.19 398.838L211.045 399.273L211.032 399.769L211.094 400.101L211.38 400.348L212.142 400.074L212.244 400.323L212.166 401.207L212.554 401.465L213.051 401.954L213.614 401.875L213.891 401.736L213.942 401.835L213.579 402.454L213.369 402.685L213.271 403.058L213.282 403.567L213.472 404.273L214.111 405.788L214.37 406.266L214.722 406.725L215.15 407.004L215.326 406.876L215.475 406.028L215.466 404.518L215.308 403.522L215.341 403.147L215.513 402.889L215.6 402.607L215.537 401.294L215.453 400.792L215.185 399.872L214.613 397.429L214.269 396.245L213.884 395.258Z" fill="#2E62FF"/>
<path d="M99.7663 396.985L100.562 396.613L101.027 396.561L101.188 396.44L101.183 396.294L101.014 396.121L98.8261 395.915L98.3938 396.53L98.2668 397.454L98.7615 398.048L99.1358 397.723L99.626 396.969L99.7663 396.985Z" fill="#2E62FF"/>
<path d="M223.797 398.376L223.38 398.015L221.248 397.331L220.259 397.261L219.655 397.553L219.548 397.943L219.936 398.432L220.526 398.923L220.936 399.473L221.415 400.381L221.37 401.384L221.558 402.685L221.613 403.592L221.725 403.964L221.903 404.193L222.645 404.334L223.28 404.083L224.345 404.188L224.543 404.083L224.684 403.843L224.768 403.466L224.771 403.026L224.693 402.521L224.557 402.138L224.251 401.629L224.173 401.211L223.739 400.516L223.594 400.146L223.616 400.011L224.147 400.404L224.844 401.694L225.452 402.407L225.644 402.373L225.82 402.104L225.925 401.763L225.958 401.351L225.9 400.554L225.98 399.776L225.958 399.432L225.695 398.856L225.23 398.351L224.445 398.015L224.024 397.997L223.797 398.376Z" fill="#2E62FF"/>
<path d="M219.889 400.633L219.483 399.839L219.414 399.558L219.093 399.224L218.521 398.831L217.701 398.993L217.081 399.908L216.977 400.931L217.015 401.223L217.678 402.445L217.605 402.867L218.478 403.625L218.893 404.276L218.198 404.763L217.888 407.145L218.236 408.569L218.654 408.565L218.998 407.939L219.269 408.096L219.457 408.298L219.601 408.222L219.733 408L219.802 407.255L220.138 406.142L220.227 405.047L220.145 403.946L220.323 402.845L220.613 402.512L220.874 402.64L221.056 402.066L220.807 401.169L220.477 400.568L219.889 400.633Z" fill="#2E62FF"/>
<path d="M227.186 403.657L227.253 403.491L227.455 403.3L227.957 403.177L228.371 402.921L228.18 402.237L227.821 401.676L226.656 400.415L226.48 401.541L226.255 402.216L226.07 402.566L225.996 403.017L226.103 403.504L226.39 403.641L227.186 403.657Z" fill="#2E62FF"/>
<path d="M92.7411 403.639L93.0486 403.614L93.4184 403.446L93.6301 403.282L93.6836 403.125L93.7148 402.851L93.6657 402.609L92.9995 402.542L92.34 402.977L92.2776 403.338L92.7411 403.639Z" fill="#2E62FF"/>
<path d="M89.6551 404.783L90.0829 404.514L91.1569 403.54L91.5713 402.95L91.4555 402.665L91.1168 402.638L90.4528 403.085L89.7933 403.758L89.595 404.112L89.4947 404.466L89.5148 404.688L89.6551 404.783Z" fill="#2E62FF"/>
<path d="M231.092 410.075L231.221 408.206L231.511 406.687L230.642 405.059L229.949 403.928L229.552 403.798L228.763 405.655L228.556 405.781L228.184 406.716L227.705 406.918L227.556 407.205L227.603 407.973L227.799 408.558L228.155 408.691L229.104 408.803L229.385 409.112L229.294 409.669L229.381 409.909L229.619 410.115L230.127 410.232L230.608 409.967L230.844 409.969L231.092 410.075Z" fill="#2E62FF"/>
<path d="M226.727 406.687L227.048 406.651L227.738 406.198L227.881 405.904L227.812 405.608L227.841 405.326L227.97 405.054L227.99 404.785L227.901 404.52L227.509 404.37L226.283 404.309L226.074 404.446L225.564 405.012L225.435 405.321L225.45 405.593L226.348 406.515L226.727 406.687Z" fill="#2E62FF"/>
<path d="M223.316 405.853L222.13 405.611L221.928 405.88L221.954 407.008L222.268 407.459L222.351 407.807L221.923 408.392L220.947 409.451L221.027 409.839L221.393 410.086L222.304 409.451L223.351 409.038L223.864 409.231L224.095 409.924L224.162 410.33L223.743 410.716L223.659 411.183L223.1 411.701L222.879 411.715L222.315 411.324L222.021 411.273L221.52 411.638L221.422 411.847L221.669 412.253L222.215 412.897L222.531 412.845L223.367 412.921L223.53 413.345L223.808 413.834L224.149 413.962L225.114 413.772L225.466 414.025L225.185 414.633L225.158 414.974L225.931 416.176L225.856 416.392L225.486 416.376L225.029 416.567L224.933 416.928L225.296 417.222L226.223 418.46L227.039 419.999L227.527 420.201L227.66 419.721L227.542 419.099L227.77 418.92L228.039 419.039L228.01 419.322L228.251 419.956L228.218 420.575L228.496 421.047L228.888 421.071L229 421.208L229.615 421.381L229.795 421.545L230.263 422.689L230.744 423.425L231.087 423.667L231.522 423.66L231.791 423.516L232.048 422.662L232.036 422.334L231.945 421.966L231.95 421.607L232.065 421.183L232.068 420.863L231.925 420.158L232.074 418.238L231.894 417.996L230.887 418.135L230.633 418.065L230.582 417.928L230.735 417.727L230.936 417.233L230.925 416.977L230.582 416.309L230.227 416.141L229.314 415.207L228.229 415.414L227.981 415.317L228.291 414.99L228.5 414.534L228.623 414.014L228.734 413.976L230.08 414.936L230.702 415.25L230.849 415.234L230.586 414.81L230.123 414.375L229.24 412.939L228.821 411.699L228.59 411.203L228.191 410.615L227.19 409.494L225.069 408.424L225.04 408.314L225.172 407.986L225.201 407.681L225.161 407.248L225.018 406.786L224.773 406.295L224.401 405.828L223.316 405.853Z" fill="#2E62FF"/>
<path d="M238.088 416.356L238.306 415.14L238.391 414.261L238.387 413.132L238.188 412.484L237.42 411.042L236.698 410.007L236.491 409.936L234.267 411.322L234.126 414.066L233.427 414.981L232.885 415.943L232.91 416.58L233.104 418.076L233.407 418.707L233.65 418.128L234.164 417.24L234.911 416.773L235.207 416.416L235.374 416.026L235.532 416.473L235.354 417.049L235.544 417.495L235.88 417.605L236.196 417.576L236.537 418.115L237.001 418.263L237.658 417.596L238.088 416.356Z" fill="#2E62FF"/>
<path d="M84.3165 411.795L84.5594 411.443L84.575 410.71L84.5171 410.324L84.3856 410.288L84.2185 410.413L83.4877 411.347L83.5768 411.656L83.842 411.771L84.3165 411.795Z" fill="#2E62FF"/>
<path d="M223.902 414.846L223.763 414.534L223.512 414.366L222.83 414.774L222.13 414.721L221.709 414.586L221.065 415.055L221.705 415.981L221.609 417.572L222.253 417.042L222.589 416.551L222.779 416.385L222.99 415.932L223.006 415.779L223.911 415.044L223.902 414.846Z" fill="#2E62FF"/>
<path d="M52.646 417.076L52.5502 417.069L52.6705 416.576L52.6327 416.356L52.4856 416.145L52.3096 416.075L51.9018 416.313L51.5855 416.84L51.5409 417.105L51.6723 418.619L51.8617 418.936L52.1403 418.651L52.4455 418.579L53.0248 418.783L53.7846 418.5L53.8158 418.361L53.5128 417.969L53.1875 417.148L53.3791 416.533L53.3769 416.342L53.2432 416.369L52.8377 416.991L52.646 417.076Z" fill="#2E62FF"/>
<path d="M54.687 417.686L54.7739 416.816L54.5689 416.6L53.7512 416.652L53.5974 416.856L53.8269 417.132L54.687 417.686Z" fill="#2E62FF"/>
<path d="M226.685 421.832L226.531 421.684L226.012 420.495L225.784 420.163L225.7 419.313L225.254 418.702L225.065 418.18L223.819 416.946L222.99 417.188L222.834 417.668L223.059 418.216L223.641 418.494L224.102 418.608L224.392 419.604L224.904 420.86L225.167 421.083L225.201 421.39L225.617 422.117L226.364 423.122L226.878 423.705L227.513 423.976L227.696 423.519L227.881 423.193L227.961 422.274L228.066 421.708L227.868 421.547L227.542 421.417L227.095 421.34L226.841 421.729L226.685 421.832Z" fill="#2E62FF"/>
<path d="M57.2471 419.357L57.6281 419.117L57.744 418.94L57.8376 418.525L57.4699 418.097L57.6393 417.63L57.5368 417.527L57.3296 417.587L56.9463 418.357L56.5898 418.413L56.1932 419.059L55.9971 419.209L55.7587 419.178L55.8813 419.905L55.8746 420.109L55.8122 420.414L55.4156 421.374L55.7743 421.168L56.5943 420.042L56.8371 419.793L57.1268 419.663L57.2471 419.357Z" fill="#2E62FF"/>
<path d="M236.691 421.085L236.052 419.656L235.648 418.189L234.973 417.643L234.643 417.628L234.561 417.796L234.565 418.323L234.701 419.021L234.456 419.535L234.474 420.248L234.799 419.999L235.165 420.145L235.481 420.569L235.325 421.291L235.39 421.524L235.637 421.688L236.116 421.76L236.724 421.585L236.691 421.085Z" fill="#2E62FF"/>
<path d="M59.8317 419.739L59.8652 418.864L59.6758 418.047L59.4908 418.139L59.3616 418.532L59.4084 418.716L59.346 419.151L59.0853 419.171L59.112 419.409L59.0296 419.714L59.2212 419.903L59.5733 419.642L59.7404 419.876L59.8317 419.739Z" fill="#2E62FF"/>
<path d="M60.6205 420.887L60.8232 420.831L60.8188 420.533L60.6495 420.08L60.2016 419.885L60.2216 420.147L60.4534 420.768L60.6205 420.887Z" fill="#2E62FF"/>
<path d="M35.7034 422.547L35.0974 420.742L34.879 420.376L34.6161 420.118L34.2752 419.974L33.0274 419.994L32.6464 420.104L30.9129 421.024L30.1086 421.628L29.1661 421.484L28.8274 421.554L28.5066 421.836L27.4037 423.893L27.1207 424.21L26.2695 424.806L26.1693 425.239V425.491L26.4055 426.392L26.6728 426.85L27.1719 426.976L28.1278 427.009L28.9232 426.762L29.2976 426.54L29.6541 426.166L30.3537 425.203L30.7503 424.86L31.363 424.665L34.4289 424.616L34.7542 424.477L35.8349 423.418L37.5527 424.142L37.5149 423.956L37.2297 423.55L36.9044 423.283L36.3563 423.09L35.9663 422.9L35.7034 422.547Z" fill="#2E62FF"/>
<path d="M42.3142 422.251L42.4635 422.202L42.6262 421.982L42.869 421.273L42.8401 421.026L42.6752 420.71L42.4925 420.717L41.6146 421.278L41.7282 421.668L41.8842 421.917L42.3142 422.251Z" fill="#2E62FF"/>
<path d="M40.3201 427.274L40.8615 427.038L40.5273 426.547L40.2933 426.381L39.1971 426.029L39.2528 426.572L39.7452 427.027L40.3201 427.274Z" fill="#2E62FF"/>
<path d="M21.7843 429.966L22.0584 429.885L22.6444 429.414L23.0165 429.244L22.8048 429.125L22.5174 428.977L22.23 428.416L22.1252 428.301L21.8757 428.364L21.4769 428.636L21.6863 429.385L21.7197 429.856L21.7843 429.966Z" fill="#2E62FF"/>
<path d="M20.0709 430.78L20.3071 430.592L20.9555 430.482L21.2362 430.28L21.1649 430.067L20.7884 429.721L19.9862 429.131L19.525 429.087L19.0571 429.3L18.7675 429.537L18.6538 429.798L18.6717 430.127L18.9591 430.767L19.0861 430.843L19.7389 430.715L19.8815 430.821L20.0709 430.78Z" fill="#2E62FF"/>
<path d="M15.7372 432.911L15.4676 432.404L15.3874 431.399L15.1 431.289L14.7212 431.33L14.0037 431.59L13.1949 431.749L12.8206 431.971L12.4931 432.362L12.3193 432.714L12.3015 433.028L12.3973 433.344L12.6112 433.663L12.8875 433.813L13.2284 433.797L13.7497 433.925L14.4516 434.195L14.6766 434.41L14.2867 434.701L14.2533 435.119L14.1931 435.168L14.0706 435.096L13.723 434.576L12.9632 434.562L12.7961 435.027L12.4842 435.224L12.2101 436.384L11.7845 436.716L10.412 437.324L9.7458 437.784L9.06622 437.858L8.6206 438.024L8.00341 438.52L8.1772 438.766L8.87461 439.19L9.12861 439.195L9.35588 439.056L9.79259 439.018L10.06 438.852L10.3808 438.497L10.6772 438.324L10.9534 438.336L11.1852 438.239L11.3701 438.028L12.1032 437.636L13.3108 437.218L13.9971 437.16L14.5006 436.916L14.9262 436.274L16.0536 435.502L16.5393 435.056L17.0986 434.825L17.3793 434.571L17.1966 434.356L16.9092 434.327L15.8798 434.533L15.9021 434.262L16.2586 433.634L17.3192 432.696L17.8718 432.068L17.2167 431.66L16.9872 431.359L16.8134 431.583L16.546 432.151L16.2029 432.591L15.7372 432.911Z" fill="#2E62FF"/>
<path d="M17.9141 434.327L18.0032 434.295L18.1681 433.941L18.4488 433.616L18.6739 433.133L18.6048 433.024L18.3486 433.098L18.1414 433.241L17.8495 433.649L17.747 433.824L17.7537 434.064L17.9141 434.327Z" fill="#2E62FF"/>
<path d="M5.118 439.415L7.03195 438.291L7.65137 437.847L7.78951 437.349L8.03237 436.819L7.88755 436.577L6.90272 436.047L6.3546 436.059L5.60595 436.31L5.01327 436.66L4.57879 437.109L4.33369 437.622L4.27799 438.201L4.32701 438.535L4.54091 438.728L4.43173 438.939L4.07969 439.219L3.233 439.128L2.81412 439.231L2.49549 439.529L2.05878 440.076L1.94515 440.352L1.91173 441.079L1.83152 441.438L1.57974 441.703L1.12297 442.416L0.717456 442.849L0.0980387 443.323L0 443.657L0.142598 443.637L2.17465 442.356L2.44202 442.288L3.0748 441.739L3.37783 441.53L3.64966 441.456L4.02176 441.025L4.49635 440.236L5.118 439.415Z" fill="#2E62FF"/>
</svg>
