<svg width="75" height="23" viewBox="0 0 75 23" fill="none" xmlns="http://www.w3.org/2000/svg">
<g clip-path="url(#clip0_16_972)">
<path d="M50.462 9.63953C50.4324 9.59854 50.4187 9.57804 50.3891 9.53705C50.3731 9.59854 50.3617 9.64408 50.3481 9.6919C50.2911 9.88091 50.2569 10.0813 50.168 10.2544C50.0289 10.5254 49.8579 10.7827 49.6892 11.0377C49.5684 11.2222 49.4476 11.4112 49.2971 11.5706C49.0395 11.8416 48.7705 12.108 48.481 12.3471C48.2485 12.5407 47.9955 12.7252 47.7242 12.8595C47.4028 13.0189 47.1019 13.2284 46.7371 13.3013C46.6003 13.3286 46.4681 13.3901 46.345 13.4562C46.0988 13.586 45.8321 13.611 45.5631 13.6429C45.5107 13.6497 45.4651 13.6998 45.4149 13.7226C45.3693 13.7431 45.3215 13.7659 45.2736 13.7681C45.0046 13.7864 44.7333 13.7932 44.4643 13.8137C44.3982 13.8182 44.3344 13.857 44.2705 13.8797C44.2044 13.9025 44.1383 13.9367 44.0722 13.9389C43.712 13.9549 43.3518 13.9685 42.9917 13.9708C41.4939 13.9731 39.9939 13.9708 38.4962 13.9708C38.462 13.9708 38.4301 13.9708 38.3959 13.9708C38.209 13.9799 38.1885 14.005 38.1885 14.1917C38.1885 16.1957 38.193 18.1996 38.1953 20.2059C38.1953 20.4564 38.1908 20.7069 38.1908 20.9573C38.1908 21.0917 38.3594 21.2466 38.4939 21.2466C39.5289 21.2466 40.5616 21.2466 41.5965 21.2466C41.6353 21.2466 41.674 21.2466 41.7105 21.2397C41.7926 21.2215 41.8291 21.2557 41.8291 21.3331C41.8291 21.8068 41.8359 22.2781 41.8245 22.7518C41.8199 22.9135 41.7493 22.959 41.5874 22.959C38.9225 22.9636 36.2553 22.9659 33.5905 22.9704C33.3283 22.9704 33.3032 22.9476 33.3032 22.6789C33.3032 22.2668 33.3078 21.8569 33.2987 21.4447C33.2964 21.3149 33.3443 21.2602 33.4674 21.2602C33.7705 21.2602 34.0737 21.2602 34.3769 21.2602C34.9081 21.2602 35.4392 21.2602 35.9704 21.2579C36.0274 21.2579 36.0912 21.2625 36.1391 21.2397C36.1847 21.2192 36.2417 21.1669 36.2439 21.1236C36.2599 20.9642 36.2576 20.8025 36.2576 20.6431C36.2576 14.5105 36.2576 8.38022 36.2553 2.24765C36.2553 1.83091 36.3374 1.84913 35.8473 1.84685C35.0563 1.84685 34.2629 1.85141 33.4719 1.85596C33.3625 1.85596 33.3055 1.82863 33.3055 1.70566C33.3101 1.26161 33.3032 0.817546 33.3055 0.373486C33.3055 0.138932 33.3306 0.118437 33.5699 0.11616C34.0008 0.111605 34.4339 0.11616 34.8648 0.11616C37.7212 0.11616 40.5753 0.109328 43.4316 0.125269C43.9104 0.127546 44.3914 0.214081 44.8678 0.289229C45.2736 0.352992 45.6794 0.434972 46.0715 0.55111C46.3997 0.649031 46.7098 0.80616 47.0243 0.940516C47.1543 0.99517 47.2888 1.04982 47.4096 1.12497C47.6672 1.28665 47.9202 1.45517 48.1687 1.63052C48.3762 1.77626 48.5836 1.92428 48.7705 2.09507C48.9712 2.27725 49.1604 2.47764 49.3336 2.68943C49.5342 2.93764 49.7098 3.20408 49.8967 3.46368C49.9104 3.4819 49.924 3.5024 49.9332 3.52289C50.0357 3.73467 50.1452 3.94418 50.2386 4.16052C50.2865 4.2721 50.3093 4.39279 50.3481 4.50893C50.3663 4.56359 50.3344 4.66378 50.4552 4.64784C50.462 4.64784 50.4825 4.70477 50.4871 4.73438C50.5099 4.86873 50.5099 5.0122 50.5578 5.13745C50.7242 5.58151 50.6695 6.05062 50.7265 6.50834C50.7288 6.52883 50.7356 6.54933 50.7652 6.56755V6.20774H50.7994C50.7994 6.57438 50.8131 6.93873 50.7949 7.30309C50.7743 7.68566 50.7356 8.06824 50.6832 8.44854C50.6284 8.84477 50.5464 9.23646 50.4734 9.65319L50.462 9.63953ZM44.1019 1.91062C44.1019 1.89695 44.1041 1.88329 44.1064 1.8719C43.8397 1.85596 43.5707 1.82636 43.304 1.82636C41.8108 1.82636 40.3154 1.83319 38.8222 1.83774C38.6512 1.83774 38.4803 1.83774 38.3093 1.84002C38.2227 1.84002 38.1702 1.8719 38.1748 1.97666C38.1816 2.16111 38.1748 2.34557 38.1748 2.53002C38.1748 4.79359 38.1725 7.05943 38.1702 9.32299C38.1702 10.2316 38.1702 11.1379 38.1611 12.0466C38.1611 12.1809 38.209 12.2356 38.3412 12.2333C38.5783 12.2333 38.8154 12.2401 39.0525 12.2401C40.2903 12.2401 41.5281 12.2424 42.766 12.2401C43.5456 12.2401 44.323 12.2652 45.0844 12.0124C45.4719 11.8826 45.8868 11.8439 46.2401 11.6116C46.3291 11.5547 46.4522 11.5456 46.5411 11.4886C46.7576 11.3452 46.9674 11.188 47.1725 11.0309C47.4803 10.7941 47.731 10.5026 47.9408 10.1747C48.0958 9.93101 48.2394 9.68962 48.3329 9.41408C48.4423 9.09071 48.5927 8.78101 48.6132 8.43032C48.6246 8.20943 48.6497 7.98626 48.7022 7.7722C48.7979 7.39646 48.7797 7.02299 48.7363 6.64725C48.7113 6.42863 48.6429 6.21458 48.6178 5.99596C48.5836 5.69992 48.554 5.40616 48.4263 5.13061C48.3374 4.93933 48.2759 4.73665 48.2006 4.53854C48.1915 4.51121 48.1801 4.48388 48.1619 4.46339C47.9408 4.22428 47.845 3.89636 47.5874 3.6823C47.4028 3.52745 47.2477 3.34299 47.0654 3.18586C46.9674 3.10161 46.842 3.05151 46.7325 2.97864C46.5069 2.83062 46.2949 2.6621 46.0601 2.53685C45.8845 2.44349 45.6794 2.4025 45.4856 2.33873C45.4149 2.31596 45.342 2.30002 45.2348 2.27269C45.3169 2.25903 45.3602 2.2522 45.4035 2.24765V2.21121C45.0525 2.14517 44.6991 2.06091 44.3435 2.01537C43.9879 1.96982 43.63 1.95844 43.2721 1.93111C43.2721 1.92656 43.2721 1.922 43.2721 1.91745H44.1064L44.1019 1.91062Z" fill="#1E1F24"/>
<path d="M60.6041 0.0979804C60.9004 0.0979804 61.1785 0.0979804 61.4589 0.0979804C62.5076 0.100258 63.5562 0.104812 64.6025 0.102535C64.7211 0.102535 64.7712 0.132139 64.769 0.259663C64.7644 0.462337 64.7826 0.66501 64.7826 0.867683C64.7826 7.55135 64.7826 14.2373 64.7826 20.921C64.7826 21.0007 64.7758 21.0826 64.7758 21.1623C64.7758 21.299 64.8533 21.3787 64.9878 21.3787C65.5577 21.3787 66.1253 21.3787 66.6952 21.3787C66.8708 21.3787 66.8959 21.3992 66.8959 21.5722C66.8959 21.9412 66.8867 22.3101 66.8845 22.6767C66.8845 22.7997 66.8525 22.8885 66.6793 22.8384C66.7135 22.8885 66.7294 22.9112 66.7522 22.9454H60.6451C60.5721 22.4717 60.62 22.0026 60.6063 21.5335C60.6018 21.4014 60.6747 21.3787 60.7864 21.3787C61.3449 21.381 61.9057 21.3718 62.4642 21.3855C62.6147 21.3901 62.7059 21.299 62.8199 21.2443C62.8518 21.2307 62.8609 21.1441 62.8609 21.0917C62.8655 20.7752 62.8655 20.4587 62.8655 20.1421C62.8655 14.071 62.8655 8.00224 62.8655 1.93115C62.8655 1.64194 62.8655 1.6465 62.5759 1.64877C61.9604 1.65333 61.3427 1.65333 60.7272 1.6556C60.6246 1.6556 60.5881 1.63283 60.5927 1.50758C60.6109 1.07263 60.6018 0.637683 60.6041 0.202733C60.6041 0.175406 60.6041 0.148079 60.6041 0.0957031V0.0979804Z" fill="#1E1F24"/>
<path d="M70.6983 1.65098H68.4665V0.111572H72.5949C72.5949 0.223156 72.5949 0.327909 72.5949 0.434939C72.5972 3.14939 72.6018 5.86157 72.6041 8.57603C72.6041 12.5293 72.6041 16.4803 72.6041 20.4336C72.6041 20.6317 72.6109 20.8298 72.6041 21.0302C72.5995 21.267 72.7089 21.3832 72.9528 21.3832C73.4179 21.3832 73.8829 21.3832 74.348 21.3832C74.5007 21.3832 74.6557 21.3832 74.8221 21.3832C74.829 21.4378 74.8404 21.497 74.8427 21.5562C74.8427 21.9479 74.8427 22.3419 74.8427 22.7336C74.8427 22.9385 74.8199 22.9567 74.6101 22.9567C72.6519 22.9567 70.6914 22.9567 68.7332 22.9567C68.6535 22.9567 68.5737 22.9385 68.4756 22.9248C68.4665 22.688 68.4551 22.458 68.4506 22.228C68.446 22.039 68.4483 21.85 68.446 21.661C68.4437 21.4446 68.487 21.3945 68.699 21.3923C69.2917 21.3877 69.8845 21.3854 70.4772 21.3832C70.6367 21.3832 70.7097 21.3194 70.7165 21.1509C70.7234 21.0142 70.7165 20.8776 70.7165 20.7387C70.7165 17.2773 70.7165 13.8182 70.7165 10.3568C70.7165 7.58543 70.7165 4.81632 70.7165 2.04494C70.7165 1.91969 70.7051 1.79217 70.7006 1.65098H70.6983Z" fill="#1E1F24"/>
<path d="M52.794 21.267C53.063 21.267 53.3206 21.267 53.576 21.267C54.0023 21.267 54.4285 21.2602 54.8571 21.267C55.0007 21.267 55.044 21.2192 55.044 21.078C55.0418 18.8554 55.044 16.6351 55.044 14.4125C55.044 12.5885 55.0395 10.7644 55.044 8.93809C55.044 8.79462 54.9916 8.77185 54.8731 8.77185C54.2371 8.77413 53.6033 8.77413 52.9673 8.77413C52.7735 8.77413 52.7735 8.77413 52.7758 8.58512C52.7804 8.18432 52.7895 7.78125 52.7872 7.38046C52.7872 7.23927 52.8419 7.20056 52.9696 7.20056C53.3389 7.20512 53.7082 7.20056 54.0798 7.20284C55.0007 7.20512 55.9194 7.20967 56.8404 7.21423C56.8723 7.21423 56.9042 7.21878 56.9453 7.22333C56.9475 7.26432 56.9521 7.30076 56.9521 7.3372C56.9521 11.8324 56.9521 16.3277 56.9521 20.8207C56.9521 20.8821 56.9521 20.9436 56.9498 21.0051C56.943 21.2624 56.943 21.2647 57.2074 21.2647C57.7865 21.2647 58.3655 21.2579 58.9422 21.2647C59.2386 21.267 59.2044 21.2419 59.2089 21.5403C59.2135 21.9092 59.2067 22.2781 59.2112 22.647C59.2112 22.7745 59.1725 22.8246 59.0402 22.8223C58.8168 22.8155 58.5957 22.8246 58.3723 22.8246C56.56 22.8246 54.75 22.8246 52.9377 22.8246C52.81 22.8246 52.769 22.7973 52.7735 22.6584C52.7895 22.2234 52.7849 21.7885 52.7895 21.3535C52.7895 21.3308 52.7918 21.308 52.7963 21.2624L52.794 21.267Z" fill="#1E1F24"/>
<path d="M27.5585 8.78787C27.5084 8.78332 27.4582 8.77649 27.4081 8.77649C26.788 8.77649 26.1657 8.77649 25.5456 8.77649C25.3222 8.77649 25.3222 8.77649 25.3176 8.55104C25.3131 8.15936 25.3131 7.76768 25.3017 7.37372C25.2971 7.25302 25.3473 7.21203 25.4567 7.21203C25.6231 7.21203 25.7895 7.2052 25.9537 7.2052C27.0205 7.2052 28.0874 7.2052 29.1543 7.2052C29.4529 7.2052 29.4529 7.20975 29.4529 7.50579C29.4529 11.1835 29.4529 14.8612 29.4529 18.5367C29.4529 19.3633 29.4529 20.19 29.4552 21.0189C29.4552 21.2375 29.4711 21.2625 29.6968 21.2648C30.2052 21.2694 30.7112 21.2671 31.2196 21.2694C31.329 21.2694 31.4385 21.2785 31.5456 21.2694C31.6596 21.2625 31.6938 21.3103 31.6938 21.4174C31.6892 21.8523 31.6892 22.2873 31.6915 22.7222C31.6915 22.8315 31.6277 22.8247 31.5502 22.8247C30.383 22.8247 29.2181 22.8247 28.0509 22.8247C27.2029 22.8247 26.3526 22.8202 25.5046 22.8247C25.3701 22.8247 25.3154 22.7997 25.3176 22.6471C25.3245 22.2372 25.3108 21.825 25.3017 21.4151C25.2994 21.3035 25.3404 21.2671 25.4499 21.2671C26.0904 21.2671 26.731 21.2625 27.3693 21.2671C27.5061 21.2671 27.5562 21.2375 27.554 21.0895C27.554 19.0377 27.5608 16.9882 27.5608 14.9364C27.5608 13.3901 27.5608 11.8462 27.5562 10.3C27.5562 9.85134 27.5471 9.40272 27.5426 8.95411C27.5426 8.90401 27.5494 8.85391 27.5517 8.78787H27.5585Z" fill="#1E1F24"/>
<path d="M19.3085 22.9044C19.3951 22.893 19.4817 22.8816 19.5683 22.8703L19.5729 22.8475C19.468 22.8361 19.3609 22.8156 19.256 22.8156C18.9095 22.8133 18.7066 22.5833 18.4992 22.3579C18.294 22.137 18.2393 21.8523 18.1801 21.5791C18.1504 21.4402 18.2234 21.2785 18.2507 21.1282C18.2553 21.1054 18.2758 21.0872 18.2804 21.0644C18.3396 20.7388 18.5539 20.5361 18.807 20.338C19.0782 20.1239 19.3609 20.0146 19.7006 20.0397C20.1497 20.0715 20.487 20.3015 20.7697 20.6363C20.8814 20.7684 20.9407 20.9141 20.9589 21.0826C20.9658 21.1373 20.968 21.2215 21.0752 21.1396C21.0706 21.3696 21.1459 21.595 20.9908 21.8022C20.9566 21.8478 20.9544 21.9184 20.9452 21.9799C20.9133 22.1757 20.7902 22.3192 20.6603 22.4535C20.5896 22.5264 20.4984 22.581 20.4255 22.6516C20.3024 22.7723 20.1474 22.7997 19.9855 22.827C19.8989 22.8406 19.7804 22.7997 19.7416 22.9363C19.737 22.95 19.6801 22.9545 19.6481 22.9545C19.5364 22.95 19.4247 22.9408 19.3108 22.934C19.3108 22.9249 19.3108 22.9158 19.3108 22.9044H19.3085Z" fill="#1E1F24"/>
<path d="M14.7607 22.9134C14.8313 22.8975 14.902 22.8816 14.9727 22.8656C14.9727 22.8565 14.9727 22.8497 14.9727 22.8406C14.8906 22.8292 14.8086 22.811 14.7288 22.8087C14.364 22.795 14.168 22.5514 13.9423 22.31C13.8055 22.162 13.7759 21.9934 13.7052 21.8386C13.5981 21.6086 13.5981 21.3444 13.7166 21.1008C13.728 21.0757 13.7508 21.0529 13.7576 21.0279C13.8351 20.7273 14.038 20.536 14.2728 20.3424C14.5669 20.1011 14.8838 20.0031 15.2417 20.051C15.4902 20.0851 15.7386 20.1489 15.9279 20.347C16.035 20.4586 16.1741 20.5451 16.2561 20.6704C16.3519 20.8138 16.3997 20.9892 16.4704 21.1509C16.4704 21.1509 16.4886 21.1304 16.5092 21.1076C16.5137 21.1235 16.5206 21.1349 16.5206 21.1463C16.5297 21.2647 16.5456 21.3809 16.5479 21.4993C16.5479 21.5722 16.5844 21.6496 16.4727 21.7088C16.418 21.7384 16.418 21.8796 16.4043 21.9729C16.3724 22.1779 16.2698 22.3373 16.1102 22.4648C16.0373 22.524 15.962 22.5787 15.8982 22.647C15.7523 22.7996 15.554 22.7996 15.3671 22.8428C15.2804 22.8633 15.2052 22.9362 15.1186 22.9476C15.0046 22.9613 14.8838 22.9385 14.7675 22.9317C14.7675 22.9248 14.7675 22.9203 14.7675 22.9134H14.7607Z" fill="#1E1F24"/>
<path d="M14.6261 11.1151C14.6261 11.1151 14.6101 11.0969 14.5942 11.0764C14.6147 11.0673 14.6284 11.0582 14.6421 11.0582C14.8814 11.0468 15.1208 11.0332 15.3624 11.0309C15.4513 11.0309 15.5539 11.0309 15.5949 11.147C15.6018 11.1675 15.6519 11.1789 15.6838 11.1857C15.9346 11.2358 16.0942 11.418 16.231 11.6047C16.3381 11.7505 16.3928 11.9349 16.4703 12.0989C16.4703 12.0989 16.4863 12.0784 16.5228 12.0306C16.5341 12.2697 16.5455 12.4838 16.5569 12.6978C16.5478 12.7001 16.5387 12.7046 16.5296 12.7069C16.5136 12.6864 16.4954 12.6682 16.468 12.6341C16.4452 12.7388 16.4293 12.8299 16.4065 12.921C16.3244 13.2466 16.1375 13.4721 15.8366 13.6474C15.4285 13.8843 15.0114 13.8592 14.5828 13.7863C14.5098 13.7749 14.4437 13.7089 14.3776 13.6634C14.2864 13.6019 14.1838 13.5472 14.1086 13.4675C13.9696 13.3218 13.8442 13.1738 13.7712 12.9688C13.7006 12.7707 13.6231 12.5817 13.6481 12.3699C13.68 12.108 13.7576 11.8575 13.9308 11.6503C14.0197 11.5433 14.1041 11.4248 14.2135 11.3429C14.3366 11.2495 14.4848 11.1903 14.6284 11.1129L14.6261 11.1151Z" fill="#1E1F24"/>
<path d="M21.082 16.6784C21.082 16.7831 21.0934 16.8879 21.0797 16.9881C21.0683 17.0769 21.0273 17.1634 21 17.25C20.9886 17.2864 20.9658 17.3183 20.9589 17.3547C20.8883 17.7988 20.5987 18.0698 20.218 18.2497C20.0972 18.3089 19.9399 18.2998 19.8009 18.3157C19.7188 18.3248 19.6367 18.3248 19.5524 18.3271C19.5524 18.3385 19.5524 18.3522 19.5524 18.3635L19.8077 18.3818C19.8077 18.3931 19.8054 18.4045 19.8031 18.4159C19.6208 18.3863 19.4179 18.5002 19.256 18.3112C19.2446 18.2998 19.2218 18.2952 19.2059 18.2884C19.0554 18.2292 18.8981 18.1791 18.7545 18.1062C18.6838 18.0698 18.6337 17.9924 18.579 17.9286C18.4513 17.7851 18.31 17.653 18.294 17.4413C18.2895 17.3798 18.2484 17.3206 18.2256 17.2568C18.2051 17.1999 18.1709 17.1429 18.1732 17.086C18.1914 16.5759 18.3465 16.1319 18.7887 15.8267C19.0075 15.6741 19.2264 15.5398 19.5068 15.5238C20.0311 15.4942 20.4232 15.7197 20.7515 16.1045C20.8723 16.2457 20.9521 16.396 20.9566 16.5873C20.9566 16.6192 21.0091 16.6488 21.0387 16.6807C21.0547 16.6784 21.0706 16.6761 21.0866 16.6738L21.082 16.6784Z" fill="#1E1F24"/>
<path d="M10.6915 22.8633C10.7485 22.8929 10.7712 22.9066 10.826 22.9339H10.2082C10.2082 22.9339 10.2082 22.9111 10.2082 22.8998C10.329 22.8884 10.4498 22.877 10.5729 22.8656C10.3016 22.7654 9.9825 22.8656 9.7363 22.6447C9.51745 22.4466 9.30089 22.2576 9.26669 21.9251C9.23022 21.957 9.21426 21.9706 9.18918 21.9934C9.10484 21.727 9.08204 21.4674 9.12991 21.2009C9.13903 21.1508 9.18007 21.1053 9.2097 21.0598C9.22566 21.0324 9.25757 21.0097 9.26441 20.9801C9.32596 20.7022 9.50605 20.5201 9.72262 20.347C10.0167 20.1124 10.3358 19.9986 10.6983 20.0464C11.1383 20.1056 11.4779 20.3288 11.7447 20.6954C11.9065 20.9186 11.8814 21.1804 11.9909 21.4104C12.025 21.4833 11.9726 21.5995 11.9544 21.6951C11.9453 21.7452 11.9088 21.793 11.9088 21.8431C11.9065 22.0549 11.7902 22.2371 11.6694 22.376C11.4893 22.5809 11.2933 22.8041 10.9741 22.8178C10.8921 22.8201 10.81 22.8451 10.6915 22.8656V22.8633Z" fill="#1E1F24"/>
<path d="M21.0706 12.1604C21.0752 12.2402 21.082 12.3199 21.082 12.4018C21.082 12.5134 21.0957 12.6273 21 12.7184C20.9703 12.7457 20.9612 12.8049 20.9589 12.8504C20.9452 13.167 20.7332 13.3788 20.5212 13.5473C20.3389 13.693 20.1269 13.8342 19.8465 13.816C19.6003 13.8001 19.3472 13.8798 19.1033 13.7887C19.0417 13.7659 18.9893 13.7181 18.9346 13.6816C18.9072 13.6634 18.8845 13.6315 18.8571 13.6247C18.693 13.5883 18.6314 13.4334 18.5174 13.3423C18.294 13.1647 18.294 12.8914 18.2028 12.6637C18.1481 12.5316 18.2028 12.3517 18.2188 12.1969C18.2234 12.1422 18.269 12.0944 18.2781 12.0398C18.3396 11.6777 18.5858 11.4454 18.8639 11.2427C18.9506 11.1812 19.0759 11.1699 19.1945 11.1334C19.1717 11.1152 19.1535 11.1015 19.1284 11.0833C19.1375 11.0742 19.1466 11.0628 19.158 11.0583C19.4475 10.9877 19.7393 10.9786 20.0288 11.0537C20.0539 11.0605 20.0699 11.0993 20.0927 11.122C20.1109 11.1403 20.1337 11.1653 20.1542 11.1676C20.4118 11.1972 20.5645 11.3839 20.7264 11.5547C20.8541 11.6913 20.9521 11.8416 20.9566 12.0398C20.9566 12.0807 21.0114 12.1217 21.041 12.1627C21.0524 12.1627 21.0615 12.1627 21.0729 12.1604H21.0706Z" fill="#1E1F24"/>
<path d="M14.8974 18.3658C15.0068 18.3727 15.114 18.3772 15.2234 18.3841V18.425C15.0843 18.4159 14.9179 18.4524 14.8176 18.3863C14.6261 18.2611 14.3822 18.2588 14.2112 18.104C14.1451 18.0447 14.0676 17.9878 14.0243 17.9149C13.9354 17.7647 13.7735 17.6576 13.7598 17.4549C13.753 17.357 13.6709 17.2682 13.6527 17.168C13.614 16.9494 13.6618 16.7467 13.7348 16.5327C13.8009 16.3346 13.9126 16.1729 14.0334 16.0157C14.1223 15.8996 14.2477 15.7971 14.3776 15.7334C14.5737 15.6354 14.7629 15.5261 15.0068 15.5216C15.4354 15.5148 15.7819 15.6673 16.0805 15.9543C16.2538 16.1205 16.3518 16.3186 16.4339 16.5486C16.5068 16.7513 16.5456 16.9403 16.5456 17.1475C16.5456 17.1794 16.5387 17.2113 16.5342 17.2637C16.5068 17.2295 16.4931 17.2113 16.4635 17.1726C16.3267 18.0857 15.7477 18.3886 14.8928 18.3135C14.8951 18.3294 14.8974 18.3476 14.8997 18.3636L14.8974 18.3658Z" fill="#1E1F24"/>
<path d="M5.68772 22.9089C5.76295 22.8952 5.83817 22.8793 5.9134 22.8656C5.9134 22.8588 5.9134 22.8519 5.9134 22.8428C5.81766 22.8314 5.71963 22.8064 5.62389 22.8087C5.43924 22.8132 5.2865 22.7335 5.16568 22.6151C4.98331 22.4329 4.74851 22.2804 4.73027 21.9798C4.73027 21.957 4.68924 21.9388 4.66872 21.9183C4.64593 21.9274 4.62313 21.9388 4.59805 21.9479C4.59805 21.6883 4.58893 21.4264 4.60489 21.1668C4.60945 21.0962 4.72115 21.037 4.73483 20.9618C4.76675 20.766 4.87845 20.6248 5.01067 20.495C5.50535 20.01 6.11857 19.8847 6.69532 20.2195C6.89593 20.3356 7.04638 20.5178 7.20596 20.6886C7.39745 20.8958 7.33817 21.1349 7.4134 21.3512C7.49547 21.5904 7.38833 21.8158 7.35185 22.0481C7.34501 22.0868 7.30398 22.1209 7.27434 22.1574C7.25155 22.1847 7.21052 22.2052 7.2014 22.2371C7.11705 22.5126 6.87313 22.6288 6.65884 22.7654C6.56082 22.8292 6.41264 22.8132 6.28726 22.8406C6.24623 22.8497 6.1596 22.8155 6.17328 22.9203C6.17328 22.9271 6.10945 22.9521 6.07526 22.9521C5.94532 22.9521 5.81538 22.9407 5.68544 22.9339C5.68544 22.9271 5.68544 22.9203 5.68544 22.9111L5.68772 22.9089Z" fill="#1E1F24"/>
<path d="M16.4658 7.64234C16.475 7.60135 16.4818 7.56263 16.4909 7.52164C16.5023 7.52164 16.5114 7.52164 16.5228 7.52164V8.20937C16.5228 8.20937 16.5137 8.20937 16.5091 8.21164C16.5023 8.17065 16.4932 8.13194 16.4864 8.09095C16.4795 8.09095 16.4704 8.09095 16.4636 8.09095C16.4453 8.18659 16.4202 8.28224 16.4111 8.37788C16.3792 8.67392 16.1877 8.87432 15.9803 9.04966C15.693 9.28877 15.342 9.34343 14.9772 9.31155C14.9499 9.30927 14.9202 9.30016 14.8929 9.30244C14.5373 9.33432 14.2751 9.13848 14.0585 8.90848C13.9423 8.78551 13.7804 8.66937 13.7759 8.45075C13.7736 8.32778 13.6733 8.20937 13.655 8.08184C13.6254 7.886 13.6277 7.69244 13.7462 7.51026C13.8237 7.38729 13.8443 7.24155 13.9423 7.11402C14.1133 6.89541 14.3047 6.74283 14.5578 6.62214C14.7903 6.51056 15.0228 6.49006 15.2576 6.51966C15.5745 6.55838 15.8549 6.6859 16.092 6.92046C16.304 7.12768 16.4225 7.35996 16.4704 7.64234H16.4658Z" fill="#1E1F24"/>
<path d="M1.62762 22.852C1.6527 22.9704 1.56835 22.9795 1.11926 22.9158C1.22413 22.8953 1.29024 22.8816 1.35862 22.868C1.35862 22.8588 1.3609 22.852 1.36318 22.8429C1.25604 22.8292 1.15118 22.7996 1.04404 22.8019C0.859385 22.8042 0.727166 22.6972 0.613184 22.5856C0.430813 22.4102 0.268959 22.2281 0.166375 21.973C0.0569525 21.702 0.0409953 21.4379 0.100266 21.1896C0.145859 20.9961 0.227925 20.7911 0.373822 20.6158C0.594946 20.3471 0.868503 20.1672 1.18081 20.0692C1.3723 20.01 1.6071 20.0328 1.81227 20.0761C2.20209 20.1581 2.48476 20.4199 2.72641 20.7251C2.75832 20.7661 2.79251 20.8116 2.80391 20.8594C2.89966 21.2534 2.95437 21.6542 2.81303 22.0436C2.73096 22.2713 2.56227 22.4558 2.36622 22.6129C2.15194 22.786 1.90118 22.8292 1.6299 22.852H1.62762Z" fill="#1E1F24"/>
<path d="M5.91108 18.359C5.99771 18.3681 6.08662 18.3772 6.17324 18.384C6.17324 18.3886 6.17324 18.3931 6.17324 18.4H5.68768C5.70592 18.3567 5.71503 18.3339 5.72415 18.3157C5.16564 18.2155 4.81686 17.9035 4.69148 17.3411C4.66868 17.3752 4.65272 17.398 4.63677 17.4231C4.62765 17.4071 4.61625 17.398 4.61397 17.3866C4.60485 17.1885 4.58661 16.9904 4.59117 16.7923C4.59117 16.7194 4.65044 16.6465 4.68236 16.5759C4.69604 16.5463 4.71883 16.519 4.72339 16.4871C4.80546 16.0909 5.08813 15.8745 5.41868 15.6878C6.07294 15.3143 6.75227 15.6263 7.12385 16.0544C7.27658 16.2298 7.36321 16.4233 7.39512 16.6693C7.42704 16.9198 7.4316 17.1521 7.38145 17.3957C7.36093 17.4982 7.33813 17.5847 7.25151 17.6644C7.1626 17.7464 7.12157 17.8785 7.0395 17.9719C6.87537 18.1563 6.66792 18.2725 6.41716 18.2952C6.24847 18.3112 6.07978 18.3203 5.91108 18.3339C5.91108 18.3431 5.91108 18.3522 5.91108 18.3613V18.359Z" fill="#1E1F24"/>
<path d="M9.87077 13.7453C9.84798 13.6998 9.84114 13.6497 9.81606 13.6383C9.49007 13.4926 9.32594 13.2284 9.25755 12.8868C9.23476 12.9028 9.21424 12.9164 9.18232 12.9392C9.10254 12.6659 9.04783 12.3904 9.14585 12.1376C9.28035 11.7938 9.44676 11.4522 9.78643 11.2495C9.87761 11.1948 9.98931 11.1789 10.101 11.1425C10.0851 11.1197 10.0691 11.1015 10.0531 11.081C10.0668 11.0742 10.0782 11.0628 10.0919 11.0628C10.3313 11.0514 10.5706 11.0332 10.81 11.0309C10.9103 11.0309 11.0197 11.0354 11.079 11.1493C11.0881 11.1698 11.1269 11.1744 11.1542 11.1857C11.5759 11.3497 11.8176 11.6594 11.9133 12.0943C11.9361 12.2037 12.0045 12.313 11.9931 12.4177C11.943 12.8549 11.8221 13.2785 11.4574 13.5586C11.2819 13.693 11.0858 13.8091 10.8282 13.8182C10.5 13.8273 10.1785 13.866 9.87305 13.7476L9.87077 13.7453Z" fill="#1E1F24"/>
<path d="M1.60035 18.3522C1.63682 18.3636 1.67558 18.3727 1.71205 18.3841C1.51144 18.3978 1.304 18.4911 1.13074 18.3112C1.11479 18.293 1.07831 18.2907 1.05096 18.2885C0.772841 18.2543 0.606428 18.0562 0.414938 17.8808C0.239406 17.7214 0.177856 17.5051 0.111747 17.3047C0.0342393 17.0633 0.0296803 16.8037 0.141382 16.5578C0.161899 16.5145 0.186975 16.4735 0.198373 16.428C0.294118 16.0818 0.553996 15.8746 0.84351 15.7061C1.52512 15.303 2.24093 15.6196 2.62618 16.0955C2.76296 16.264 2.86327 16.4371 2.84959 16.658C2.84959 16.6807 2.84731 16.7149 2.86099 16.7263C3.01372 16.8493 2.90202 16.9904 2.89518 17.1248C2.87694 17.5005 2.70597 17.8057 2.43697 18.0494C2.31615 18.1587 2.14518 18.2179 1.98789 18.2748C1.86935 18.3158 1.73713 18.3135 1.60947 18.3295C1.60719 18.3363 1.60491 18.3454 1.60263 18.3522H1.60035Z" fill="#1E1F24"/>
<path d="M21.0706 3.10842C21.0797 3.32931 21.098 3.52515 20.9931 3.72782C20.9065 3.89406 20.8974 4.08762 20.7697 4.25158C20.5258 4.57039 20.2408 4.78901 19.8259 4.78445C19.5934 4.78445 19.3586 4.78673 19.1329 4.74119C18.9848 4.71158 18.8389 4.61594 18.7158 4.5203C18.5972 4.42693 18.506 4.29713 18.4035 4.18327C18.3943 4.17188 18.3829 4.16277 18.3784 4.14911C18.2917 3.85307 18.0775 3.57525 18.1823 3.24733C18.294 2.89891 18.408 2.5596 18.7317 2.31139C19.0463 2.06772 19.3746 1.96752 19.7553 1.99485C20.136 2.0199 20.4255 2.21802 20.6854 2.48445C20.8404 2.64386 20.9498 2.81238 20.9589 3.0401C20.9589 3.09931 20.9726 3.1699 21.0706 3.10842Z" fill="#1E1F24"/>
<path d="M21.0706 7.64695C21.0752 7.73121 21.0911 7.81774 21.0797 7.902C21.0661 8.00447 21.0273 8.10467 21 8.20487C20.9908 8.23675 20.9703 8.26636 20.968 8.29824C20.9498 8.58744 20.7766 8.8015 20.5805 8.97913C20.3936 9.14764 20.193 9.32071 19.9012 9.30249C19.6937 9.28883 19.4863 9.30249 19.2788 9.29339C19.1284 9.28655 18.9848 9.26834 18.8731 9.1317C18.8024 9.04517 18.6702 9.00873 18.5995 8.9222C18.481 8.7719 18.3579 8.63299 18.2849 8.43942C18.155 8.09556 18.1481 7.78814 18.294 7.44428C18.449 7.07764 18.6725 6.81121 19.0395 6.64952C19.1922 6.58121 19.3358 6.51972 19.5114 6.51061C19.9946 6.48784 20.3799 6.66546 20.7036 7.01616C20.8427 7.16873 20.9453 7.32586 20.9589 7.53537C20.9612 7.57863 21.0068 7.61962 21.0319 7.66289C21.0456 7.65834 21.0592 7.6515 21.0729 7.64695H21.0706Z" fill="#1E1F24"/>
<path d="M4.68698 12.8368C4.66418 12.8709 4.6505 12.8914 4.63227 12.921C4.62315 12.9005 4.61403 12.8891 4.61403 12.8777C4.60491 12.707 4.58895 12.5384 4.58895 12.3676C4.58895 12.2538 4.573 12.1308 4.69382 12.0488C4.71661 12.0329 4.73029 11.9896 4.73257 11.96C4.74625 11.7141 4.92406 11.5683 5.06996 11.4044C5.1771 11.286 5.30476 11.2017 5.46889 11.1744C5.49853 11.1698 5.5236 11.1311 5.54412 11.0878C5.80628 11.0081 6.07983 10.9763 6.35111 11.04C6.4195 11.056 6.47877 11.1061 6.5426 11.1425C6.55856 11.1516 6.57452 11.1675 6.59047 11.1721C6.95066 11.2381 7.10339 11.5456 7.3154 11.7847C7.32452 11.7961 7.33363 11.8097 7.33591 11.8211C7.37011 12.0989 7.40886 12.379 7.43394 12.6569C7.44078 12.7274 7.41114 12.8072 7.38835 12.8777C7.28804 13.1738 7.12391 13.4197 6.85719 13.6042C6.46509 13.8797 6.02968 13.8456 5.59427 13.7977C5.51221 13.7886 5.43242 13.7226 5.35719 13.6771C5.25917 13.6156 5.16114 13.5541 5.06996 13.4835C4.88075 13.3377 4.75537 13.1487 4.72117 12.9074C4.71889 12.8869 4.70522 12.8664 4.69154 12.8345L4.68698 12.8368Z" fill="#1E1F24"/>
<path d="M10.532 6.49691C10.9993 6.49691 11.3731 6.69275 11.6627 7.03433C11.7858 7.18007 11.8883 7.3577 11.9089 7.56493C11.9202 7.69017 11.9658 7.81087 11.9886 7.93384C11.9978 7.97938 12.0023 8.03176 11.9886 8.07275C11.8906 8.32552 11.7971 8.58285 11.6763 8.82423C11.6285 8.91988 11.5236 8.99047 11.437 9.05879C11.1087 9.32067 10.7234 9.34344 10.3268 9.30473C10.2994 9.30245 10.2698 9.29562 10.2424 9.29562C9.99396 9.30701 9.82527 9.15671 9.6429 9.02235C9.45141 8.87661 9.38758 8.64661 9.25764 8.46898C9.07299 8.21621 9.07526 7.95889 9.13226 7.71295C9.20292 7.4078 9.35566 7.1277 9.59274 6.89087C9.75916 6.72235 9.9666 6.65859 10.1581 6.55839C10.2652 6.50374 10.4066 6.51285 10.532 6.49463V6.49691Z" fill="#1E1F24"/>
<path d="M16.4521 3.13807C16.4749 3.09708 16.4885 3.07203 16.5159 3.01965C16.5273 3.24054 16.5387 3.43411 16.5501 3.62767C16.541 3.62995 16.5319 3.63223 16.5205 3.63678C16.5068 3.60945 16.4931 3.58213 16.4658 3.53203C16.4475 3.63223 16.4293 3.70965 16.4202 3.78708C16.37 4.18331 16.142 4.44747 15.8069 4.64787C15.5083 4.82777 15.1892 4.78906 14.8723 4.77767C14.658 4.77084 14.446 4.74807 14.2773 4.59322C14.1588 4.48619 14.0243 4.40193 13.9445 4.2448C13.8806 4.115 13.7872 4.00341 13.7302 3.86223C13.6117 3.56619 13.5866 3.28609 13.7393 2.9946C13.8077 2.8648 13.8214 2.71223 13.9445 2.60292C14.0858 2.47767 14.1998 2.31827 14.3457 2.19985C14.4414 2.12242 14.5691 2.07005 14.6899 2.03817C15.098 1.93341 15.4992 1.9744 15.848 2.21579C16.0531 2.35698 16.2629 2.51866 16.3541 2.77143C16.3951 2.88302 16.4156 3.00371 16.4498 3.13807H16.4521Z" fill="#1E1F24"/>
<path d="M4.5866 8.37336C4.5866 8.17068 4.57748 7.96801 4.59115 7.76761C4.59571 7.69246 4.65043 7.62187 4.68234 7.549C4.70058 7.50573 4.73249 7.46474 4.73705 7.4192C4.75985 7.20514 4.90347 7.07078 5.04024 6.92504C5.17702 6.78157 5.34571 6.7087 5.52125 6.62217C6.11395 6.33068 6.8366 6.63583 7.15347 7.06395C7.29708 7.25751 7.37687 7.46246 7.40422 7.70841C7.4293 7.9293 7.43386 8.13652 7.38599 8.34831C7.3176 8.65573 7.13067 8.88118 6.89131 9.07246C6.46729 9.40722 5.97945 9.34118 5.50757 9.26375C5.27277 9.22504 5.09723 9.02692 4.93766 8.85157C4.83052 8.73316 4.73933 8.60108 4.73021 8.43029C4.73021 8.40524 4.68234 8.38474 4.65498 8.36197L4.58888 8.37563L4.5866 8.37336Z" fill="#1E1F24"/>
<path d="M4.5843 3.83939C4.5843 3.66632 4.57974 3.49098 4.5843 3.31791C4.58886 3.20632 4.5615 3.0788 4.696 3.0082C4.7188 2.99682 4.72792 2.95127 4.73476 2.91939C4.8191 2.52543 5.09722 2.30682 5.43688 2.13375C5.8723 1.91286 6.30087 1.94246 6.70892 2.17474C6.90041 2.28404 7.04403 2.46395 7.2036 2.62335C7.42929 2.85107 7.38825 3.13117 7.42473 3.37711C7.46348 3.63444 7.42017 3.90999 7.23552 4.16048C7.0919 4.35404 6.93005 4.50434 6.74312 4.65008C6.5995 4.76167 6.43537 4.77989 6.27579 4.78444C6.02047 4.79127 5.76287 4.78444 5.51211 4.748C5.39129 4.72979 5.27047 4.64553 5.16789 4.56583C5.06302 4.48385 4.97184 4.37909 4.89661 4.26979C4.82822 4.16731 4.78947 4.04434 4.73476 3.93276C4.71652 3.89632 4.68233 3.86672 4.65497 3.83484C4.63217 3.83484 4.60938 3.83711 4.58658 3.83939H4.5843Z" fill="#1E1F24"/>
<path d="M1.04858 11.122C1.04858 11.122 1.0235 11.1038 0.984749 11.0765C1.21043 11.015 1.42472 10.9763 1.639 11.0104C2.10861 11.0879 2.48475 11.3338 2.74235 11.7278C2.89736 11.9623 2.89052 12.2515 2.89052 12.5248C2.89052 12.8937 2.76058 13.2171 2.48703 13.4744C2.4346 13.5245 2.36849 13.5632 2.30694 13.6042C2.25451 13.6406 2.20207 13.6793 2.14736 13.7135C2.11317 13.7363 2.07897 13.7659 2.04022 13.7727C1.67776 13.8251 1.3153 13.8775 0.952834 13.7773C0.900403 13.7636 0.857089 13.7158 0.809217 13.6816C0.704354 13.6042 0.592652 13.5359 0.501467 13.4471C0.154962 13.1169 0.00906495 12.7001 0.0865725 12.2356C0.127606 11.9942 0.191436 11.7391 0.401162 11.5615C0.490068 11.4864 0.549339 11.3771 0.645083 11.3133C0.765904 11.2313 0.909521 11.1812 1.0463 11.1152L1.04858 11.122Z" fill="#1E1F24"/>
<path d="M9.23706 3.8508C9.2211 3.87357 9.20743 3.89406 9.18691 3.92595C9.10256 3.64585 9.02733 3.35208 9.14816 3.10842C9.28037 2.83971 9.3784 2.5505 9.64512 2.33416C9.98934 2.05406 10.3541 1.94931 10.7713 2.00396C11.1907 2.05862 11.4939 2.29773 11.7424 2.63931C11.9134 2.87387 11.8883 3.15169 11.9886 3.39991C12.0159 3.46822 11.9703 3.5707 11.9521 3.65495C11.9362 3.72783 11.9134 3.8007 11.886 3.86901C11.8176 4.02842 11.7789 4.21971 11.6649 4.33357C11.4346 4.56357 11.1839 4.79812 10.8168 4.78674C10.5615 4.77763 10.3039 4.78218 10.0532 4.74575C9.93007 4.72753 9.80469 4.64783 9.70895 4.56357C9.58585 4.45426 9.48098 4.32218 9.38752 4.18555C9.32597 4.09446 9.29861 3.98288 9.2439 3.85307L9.23706 3.8508Z" fill="#1E1F24"/>
<path d="M9.25535 17.3957C9.24167 17.4595 9.23483 17.4914 9.22571 17.5232C9.0593 17.2659 9.06842 16.7467 9.23255 16.4894C9.31234 16.3641 9.34881 16.2047 9.44684 16.0977C9.58361 15.9474 9.75459 15.8313 9.91644 15.706C10.0737 15.5831 10.2584 15.5398 10.4567 15.5307C11.0129 15.5056 11.4164 15.7516 11.7424 16.1911C11.8974 16.4029 11.8815 16.6579 11.9932 16.8742C12.0114 16.9084 12.0046 16.9585 11.9977 16.9995C11.9385 17.3046 11.8701 17.6166 11.674 17.8603C11.4529 18.1335 11.1611 18.3294 10.7804 18.3157C10.5342 18.3066 10.2857 18.3157 10.0464 18.2725C9.87085 18.2406 9.72723 18.1222 9.58817 17.9924C9.41492 17.8307 9.31917 17.6485 9.25535 17.3934V17.3957Z" fill="#1E1F24"/>
<path d="M0.0546875 7.98854C0.10256 7.40785 0.328244 7.01161 0.740858 6.7224C0.804688 6.67914 0.895873 6.67686 0.964262 6.63815C1.42019 6.37626 1.86244 6.48329 2.25909 6.73834C2.57368 6.94102 2.84952 7.2029 2.86092 7.64013C2.86548 7.83141 2.89967 8.01587 2.87232 8.21171C2.81305 8.61706 2.58508 8.87894 2.27277 9.12032C1.99238 9.33666 1.68919 9.28884 1.38371 9.30706C1.30849 9.31161 1.23326 9.29567 1.15803 9.29112C0.827484 9.26607 0.617757 9.06112 0.41031 8.82884C0.300888 8.70587 0.221101 8.58517 0.182347 8.42805C0.139034 8.25725 0.0866024 8.09102 0.0546875 7.98626V7.98854Z" fill="#1E1F24"/>
<path d="M1.50907 4.79814C1.34494 4.78448 1.17169 4.79131 1.01667 4.74805C0.873056 4.70706 0.733999 4.62052 0.613178 4.53171C0.494637 4.44517 0.401172 4.32448 0.296309 4.21973C0.28719 4.21062 0.275792 4.19923 0.268953 4.18785C0.120777 3.84626 -0.0251198 3.48874 0.0957009 3.12438C0.193725 2.82379 0.321385 2.52547 0.610899 2.31141C0.904972 2.09507 1.20588 1.98121 1.56379 1.9926C1.93309 2.00399 2.23856 2.15201 2.4916 2.41616C2.57594 2.50498 2.65573 2.59834 2.73324 2.69399C2.76287 2.73042 2.79251 2.77141 2.80391 2.81468C2.89737 3.21319 2.94069 3.61399 2.80391 4.01022C2.66485 4.41329 2.15421 4.77082 1.70968 4.78676C1.64357 4.78904 1.57746 4.78676 1.51135 4.78676V4.79587L1.50907 4.79814Z" fill="#1E1F24"/>
<path d="M55.6573 4.60908C55.5388 4.59769 55.4476 4.59769 55.361 4.57948C55.2994 4.56809 55.1968 4.6068 55.2037 4.47245C55.2037 4.44967 55.1079 4.4269 55.06 4.39957C54.9894 4.35858 54.9141 4.31987 54.8503 4.2675C54.4468 3.92591 54.4332 3.4773 54.4924 3.00136C54.5312 2.68027 54.7363 2.49126 54.9597 2.29542C55.1968 2.08819 55.4567 1.98571 55.7713 1.99938C56.1041 2.01304 56.3549 2.17928 56.5942 2.39334C57.0046 2.75997 57.0137 3.22225 56.9225 3.70502C56.8769 3.94413 56.6923 4.10353 56.5327 4.2766C56.4324 4.38363 56.2751 4.39502 56.1885 4.477C56.0152 4.64096 55.8169 4.56581 55.6619 4.60908H55.6573Z" fill="#1E1F24"/>
<path d="M27.7592 4.51798C27.7364 4.49066 27.7181 4.44739 27.6885 4.43828C27.4309 4.36313 27.2804 4.17868 27.1482 3.95551C26.9271 3.58887 27.0228 3.2063 27.0639 2.82828C27.0753 2.71897 27.1665 2.60283 27.2485 2.51858C27.5449 2.21115 27.8686 1.95838 28.3382 1.99937C28.7075 2.03125 28.9628 2.24076 29.2204 2.48214C29.4643 2.71214 29.5145 3.00818 29.5168 3.29511C29.519 3.5866 29.4666 3.89175 29.2227 4.11947C29.0814 4.25155 28.9765 4.42234 28.7622 4.44739C28.744 4.44739 28.7143 4.46561 28.7143 4.47244C28.7212 4.63184 28.5912 4.57719 28.5228 4.57947C28.2607 4.59085 27.9962 4.58402 27.7341 4.58402C27.7432 4.56125 27.7523 4.54076 27.7592 4.51798Z" fill="#1E1F24"/>
<path d="M10.7348 18.4022H10.2241C10.2241 18.4022 10.2241 18.3795 10.2241 18.3704H10.7348C10.7348 18.3704 10.7348 18.3931 10.7348 18.4022Z" fill="#1E1F24"/>
</g>
<defs>
<clipPath id="clip0_16_972">
<rect width="75" height="23" fill="white"/>
</clipPath>
</defs>
</svg>
