<svg width="95" height="26" viewBox="0 0 95 26" fill="none" xmlns="http://www.w3.org/2000/svg">
<path fill-rule="evenodd" clip-rule="evenodd" d="M12.9201 7.05245C11.3911 10.6439 10.0398 13.8087 9.89759 14.0932C9.68424 14.4488 9.39976 14.1643 8.79525 12.9197L7.97739 11.2485H4.31477C2.28789 11.2485 0.652161 11.3196 0.652161 11.4262C0.652161 11.4974 1.04331 12.4575 1.50559 13.5598C2.00821 14.6656 2.22665 15.1462 2.59795 15.355C2.88335 15.5156 3.25908 15.5156 3.92362 15.5156H5.48823L7.40844 20.1738C8.47522 22.7341 9.43532 24.8677 9.57756 24.9388C9.68424 25.0455 11.071 22.0585 12.6001 18.3603C14.1647 14.6621 15.4804 11.604 15.5871 11.604C15.6938 11.604 16.2983 12.9553 16.9739 14.5555C19.1075 19.7471 21.3477 24.9388 21.4544 25.081C21.5255 25.1166 22.1656 24.0498 22.8412 22.6986L24.1213 20.1738L22.13 15.4445C18.3607 6.51906 15.9071 0.794002 15.8004 0.687324C15.7293 0.616205 14.4492 3.49651 12.9201 7.05245ZM23.0546 12.0308C22.4145 13.4887 22.4145 13.5243 23.0901 15.2667L23.0901 15.2667C23.8723 17.2322 24.2133 18.0891 24.547 18.0863C24.805 18.0841 25.0586 17.5682 25.5081 16.6535C26.3616 14.84 26.4327 14.8044 27.9262 14.8044C29.4197 14.8044 29.4552 14.7689 30.522 12.6709L31.5888 10.5373H27.6773H23.7302L23.0546 12.0308ZM43.2508 19.2596V8.68615H41.671V16.451H41.5729L36.1933 8.68615H34.7167V19.2596H36.312V11.505H36.4101L41.7846 19.2596H43.2508ZM45.5779 8.68615V19.2596H52.2689V17.8863H47.1732V14.6492H51.8611V13.281H47.1732V10.0595H52.207V8.68615H45.5779ZM55.4479 8.68615L57.9777 12.8216H58.0603L60.5901 8.68615H62.4384L59.1445 13.9729L62.459 19.2596H60.6004L58.0603 15.181H57.9777L55.4376 19.2596H53.579L56.9503 13.9729L53.5997 8.68615H55.4479ZM63.2205 19.2596H64.9139L65.8823 16.4613H70.0135L70.9802 19.2596H72.6736L68.8687 8.68615H67.0255L63.2205 19.2596ZM69.5498 15.119L67.991 10.6067H67.9084L66.3468 15.119H69.5498ZM74.2005 8.68615H75.7958V17.8863H80.5869V19.2596H74.2005V8.68615ZM82.4068 19.2596H84.0021V8.68615H82.4068V19.2596ZM94.8595 19.2596H93.3933L88.0188 11.505H87.9207V19.2596H86.3254V8.68615H87.802L93.1816 16.451H93.2797V8.68615H94.8595V19.2596ZM49.5989 22.5388H50.0782C50.0421 22.3353 49.9764 22.1542 49.8811 21.9958C49.7857 21.836 49.6672 21.7008 49.5255 21.59C49.3838 21.4779 49.2247 21.3929 49.0482 21.3349C48.8729 21.2769 48.6855 21.2479 48.4858 21.2479C48.1483 21.2479 47.8481 21.3304 47.5853 21.4953C47.3225 21.6602 47.1157 21.8946 46.965 22.1987C46.8142 22.5027 46.7389 22.8635 46.7389 23.2809C46.7389 23.6983 46.8142 24.059 46.965 24.3631C47.1157 24.6671 47.3225 24.9016 47.5853 25.0665C47.8481 25.2314 48.1483 25.3138 48.4858 25.3138C48.6855 25.3138 48.8729 25.2848 49.0482 25.2269C49.2247 25.1689 49.3838 25.0845 49.5255 24.9737C49.6672 24.8616 49.7857 24.7257 49.8811 24.566C49.9764 24.4062 50.0421 24.2252 50.0782 24.0229H49.5989C49.5706 24.1595 49.521 24.2806 49.4501 24.3862C49.3805 24.4906 49.2955 24.5788 49.195 24.651C49.0958 24.7218 48.9857 24.7753 48.8646 24.8114C48.7435 24.8475 48.6172 24.8655 48.4858 24.8655C48.2462 24.8655 48.0291 24.8049 47.8346 24.6838C47.6413 24.5627 47.4874 24.3843 47.3727 24.1485C47.2593 23.9128 47.2026 23.6236 47.2026 23.2809C47.2026 22.9382 47.2593 22.649 47.3727 22.4132C47.4874 22.1774 47.6413 21.999 47.8346 21.8779C48.0291 21.7568 48.2462 21.6962 48.4858 21.6962C48.6172 21.6962 48.7435 21.7143 48.8646 21.7504C48.9857 21.7864 49.0958 21.8405 49.195 21.9127C49.2955 21.9835 49.3805 22.0711 49.4501 22.1755C49.521 22.2799 49.5706 22.401 49.5989 22.5388ZM34.8179 21.7272V21.302H37.7861V21.7272H36.5416V25.2597H36.0624V21.7272H34.8179ZM41.0835 25.2597V21.302H43.472V21.7272H41.5627V23.0644H43.3483V23.4896H41.5627V24.8346H43.5029V25.2597H41.0835ZM53.4103 25.2597V21.302H53.8895V23.0644H55.9998V21.302H56.479V25.2597H55.9998V23.4896H53.8895V25.2597H53.4103ZM63.1345 25.2597V21.302H62.6629V24.4172H62.6243L60.4599 21.302H59.9961V25.2597H60.4754V22.1523H60.514L62.6707 25.2597H63.1345ZM69.9904 23.2809C69.9904 23.6983 69.9151 24.059 69.7643 24.3631C69.6136 24.6671 69.4068 24.9016 69.144 25.0665C68.8812 25.2314 68.581 25.3138 68.2435 25.3138C67.9059 25.3138 67.6058 25.2314 67.3429 25.0665C67.0801 24.9016 66.8734 24.6671 66.7226 24.3631C66.5719 24.059 66.4965 23.6983 66.4965 23.2809C66.4965 22.8635 66.5719 22.5027 66.7226 22.1987C66.8734 21.8946 67.0801 21.6602 67.3429 21.4953C67.6058 21.3304 67.9059 21.2479 68.2435 21.2479C68.581 21.2479 68.8812 21.3304 69.144 21.4953C69.4068 21.6602 69.6136 21.8946 69.7643 22.1987C69.9151 22.5027 69.9904 22.8635 69.9904 23.2809ZM69.5266 23.2809C69.5266 22.9382 69.4693 22.649 69.3546 22.4132C69.2413 22.1774 69.0873 21.999 68.8928 21.8779C68.6995 21.7568 68.4831 21.6962 68.2435 21.6962C68.0038 21.6962 67.7868 21.7568 67.5922 21.8779C67.399 21.999 67.245 22.1774 67.1304 22.4132C67.017 22.649 66.9603 22.9382 66.9603 23.2809C66.9603 23.6236 67.017 23.9128 67.1304 24.1485C67.245 24.3843 67.399 24.5627 67.5922 24.6838C67.7868 24.8049 68.0038 24.8655 68.2435 24.8655C68.4831 24.8655 68.6995 24.8049 68.8928 24.6838C69.0873 24.5627 69.2413 24.3843 69.3546 24.1485C69.4693 23.9128 69.5266 23.6236 69.5266 23.2809ZM73.3539 21.302V25.2597H75.6729V24.8346H73.8332V21.302H73.3539ZM82.1578 23.2809C82.1578 23.6983 82.0824 24.059 81.9317 24.3631C81.781 24.6671 81.5742 24.9016 81.3114 25.0665C81.0486 25.2314 80.7484 25.3138 80.4108 25.3138C80.0733 25.3138 79.7731 25.2314 79.5103 25.0665C79.2475 24.9016 79.0407 24.6671 78.89 24.3631C78.7393 24.059 78.6639 23.6983 78.6639 23.2809C78.6639 22.8635 78.7393 22.5027 78.89 22.1987C79.0407 21.8946 79.2475 21.6602 79.5103 21.4953C79.7731 21.3304 80.0733 21.2479 80.4108 21.2479C80.7484 21.2479 81.0486 21.3304 81.3114 21.4953C81.5742 21.6602 81.781 21.8946 81.9317 22.1987C82.0824 22.5027 82.1578 22.8635 82.1578 23.2809ZM81.694 23.2809C81.694 22.9382 81.6367 22.649 81.522 22.4132C81.4086 22.1774 81.2547 21.999 81.0602 21.8779C80.8669 21.7568 80.6505 21.6962 80.4108 21.6962C80.1712 21.6962 79.9541 21.7568 79.7596 21.8779C79.5664 21.999 79.4124 22.1774 79.2977 22.4132C79.1844 22.649 79.1277 22.9382 79.1277 23.2809C79.1277 23.6236 79.1844 23.9128 79.2977 24.1485C79.4124 24.3843 79.5664 24.5627 79.7596 24.6838C79.9541 24.8049 80.1712 24.8655 80.4108 24.8655C80.6505 24.8655 80.8669 24.8049 81.0602 24.6838C81.2547 24.5627 81.4086 24.3843 81.522 24.1485C81.6367 23.9128 81.694 23.6236 81.694 23.2809ZM88.0586 22.189C88.1282 22.2921 88.1842 22.4087 88.2267 22.5388H88.7215C88.6854 22.3468 88.6197 22.1723 88.5243 22.0151C88.429 21.8566 88.3098 21.7207 88.1668 21.6074C88.0251 21.4927 87.8634 21.4044 87.6818 21.3426C87.5014 21.2795 87.3069 21.2479 87.0982 21.2479C86.8444 21.2479 86.6118 21.2949 86.4006 21.389C86.1893 21.483 86.0063 21.6183 85.8517 21.7948C85.6971 21.9713 85.5773 22.1852 85.4923 22.4364C85.4086 22.6863 85.3667 22.9678 85.3667 23.2809C85.3667 23.6983 85.4401 24.059 85.587 24.3631C85.7352 24.6671 85.9413 24.9016 86.2054 25.0665C86.4708 25.2314 86.7787 25.3138 87.1291 25.3138C87.4435 25.3138 87.7217 25.2481 87.9639 25.1167C88.2074 24.984 88.3981 24.7972 88.5359 24.5563C88.6751 24.3154 88.7446 24.032 88.7446 23.706V23.2809H87.2373V23.706H88.2806C88.2766 23.9353 88.2277 24.1356 88.134 24.307C88.0374 24.4848 87.9021 24.6226 87.7282 24.7206C87.5555 24.8172 87.3559 24.8655 87.1291 24.8655C86.8843 24.8655 86.664 24.8049 86.4682 24.6838C86.2724 24.5627 86.1171 24.3843 86.0025 24.1485C85.8878 23.9128 85.8305 23.6236 85.8305 23.2809C85.8305 22.9382 85.8872 22.649 86.0005 22.4132C86.1139 22.1774 86.2666 21.999 86.4585 21.8779C86.6505 21.7568 86.8637 21.6962 87.0982 21.6962C87.2412 21.6962 87.3726 21.7156 87.4924 21.7542C87.6122 21.7929 87.7191 21.8489 87.8132 21.9223C87.9085 21.9958 87.9903 22.0847 88.0586 22.189ZM91.6608 21.302H92.2096L93.3072 23.1495H93.3536L94.4513 21.302H95.0001L93.5701 23.6287V25.2597H93.0908V23.6287L91.6608 21.302Z" fill="#1E1F24"/>
</svg>
