<svg width="74" height="21" viewBox="0 0 74 21" fill="none" xmlns="http://www.w3.org/2000/svg">
<g clip-path="url(#clip0_16_1009)">
<path d="M64.4733 4.80185e-05C65.6004 0.0180583 66.7255 0.0320663 67.8526 0.0580812C68.3007 0.0680869 68.7468 0.106109 69.1769 0.250191C69.3721 0.316229 69.5692 0.380265 69.7664 0.4403C69.8619 0.468316 69.9595 0.484325 70.0571 0.502335C70.2881 0.544359 70.5052 0.6164 70.6904 0.768487C70.766 0.830523 70.8596 0.874548 70.9512 0.906566C71.1603 0.976606 71.3435 1.08267 71.5009 1.23675C71.5188 1.25477 71.5367 1.27478 71.5566 1.28478C71.8932 1.44487 72.1082 1.75305 72.393 1.97718C72.4488 2.0212 72.4906 2.08724 72.5344 2.14928C72.5782 2.20931 72.6081 2.28135 72.6539 2.33738C72.865 2.59353 73.0163 2.8877 73.1916 3.16586C73.3887 3.47603 73.5082 3.79822 73.6058 4.14041C73.6237 4.20445 73.6436 4.27049 73.6775 4.32652C73.8626 4.6347 73.9284 4.97489 73.9523 5.32709C74.0239 6.41571 74.022 7.50234 73.8826 8.58495C73.8666 8.71503 73.8388 8.85111 73.787 8.96917C73.6217 9.34739 73.56 9.74962 73.4863 10.1498C73.4445 10.38 73.3748 10.5961 73.2513 10.8002C73.1716 10.9323 73.1238 11.0884 73.082 11.2385C73.0123 11.4786 72.9367 11.7087 72.7734 11.9109C72.6837 12.0229 72.6579 12.183 72.5901 12.3151C72.5204 12.4532 72.4348 12.5852 72.3532 12.7173C72.3352 12.7453 72.3074 12.7653 72.2895 12.7934C72.0784 13.1195 71.8673 13.4457 71.6582 13.7719C71.6442 13.7919 71.6383 13.8199 71.6223 13.838C71.4292 14.0521 71.236 14.2662 71.0408 14.4763C70.9453 14.5784 70.8437 14.6744 70.7421 14.7725C70.6824 14.8285 70.6187 14.8806 70.5569 14.9346C70.4574 15.0206 70.3578 15.1067 70.2602 15.1947C70.2363 15.2167 70.2204 15.2528 70.1945 15.2688C69.8619 15.4809 69.5274 15.693 69.1909 15.9031C69.1212 15.9472 69.0295 15.9652 68.9758 16.0212C68.7866 16.2153 68.5377 16.2794 68.2987 16.3694C68.1533 16.4254 68.0179 16.5075 67.8745 16.5695C67.7312 16.6336 67.5898 16.7096 67.4384 16.7416C67.066 16.8217 66.6976 16.9057 66.3392 17.0478C65.919 17.2159 65.465 17.2339 65.0189 17.2479C64.067 17.2799 63.1151 17.2999 62.1612 17.3059C60.8429 17.3159 59.5266 17.3079 58.2083 17.3079C58.0251 17.3079 57.8439 17.3079 57.6607 17.2959C57.4158 17.2819 57.2983 17.1478 57.3321 16.9017C57.362 16.6896 57.4098 16.4755 57.4775 16.2713C57.6109 15.8731 57.6727 15.4649 57.7165 15.0506C57.7663 14.5624 57.8539 14.0841 57.9813 13.6078C58.1068 13.1456 58.1327 12.6593 58.2163 12.185C58.2701 11.8748 58.3238 11.5627 58.4154 11.2625C58.5588 10.7882 58.5987 10.3019 58.6564 9.81566C58.6982 9.45145 58.7639 9.09725 58.8834 8.74705C58.977 8.46689 59.0188 8.16471 59.0527 7.86854C59.1184 7.29822 59.1881 6.7359 59.3614 6.18158C59.4729 5.82137 59.5047 5.43115 59.5485 5.05294C59.5943 4.65471 59.674 4.26849 59.7756 3.88227C59.8891 3.45002 59.9428 3.00176 60.0026 2.55951C60.0583 2.15528 60.1181 1.75705 60.2495 1.36683C60.3332 1.11669 60.357 0.848533 60.4048 0.586383C60.4188 0.512341 60.4168 0.436297 60.4287 0.364256C60.4666 0.146132 60.5701 0.0480755 60.7912 0.0240617C60.9067 0.0120549 61.0222 0.0120549 61.1397 0.0120549C62.2509 0.0120549 63.3601 0.0120549 64.4713 0.0120549V-0.00195312L64.4733 4.80185e-05ZM63.842 13.5658C64.0829 13.5638 64.3239 13.5778 64.5629 13.5598C64.8178 13.5398 65.0727 13.5038 65.3216 13.4477C65.5805 13.3917 65.8274 13.2916 66.0863 13.2316C66.3611 13.1676 66.6399 13.1195 66.843 12.8934C66.8689 12.8634 66.9127 12.8474 66.9505 12.8314C67.3727 12.6653 67.6555 12.3171 67.9861 12.0309C68.0358 11.9889 68.0757 11.9309 68.1095 11.8748C68.3027 11.5486 68.6014 11.2885 68.705 10.9063C68.7149 10.8683 68.7468 10.8322 68.7746 10.8042C68.9101 10.6701 68.9698 10.5 69.0156 10.3199C69.0953 9.99776 69.167 9.67358 69.3302 9.37741C69.38 9.28535 69.398 9.17329 69.4139 9.06723C69.5254 8.32681 69.5712 7.58238 69.5194 6.83195C69.4856 6.34167 69.4677 5.8654 69.157 5.43716C69.0057 5.22704 68.8862 4.9929 68.7129 4.78878C68.4919 4.52864 68.1752 4.40657 67.9343 4.18044C67.8905 4.14041 67.8128 4.13241 67.7471 4.1204C67.528 4.07438 67.307 4.03635 67.0879 3.99033C66.3531 3.83824 65.6044 3.80622 64.8616 3.86225C64.2124 3.91028 64.079 3.89627 63.9893 4.70474C63.9515 5.04093 63.8898 5.37912 63.7982 5.70531C63.6986 6.05951 63.6249 6.41371 63.5871 6.77792C63.5273 7.34024 63.4616 7.89856 63.2724 8.43887C63.1948 8.663 63.1709 8.90914 63.147 9.14727C63.0872 9.7176 63.0335 10.2879 62.8363 10.8342C62.8005 10.9343 62.7806 11.0424 62.7646 11.1504C62.677 11.7508 62.5675 12.3491 62.5157 12.9514C62.4779 13.3857 62.5655 13.5458 63.0494 13.5658C63.3143 13.5778 63.5791 13.5678 63.844 13.5678L63.842 13.5658Z" fill="#1E1F24"/>
<path d="M46.013 17.3079C45.3996 17.3079 44.7863 17.3119 44.1729 17.3079C43.8224 17.3039 43.7348 17.1978 43.701 16.8436C43.6532 16.3653 43.5974 15.8871 43.5217 15.4108C43.4739 15.1106 43.233 14.9285 42.9283 14.9105C42.8467 14.9045 42.763 14.9085 42.6794 14.9085C41.1042 14.9085 39.531 14.9085 37.9558 14.9085C37.4161 14.9085 37.1174 15.1086 36.9263 15.6209C36.8307 15.8791 36.7351 16.1272 36.5598 16.3493C36.4563 16.4794 36.4105 16.6635 36.3607 16.8296C36.2651 17.1498 36.0122 17.2518 35.7274 17.3119C35.6717 17.3239 35.6119 17.3179 35.5542 17.3179C34.443 17.3179 33.3338 17.3179 32.2226 17.3179C32.0892 17.3179 31.9557 17.3199 31.8263 17.3019C31.5575 17.2638 31.4619 17.0417 31.6411 16.8416C31.8084 16.6575 31.8841 16.4294 32.0075 16.2273C32.2007 15.9091 32.3759 15.5829 32.5671 15.2647C32.6766 15.0806 32.8041 14.9085 32.8857 14.7084C32.9036 14.6624 32.9216 14.6123 32.9534 14.5763C33.1566 14.3502 33.29 14.086 33.3915 13.8019C33.3995 13.7799 33.4134 13.7538 33.4314 13.7398C33.6464 13.5517 33.7022 13.2676 33.8476 13.0434C34.0328 12.7593 34.1781 12.4551 34.3574 12.1709C34.4828 11.9748 34.5904 11.7727 34.7059 11.5726C34.8891 11.2584 35.0663 10.9422 35.2475 10.6301C35.3829 10.3959 35.5183 10.1618 35.6577 9.92766C35.825 9.64349 35.9784 9.34933 36.1556 9.07517C36.301 8.85104 36.4443 8.63492 36.5399 8.38478C36.5638 8.32474 36.5997 8.26271 36.6455 8.21868C36.7908 8.0846 36.8745 7.91651 36.9382 7.7344C36.996 7.56831 37.0696 7.41222 37.209 7.29415C37.221 7.28415 37.2349 7.27014 37.2409 7.25613C37.3723 6.89592 37.6252 6.60176 37.8025 6.26757C37.8841 6.11548 37.9817 5.9714 38.0653 5.81931C38.145 5.67523 38.2187 5.52714 38.2943 5.38106C38.3362 5.30101 38.3541 5.19695 38.4178 5.14092C38.603 4.97083 38.6866 4.7467 38.7882 4.52857C38.84 4.41851 38.9176 4.32045 38.9854 4.21639C39.0033 4.18838 39.0331 4.16837 39.0491 4.14035C39.2582 3.75613 39.4633 3.37191 39.6724 2.98769C39.7162 2.90765 39.752 2.81759 39.8138 2.75556C39.9691 2.60547 40.0428 2.41536 40.1264 2.22526C40.1822 2.09918 40.2678 1.98512 40.3415 1.86705C40.3634 1.83303 40.4092 1.80902 40.4211 1.773C40.5446 1.39678 40.8194 1.10662 40.9867 0.756417C41.0464 0.630345 41.1201 0.508275 41.2038 0.396211C41.381 0.162077 41.6239 0.0660226 41.9187 0.0680238C42.8128 0.0740272 43.7089 0.0680237 44.6031 0.0700249C44.9237 0.0700249 45.0133 0.156074 45.1447 0.442238C45.3618 0.912506 45.4195 1.41479 45.4793 1.91708C45.5251 2.31331 45.6107 2.69953 45.7222 3.08575C45.8278 3.44996 45.8756 3.83217 45.9273 4.21039C45.9811 4.60662 46.0608 4.99284 46.1763 5.37706C46.2758 5.70925 46.3276 6.05745 46.3734 6.40164C46.4312 6.82989 46.4989 7.25213 46.6343 7.66637C46.7378 7.98655 46.7777 8.33074 46.8195 8.66894C46.8732 9.09918 46.9489 9.51942 47.0863 9.93366C47.1839 10.2298 47.2257 10.548 47.2636 10.8602C47.3213 11.3385 47.395 11.8107 47.5523 12.271C47.6519 12.5652 47.6778 12.8873 47.7176 13.1995C47.7773 13.6538 47.859 14.098 47.9924 14.5383C48.1099 14.9245 48.1557 15.3347 48.2055 15.737C48.2473 16.0772 48.2991 16.4114 48.4285 16.7295C48.4504 16.7836 48.4683 16.8396 48.4823 16.8956C48.5261 17.0657 48.4982 17.1518 48.3289 17.2078C48.1597 17.2659 47.9765 17.3099 47.7992 17.3119C47.2038 17.3239 46.6064 17.3159 46.009 17.3159C46.009 17.3139 46.009 17.3119 46.009 17.3099L46.013 17.3079ZM42.1158 5.73926C41.9864 5.86133 41.8928 5.96539 41.7833 6.04944C41.606 6.18552 41.4865 6.35161 41.4168 6.56574C41.3571 6.74384 41.2635 6.91193 41.1819 7.08403C41.1062 7.23812 41.0225 7.39021 40.9469 7.5443C40.8712 7.70038 40.7995 7.85848 40.7238 8.01256C40.6521 8.16065 40.5725 8.30473 40.4988 8.45081C40.4191 8.61291 40.3475 8.781 40.2678 8.94309C40.2061 9.06717 40.1204 9.18323 40.0687 9.31131C39.981 9.53543 39.9233 9.76957 39.7441 9.94767C39.6943 9.9977 39.6744 10.0777 39.6465 10.1478C39.537 10.4159 39.4613 10.6921 39.2661 10.9242C39.1128 11.1083 39.2164 11.3144 39.4573 11.3645C39.521 11.3785 39.5887 11.3805 39.6545 11.3805C40.3992 11.3845 41.142 11.3885 41.8868 11.3925C42.0859 11.3925 42.2851 11.3965 42.4822 11.3845C42.7312 11.3705 42.8686 11.2244 42.8486 10.9843C42.7949 10.3739 42.775 9.75356 42.6595 9.15322C42.5121 8.38678 42.3627 7.62434 42.3189 6.8439C42.303 6.56374 42.2532 6.28558 42.2094 6.00742C42.1955 5.92337 42.1517 5.84532 42.1118 5.74127L42.1158 5.73926Z" fill="#1E1F24"/>
<path d="M6.38229 17.7821C5.8466 17.7301 5.23724 17.6761 4.62987 17.6101C4.51835 17.598 4.41081 17.54 4.30328 17.5C4.10215 17.4239 3.90699 17.3359 3.70387 17.2699C3.45893 17.1898 3.20602 17.1338 3.02282 16.9337C3.00091 16.9097 2.97104 16.8896 2.94117 16.8776C2.28003 16.5675 1.76426 16.0772 1.32217 15.5169C1.05931 15.1847 0.756616 14.8645 0.647089 14.4282C0.629167 14.3562 0.599296 14.2801 0.551503 14.2261C0.372278 14.022 0.320502 13.7739 0.276691 13.5157C0.214958 13.1395 0.151234 12.7613 0.0715781 12.3871C-0.0120603 11.9908 -0.0220172 11.5966 0.0436986 11.1984C0.137294 10.6241 0.232881 10.0517 0.336433 9.4774C0.354355 9.37334 0.400157 9.27329 0.441976 9.17323C0.541546 8.93709 0.641115 8.70096 0.746659 8.46883C0.808392 8.33475 0.880082 8.20468 0.94978 8.0746C0.973677 8.03058 1.01749 7.99856 1.03541 7.95253C1.17082 7.60033 1.38789 7.30016 1.62088 7.00999C1.79214 6.79787 1.96141 6.57975 2.15258 6.38564C2.43137 6.10147 2.70419 5.8033 3.02282 5.57117C3.31356 5.35905 3.5804 5.11691 3.905 4.93881C4.23159 4.75871 4.58008 4.62863 4.8987 4.45053C5.30296 4.2224 5.72911 4.13435 6.16722 4.0523C6.48385 3.99227 6.79251 3.88221 7.10915 3.83218C7.76033 3.72812 8.4155 3.72812 9.0627 3.85219C9.53466 3.94224 9.99865 4.06031 10.4646 4.17237C10.5762 4.20039 10.6817 4.25242 10.7852 4.30245C10.9704 4.3905 11.1537 4.48455 11.3349 4.58061C11.4663 4.65065 11.5938 4.72669 11.7192 4.80473C11.8666 4.89679 12.0119 4.99084 12.1573 5.08689C12.225 5.13292 12.2947 5.17895 12.3565 5.23298C12.4739 5.33504 12.6014 5.43309 12.701 5.55116C12.918 5.81131 13.1869 6.02543 13.3541 6.3276C13.4298 6.46368 13.5354 6.58375 13.615 6.71983C13.6867 6.8399 13.7445 6.96797 13.8062 7.09404C13.8898 7.26414 13.9715 7.43424 14.0491 7.60834C14.1049 7.73641 14.1706 7.86648 14.1965 8.00256C14.3259 8.66294 14.4414 9.33132 14.3976 10.0057C14.3558 10.6581 14.2542 11.3084 14.1746 11.9588C14.1666 12.0329 14.1507 12.1109 14.1129 12.1729C13.9257 12.4731 13.8739 12.8313 13.7206 13.1375C13.5334 13.5097 13.3661 13.9019 13.0853 14.2221C13.0694 14.2401 13.0475 14.2581 13.0375 14.2801C12.8742 14.6303 12.5894 14.8925 12.3664 15.1987C12.3047 15.2827 12.2111 15.3448 12.1334 15.4168C11.8964 15.6349 11.6635 15.857 11.4225 16.0732C11.3369 16.1492 11.2413 16.2173 11.1417 16.2753C10.9565 16.3854 10.7574 16.4714 10.614 16.6415C10.5981 16.6595 10.5781 16.6795 10.5562 16.6875C10.0922 16.8176 9.73977 17.1898 9.24989 17.2739C9.04278 17.3099 8.85161 17.4299 8.6465 17.496C8.45931 17.558 8.26813 17.6261 8.07298 17.6461C7.53729 17.7021 6.99962 17.7341 6.38428 17.7821H6.38229ZM3.79747 11.4465C3.79747 11.4465 3.81539 11.4465 3.82335 11.4465C3.82335 11.6126 3.81141 11.7807 3.82535 11.9448C3.84924 12.209 3.84924 12.4791 3.9747 12.7233C4.04241 12.8553 4.15392 12.9694 4.20172 13.1075C4.33713 13.5037 4.65177 13.7599 4.96044 13.972C5.293 14.2001 5.70323 14.3322 6.09553 14.4502C6.3345 14.5223 6.60532 14.5143 6.86022 14.5083C7.21469 14.5003 7.57314 14.4803 7.88579 14.2681C7.96544 14.2141 8.067 14.1881 8.16259 14.1621C8.42147 14.092 8.66641 14.004 8.84962 13.7879C8.90139 13.7258 8.98503 13.6918 9.05075 13.6418C9.12244 13.5878 9.20409 13.5377 9.26184 13.4697C9.48686 13.1975 9.77561 12.9754 9.91501 12.6352C9.92497 12.6132 9.94289 12.5932 9.96081 12.5772C10.1082 12.4431 10.1699 12.263 10.2356 12.0829C10.3073 11.8888 10.3989 11.7027 10.4726 11.5106C10.5304 11.3565 10.606 11.2004 10.62 11.0383C10.6558 10.6161 10.6817 10.1938 10.6737 9.76957C10.6697 9.51543 10.622 9.25328 10.5403 9.01514C10.4527 8.75899 10.3053 8.52286 10.1759 8.28072C10.146 8.22469 10.0922 8.17866 10.0484 8.13063C9.97475 8.05259 9.90705 7.96454 9.82341 7.9005C9.58444 7.71239 9.3395 7.53029 9.09456 7.35219C9.05672 7.32417 9.00096 7.32017 8.95317 7.31016C8.3677 7.17809 7.77825 7.09804 7.17884 7.1901C6.76463 7.25413 6.32852 7.26014 6.00592 7.59233C5.98401 7.61434 5.94817 7.62234 5.91829 7.63635C5.42244 7.86848 5.062 8.2547 4.74338 8.68295C4.5064 9.00113 4.2754 9.32532 4.17185 9.71754C4.16388 9.74956 4.14596 9.77958 4.12605 9.80559C3.9508 10.0517 3.8831 10.3319 3.86119 10.6261C3.83929 10.8982 3.82136 11.1724 3.80145 11.4465H3.79747Z" fill="#1E1F24"/>
<path d="M16.0806 20.996C15.758 20.996 15.4334 21.004 15.1108 20.992C14.9554 20.986 14.7961 20.9579 14.6508 20.9079C14.4556 20.8419 14.3779 20.7078 14.4456 20.5197C14.7125 19.7753 14.7264 18.9868 14.8559 18.2184C14.8658 18.1523 14.8698 18.0843 14.8957 18.0243C15.1426 17.4139 15.1725 16.7615 15.2581 16.1212C15.296 15.835 15.3916 15.5569 15.4493 15.2727C15.523 14.9065 15.5887 14.5403 15.6484 14.1721C15.6863 13.9419 15.6923 13.7078 15.7381 13.4797C15.7958 13.1955 15.8974 12.9214 15.9491 12.6372C16.0288 12.1969 16.0726 11.7487 16.1483 11.3084C16.204 10.9822 16.2956 10.6621 16.3614 10.3379C16.4311 9.98767 16.5028 9.63747 16.5486 9.28527C16.6143 8.79099 16.6521 8.29471 16.8293 7.82044C16.8951 7.64433 16.911 7.44822 16.9488 7.26011C16.9608 7.19408 16.9628 7.12804 16.9787 7.064C17.0783 6.65177 17.1699 6.57973 17.59 6.57973C18.1695 6.57973 18.751 6.58973 19.3305 6.57572C19.6531 6.56772 19.8602 6.7078 19.9658 7.01598C20.0733 7.33016 20.378 7.4082 20.611 7.17006C20.7763 7.00197 20.9694 6.91192 21.1765 6.82387C21.3279 6.75783 21.4633 6.65977 21.6146 6.59574C21.7879 6.52169 21.9651 6.44165 22.1503 6.41363C22.5825 6.34359 23.0206 6.28556 23.4567 6.25554C23.7195 6.23753 23.9864 6.26755 24.2493 6.29957C24.5778 6.33759 24.9064 6.39162 25.231 6.45566C25.3485 6.47967 25.458 6.54771 25.5656 6.60774C25.6671 6.66177 25.7587 6.73782 25.8603 6.78985C26.0873 6.90791 26.3342 6.98996 26.4796 7.2281C26.5115 7.28013 26.5812 7.31014 26.6349 7.35217C26.6867 7.39419 26.7564 7.42621 26.7843 7.48024C26.9954 7.89048 27.3797 8.20265 27.4494 8.69093C27.4614 8.77098 27.4912 8.85503 27.537 8.92307C27.7402 9.22524 27.7939 9.56943 27.8118 9.91963C27.8537 10.7001 27.8756 11.4805 27.7441 12.257C27.7242 12.371 27.6884 12.4831 27.6505 12.5912C27.553 12.8813 27.4474 13.1695 27.3558 13.4617C27.2961 13.6538 27.2523 13.8479 27.0969 13.992C27.079 14.008 27.0591 14.03 27.0531 14.052C26.9317 14.4682 26.621 14.7744 26.4258 15.1466C26.4099 15.1766 26.4019 15.2107 26.38 15.2347C26.1789 15.4508 25.9758 15.6669 25.7727 15.881C25.7567 15.8991 25.7289 15.9071 25.7149 15.9271C25.5337 16.2052 25.231 16.3493 25.004 16.5754C24.9403 16.6375 24.8606 16.6875 24.781 16.7275C24.5719 16.8296 24.3628 16.9256 24.1915 17.0917C24.1298 17.1518 24.0342 17.1838 23.9505 17.2118C23.6837 17.2999 23.4109 17.3639 23.1759 17.536C23.0883 17.6 22.9588 17.618 22.8473 17.636C21.9751 17.7721 21.1009 17.8061 20.2247 17.6581C20.0176 17.624 19.8244 17.566 19.6611 17.4179C19.6014 17.3639 19.5197 17.3319 19.444 17.2979C19.215 17.1958 19.0059 17.0737 18.8307 16.8856C18.6196 16.6575 18.4583 16.6975 18.3328 16.9877C18.3109 17.0397 18.299 17.0997 18.291 17.1558C18.2472 17.512 18.1476 17.8522 18.062 18.2004C17.9525 18.6506 17.9166 19.1169 17.841 19.5752C17.7912 19.8693 17.7215 20.1595 17.6677 20.4517C17.6359 20.6258 17.5303 20.7478 17.4088 20.8659C17.3132 20.9599 17.2097 21.004 17.0763 21.002C16.7457 20.998 16.4131 21.002 16.0826 21.002L16.0806 20.996ZM24.6515 11.4105C24.7451 10.9102 24.3986 10.494 24.1776 10.0377C24.1676 10.0157 24.1457 9.99968 24.1298 9.97967C23.8012 9.54742 23.3133 9.36732 22.8294 9.21323C22.4968 9.10717 22.1404 9.14519 21.7959 9.21723C21.7401 9.22924 21.6863 9.25325 21.6326 9.27327C21.4494 9.34531 21.2701 9.44336 21.081 9.48739C20.6886 9.57944 20.4437 9.88762 20.139 10.1077C20.0076 10.2018 19.908 10.3439 19.8025 10.4699C19.7447 10.538 19.6989 10.618 19.6511 10.6941C19.6073 10.7641 19.5755 10.8462 19.5197 10.9022C19.3803 11.0443 19.2987 11.2104 19.2588 11.4025C19.227 11.5566 19.1971 11.7127 19.1553 11.8647C18.992 12.4571 19.0697 13.0334 19.2748 13.5997C19.3186 13.7198 19.3982 13.8339 19.4799 13.9339C19.7945 14.3121 20.1569 14.6163 20.6707 14.6784C20.7345 14.6864 20.7942 14.7244 20.8579 14.7424C21.1586 14.8344 21.4613 14.8344 21.764 14.7524C21.9233 14.7104 22.0826 14.6663 22.2439 14.6303C22.5287 14.5643 22.8115 14.5023 23.0106 14.2601C23.0365 14.2301 23.0803 14.2161 23.1122 14.1901C23.2436 14.092 23.391 14.008 23.5045 13.8899C23.8609 13.5237 24.2234 13.1575 24.3508 12.6312C24.3648 12.5752 24.3946 12.5231 24.4245 12.4731C24.6197 12.1649 24.6655 11.8227 24.6515 11.4085V11.4105Z" fill="#1E1F24"/>
<path d="M55.7051 0.0480783C56.2348 0.0480783 56.7665 0.0400738 57.2962 0.0540818C57.4575 0.0580841 57.6188 0.112115 57.7741 0.162144C57.8697 0.192161 57.9135 0.274208 57.8797 0.382269C57.7164 0.902567 57.7044 1.44488 57.6228 1.97918C57.5809 2.25534 57.4874 2.52549 57.4336 2.80165C57.3579 3.19187 57.2822 3.5841 57.2325 3.97832C57.1707 4.4566 57.0811 4.92486 56.9596 5.39313C56.8362 5.87141 56.8023 6.37569 56.7246 6.86597C56.6888 7.0861 56.6589 7.31223 56.5872 7.52235C56.4399 7.95059 56.3801 8.39285 56.3304 8.8391C56.2766 9.31737 56.1929 9.78764 56.0615 10.2539C55.938 10.6902 55.9201 11.1544 55.8425 11.6027C55.7827 11.9449 55.6891 12.2811 55.6274 12.6233C55.5398 13.1035 55.4721 13.5898 55.3844 14.0701C55.3247 14.4043 55.263 14.7405 55.1674 15.0647C55.03 15.5309 54.9941 16.0112 54.9404 16.4895C54.9244 16.6296 54.9005 16.7696 54.8866 16.9097C54.8707 17.0578 54.793 17.1639 54.6556 17.2059C54.4983 17.2539 54.335 17.3099 54.1757 17.3099C53.0904 17.3179 52.0051 17.3159 50.9197 17.3139C50.5792 17.3139 50.4697 17.1779 50.4996 16.8297C50.5354 16.4054 50.5991 15.9892 50.7425 15.587C50.8899 15.1747 50.9058 14.7405 50.9576 14.3122C51.0074 13.9 51.085 13.4958 51.2005 13.0935C51.3061 12.7293 51.3519 12.3451 51.3977 11.9669C51.4515 11.5126 51.5311 11.0664 51.6586 10.6261C51.7621 10.2699 51.7979 9.8937 51.8477 9.52349C51.9095 9.06323 51.9712 8.60697 52.1186 8.15871C52.2201 7.85454 52.254 7.52635 52.2878 7.20417C52.3396 6.70788 52.4153 6.22161 52.5626 5.73933C52.6702 5.38513 52.7001 5.00691 52.7498 4.6367C52.8116 4.18444 52.8753 3.73619 53.0127 3.29593C53.1143 2.97375 53.1501 2.62955 53.1899 2.29336C53.2497 1.78107 53.3074 1.27078 53.4926 0.782498C53.5364 0.666432 53.5524 0.54036 53.5783 0.41829C53.634 0.148135 53.7396 0.0520806 54.0184 0.0480783C54.3589 0.0420749 54.6974 0.0480783 55.0379 0.0480783C55.261 0.0480783 55.486 0.0480783 55.709 0.0480783H55.7051Z" fill="#1E1F24"/>
<path d="M32.1271 6.58782C32.5074 6.58782 32.8898 6.58582 33.2701 6.58782C33.5191 6.58982 33.5887 6.64385 33.6565 6.88599C33.6804 6.97204 33.7023 7.06809 33.6883 7.15414C33.6425 7.47432 33.6146 7.80251 33.5191 8.10869C33.3836 8.54894 33.302 8.99519 33.2582 9.45145C33.2084 9.97375 33.1208 10.486 32.9635 10.9883C32.8699 11.2865 32.826 11.6067 32.8121 11.9189C32.7822 12.6133 32.603 13.2676 32.2884 13.876C32.1231 14.1962 31.9319 14.5083 31.7467 14.8165C31.6053 15.0507 31.4858 15.2928 31.3425 15.5229C31.1732 15.7971 31.0218 16.0812 30.8566 16.3534C30.7231 16.5715 30.5718 16.7776 30.4802 17.0198C30.4364 17.1358 30.3448 17.2039 30.2253 17.2379C29.835 17.352 29.4367 17.3159 29.0404 17.2999C28.8791 17.2939 28.7616 17.1118 28.7895 16.9017C28.8393 16.5315 28.8831 16.1573 28.9827 15.8011C29.1002 15.3828 29.1758 14.9606 29.2177 14.5304C29.2654 14.0261 29.3292 13.5278 29.4725 13.0375C29.5841 12.6593 29.6199 12.2551 29.6697 11.8608C29.7294 11.3906 29.7832 10.9243 29.9206 10.466C30.0222 10.1258 30.066 9.76763 30.1058 9.41343C30.1675 8.85111 30.2193 8.29079 30.4085 7.75048C30.4663 7.58839 30.4802 7.41029 30.5121 7.23819C30.522 7.19016 30.522 7.13813 30.532 7.0901C30.6236 6.66986 30.7291 6.58582 31.1553 6.58582C31.4779 6.58582 31.8005 6.58582 32.1251 6.58582L32.1271 6.58782Z" fill="#1E1F24"/>
<path d="M32.4097 5.42709C32.0792 5.42709 31.7486 5.43109 31.418 5.42308C31.3224 5.42108 31.2229 5.39307 31.1333 5.35705C31.0337 5.31702 30.9799 5.23297 30.9919 5.11891C31.0476 4.59261 31.0974 4.06431 31.1671 3.53801C31.203 3.26185 31.424 3.10176 31.6231 2.94166C31.6729 2.90164 31.7645 2.89964 31.8362 2.89964C32.5053 2.89564 33.1764 2.89164 33.8455 2.89964C34.2797 2.90364 34.4589 3.1798 34.3593 3.59804C34.2697 3.97626 34.2219 4.36248 34.1562 4.7467C34.1343 4.86877 34.1223 4.99284 34.0965 5.11491C34.0566 5.30702 33.9969 5.37105 33.7958 5.38306C33.3338 5.41108 32.8717 5.42508 32.4097 5.4451C32.4097 5.43909 32.4097 5.43309 32.4097 5.42709Z" fill="#1E1F24"/>
</g>
<defs>
<clipPath id="clip0_16_1009">
<rect width="74" height="21" fill="white"/>
</clipPath>
</defs>
</svg>
