<svg width="142" height="23" viewBox="0 0 142 23" fill="none" xmlns="http://www.w3.org/2000/svg">
<g clip-path="url(#clip0_16_907)">
<path d="M17.7048 14.7361C17.9679 14.5583 17.9839 14.3555 17.9467 14.1444C17.9174 13.9777 17.8058 13.9416 17.6862 14.0555C17.6384 14.0999 17.6038 14.1638 17.5693 14.2222C17.5347 14.2805 17.5161 14.3527 17.4736 14.4027C17.2637 14.6361 17.0484 14.8638 16.8358 15.0944C16.7667 15.1694 16.6976 15.2444 16.6391 15.3277C16.4106 15.6499 16.198 15.9833 15.9615 16.2999C15.8206 16.4888 15.6558 16.6611 15.4858 16.8222C15.4326 16.8722 15.3104 16.8999 15.2492 16.8694C15.1722 16.8333 15.0951 16.7388 15.0712 16.6527C15.0446 16.5611 15.0845 16.4499 15.0898 16.3444C15.1004 16.0305 14.9596 15.8611 14.6592 15.8749C14.3616 15.8888 14.0639 15.9277 13.769 15.9722C13.1338 16.0638 12.5013 16.1722 11.8635 16.2555C11.0715 16.3583 10.2716 16.4194 9.47962 16.3249C8.42722 16.1999 7.37216 16.0472 6.33039 15.8444C5.82545 15.7472 5.3205 15.5638 4.86074 15.3249C4.4435 15.1083 3.99969 14.8861 3.71001 14.4722C3.49209 14.1611 3.25025 13.8583 3.19178 13.4527C3.16521 13.2722 3.19178 13.1138 3.27682 12.9555C3.39376 12.7333 3.4974 12.5055 3.61434 12.2833C3.65686 12.2055 3.71267 12.1333 3.77379 12.0694C3.97843 11.8611 4.19635 11.6638 4.39567 11.4499C4.59764 11.2333 4.54981 11.0361 4.27608 10.9249C4.22558 10.9055 4.16711 10.9027 4.11396 10.8861C3.87478 10.8027 3.63826 10.7166 3.39907 10.6305C3.2848 10.5888 3.17052 10.5388 3.05359 10.5111C2.69482 10.4249 2.38122 10.2527 2.057 10.0694C1.49625 9.75272 1.05509 9.31661 0.659107 8.81939C0.433213 8.53605 0.255155 8.22494 0.289704 7.81939C0.31628 7.51105 0.473077 7.27494 0.624559 7.04161C0.829193 6.72772 1.05509 6.4305 1.29693 6.14716C1.44309 5.97772 1.62647 5.83883 1.80718 5.71105C2.17924 5.44716 2.56459 5.19994 2.94197 4.94439C3.36187 4.66383 3.82694 4.48328 4.27076 4.25828C4.56309 4.11105 4.8448 3.98327 5.15839 3.90272C5.37897 3.84439 5.58361 3.71939 5.79887 3.63605C5.9849 3.56383 6.17359 3.49994 6.36493 3.44716C6.84596 3.31383 7.32432 3.17494 7.808 3.06383C8.15349 2.98605 8.50694 2.95272 8.85509 2.89161C9.22449 2.82772 9.59389 2.7555 9.96596 2.69161C10.2609 2.63883 10.5533 2.55827 10.8509 2.54994C12.1452 2.51383 13.4394 2.47216 14.731 2.48327C15.4246 2.48883 16.1209 2.57216 16.8013 2.75272C17.0564 2.82216 17.3275 2.8305 17.5852 2.89716C17.9493 2.98883 18.3081 3.1055 18.6669 3.21105C18.9433 3.29439 19.2223 3.36939 19.4907 3.46939C19.6449 3.52494 19.7857 3.62216 19.9292 3.70272C19.9877 3.73605 20.0355 3.79439 20.0967 3.81105C20.5192 3.9305 20.8169 4.24716 21.1464 4.51383C21.2235 4.57494 21.2819 4.66383 21.3404 4.74439C21.3882 4.80828 21.4095 4.89439 21.4653 4.94716C21.9437 5.42494 21.8214 6.02216 21.7709 6.6055C21.7683 6.64994 21.755 6.69994 21.7284 6.73605C21.4281 7.1305 21.2288 7.60827 20.8301 7.92216C20.4793 8.19716 20.1392 8.49161 19.7777 8.75272C19.6263 8.86105 19.4323 8.89994 19.2595 8.97772C19.116 9.04161 18.9672 9.10827 18.9964 9.32216C19.0256 9.54161 19.0496 9.76661 19.302 9.84439C19.3871 9.87216 19.4721 9.89161 19.5598 9.91105C19.7937 9.95827 19.9983 10.0666 20.1658 10.2472C20.2428 10.3305 20.3225 10.4138 20.4129 10.4777C20.8009 10.7472 20.963 11.1555 21.0667 11.6027C21.0853 11.6777 21.0879 11.7666 21.0693 11.8416C20.9657 12.2749 20.8594 12.6972 20.5272 13.0388C20.1631 13.4111 19.7751 13.7305 19.3605 14.0333C19.023 14.2805 18.6483 14.4444 18.3081 14.6777C18.1486 14.7888 17.9759 14.7777 17.7075 14.7388L17.7048 14.7361ZM17.7606 7.48605C17.7181 7.42772 17.6915 7.40272 17.6809 7.37216C17.5852 7.09994 17.7022 6.70828 17.9254 6.54439C18.0078 6.48328 18.0902 6.4305 18.1726 6.36939C18.8609 5.86105 18.8449 4.84716 18.138 4.37216C18.0822 4.33605 18.0237 4.29716 17.9812 4.24716C17.8058 4.03328 17.564 3.9555 17.3168 3.8805C17.083 3.81105 16.8544 3.72772 16.6205 3.65272C16.3787 3.57494 16.1395 3.46383 15.8924 3.43883C15.1881 3.36661 14.4812 3.28883 13.7769 3.28883C12.6049 3.28883 11.4356 3.33327 10.2636 3.37772C9.67894 3.39994 9.09693 3.47216 8.54149 3.70272C8.33154 3.79161 8.0897 3.81105 7.86115 3.84716C7.48112 3.91105 7.07717 3.88883 6.73168 4.09439C6.44732 4.26383 6.13107 4.31939 5.83342 4.4305C5.34708 4.61105 4.882 4.84716 4.41427 5.07772C4.22824 5.16939 4.05815 5.30272 3.88541 5.42494C3.77645 5.50272 3.67546 5.58883 3.57447 5.67772C3.48412 5.76105 3.4097 5.86661 3.31137 5.93883C2.85958 6.28328 2.73734 7.17772 3.21038 7.62494C3.60902 7.99994 4.05018 8.29439 4.56575 8.45272C4.99894 8.58605 5.44275 8.68605 5.88391 8.79439C6.01148 8.82772 6.14435 8.8555 6.27458 8.86661C6.9124 8.91939 7.55287 8.99716 8.19069 9.01105C9.70817 9.04161 11.2177 8.95272 12.7059 8.61383C12.9956 8.54716 13.1178 8.2805 12.9637 8.02216C12.9238 7.95272 12.868 7.89439 12.8335 7.82217C12.7591 7.66939 12.7936 7.57494 12.9557 7.54716C13.086 7.52216 13.2188 7.52494 13.3517 7.5305C13.5617 7.53883 13.7716 7.56939 13.9789 7.57216C14.9968 7.5805 16.0146 7.57494 17.0298 7.59716C17.2557 7.60272 17.4922 7.65827 17.7022 7.74716C18.0237 7.8805 18.0849 8.23883 17.8616 8.50827C17.8244 8.55272 17.7766 8.58605 17.7474 8.63328C17.6915 8.72772 17.7155 8.81105 17.8111 8.86383C17.9546 8.94161 18.2549 8.88605 18.3666 8.76105C18.5074 8.59994 18.6483 8.44161 18.7838 8.27494C19.0443 7.95828 18.9353 7.53605 18.5659 7.39161C18.2922 7.28605 18.0291 7.2555 17.7527 7.48883L17.7606 7.48605ZM14.8745 12.1694C14.8373 12.1361 14.8054 12.1194 14.7868 12.0944C14.6353 11.8805 14.5955 11.6527 14.6406 11.3805C14.7044 11.0083 14.5264 10.8361 14.1702 10.8861C13.5909 10.9666 13.0089 11.0416 12.4322 11.1444C10.8775 11.4277 9.31485 11.4916 7.74156 11.3999C7.3004 11.3749 6.85924 11.3361 6.41809 11.3194C5.94504 11.3027 5.55171 11.5999 5.38163 12.0805C5.2328 12.4972 5.36834 13.0694 5.7404 13.3166C6.08057 13.5444 6.45263 13.7833 6.83798 13.8638C7.76814 14.0555 8.71158 14.1999 9.65768 14.2833C10.8562 14.3888 12.0362 14.1277 13.2188 13.9638C13.644 13.9055 13.6999 13.8166 13.6945 13.3777C13.6945 13.1999 13.761 13.1166 13.9178 13.1055C14.0267 13.0972 14.1384 13.0972 14.25 13.0972C15.0473 13.1027 15.8419 13.1138 16.6391 13.1083C16.8358 13.1083 17.0325 13.0666 17.2265 13.0305C17.4098 12.9944 17.5294 12.8833 17.6145 12.6972C17.75 12.3972 17.9041 12.1027 18.1672 11.8888C18.6376 11.5055 18.6164 10.8805 18.1141 10.4777C17.9387 10.3361 17.7686 10.1916 17.5906 10.0555C17.2557 9.79994 16.8119 9.88605 16.5807 10.2388C16.5116 10.3416 16.4292 10.4361 16.3521 10.5333C16.1156 10.8361 15.8339 11.1138 15.6532 11.4499C15.4645 11.7999 15.1668 11.9611 14.8798 12.1638L14.8745 12.1694ZM18.6058 13.3222C18.5978 13.0666 18.348 12.8833 18.1354 12.9027C17.8723 12.9305 17.758 13.1249 17.859 13.3805C17.9095 13.5083 17.952 13.6388 18.0131 13.7611C18.1035 13.9444 18.2629 13.9749 18.3772 13.8083C18.4888 13.6444 18.5499 13.4444 18.6058 13.3194V13.3222Z" fill="#3F3E3E"/>
<path d="M138.574 17.0278C138.258 16.9889 137.936 16.9695 137.625 16.9056C137.376 16.8556 137.33 16.7861 137.333 16.5222C137.333 16.3417 137.344 16.1445 137.413 15.9833C137.562 15.6361 137.602 15.275 137.639 14.9083C137.713 14.1861 137.793 13.4695 137.992 12.7667C138.096 12.4056 138.136 12.0222 138.17 11.6445C138.229 11.0361 138.306 10.4333 138.476 9.84445C138.569 9.52779 138.625 9.19168 138.646 8.86112C138.678 8.34168 138.17 7.97779 137.692 8.15556C137.599 8.19168 137.509 8.23612 137.416 8.27501C136.99 8.45279 136.799 8.76668 136.767 9.25556C136.717 10 136.634 10.7445 136.4 11.4639C136.305 11.7528 136.291 12.075 136.262 12.3833C136.198 13.0611 136.1 13.7278 135.922 14.3889C135.8 14.8389 135.773 15.3195 135.709 15.7861C135.688 15.9445 135.685 16.1083 135.659 16.2667C135.584 16.6917 135.319 16.9639 134.92 16.9833C134.49 17.0028 134.056 17.0111 133.626 16.9833C133.054 16.9472 132.852 16.6667 133.039 16.1195C133.219 15.5889 133.254 15.0389 133.336 14.4945C133.429 13.9028 133.48 13.3056 133.679 12.7361C133.745 12.5445 133.769 12.3306 133.783 12.125C133.833 11.3528 133.931 10.5917 134.152 9.84723C134.242 9.54167 134.288 9.21668 134.314 8.89723C134.357 8.34445 133.873 7.98056 133.363 8.16112C133.238 8.20556 133.11 8.25279 132.996 8.31945C132.69 8.4889 132.462 8.71667 132.438 9.1139C132.417 9.46945 132.385 9.82779 132.329 10.1778C132.257 10.6195 132.138 11.0528 132.066 11.4945C131.968 12.1083 131.896 12.725 131.808 13.3389C131.776 13.5667 131.76 13.8 131.691 14.0167C131.486 14.6583 131.415 15.3195 131.34 15.9861C131.33 16.0778 131.324 16.1695 131.308 16.2611C131.213 16.7278 130.934 16.9806 130.474 16.9945C130.099 17.0056 129.722 17.0056 129.347 16.9945C128.786 16.975 128.643 16.8028 128.68 16.2306C128.685 16.1389 128.704 16.0472 128.723 15.9583C128.824 15.4278 128.922 14.8972 129.026 14.3667C129.121 13.8695 129.225 13.375 129.323 12.8806C129.355 12.7111 129.387 12.5417 129.406 12.3695C129.499 11.5111 129.597 10.6556 129.818 9.81667C129.956 9.28612 130.014 8.72779 130.057 8.18056C130.097 7.65001 130.275 7.16945 130.431 6.68056C130.501 6.46112 130.663 6.30001 130.899 6.29723C131.295 6.29445 131.691 6.30834 132.087 6.33612C132.188 6.34445 132.289 6.42223 132.385 6.47501C132.542 6.56112 132.693 6.65834 132.847 6.74723C133.009 6.8389 133.142 6.81667 133.302 6.70001C133.761 6.37223 134.28 6.16112 134.827 6.07501C135.526 5.9639 136.089 6.32223 136.61 6.75001C136.887 6.97501 137.03 7.0389 137.293 6.83056C137.711 6.50001 138.202 6.3639 138.675 6.18056C138.827 6.12223 138.994 6.08612 139.156 6.07223C140.039 6.00834 140.714 6.42779 141.237 7.12223C141.362 7.28612 141.399 7.55279 141.41 7.77223C141.436 8.37223 141.399 8.9639 141.221 9.54723C141.017 10.2167 140.846 10.9 140.711 11.5861C140.602 12.1361 140.581 12.7056 140.498 13.2639C140.453 13.5695 140.357 13.8667 140.304 14.1722C140.206 14.7611 140.124 15.3528 140.036 15.9445C140.015 16.0917 140.015 16.2472 139.972 16.3861C139.858 16.7583 139.581 16.9722 139.207 16.9889C138.997 17 138.787 16.9889 138.577 16.9889C138.577 17.0028 138.577 17.0139 138.574 17.0278Z" fill="#3F3E3E"/>
<path d="M27.708 2.59997C28.2156 2.59997 28.7259 2.60553 29.2335 2.59997C29.7916 2.59164 30.3151 2.76942 30.7802 3.04997C31.0885 3.23608 31.3941 3.49997 31.5137 3.90553C31.5775 4.11386 31.6731 4.30831 31.7555 4.51109C31.7768 4.56386 31.8087 4.61664 31.8113 4.6722C31.8432 5.28053 31.899 5.89164 31.7449 6.49164C31.6758 6.75831 31.6014 7.02497 31.5482 7.29442C31.4712 7.68886 31.4127 8.09164 31.1682 8.42497C31.1416 8.46109 31.123 8.50831 31.115 8.54997C31.0433 9.04164 30.7377 9.40553 30.456 9.76386C30.2513 10.0222 30.0175 10.2805 29.6985 10.4194C29.6082 10.4583 29.5205 10.5111 29.4354 10.5666C29.3398 10.6278 29.2999 10.7111 29.3398 10.8305C29.4195 11.0833 29.4859 11.3444 29.6906 11.525C29.8952 11.7055 29.9537 11.9416 29.9723 12.2028C30.0387 13.2722 30.1078 14.3416 30.1689 15.4083C30.1796 15.6 30.2301 15.7555 30.3417 15.9139C30.4427 16.0555 30.5144 16.2389 30.5437 16.4111C30.6128 16.8083 30.4772 16.9778 30.0892 16.9861C29.5816 16.9972 29.0714 16.9861 28.5638 16.9861C28.5425 16.9861 28.5186 16.9861 28.4973 16.9833C27.9711 16.9333 27.6974 16.6861 27.5991 16.1416C27.5539 15.8833 27.5432 15.6166 27.5273 15.3528C27.4582 14.2139 27.3918 13.0778 27.3253 11.9389C27.3227 11.8805 27.3174 11.8222 27.3067 11.7666C27.2536 11.4916 27.0516 11.2528 26.8789 11.2583C26.5626 11.2694 26.2968 11.5055 26.265 11.825C26.2145 12.3166 26.1773 12.8111 26.1214 13.3028C26.0975 13.5305 26.071 13.7639 26.0019 13.9805C25.7892 14.6305 25.7201 15.3055 25.6457 15.9805C25.6298 16.1389 25.5952 16.2972 25.5501 16.45C25.4597 16.7583 25.2365 16.95 24.9468 16.9666C24.4286 16.9944 23.9077 16.9944 23.3921 16.9528C22.9722 16.9194 22.9058 16.8222 22.9323 16.3666C22.9509 16.0472 23.0227 15.7305 23.0759 15.4139C23.1822 14.7666 23.2885 14.1194 23.4027 13.475C23.4585 13.1583 23.5383 12.8472 23.6047 12.5305C23.6446 12.3389 23.6924 12.15 23.7163 11.9555C23.7907 11.4083 23.8519 10.8583 23.9236 10.3111C23.9396 10.1861 23.9555 10.0583 23.9954 9.93886C24.2585 9.15831 24.3063 8.33886 24.394 7.52497C24.41 7.36386 24.4206 7.1972 24.4737 7.04997C24.697 6.42775 24.7528 5.76942 24.8378 5.11942C24.9202 4.50275 25.0026 3.88886 25.17 3.28886C25.3056 2.79164 25.4836 2.61108 25.9806 2.5972C26.5546 2.58331 27.1313 2.59442 27.7054 2.59442L27.708 2.59997ZM29.1537 5.77497C29.1511 5.33331 29.0926 4.94164 28.6674 4.74164C28.6196 4.71942 28.5797 4.66942 28.5345 4.63886C28.1731 4.37497 27.7691 4.48331 27.5751 4.89997C27.5326 4.99164 27.4848 5.08886 27.4662 5.18886C27.3652 5.76664 27.2695 6.34442 27.1738 6.92497C27.0888 7.44442 27.0622 7.97497 26.8443 8.46942C26.7699 8.64164 26.8044 8.87497 26.8257 9.07775C26.8337 9.15831 26.9293 9.26942 27.0064 9.29442C27.3865 9.41108 27.7665 9.46108 28.0881 9.12497C28.1651 9.04442 28.2714 8.99164 28.3405 8.90275C28.4495 8.76386 28.5638 8.61664 28.6222 8.44997C28.7099 8.20275 28.7179 7.92497 28.8189 7.68608C29.082 7.06664 29.074 6.40553 29.1511 5.78053L29.1537 5.77497Z" fill="#3F3E3E"/>
<path d="M76.953 6.23059C77.2693 6.26392 77.5909 6.27781 77.9044 6.33615C78.1782 6.38892 78.2685 6.55004 78.2313 6.83615C78.2127 6.97226 78.1915 7.11392 78.141 7.23892C77.8752 7.88892 77.8779 8.58892 77.7662 9.26948C77.6972 9.68892 77.6201 10.1056 77.5457 10.525C77.4899 10.8306 77.4314 11.1361 77.3782 11.4417C77.256 12.1667 77.1337 12.8945 77.0195 13.6223C76.9716 13.9278 76.9424 14.2361 76.9265 14.5445C76.9132 14.7667 77.0407 14.9056 77.2427 14.9778C77.5483 15.0889 77.854 15.1084 78.1489 14.9639C78.5237 14.7806 78.6831 14.4195 78.7496 14.025C78.8612 13.3778 78.9329 12.725 79.0339 12.0778C79.1641 11.2361 79.2439 10.3778 79.4538 9.55837C79.6691 8.7167 79.7169 7.85559 79.8657 7.00837C79.9401 6.58059 80.2405 6.28337 80.6497 6.26948C81.0696 6.25281 81.4895 6.25837 81.9094 6.26115C81.9865 6.26115 82.0636 6.28337 82.138 6.30281C82.5658 6.42503 82.6854 6.60837 82.5207 7.03337C82.2204 7.80837 82.1858 8.62781 82.0928 9.43892C82.0715 9.62226 82.0609 9.81115 82.0051 9.98337C81.734 10.7973 81.7048 11.6584 81.5666 12.4973C81.532 12.7139 81.5001 12.9306 81.4603 13.1445C81.3779 13.5861 81.2769 14.0223 81.2131 14.4667C81.1387 14.9695 81.0749 15.4695 80.9155 15.9528C80.8517 16.1445 80.849 16.3611 80.8278 16.5667C80.7587 17.2445 80.7002 17.9195 80.3866 18.5389C80.3016 18.7084 80.2803 18.9139 80.2405 19.1028C80.2006 19.3 80.1342 19.4778 79.9906 19.6167C79.9428 19.6639 79.8923 19.7167 79.8684 19.7778C79.7382 20.1139 79.5362 20.3917 79.2917 20.65C78.9648 20.9945 78.63 21.3278 78.1941 21.5056C77.7955 21.6695 77.3889 21.825 76.9716 21.9361C76.0468 22.1778 75.1512 22.0611 74.2981 21.6028C74.136 21.5139 74.0324 21.3806 74.043 21.1945C74.0669 20.7695 74.0908 20.3417 74.1493 19.9223C74.1891 19.6306 74.5346 19.4334 74.8482 19.5C75.098 19.5528 75.3399 19.6389 75.587 19.6917C76.286 19.8334 76.9132 19.7084 77.45 19.1723C77.7211 18.9028 77.8752 18.6 77.9363 18.2195C77.9682 18.0195 78.0719 17.8306 78.1224 17.6334C78.1888 17.3806 78.2632 17.1223 78.2792 16.8639C78.2951 16.5917 78.1516 16.4973 77.8938 16.5695C77.7795 16.6 77.6493 16.6361 77.5616 16.7139C77.3118 16.9417 77.0168 17.0195 76.7059 17.0473C76.2435 17.0861 75.7678 17.1306 75.3266 16.9528C74.92 16.7889 74.5745 16.525 74.4283 16.0584C74.4018 15.9695 74.3752 15.8806 74.3433 15.7973C74.1971 15.4306 74.2104 15.0611 74.2742 14.6778C74.4097 13.8834 74.5213 13.0861 74.6409 12.2889C74.6595 12.1639 74.6622 12.0334 74.6994 11.9139C74.904 11.2611 74.9519 10.5806 75.0502 9.91115C75.0768 9.73059 75.1007 9.5417 75.1592 9.37226C75.3877 8.72503 75.4356 8.04448 75.4993 7.36948C75.5073 7.28892 75.5073 7.20837 75.5153 7.12781C75.5764 6.58059 75.8873 6.28615 76.4135 6.27226C76.5916 6.2667 76.767 6.27226 76.9451 6.27226C76.9451 6.26115 76.9451 6.25281 76.9477 6.2417L76.953 6.23059Z" fill="#3F3E3E"/>
<path d="M93.1563 5.66666C93.0952 6.01666 93.0314 6.36388 92.9729 6.71388C92.9038 7.12222 92.8241 7.52777 92.7736 7.93888C92.7338 8.26388 92.6912 8.56944 92.4946 8.84444C92.3883 8.99721 92.3484 9.20277 92.2926 9.38888C92.2341 9.59166 92.1517 9.76666 92.0109 9.92777C91.8195 10.1472 91.6681 10.4055 91.4767 10.625C91.0887 11.0667 90.6236 11.3805 90.0523 11.5083C89.7493 11.575 89.4516 11.6639 89.146 11.7055C88.952 11.7333 88.7474 11.7083 88.5534 11.6805C88.3355 11.6472 88.1468 11.6861 87.9554 11.8083C87.7295 11.9528 87.6073 12.1278 87.5648 12.4056C87.4478 13.1556 87.3017 13.9 87.1768 14.6472C87.1209 14.9861 87.097 15.3333 87.0545 15.675C87.0253 15.9028 86.9854 16.1305 86.9509 16.3555C86.8924 16.7333 86.6346 16.9361 86.313 16.9555C85.7656 16.9889 85.2075 16.9805 84.66 16.9305C84.2667 16.8944 84.2056 16.7667 84.2268 16.35C84.2322 16.2361 84.2454 16.1139 84.2906 16.0139C84.5484 15.425 84.5883 14.7861 84.6733 14.1611C84.7451 13.625 84.8035 13.0972 84.9391 12.5667C85.1065 11.9028 85.1623 11.2055 85.2713 10.525C85.4148 9.63888 85.4972 8.7361 85.7231 7.87222C85.9729 6.91944 86.0234 5.94166 86.1881 4.98055C86.22 4.79999 86.2732 4.62222 86.3104 4.44444C86.3848 4.09722 86.4858 3.75277 86.5203 3.39999C86.5841 2.75277 86.8392 2.68611 87.2963 2.59999C87.3389 2.59166 87.384 2.59444 87.4292 2.59444C88.4896 2.59444 89.5526 2.59444 90.613 2.59444C91.1259 2.59444 91.6149 2.76111 92.0189 3.04999C92.3776 3.30555 92.7311 3.61666 92.8241 4.1361C92.9145 4.64166 93.1696 5.11388 93.1537 5.65833L93.1563 5.66666ZM90.4536 5.82777C90.5094 5.28055 90.3472 4.87499 89.8423 4.61388C89.4623 4.41944 89.1088 4.49444 88.9467 4.89166C88.8989 5.00833 88.8723 5.13055 88.8431 5.25277C88.8059 5.40833 88.7979 5.57499 88.7447 5.72499C88.5055 6.39166 88.4737 7.09722 88.3966 7.79444C88.3514 8.19722 88.3169 8.59444 88.1229 8.95833C88.0112 9.16666 88.0644 9.36666 88.1946 9.53888C88.3275 9.7111 88.5268 9.7861 88.7288 9.75833C89.2922 9.68055 89.829 9.14444 89.9725 8.55833C90.0204 8.35833 90.0842 8.1611 90.1373 7.96388C90.2117 7.69999 90.3154 7.44166 90.3499 7.17222C90.4057 6.72777 90.419 6.27777 90.4482 5.83055L90.4536 5.82777Z" fill="#3F3E3E"/>
<path d="M96.6058 14.0306C96.6643 13.2972 96.7095 12.5611 96.7812 11.8278C96.8051 11.5778 96.8928 11.3361 96.946 11.0917C97.039 10.6667 97.1373 10.2389 97.217 9.81111C97.2675 9.53888 97.3074 9.26666 97.4748 9.03611C97.5067 8.99166 97.5333 8.93611 97.5439 8.88055C97.6396 8.38333 97.8974 7.96388 98.1605 7.55833C98.5033 7.03333 98.8913 6.54166 99.5185 6.35277C99.6036 6.32777 99.6833 6.28888 99.763 6.25C100.305 5.98333 100.831 6.01389 101.344 6.34166C101.57 6.48611 101.809 6.60833 102.041 6.74444C102.173 6.82222 102.293 6.81944 102.397 6.69722C102.654 6.4 103.013 6.35 103.359 6.28611C103.563 6.25 103.779 6.24444 103.986 6.26666C104.119 6.28055 104.254 6.35277 104.369 6.42777C104.544 6.54722 104.56 6.71111 104.517 6.93611C104.403 7.52222 104.345 8.11944 104.252 8.71111C104.095 9.71111 103.991 10.725 103.752 11.7056C103.569 12.4611 103.521 13.2278 103.38 13.9833C103.324 14.2889 103.279 14.5972 103.223 14.9028C103.189 15.0917 103.221 15.2611 103.303 15.4333C103.659 16.1667 103.263 16.9389 102.474 17.0333C102.157 17.0722 101.833 17.0472 101.514 17.05C101.28 17.05 101.089 16.95 100.916 16.7917C100.826 16.7111 100.728 16.6333 100.621 16.5778C100.39 16.4611 100.172 16.4694 99.9916 16.6889C99.8029 16.9167 99.5318 16.9556 99.274 17.0083C98.8355 17.1 98.3917 17.0806 97.9585 16.9639C97.5838 16.8611 97.3526 16.5611 97.1214 16.2639C97.1134 16.2556 97.1134 16.2417 97.1054 16.2333C96.6669 15.7194 96.6563 15.0833 96.635 14.45C96.6297 14.3111 96.635 14.1722 96.635 14.0361C96.6244 14.0361 96.6138 14.0361 96.6031 14.0361L96.6058 14.0306ZM99.1411 13.6222C99.1411 13.8056 99.1332 13.9917 99.1411 14.175C99.1624 14.5528 99.3458 14.8278 99.6567 15.0055C100.055 15.2333 100.518 15.0528 100.627 14.6389C100.853 13.7833 101.033 12.9194 101.097 12.0306C101.121 11.7111 101.198 11.3972 101.254 11.0806C101.389 10.3111 101.538 9.54444 101.655 8.77222C101.695 8.50555 101.546 8.275 101.336 8.12777C101.153 8 100.924 8.06111 100.77 8.17222C100.491 8.37499 100.199 8.60277 100.085 8.95C99.9092 9.48055 99.6753 9.99166 99.6089 10.5611C99.5477 11.075 99.484 11.5944 99.3537 12.0917C99.2235 12.5972 99.1358 13.1 99.1358 13.6222H99.1411Z" fill="#3F3E3E"/>
<path d="M115.536 13.5778C115.56 13.0945 115.573 12.6111 115.61 12.1278C115.629 11.9 115.685 11.675 115.735 11.45C115.825 11.0473 115.937 10.6473 116.017 10.2417C116.081 9.91393 116.142 9.58892 116.306 9.2917C116.384 9.15281 116.41 8.98893 116.479 8.8417C116.57 8.64726 116.676 8.46115 116.777 8.27226C116.798 8.23337 116.841 8.20004 116.851 8.15837C116.958 7.73893 117.255 7.45281 117.518 7.15281C117.71 6.93615 117.93 6.70559 118.183 6.5917C118.818 6.30559 119.453 5.9667 120.181 6.05281C120.42 6.08059 120.662 6.12504 120.888 6.20837C121.292 6.35837 121.712 6.48615 122.012 6.8417C122.105 6.95281 122.198 7.0667 122.283 7.18615C122.905 8.05837 122.841 9.07504 122.807 10.075C122.788 10.625 122.706 11.1778 122.634 11.725C122.602 11.975 122.52 12.2167 122.461 12.4639C122.395 12.7334 122.321 12.9973 122.267 13.2695C122.201 13.5973 122.145 13.9278 121.93 14.1945C121.917 14.2111 121.903 14.2334 121.898 14.2556C121.8 14.7806 121.494 15.1973 121.212 15.6195C121 15.9389 120.75 16.2306 120.415 16.425C120.319 16.4806 120.213 16.5278 120.131 16.6028C119.87 16.8417 119.565 16.975 119.227 16.9945C118.709 17.025 118.183 17.0834 117.675 17.0167C116.854 16.9056 116.267 16.4084 115.926 15.6056C115.865 15.4584 115.743 15.3361 115.703 15.1861C115.634 14.9334 115.589 14.6695 115.565 14.4084C115.541 14.1334 115.56 13.8556 115.56 13.5778C115.552 13.5778 115.544 13.5778 115.536 13.5778ZM118.002 13.875C118.002 14.0361 117.999 14.2667 118.002 14.4973C118.005 14.6889 118.106 14.8139 118.26 14.9084C118.674 15.1639 119.142 15.0139 119.325 14.5528C119.413 14.3306 119.461 14.0861 119.565 13.875C119.724 13.55 119.812 13.2139 119.857 12.8556C119.921 12.3778 119.987 11.9 120.064 11.425C120.131 11.0167 120.24 10.6167 120.29 10.2084C120.343 9.76393 120.354 9.31393 120.381 8.8667C120.394 8.6417 120.298 8.46392 120.144 8.31948C119.987 8.16948 119.647 8.07504 119.533 8.17782C119.278 8.40837 118.967 8.59726 118.876 8.97504C118.709 9.68892 118.539 10.4028 118.387 11.1223C118.3 11.5361 118.281 11.9695 118.183 12.3806C118.068 12.8528 117.962 13.3195 117.997 13.8778L118.002 13.875Z" fill="#3F3E3E"/>
<path d="M49.0909 17.1111C48.6896 17.0444 48.2697 17.0306 47.8897 16.9C47.5097 16.7694 47.1615 16.525 46.9356 16.15C46.9117 16.1111 46.8958 16.0639 46.8612 16.0361C46.5503 15.775 46.4892 15.3944 46.428 15.0194C46.3643 14.6333 46.2978 14.2444 46.2712 13.8556C46.2526 13.5944 46.2872 13.3278 46.3164 13.0639C46.3935 12.3083 46.4785 11.5528 46.5609 10.7972C46.5609 10.7861 46.5609 10.775 46.5662 10.7639C46.7602 10.1417 46.917 9.50556 47.1376 8.9C47.3555 8.3 47.6877 7.71667 48.1395 7.25278C48.4824 6.9 48.8358 6.54167 49.3328 6.41111C49.5135 6.36389 49.6862 6.275 49.8616 6.21111C50.4915 5.98334 51.116 5.96111 51.7299 6.26667C51.7804 6.29167 51.8309 6.32222 51.8841 6.33334C52.3996 6.44167 52.7026 6.85 53.0295 7.225C53.08 7.28334 53.1172 7.35834 53.1437 7.43334C53.4919 8.40556 53.7151 9.39167 53.5211 10.4417C53.3803 11.2 53.2819 11.9667 53.1464 12.725C53.1065 12.9472 53.0029 13.1556 52.9311 13.3694C52.862 13.575 52.8089 13.7861 52.7318 13.9889C52.6441 14.2222 52.5458 14.4528 52.4448 14.6806C52.4076 14.7639 52.3465 14.8361 52.3172 14.9222C52.0967 15.5389 51.6635 15.9917 51.1957 16.3889C50.635 16.8667 49.9733 17.1167 49.2318 17.0611C49.1866 17.0583 49.1441 17.0611 49.0989 17.0611L49.0909 17.1111ZM48.7215 13.7778C48.7375 13.7778 48.7561 13.7806 48.772 13.7833C48.772 14.025 48.7694 14.2667 48.772 14.5083C48.7773 14.7639 48.889 14.9778 49.1255 15.0361C49.37 15.0972 49.665 15.1111 49.8218 14.8528C50.0078 14.5444 50.2257 14.2528 50.3081 13.8806C50.4277 13.3417 50.5712 12.8111 50.7014 12.275C50.7307 12.1528 50.7466 12.025 50.7599 11.9C50.8423 11.1806 50.9326 10.4611 51.0017 9.73889C51.031 9.42222 51.0496 9.09445 51.0124 8.77778C50.9778 8.49167 50.8237 8.17778 50.5473 8.12778C50.2682 8.07778 49.9972 8.26111 49.8297 8.53611C49.8005 8.58334 49.7793 8.63889 49.7527 8.68889C49.7022 8.77778 49.6411 8.86111 49.5985 8.95556C49.5348 9.1 49.4577 9.24167 49.4285 9.39445C49.3168 9.99167 49.2849 10.6083 49.0458 11.1778C49.0112 11.2611 48.9953 11.3556 48.9846 11.4472C48.8943 12.225 48.8092 13.0028 48.7215 13.7778Z" fill="#3F3E3E"/>
<path d="M65.8762 11.925C65.4882 11.925 65.1029 11.9222 64.7149 11.925C64.5607 11.925 64.4039 11.9361 64.2524 11.9555C64.0584 11.9805 63.9229 12.0972 63.8777 12.2944C63.8299 12.4944 63.7953 12.7 63.7634 12.9055C63.7183 13.2 63.6997 13.5028 63.6306 13.7917C63.5535 14.1028 63.6093 14.3861 63.7076 14.6694C63.8751 15.1555 64.4624 15.3028 64.8185 14.9361C65.063 14.6833 65.257 14.3972 65.3102 14.0194C65.3766 13.5472 65.4616 13.4778 65.9108 13.4555C66.2297 13.4389 66.5513 13.4444 66.8728 13.4472C66.9605 13.4472 67.0482 13.4722 67.1333 13.4917C67.6356 13.5972 67.6169 13.9944 67.4761 14.3722C67.4017 14.575 67.2927 14.7639 67.2316 14.9694C67.0535 15.5667 66.6735 16.0083 66.2297 16.3917C66.0357 16.5583 65.8151 16.7055 65.5839 16.8083C65.3527 16.9111 65.1002 16.9805 64.8504 17.0083C64.1674 17.0861 63.4764 17.1361 62.8147 16.8917C62.4612 16.7611 62.1609 16.5222 61.9085 16.225C61.8367 16.1389 61.7623 16.0528 61.6959 15.9611C61.6321 15.8694 61.5444 15.7778 61.5205 15.675C61.3902 15.1167 61.2414 14.5583 61.1723 13.9917C61.1218 13.5861 61.1643 13.1639 61.2122 12.7528C61.2892 12.0778 61.4088 11.4083 61.5019 10.7361C61.5444 10.4361 61.6214 10.1583 61.7517 9.88332C61.8633 9.64999 61.9164 9.38332 61.9829 9.12777C62.044 8.89443 62.0865 8.65277 62.2726 8.48054C62.3044 8.44999 62.331 8.40832 62.3443 8.36666C62.4745 7.91943 62.7801 7.58332 63.0698 7.2611C63.3887 6.90554 63.7369 6.54999 64.2232 6.41943C64.372 6.37777 64.5235 6.33054 64.6617 6.2611C65.0524 6.0611 65.4723 5.99999 65.8922 6.05832C66.6522 6.1611 67.322 6.41666 67.8163 7.11388C68.1511 7.58332 68.2574 8.07499 68.2813 8.62221C68.3106 9.29443 68.2335 9.95555 68.1431 10.6194C68.09 10.9944 67.9279 11.3194 67.7737 11.65C67.6781 11.8583 67.4974 11.9333 67.2794 11.9305C66.8144 11.925 66.3493 11.9305 65.8869 11.9305V11.925H65.8762ZM65.0285 10.525C65.0285 10.525 65.0285 10.5333 65.0285 10.5361C65.1268 10.5305 65.2278 10.5305 65.3261 10.5222C65.6955 10.4917 65.8045 10.3944 65.9055 10.0278C65.9613 9.82777 66.0224 9.63332 66.0835 9.4361C66.2137 9.00832 66.2111 8.61943 65.8842 8.25555C65.5919 7.93332 65.2145 7.91665 64.9248 8.24999C64.481 8.7611 64.2976 9.37499 64.2498 10.0444C64.2312 10.2833 64.3906 10.4861 64.6325 10.5194C64.7627 10.5389 64.8956 10.5222 65.0285 10.5222V10.525Z" fill="#3F3E3E"/>
<path d="M36.0847 11.9223C35.6754 11.9223 35.2662 11.9139 34.8569 11.9278C34.6948 11.9334 34.5274 11.9695 34.3732 12.0195C34.1819 12.0834 34.0464 12.2306 34.0224 12.4417C33.9374 13.1473 33.7726 13.85 33.8763 14.5695C33.9427 15.0361 34.4264 15.2778 34.8303 15.0723C35.1625 14.9028 35.3778 14.6556 35.4363 14.2695C35.4442 14.225 35.4575 14.1806 35.4708 14.1361C35.5984 13.65 35.7685 13.4723 36.2495 13.4417C36.6322 13.4167 37.0202 13.45 37.4055 13.4834C37.6421 13.5056 37.7271 13.625 37.7457 13.8723C37.7696 14.2139 37.7244 14.5389 37.5304 14.8278C37.4932 14.8834 37.4507 14.9445 37.4374 15.0084C37.3232 15.5139 36.9697 15.8584 36.6853 16.2473C36.672 16.2667 36.6588 16.2861 36.6402 16.2973C36.1007 16.5973 35.6117 17.0389 34.9526 17.0334C34.4131 17.0306 33.871 17.0167 33.3315 16.9806C33.0524 16.9611 32.8239 16.7973 32.5927 16.625C32.2764 16.3945 32.0558 16.1111 31.8645 15.7639C31.7236 15.5084 31.612 15.2639 31.5589 14.975C31.3516 13.8695 31.4472 12.7695 31.5961 11.6723C31.6412 11.3334 31.7529 11.0056 31.8299 10.6695C31.8831 10.4334 31.9336 10.1973 31.9788 9.96114C32.0479 9.58892 32.0983 9.20836 32.3561 8.90836C32.3854 8.87503 32.4093 8.82781 32.4146 8.78614C32.4784 8.29447 32.7813 7.93059 33.0551 7.56392C33.2544 7.29448 33.5255 7.08336 33.762 6.84725C34.1633 6.44725 34.6948 6.33059 35.1918 6.15836C35.7339 5.97225 36.3 5.96392 36.8395 6.23892C36.9272 6.28336 37.0202 6.32781 37.1159 6.35281C37.5411 6.45281 37.7962 6.80281 38.0965 7.08336C38.1204 7.10559 38.147 7.13614 38.155 7.1667C38.3118 7.75003 38.6333 8.2917 38.6014 8.92503C38.5882 9.1667 38.5616 9.40559 38.5191 9.64448C38.4314 10.1306 38.3118 10.6111 38.232 11.0973C38.1443 11.6361 38.0593 11.9334 37.2833 11.9334C36.8847 11.9334 36.486 11.9334 36.09 11.9334V11.9223H36.0847ZM36.3531 9.14725C36.3531 9.14725 36.3691 9.1417 36.3771 9.1417C36.3398 8.89448 36.3319 8.63614 36.2601 8.40003C36.1724 8.11114 35.7818 7.90559 35.5319 8.02503C35.221 8.17503 34.934 8.37225 34.833 8.75836C34.7878 8.93336 34.7294 9.11392 34.6363 9.2667C34.4822 9.52503 34.4636 9.81114 34.4423 10.0973C34.429 10.2778 34.5486 10.4528 34.7214 10.4723C35.027 10.5056 35.3406 10.5389 35.6436 10.5C36.0688 10.4445 36.2335 10.2389 36.3 9.80003C36.3319 9.58336 36.3345 9.36392 36.3505 9.14725H36.3531Z" fill="#3F3E3E"/>
<path d="M111.791 16.9889C111.56 16.9889 111.326 16.9973 111.095 16.9889C110.765 16.975 110.609 16.8334 110.641 16.4945C110.694 15.9334 110.739 15.3611 110.89 14.825C111.084 14.1417 111.114 13.4389 111.223 12.7473C111.281 12.3834 111.374 12.0278 111.432 11.6667C111.547 10.95 111.645 10.2334 111.754 9.5167C111.783 9.32503 111.844 9.13892 111.879 8.95003C111.914 8.75003 111.945 8.54725 111.956 8.34448C111.964 8.18614 111.868 8.08892 111.725 8.04725C111.64 8.02225 111.552 8.00281 111.47 7.97225C111.207 7.87781 111.095 7.72503 111.092 7.43614C111.092 7.2417 111.092 7.04448 111.114 6.85003C111.143 6.55281 111.286 6.41114 111.56 6.32781C111.759 6.26948 111.953 6.18614 112.145 6.09725C112.389 5.98336 112.498 5.76392 112.525 5.4917C112.551 5.20559 112.602 4.91948 112.615 4.63336C112.647 3.90559 112.947 3.25281 113.123 2.56392C113.16 2.41392 113.272 2.28614 113.351 2.15003C113.375 2.11114 113.42 2.08614 113.439 2.04725C113.628 1.66114 113.978 1.45559 114.284 1.19725C114.972 0.61392 115.759 0.430586 116.617 0.555586C116.825 0.586142 117.035 0.71392 117.205 0.852809C117.311 0.93892 117.399 1.12781 117.396 1.2667C117.393 1.65559 117.359 2.05003 117.298 2.43614C117.247 2.76392 116.923 2.93059 116.538 2.84725C116.317 2.80003 116.105 2.78614 115.884 2.84725C115.669 2.90836 115.536 3.03336 115.485 3.25836C115.326 4.00003 115.158 4.73892 115.01 5.48337C114.983 5.61948 115.004 5.78059 115.047 5.91948C115.14 6.22781 115.19 6.26392 115.501 6.25836C115.746 6.25281 115.958 6.32503 116.152 6.46948C116.283 6.5667 116.346 6.68892 116.288 6.85559C116.195 7.12781 116.12 7.40559 116.004 7.6667C115.916 7.8667 115.735 7.96392 115.517 7.97225C115.363 7.97781 115.209 7.99448 115.055 8.00837C114.76 8.03337 114.595 8.20559 114.537 8.50281C114.529 8.54725 114.513 8.5917 114.507 8.63614C114.324 9.77225 114.146 10.9084 113.957 12.0417C113.901 12.3695 113.816 12.6917 113.747 13.0167C113.699 13.2417 113.633 13.4667 113.622 13.6945C113.577 14.6806 113.391 15.6361 113.093 16.5723C113.016 16.8111 112.894 16.95 112.652 16.9639C112.365 16.9806 112.078 16.9945 111.791 17.0084V16.9917V16.9889Z" fill="#3F3E3E"/>
<path d="M38.8592 13.4416C38.8406 12.7916 38.8937 12.1 39.1196 11.4194C39.2419 11.0527 39.2684 10.6527 39.3243 10.2666C39.3668 9.99163 39.4066 9.71941 39.5714 9.48886C39.6033 9.44441 39.6325 9.38886 39.6405 9.3333C39.7229 8.78052 40.0152 8.32775 40.2943 7.87775C40.5122 7.52775 40.7779 7.21386 41.0836 6.92497C41.4795 6.54441 41.9606 6.39997 42.4336 6.22219C43.0927 5.97775 43.7518 5.95275 44.3949 6.30275C44.6261 6.43052 44.8866 6.47775 45.0965 6.67497C45.6706 7.21386 45.9709 7.86941 45.9735 8.67497C45.9735 8.95275 45.9735 9.22775 45.9576 9.50552C45.923 10.1111 45.5775 10.4639 45.0008 10.4722C44.6713 10.4777 44.3364 10.4722 44.0069 10.4361C43.6827 10.4 43.6083 10.2889 43.6295 9.95552C43.6428 9.73886 43.6827 9.52219 43.7066 9.30552C43.7491 8.93052 43.7544 8.56664 43.4462 8.28608C43.2282 8.08608 42.9492 8.07775 42.7286 8.27497C42.3672 8.59997 42.1333 8.98052 42.027 9.48886C41.841 10.3694 41.6603 11.2444 41.5566 12.1389C41.5221 12.4472 41.4211 12.7444 41.3732 13.05C41.3148 13.425 41.2669 13.8027 41.2483 14.1805C41.2404 14.3333 41.2935 14.5027 41.36 14.6416C41.4742 14.8833 41.6815 15.0416 41.942 15.0361C42.2237 15.0305 42.4894 14.9527 42.6223 14.6361C42.71 14.425 42.8296 14.2277 42.912 14.0139C42.9784 13.8444 43.0103 13.6639 43.0528 13.4861C43.0688 13.4194 43.0608 13.3472 43.0741 13.2805C43.1512 12.85 43.3292 12.6444 43.7465 12.6C44.076 12.5666 44.4109 12.5722 44.7404 12.5916C45.0008 12.6083 45.1842 12.7861 45.3224 13.0055C45.4101 13.1416 45.4075 13.3 45.3224 13.4333C45.1045 13.7833 45.0593 14.1861 44.9663 14.5777C44.9317 14.7277 44.8414 14.8639 44.767 15.0027C44.7351 15.0611 44.6686 15.1055 44.6474 15.1666C44.5065 15.5805 44.1983 15.8722 43.9405 16.2C43.9192 16.2277 43.9033 16.2639 43.8767 16.2777C43.3877 16.5305 42.9944 16.9805 42.4044 17.025C41.8516 17.0666 41.3041 17.1 40.754 16.9722C40.3341 16.875 40.0285 16.5944 39.7176 16.3277C39.4492 16.0972 39.2419 15.8139 39.1781 15.4389C39.1754 15.4166 39.1675 15.3916 39.1568 15.375C38.8034 14.7944 38.8406 14.1416 38.8485 13.4389L38.8592 13.4416Z" fill="#3F3E3E"/>
<path d="M56.4524 16.9722C56.1866 16.9722 55.9208 16.9889 55.6577 16.9666C55.3123 16.9389 55.2405 16.8527 55.1927 16.5055C55.1714 16.3472 55.1501 16.1861 55.1501 16.025C55.1342 14.9277 55.0598 13.8389 54.9402 12.75C54.8472 11.9139 54.81 11.0722 54.7568 10.2333C54.6984 9.28885 54.6532 8.34719 54.6027 7.40275C54.5947 7.24163 54.5921 7.08052 54.5974 6.91941C54.608 6.5583 54.794 6.3083 55.1289 6.28886C55.6471 6.26108 56.168 6.26663 56.6862 6.2833C56.9148 6.28886 57.0849 6.5083 57.1088 6.78052C57.1221 6.92774 57.1114 7.08052 57.1088 7.23052C57.0689 8.88886 57.0291 10.55 56.9918 12.2083C56.9918 12.3111 56.9919 12.4166 57.0078 12.5194C57.0264 12.6444 57.1008 12.7305 57.2257 12.7444C57.3613 12.7611 57.4277 12.6722 57.4543 12.5472C57.5234 12.2222 57.5818 11.8916 57.6642 11.5694C57.7147 11.3722 57.7998 11.1833 57.8635 10.9916C57.9486 10.7444 58.031 10.4944 58.108 10.2444C58.1931 9.97219 58.2728 9.69719 58.3578 9.42497C58.419 9.22775 58.4828 9.03052 58.5492 8.83608C58.6555 8.52219 58.7698 8.21108 58.8681 7.89441C58.9372 7.67774 58.9957 7.45274 59.0382 7.23052C59.1684 6.56941 59.4926 6.27775 60.1358 6.26663C60.4573 6.26108 60.7789 6.25275 61.0978 6.26663C61.2599 6.27219 61.43 6.30552 61.5815 6.36663C61.8233 6.46386 61.911 6.67219 61.7702 6.89163C61.539 7.25552 61.4832 7.69163 61.3051 8.06108C61.1005 8.48608 60.9676 8.93052 60.7816 9.35274C60.6301 9.69719 60.5105 10.0583 60.351 10.3916C60.1517 10.8055 59.9816 11.225 59.8674 11.6694C59.8541 11.7222 59.8275 11.7805 59.7903 11.8194C59.6016 12.0194 59.5378 12.275 59.4847 12.5361C59.4342 12.7861 59.3385 13.0111 59.1923 13.225C59.0913 13.3694 59.0408 13.5555 58.9904 13.7305C58.9213 13.975 58.8654 14.2166 58.7113 14.425C58.6342 14.5305 58.6023 14.675 58.5598 14.8055C58.4642 15.1 58.3897 15.3972 58.2064 15.6555C58.1266 15.7694 58.1001 15.9333 58.0735 16.0777C58.0044 16.4472 57.7679 16.6861 57.4941 16.8889C57.4011 16.9555 57.2682 16.9777 57.1513 16.9861C56.9201 17 56.6862 16.9916 56.455 16.9916C56.455 16.9861 56.455 16.9805 56.455 16.975L56.4524 16.9722Z" fill="#3F3E3E"/>
<path d="M93.4539 16.9889C93.2227 16.9889 92.9888 16.9972 92.7576 16.9889C92.4467 16.975 92.2925 16.8389 92.3191 16.5139C92.3643 15.9416 92.4041 15.3583 92.5477 14.8083C92.7363 14.0916 92.8134 13.3639 92.9064 12.6333C92.9489 12.2916 93.0287 11.9555 93.0925 11.6194C93.1616 11.2472 93.2333 10.875 93.3024 10.5028C93.4273 9.81109 93.5496 9.1222 93.6718 8.43053C93.7143 8.19164 93.7728 7.95553 93.7914 7.71664C93.8446 7.10553 93.9296 6.50553 94.1156 5.9222C94.1794 5.71942 94.1741 5.49164 94.198 5.2722C94.2884 4.49442 94.3708 3.71942 94.5993 2.96387C94.7003 2.62775 94.7083 2.26109 94.7588 1.90831C94.7747 1.79442 94.7853 1.68053 94.796 1.56664C94.8544 1.03609 95.2876 0.836088 95.6544 0.822199C95.9866 0.80831 96.3188 0.822199 96.6483 0.816643C97.0655 0.80831 97.4908 1.05831 97.3446 1.6472C97.1559 2.39998 97.1825 3.18053 97.0177 3.93331C97.0018 3.99998 96.9991 4.0722 96.9752 4.13609C96.7015 4.92498 96.6536 5.75831 96.5633 6.58053C96.542 6.77498 96.5287 6.97775 96.4649 7.15553C96.2204 7.8222 96.2098 8.53331 96.0876 9.2222C96.0078 9.66387 95.9228 10.1028 95.8484 10.5444C95.7713 10.9972 95.7102 11.4555 95.6304 11.9083C95.5746 12.225 95.5029 12.5389 95.4364 12.8528C95.3939 13.0555 95.3381 13.2555 95.3115 13.4611C95.2478 13.9389 95.2265 14.425 95.1388 14.9C95.0325 15.475 94.881 16.0444 94.7455 16.6139C94.6897 16.8444 94.5329 16.9639 94.3123 16.975C94.0253 16.9861 93.7383 16.9778 93.4512 16.9778C93.4512 16.9833 93.4512 16.9916 93.4512 16.9972L93.4539 16.9889Z" fill="#3F3E3E"/>
<path d="M106.915 17.0639C106.519 17.0639 106.115 17.0945 105.751 16.8778C105.703 16.85 105.647 16.8306 105.604 16.7973C105.214 16.475 104.953 15.6417 105.11 15.1334C105.331 14.425 105.386 13.6889 105.463 12.9584C105.49 12.7195 105.511 12.4723 105.583 12.2445C105.804 11.5473 105.841 10.8195 105.968 10.1056C106.04 9.71114 106.136 9.31947 106.216 8.92781C106.24 8.81669 106.255 8.70003 106.255 8.58614C106.255 8.15003 106.192 8.07503 105.785 7.98336C105.437 7.90558 105.349 7.78336 105.37 7.40836C105.381 7.23614 105.384 7.06392 105.394 6.89169C105.421 6.55558 105.503 6.45003 105.806 6.34725C105.995 6.28336 106.181 6.21114 106.37 6.14447C106.646 6.04725 106.766 5.83892 106.79 5.54447C106.824 5.14169 106.875 4.74447 106.907 4.34169C106.922 4.16669 106.997 4.03892 107.132 3.94169C107.223 3.87503 107.297 3.78614 107.393 3.73058C107.505 3.66669 107.629 3.59725 107.752 3.58892C108.116 3.56947 108.48 3.57781 108.847 3.58058C108.934 3.58058 109.022 3.60003 109.107 3.62503C109.58 3.76947 109.705 4.01669 109.556 4.51114C109.476 4.77503 109.383 5.03336 109.306 5.30003C109.272 5.41947 109.24 5.54725 109.24 5.67225C109.243 6.02503 109.399 6.19725 109.734 6.24447C109.92 6.26947 110.109 6.27781 110.292 6.31947C110.55 6.37781 110.68 6.58058 110.662 6.85003C110.63 7.26947 110.42 7.58892 110.12 7.8417C110.011 7.93336 109.838 7.96669 109.692 7.97225C108.982 8.0028 108.799 8.17225 108.714 8.90558C108.666 9.31669 108.623 9.73058 108.576 10.1417C108.562 10.2556 108.554 10.375 108.517 10.4806C108.304 11.1195 108.281 11.7917 108.164 12.4472C108.108 12.7528 108.031 13.0528 107.978 13.3584C107.908 13.7445 107.842 14.1306 107.797 14.5167C107.754 14.8639 107.914 15.0695 108.251 15.1056C108.413 15.1222 108.581 15.0973 108.743 15.0723C109.115 15.0195 109.237 15.1167 109.235 15.5056C109.235 15.6778 109.205 15.8472 109.181 16.0195C109.155 16.2167 109.057 16.3611 108.878 16.4417C108.828 16.4639 108.772 16.4889 108.738 16.5278C108.32 16.9972 107.77 17.0361 107.212 17.0556C107.114 17.0584 107.013 17.0556 106.915 17.0556V17.0639Z" fill="#3F3E3E"/>
<path d="M68.2893 16.2305C68.3238 16.0361 68.3796 15.7083 68.4381 15.3805C68.5444 14.7917 68.6507 14.2028 68.7597 13.6166C68.8367 13.2111 68.9351 12.8083 68.9988 12.4C69.0972 11.775 69.1743 11.1472 69.2673 10.5194C69.2965 10.3139 69.3204 10.1028 69.3869 9.91109C69.5729 9.37221 69.6127 8.81109 69.6686 8.24721C69.7164 7.78054 69.7244 7.29998 69.9131 6.85832C70.0725 6.48332 70.317 6.23887 70.7475 6.25276C71.0346 6.26387 71.3296 6.23332 71.5927 6.38054C71.7548 6.46943 71.9142 6.57776 72.0498 6.70554C72.257 6.90554 72.3474 6.93887 72.6105 6.82221C72.6796 6.79165 72.7514 6.75276 72.8098 6.70276C73.1633 6.40554 73.5885 6.33332 74.0164 6.27221C74.306 6.23054 74.4974 6.41387 74.6728 6.60554C74.8004 6.74443 74.7126 6.91387 74.6834 7.06665C74.617 7.43887 74.5372 7.81109 74.4708 8.18332C74.4469 8.31943 74.4575 8.46109 74.4363 8.5972C74.3937 8.88332 74.2848 8.97776 74.011 8.95554C73.8675 8.94443 73.724 8.92221 73.5858 8.88054C73.2616 8.78332 72.9507 8.84443 72.6424 8.95554C72.2703 9.08887 72.0471 9.36943 72.0152 9.76943C71.9753 10.2916 71.8345 10.7833 71.7176 11.2889C71.59 11.8333 71.5554 12.4028 71.4677 12.9611C71.4119 13.3222 71.3322 13.6805 71.2631 14.0417C71.2206 14.2555 71.1701 14.4694 71.1382 14.6833C71.0744 15.1166 71.0399 15.5555 70.9575 15.9833C70.9096 16.2278 70.8166 16.4722 70.6944 16.6833C70.6173 16.8166 70.4472 16.9639 70.3117 16.9694C69.7935 16.9944 69.2726 16.9972 68.757 16.95C68.3291 16.9111 68.2813 16.8139 68.2866 16.2305H68.2893Z" fill="#3F3E3E"/>
<path d="M124.186 16.9888C124.021 16.9888 123.854 16.9916 123.689 16.9888C123.131 16.9749 122.966 16.7638 123.049 16.1777C123.123 15.6416 123.19 15.1055 123.28 14.5722C123.352 14.1527 123.469 13.7444 123.538 13.3249C123.631 12.7583 123.687 12.1833 123.772 11.6166C123.822 11.2777 123.907 10.9416 123.966 10.6027C124.083 9.93327 124.189 9.26383 124.303 8.59439C124.37 8.21105 124.441 7.82494 124.51 7.44161C124.548 7.23883 124.593 7.03605 124.625 6.8305C124.67 6.54716 124.824 6.38327 125.09 6.31383C125.499 6.2055 125.906 6.22494 126.296 6.37772C126.432 6.4305 126.549 6.55827 126.658 6.66939C126.913 6.9305 127.237 6.95272 127.514 6.71383C127.888 6.39161 128.667 6.19994 129.071 6.33605C129.339 6.42494 129.438 6.54994 129.424 6.84161C129.4 7.4555 129.275 8.05272 129.071 8.62772C128.965 8.92494 128.824 8.97772 128.529 8.91661C128.313 8.87216 128.093 8.83327 127.875 8.83883C127.37 8.8555 126.995 9.12216 126.743 9.56661C126.679 9.6805 126.658 9.82772 126.644 9.96105C126.578 10.6611 126.498 11.3583 126.275 12.0277C126.203 12.2416 126.19 12.4805 126.166 12.7083C126.089 13.4749 126.015 14.2416 125.789 14.9861C125.69 15.3111 125.685 15.6666 125.637 16.0083C125.624 16.0999 125.619 16.1916 125.6 16.2833C125.494 16.8222 125.353 16.9527 124.819 16.9833C124.609 16.9972 124.399 16.9833 124.189 16.9833V16.9888H124.186Z" fill="#3F3E3E"/>
</g>
<defs>
<clipPath id="clip0_16_907">
<rect width="142" height="23" fill="white"/>
</clipPath>
</defs>
</svg>
