<svg width="63" height="38" viewBox="0 0 63 38" fill="none" xmlns="http://www.w3.org/2000/svg">
<g clip-path="url(#clip0_16_1020)">
<path d="M19.9924 20.653C18.9517 20.0703 18.0271 19.5573 17.1047 19.0359C16.1758 18.5123 15.2555 17.9719 14.3224 17.4568C14.017 17.2879 13.8558 17.1021 13.8579 16.72C13.873 12.4365 13.8708 8.15521 13.8622 3.87176C13.8622 3.55721 13.9461 3.36087 14.2364 3.19621C16.0619 2.17021 17.8766 1.12099 19.7042 0.0992079C19.8354 0.025319 20.0913 0.0422078 20.2289 0.120319C22.0436 1.13154 23.8455 2.16387 25.6581 3.17932C25.9419 3.33976 26.0365 3.54454 26.0343 3.8591C26.0236 5.87732 26.0193 7.89554 26.0408 9.91376C26.0451 10.2895 25.8344 10.4373 25.5635 10.5914C23.8627 11.5541 22.1705 12.5294 20.4611 13.4752C20.0977 13.6758 19.9795 13.9101 19.9838 14.3091C20.0031 16.188 19.9924 18.0648 19.9924 19.9437C19.9924 20.1337 19.9924 20.3237 19.9924 20.653Z" fill="#3F3E3E"/>
<path d="M13.0235 4.12939C13.0235 4.39328 13.0235 4.61495 13.0235 4.83451C13.0235 8.90684 13.0321 12.9813 13.0128 17.0536C13.0106 17.5603 13.1805 17.8516 13.6256 18.0965C15.2919 19.0127 16.939 19.9585 18.5903 20.898C19.1149 21.1956 19.1128 21.2421 18.571 21.5482C16.8573 22.5235 15.1479 23.5052 13.4191 24.4552C13.2278 24.5607 12.8773 24.565 12.6881 24.4615C10.8991 23.4756 9.12526 22.4665 7.36427 21.4342C7.17935 21.3265 7.00519 21.0288 7.00304 20.8177C6.98154 16.4984 6.98154 12.1812 6.99874 7.86184C6.99874 7.66128 7.1471 7.37206 7.31696 7.27284C9.09515 6.22995 10.8905 5.21662 12.6816 4.20117C12.7504 4.16106 12.8472 4.16528 13.0214 4.13151L13.0235 4.12939Z" fill="#3F3E3E"/>
<path d="M0.0344238 17.1823C2.06849 16.0275 3.99074 14.9361 6.01405 13.7876C5.77753 13.6103 5.63132 13.4752 5.46145 13.3781C3.82518 12.4471 2.1932 11.5097 0.544014 10.602C0.199987 10.4141 0.0752773 10.2051 0.0795776 9.82297C0.0989292 7.84064 0.0946288 5.85619 0.0795776 3.87175C0.0774275 3.5403 0.156984 3.33341 0.468758 3.1603C2.26845 2.15964 4.05524 1.13364 5.85494 0.13297C5.99685 0.0548585 6.25057 0.0231918 6.37958 0.0949696C8.23947 1.13364 10.0865 2.19341 11.9356 3.25108C11.9958 3.28486 12.0474 3.33341 12.1829 3.43475C11.6496 3.74719 11.1594 4.04064 10.6649 4.32352C9.33821 5.0793 8.01371 5.84141 6.67415 6.57397C6.29572 6.78086 6.15596 7.02364 6.15811 7.45008C6.17316 11.5752 6.16671 15.7003 6.16671 19.8254C6.16671 20.0471 6.16671 20.2687 6.16671 20.6509C4.06814 19.4644 2.10074 18.3519 0.036574 17.1844L0.0344238 17.1823Z" fill="#3F3E3E"/>
<path d="M22.2026 21.1069C22.9229 21.4827 23.5508 21.8944 24.2388 22.1477C24.9849 22.4221 25.787 22.3989 26.5438 22.0907C27.1717 21.8353 27.5845 21.3666 27.5974 20.6953C27.6103 20.0176 27.1373 19.5911 26.5417 19.3737C25.6579 19.0507 24.7441 18.8079 23.8454 18.5229C23.626 18.4533 23.4132 18.3561 23.2025 18.2633C21.4264 17.4758 21.5425 15.1388 22.867 14.2184C24.3313 13.2008 27.0663 13.3739 28.3736 14.592C28.5865 14.7905 28.6101 14.9615 28.4188 15.1726C28.2661 15.3415 28.1199 15.5167 28.0554 15.5885C27.2362 15.2655 26.503 14.9129 25.7311 14.6913C25.086 14.5055 24.4151 14.6068 23.8217 14.9636C22.9057 15.5146 22.895 16.6483 23.8604 17.0979C24.6087 17.4463 25.4472 17.6088 26.232 17.8896C26.7653 18.0796 27.3136 18.2696 27.7888 18.563C28.6574 19.1014 28.9735 19.9458 28.8509 20.9275C28.7305 21.9028 28.2231 22.6776 27.2749 23.0154C25.5612 23.6234 23.8712 23.5537 22.3101 22.5298C21.4329 21.9556 21.4393 21.7508 22.2048 21.1048L22.2026 21.1069Z" fill="#3F3E3E"/>
<path d="M36.024 21.6896C36.6583 22.2532 36.6626 22.401 36.0304 22.7895C34.4995 23.731 31.9387 23.6381 30.7776 21.869C29.4982 19.9205 30.3239 17.1 32.5321 16.3464C34.4952 15.6771 36.5787 16.6145 36.9486 18.9515C37.1593 20.2857 37.1851 20.1126 35.9057 20.1189C34.6199 20.1253 33.332 20.1189 32.0462 20.121C31.4076 20.121 31.2936 20.2941 31.528 20.8831C32.1064 22.3377 33.7319 22.9098 35.222 22.173C35.4907 22.04 35.738 21.8648 36.0261 21.6896H36.024ZM33.6889 19.3209C34.2974 19.3209 34.9037 19.3125 35.5122 19.323C35.8498 19.3294 35.9616 19.1858 35.9057 18.8712C35.7359 17.8811 34.8134 17.0895 33.7728 17.0472C32.6998 17.0029 31.7215 17.7207 31.4678 18.734C31.371 19.1161 31.4463 19.3441 31.9215 19.3273C32.5106 19.3061 33.0998 19.323 33.691 19.3209H33.6889Z" fill="#3F3E3E"/>
<path d="M47.4737 21.6854C48.123 22.2659 48.1123 22.4369 47.392 22.8444C45.7041 23.7986 42.9368 23.6149 41.9542 21.3581C41.0963 19.3864 41.9606 17.0515 43.9366 16.3675C46.4717 15.4914 48.5638 17.2837 48.4477 19.7474C48.4305 20.102 48.2176 20.1231 47.9424 20.121C46.476 20.1168 45.0074 20.1189 43.541 20.121C42.8142 20.121 42.7024 20.3026 43.0142 20.9739C43.7281 22.515 45.4955 22.9541 47.0415 21.9725C47.1898 21.8775 47.3339 21.7782 47.4737 21.6832V21.6854ZM45.1364 19.3209C45.7449 19.3209 46.3513 19.3125 46.9598 19.323C47.2973 19.3294 47.4027 19.1816 47.3554 18.8691C47.2113 17.9065 46.2051 17.0641 45.1644 17.043C44.1043 17.0219 43.1153 17.7988 42.9088 18.791C42.825 19.1921 42.9605 19.3378 43.369 19.3251C43.9581 19.3061 44.5473 19.3209 45.1386 19.3188L45.1364 19.3209Z" fill="#3F3E3E"/>
<path d="M53.335 23.3743C51.0752 23.3722 49.6109 21.6115 49.8625 19.2787C50.1485 16.6398 52.6642 15.5906 54.7692 16.4287C55.0122 16.5258 55.2422 16.6778 55.4379 16.8509C55.64 17.0283 56.0163 17.1845 55.6981 17.5561C55.425 17.8727 55.1799 18.0099 54.7843 17.6384C54.1414 17.0346 53.3329 16.9966 52.5287 17.2774C51.6106 17.6004 51.1634 18.3329 51.0172 19.2281C50.8666 20.1464 51.0344 21.0141 51.716 21.7192C52.5696 22.6037 53.8747 22.7029 54.7928 21.8859C55.2035 21.5207 55.425 21.6833 55.7002 21.9767C56.0485 22.3483 55.6594 22.5045 55.4637 22.6797C54.8638 23.2159 54.1284 23.3891 53.3372 23.3743H53.335Z" fill="#3F3E3E"/>
<path d="M57.988 19.8064C57.988 19.1562 57.9708 18.5081 57.9944 17.8579C58.0095 17.4483 57.9084 17.2182 57.4332 17.271C57.1172 17.3047 56.8291 17.3005 56.8269 16.8382C56.8269 16.3716 57.0935 16.3146 57.4505 16.3484C57.8869 16.3906 58.0245 16.1859 57.9923 15.789C57.9708 15.5441 57.988 15.2971 57.988 15.0522C57.9923 14.4062 58.0525 14.364 58.6911 14.3999C58.9878 14.4167 59.1147 14.5413 59.1147 14.8179C59.1147 15.0817 59.1168 15.3435 59.119 15.6074C59.1233 16.3167 59.1448 16.3484 59.8801 16.3421C60.2801 16.3379 60.594 16.3547 60.5488 16.8867C60.523 17.1844 60.4069 17.2942 60.1188 17.2773C59.9404 17.2667 59.7619 17.2836 59.5834 17.2773C59.2652 17.2646 59.1233 17.4166 59.1233 17.7185C59.1233 19.0169 59.0996 20.3152 59.1362 21.6135C59.1555 22.2891 59.5555 22.5023 60.2242 22.3355C60.3661 22.2996 60.622 22.3989 60.7058 22.5171C60.8649 22.7409 60.8821 22.9857 60.5682 23.18C59.4673 23.8534 58.0611 23.18 57.9987 21.9133C57.9643 21.2124 57.9923 20.5094 57.9923 19.8085C57.9923 19.8085 57.9901 19.8085 57.988 19.8085V19.8064Z" fill="#3F3E3E"/>
<path d="M39.8965 18.4701C39.8965 19.8571 39.8879 21.2441 39.9008 22.629C39.9051 23.0216 39.8277 23.2517 39.3461 23.256C38.8408 23.2602 38.8085 22.99 38.8085 22.6184C38.8128 19.8444 38.815 17.0725 38.8064 14.2985C38.8064 13.9016 38.8731 13.6842 39.3611 13.6863C39.8514 13.6905 39.9073 13.9185 39.903 14.3091C39.8879 15.6961 39.8965 17.0831 39.8965 18.468V18.4701Z" fill="#3F3E3E"/>
<path d="M21.6867 34.9367C21.6867 34.1831 21.7017 33.4294 21.6802 32.6757C21.6695 32.2831 21.8243 32.1458 22.2156 32.1606C22.7854 32.1817 23.3595 32.1501 23.9293 32.1712C24.985 32.2113 25.6236 32.9016 25.6064 33.9529C25.5892 34.9346 24.9356 35.5384 23.8884 35.5679C23.3982 35.5806 22.7488 35.4687 22.4693 35.7263C22.2199 35.9564 22.379 36.6151 22.3575 37.0837C22.3532 37.1703 22.3876 37.2801 22.3489 37.3434C22.2608 37.4806 22.136 37.5967 22.0264 37.7213C21.9146 37.5988 21.7082 37.4785 21.7039 37.3518C21.6738 36.5475 21.6888 35.7411 21.6888 34.9346L21.6867 34.9367ZM23.2584 34.9663C23.2584 34.9663 23.2584 34.9578 23.2584 34.9536C23.4735 34.9536 23.6885 34.9705 23.9013 34.9494C24.4217 34.8987 24.8195 34.5314 24.8883 34.0606C24.9571 33.5877 24.684 33.0747 24.1637 32.9755C23.6347 32.8763 23.0499 32.8573 22.5381 32.9903C22.3898 33.0283 22.407 33.7059 22.3597 34.0902C22.3425 34.2274 22.3683 34.3709 22.3554 34.5103C22.321 34.8607 22.4951 34.9874 22.8305 34.9642C22.9725 34.9536 23.1165 34.9642 23.2584 34.9642V34.9663Z" fill="#3F3E3E"/>
<path d="M31.5086 30.0813C31.1903 30.2206 30.9796 30.3114 30.7023 30.4338C30.6657 30.1931 30.6291 30.0601 30.6291 29.9293C30.6248 28.4219 30.6162 26.9167 30.6399 25.4094C30.642 25.2363 30.7926 24.9407 30.9173 24.9154C31.2935 24.8394 31.2634 25.1581 31.2656 25.403C31.2699 25.8337 31.2656 26.2644 31.2656 26.8027C31.9709 26.3931 32.6095 26.0807 33.304 26.4354C33.6071 26.5895 33.9039 26.8301 34.0974 27.1025C34.6199 27.8414 34.5167 29.2178 33.9426 29.8723C33.3642 30.533 32.6353 30.5816 31.5086 30.0791V30.0813ZM31.2677 28.3966C31.2677 29.4141 31.672 29.8913 32.5213 29.8723C33.2266 29.8575 33.7813 29.1946 33.7791 28.3713C33.7791 27.5289 33.1857 26.8428 32.474 26.8555C31.6505 26.8703 31.2677 27.36 31.2677 28.3966Z" fill="#3F3E3E"/>
<path d="M42.6421 36.0198C42.7947 37.1429 43.8612 37.62 44.8374 37.0923C45.0137 36.9973 45.2395 36.7059 45.3922 37.0501C45.4416 37.1598 45.2287 37.4744 45.061 37.5652C43.9924 38.1478 42.6227 37.7805 42.1303 36.8136C41.5627 35.6989 41.9884 34.3014 43.0829 33.8538C44.3751 33.3261 45.6674 33.9889 45.8308 35.6124C45.8652 35.9459 45.6416 35.9776 45.3878 35.9776C44.674 35.9776 43.9601 35.9776 43.2463 35.9797C43.0549 35.9797 42.8635 36.0008 42.6399 36.0156L42.6421 36.0198ZM43.8763 35.4963C43.8763 35.4963 43.8763 35.4963 43.8763 35.4984C44.1601 35.4984 44.4439 35.5005 44.7299 35.4984C45.0503 35.4942 45.1836 35.3654 45.0782 35.0339C44.9234 34.5547 44.3988 34.1937 43.844 34.2148C43.3194 34.2338 42.8055 34.6202 42.6851 35.0698C42.6141 35.3295 42.6851 35.4857 42.9732 35.4942C43.2742 35.5026 43.5774 35.4963 43.8784 35.4963H43.8763Z" fill="#3F3E3E"/>
<path d="M28.9435 35.5152C29.1606 34.7911 28.894 34.3203 28.221 34.2781C27.9006 34.2591 27.5695 34.3942 27.2427 34.4512C27.0449 34.4849 26.8471 34.5061 26.6492 34.5314C26.7567 34.3435 26.8191 34.0838 26.9825 33.9783C27.5373 33.6215 28.1651 33.6173 28.7887 33.7756C29.4144 33.9361 29.6767 34.4132 29.7046 34.9916C29.7433 35.7601 29.7132 36.5327 29.7154 37.3033C29.7154 37.7002 29.5219 37.7762 29.1606 37.6706C28.9822 37.6178 28.7758 37.6326 28.5844 37.6495C28.464 37.6601 28.3522 37.7382 28.2339 37.7741C27.5953 37.9598 26.9116 37.7551 26.5503 37.2737C26.2966 36.9338 26.2837 36.1253 26.5288 35.7791C26.8492 35.3273 27.5351 35.0993 28.1587 35.2555C28.4145 35.3188 28.6597 35.4202 28.9478 35.5152H28.9435ZM27.9716 35.6714C27.4319 35.6672 27.0083 36.0303 26.9997 36.5032C26.9933 37.0014 27.4125 37.3687 27.9909 37.3708C28.6188 37.3729 29.0596 37.0183 29.051 36.5179C29.0424 36.0197 28.6037 35.6756 27.9694 35.6714H27.9716Z" fill="#3F3E3E"/>
<path d="M46.891 30.3114C46.805 30.3283 46.7147 30.3768 46.6738 30.3494C46.132 29.9947 45.6353 30.3811 45.1192 30.4296C44.4161 30.4972 43.7517 30.1045 43.5883 29.5345C43.3991 28.8779 43.6378 28.1939 44.2678 28.0018C44.715 27.8667 45.2375 27.9554 45.7256 27.9786C45.889 27.9871 46.0459 28.1032 46.2137 28.1728C46.4136 27.2081 45.76 26.6233 44.8462 26.9062C44.629 26.9737 44.4441 27.1321 44.2291 27.2081C44.1258 27.2439 43.956 27.2186 43.8743 27.1532C43.8205 27.1109 43.8184 26.8977 43.8743 26.8428C44.3667 26.3657 44.9752 26.2306 45.646 26.3151C46.2932 26.3974 46.8265 26.7014 46.8759 27.3643C46.949 28.3375 46.8953 29.3192 46.8953 30.3114H46.891ZM45.1837 29.9715C45.8567 29.9757 46.2954 29.6358 46.2889 29.1123C46.2825 28.6352 45.8202 28.2847 45.1945 28.2847C44.6311 28.2847 44.186 28.6753 44.1946 29.1587C44.2032 29.6232 44.6225 29.9673 45.1837 29.9715Z" fill="#3F3E3E"/>
<path d="M29.3263 30.3071C29.1908 30.3346 29.122 30.3705 29.0898 30.3494C28.5436 30.0095 28.0405 30.381 27.518 30.4296C26.8063 30.495 26.1591 30.1108 25.9871 29.5303C25.8 28.8927 26.0516 28.1707 26.6687 27.9976C27.1353 27.8667 27.6728 27.9722 28.1781 27.9976C28.3093 28.0039 28.4361 28.1031 28.5974 28.1728C28.7715 27.7696 28.6898 27.4276 28.4254 27.1447C28.0964 26.7964 27.6599 26.7858 27.2299 26.9125C27.0127 26.9758 26.8278 27.1447 26.6128 27.2165C26.5117 27.2502 26.344 27.1954 26.2601 27.1236C26.2128 27.0814 26.2408 26.8935 26.2988 26.8175C26.6386 26.3657 27.6857 26.1715 28.4426 26.4079C28.9952 26.5789 29.3134 27.0286 29.3241 27.7084C29.337 28.5655 29.3263 29.4226 29.3263 30.3071ZM27.6578 29.9715C28.32 29.9525 28.7006 29.6253 28.6834 29.0954C28.6683 28.6246 28.1953 28.2784 27.5739 28.2847C27.0063 28.291 26.5805 28.6816 26.5999 29.1777C26.6171 29.6464 27.0729 29.9884 27.6578 29.9715Z" fill="#3F3E3E"/>
<path d="M51.1785 28.3333C51.1806 27.1426 52.0622 26.2433 53.2018 26.2686C54.3435 26.2939 55.1821 27.2017 55.1692 28.4008C55.1563 29.6041 54.307 30.4549 53.1308 30.4423C51.9654 30.4296 51.1763 29.5746 51.1785 28.3333ZM53.1803 26.8555C52.432 26.8555 51.8536 27.4951 51.845 28.3354C51.8364 29.2241 52.3976 29.8786 53.1631 29.8765C53.8963 29.8723 54.479 29.2136 54.4897 28.3755C54.5005 27.5669 53.8877 26.8576 53.1781 26.8576L53.1803 26.8555Z" fill="#3F3E3E"/>
<path d="M39.3889 28.4072C39.3717 29.6232 38.531 30.4697 37.3634 30.4444C36.1808 30.4169 35.3917 29.5683 35.4197 28.3354C35.4519 26.9737 36.2733 26.2939 37.3849 26.2939C38.5675 26.2939 39.3631 27.0159 39.391 28.4093L39.3889 28.4072ZM38.7847 28.3206C38.6363 27.9786 38.5396 27.6007 38.3267 27.3031C38.0171 26.8703 37.4494 26.7521 36.9871 26.9315C36.4087 27.1553 36.069 27.7042 36.0819 28.3987C36.0948 29.0637 36.4603 29.6232 37 29.8005C37.9074 30.1003 38.6901 29.4311 38.7847 28.3185V28.3206Z" fill="#3F3E3E"/>
<path d="M59.0156 26.5135C59.4371 26.2939 59.6499 26.4396 59.794 26.7985C60.095 27.5458 60.4046 28.291 60.7229 29.032C60.7637 29.1291 60.8734 29.1988 60.9508 29.279C61.026 29.1946 61.1292 29.1207 61.1722 29.0215C61.4604 28.3459 61.7356 27.664 62.0173 26.9864C62.0775 26.8407 62.1183 26.6613 62.2301 26.5705C62.3462 26.4755 62.5355 26.4713 62.6946 26.4269C62.729 26.562 62.83 26.7246 62.787 26.828C62.1678 28.3164 61.5399 29.8026 60.8884 31.2761C60.6777 31.7533 60.0972 32.0256 59.6521 31.9053C59.5381 31.8757 59.4543 31.7448 59.3553 31.6625C59.4457 31.5717 59.5209 31.4281 59.6306 31.3944C60.4605 31.1389 60.6992 30.6513 60.3638 29.8554C59.9552 28.8864 59.5489 27.9174 59.1468 26.9484C59.0887 26.809 59.0586 26.657 59.0156 26.5135Z" fill="#3F3E3E"/>
<path d="M38.174 34.0121C38.7051 33.9065 39.2126 33.7376 39.7265 33.7186C40.3371 33.6954 40.7607 34.1472 40.7779 34.7552C40.8015 35.6144 40.7972 36.4757 40.7714 37.335C40.7671 37.468 40.5801 37.5946 40.4769 37.7255C40.3651 37.5841 40.1651 37.4469 40.1586 37.2991C40.1242 36.6172 40.1457 35.9311 40.1414 35.2471C40.135 34.5694 39.8813 34.2823 39.2986 34.2781C38.5568 34.2717 38.0751 34.6623 38.0644 35.2914C38.0536 35.9585 38.0794 36.6256 38.045 37.2906C38.0364 37.4405 37.8429 37.5799 37.7354 37.7234C37.63 37.5799 37.4387 37.4384 37.4344 37.2927C37.4086 36.2942 37.4107 35.2914 37.4301 34.2929C37.4344 34.1176 37.5634 33.9424 37.6365 33.7672C37.8214 33.8516 38.0085 33.9361 38.174 34.01V34.0121Z" fill="#3F3E3E"/>
<path d="M51.4965 33.6089C51.8749 33.744 52.2662 33.8538 52.6253 34.0269C52.7307 34.0776 52.7479 34.3013 52.8059 34.4449C52.6533 34.4533 52.4963 34.4871 52.3479 34.4681C51.9201 34.4132 51.4922 34.2844 51.0686 34.2971C50.8987 34.3013 50.6579 34.58 50.602 34.7742C50.5719 34.8798 50.8342 35.1373 51.0148 35.2154C51.3868 35.3759 51.7954 35.4519 52.1824 35.5828C52.6748 35.7496 53.0167 36.0557 53.0339 36.6046C53.0489 37.1197 52.7522 37.4954 52.2082 37.7023C51.4836 37.9768 50.7998 37.867 50.1677 37.4701C50.0494 37.3962 50.0279 37.1682 49.9634 37.012C50.1268 37.0078 50.2945 36.9761 50.4536 37.0014C50.9181 37.0753 51.3782 37.2358 51.8384 37.2273C52.0319 37.2231 52.2963 36.9086 52.3737 36.6827C52.4125 36.5708 52.1394 36.2752 51.9459 36.1823C51.6147 36.0219 51.2363 35.9628 50.8815 35.8488C50.1548 35.6123 49.8688 35.264 49.9312 34.7067C49.9892 34.1726 50.516 33.7546 51.1976 33.7039C51.2858 33.6976 51.3761 33.6954 51.4642 33.6912C51.475 33.6638 51.4857 33.6384 51.4943 33.611L51.4965 33.6089Z" fill="#3F3E3E"/>
<path d="M22.3574 27.3283C22.3574 27.8899 22.3574 28.4515 22.3574 29.0109C22.3574 29.716 22.3681 29.7245 23.0648 29.7287C23.5464 29.7308 24.0324 29.7076 24.5118 29.7456C24.6473 29.7561 24.772 29.9377 24.901 30.0411C24.7785 30.1467 24.6581 30.3388 24.5312 30.343C23.7098 30.3705 22.8885 30.3515 22.065 30.3599C21.7876 30.362 21.6865 30.2522 21.6865 29.9862C21.693 28.4261 21.6801 26.8639 21.7037 25.3038C21.7037 25.1645 21.9187 25.0272 22.0349 24.89C22.1424 25.0357 22.3337 25.1792 22.3423 25.3291C22.3767 25.9941 22.3574 26.6612 22.3574 27.3283Z" fill="#3F3E3E"/>
<path d="M35.2757 34.3604C35.2757 35.2133 35.2542 36.0155 35.2843 36.8178C35.3037 37.316 35.6606 37.2801 36.0154 37.1513C36.368 37.5334 36.1724 37.715 35.7896 37.8142C35.1639 37.9768 34.65 37.601 34.6371 36.9571C34.6221 36.2562 34.6242 35.5574 34.635 34.8565C34.6393 34.5441 34.6135 34.2971 34.1964 34.3013C34.1146 34.3013 33.9534 34.1514 33.9641 34.0923C33.9835 33.9783 34.0931 33.7904 34.1727 33.7862C34.65 33.7651 34.6457 33.459 34.6328 33.1254C34.6242 32.889 34.6307 32.6103 34.9726 32.6948C35.0994 32.7264 35.2413 32.965 35.2564 33.1212C35.2886 33.459 35.222 33.8073 35.7595 33.7799C35.8541 33.7756 35.9595 33.9656 36.0606 34.067C35.9487 34.1493 35.8455 34.2549 35.7208 34.3076C35.6133 34.3541 35.48 34.3393 35.2779 34.3604H35.2757Z" fill="#3F3E3E"/>
<path d="M48.6562 28.4472C48.6562 28.1327 48.6497 27.8181 48.6562 27.5014C48.6626 27.2185 48.6562 26.9758 48.2606 26.961C48.1789 26.9589 48.0606 26.7858 48.0434 26.676C48.0305 26.6 48.1574 26.4248 48.2219 26.4248C48.6906 26.4248 48.6282 26.1102 48.6712 25.8125C48.6927 25.6542 48.8325 25.4157 48.9594 25.3861C49.3034 25.308 49.3098 25.593 49.2926 25.8252C49.2668 26.2073 49.3851 26.4248 49.8237 26.4184C49.9183 26.4184 50.013 26.5979 50.1097 26.695C50.0087 26.79 49.9076 26.9652 49.8065 26.9652C49.3593 26.961 49.2754 27.189 49.2905 27.5669C49.312 28.1263 49.2926 28.6858 49.2991 29.2473C49.3034 29.6083 49.4088 29.8574 49.8667 29.8131C49.9914 29.8004 50.1312 29.9609 50.2645 30.0411C50.1549 30.1551 50.0667 30.3303 49.9355 30.3725C49.2174 30.6048 48.6884 30.2332 48.6583 29.4943C48.6433 29.1439 48.6562 28.7934 48.654 28.4451L48.6562 28.4472Z" fill="#3F3E3E"/>
<path d="M47.9337 34.0691C48.0863 33.991 48.2949 33.8347 48.5293 33.7798C48.6669 33.7482 48.8454 33.877 49.0045 33.9318C48.9034 34.0627 48.8282 34.2696 48.6992 34.3097C47.8305 34.5694 47.6628 34.7657 47.6606 35.6418C47.6606 36.1675 47.6864 36.6953 47.6456 37.2188C47.6327 37.392 47.4693 37.6685 47.3338 37.696C47.007 37.7593 47.0048 37.4743 47.0048 37.2357C47.0048 36.3068 46.9919 35.3758 47.0134 34.447C47.0177 34.2274 47.136 34.01 47.2026 33.7925C47.4133 33.8727 47.6241 33.9508 47.9337 34.0691Z" fill="#3F3E3E"/>
<path d="M31.8826 34.1388C32.0374 34.048 32.2654 33.8728 32.5255 33.7756C32.6352 33.7355 32.8094 33.8601 32.9534 33.9086C32.8653 34.048 32.8072 34.2718 32.6846 34.3119C31.7687 34.6222 31.6633 34.7468 31.6633 35.6968C31.6633 36.2055 31.6676 36.7143 31.6612 37.221C31.659 37.4363 31.7278 37.7129 31.3623 37.7192C30.9688 37.7255 31.0247 37.4342 31.0247 37.1956C31.0204 36.2309 31.0097 35.2661 31.0355 34.3034C31.0398 34.1198 31.2032 33.9424 31.2935 33.7609C31.4612 33.8685 31.6311 33.9741 31.8848 34.1366L31.8826 34.1388Z" fill="#3F3E3E"/>
<path d="M41.3628 26.7288C41.6208 26.6191 41.8723 26.4797 42.1433 26.4101C42.2572 26.3805 42.4099 26.4924 42.5432 26.5388C42.4636 26.6718 42.4077 26.8281 42.2981 26.9273C42.2164 27.0012 42.0594 26.9864 41.9454 27.0328C41.5004 27.2102 41.2015 27.474 41.2316 28.0103C41.2638 28.6204 41.2423 29.2347 41.2359 29.8469C41.2337 30.0792 41.309 30.3663 40.8983 30.3557C40.5177 30.3473 40.6016 30.0771 40.5994 29.8659C40.593 28.9033 40.5887 27.9406 40.6037 26.9779C40.6059 26.7922 40.7091 26.6064 40.765 26.4206C40.9714 26.486 41.1778 26.5536 41.3864 26.619C41.3778 26.6549 41.3714 26.6887 41.3628 26.7246V26.7288Z" fill="#3F3E3E"/>
<path d="M56.9968 26.7266C57.1925 26.6337 57.4183 26.4881 57.6677 26.4247C57.7967 26.391 57.9644 26.505 58.1149 26.5514C58.0246 26.6781 57.9515 26.8195 57.8418 26.923C57.7709 26.9884 57.6419 26.9905 57.5408 27.0243C57.0312 27.1995 56.7539 27.5141 56.7797 28.082C56.8098 28.7111 56.799 29.3423 56.7711 29.9735C56.7646 30.1023 56.6076 30.2247 56.5195 30.3514C56.4163 30.2226 56.2271 30.0981 56.2228 29.9672C56.197 29.0045 56.1948 28.0397 56.2163 27.0771C56.2206 26.8596 56.341 26.6443 56.4098 26.429C56.5969 26.524 56.784 26.619 56.9968 26.7287V26.7266Z" fill="#3F3E3E"/>
</g>
<defs>
<clipPath id="clip0_16_1020">
<rect width="63" height="38" fill="white"/>
</clipPath>
</defs>
</svg>
