<svg width="72" height="22" viewBox="0 0 72 22" fill="none" xmlns="http://www.w3.org/2000/svg">
<g clip-path="url(#clip0_16_943)">
<path d="M13.0031 21.9459C10.2175 21.9459 7.43192 21.9441 4.64634 21.9478C4.19447 21.9478 3.7426 21.9739 3.29073 21.9962C3.01045 22.0111 2.76068 21.9255 2.51473 21.8082C2.36601 21.7374 2.20776 21.6853 2.05904 21.6127C1.91223 21.542 1.76733 21.4619 1.63005 21.3744C1.45274 21.2609 1.27733 21.1473 1.12289 21.0003C0.894094 20.7825 0.680551 20.5628 0.548994 20.2761C0.545181 20.2687 0.543274 20.2612 0.539461 20.2556C0.318292 19.9838 0.221054 19.6562 0.114283 19.3342C0.08759 19.2541 0.0494575 19.1741 0.0399243 19.0903C-0.00964801 18.651 -0.0496872 18.2135 0.137162 17.7891C0.184828 17.6829 0.198174 17.5638 0.242027 17.4577C0.291599 17.3386 0.358331 17.225 0.419343 17.1096C0.42697 17.0965 0.442223 17.0872 0.449849 17.0742C0.608099 16.8099 0.764443 16.5437 0.926506 16.2793C1.08476 16.0224 1.25254 15.7711 1.4146 15.5161C1.4432 15.4695 1.48134 15.4267 1.49659 15.3765C1.54997 15.2126 1.62243 15.06 1.7597 14.9427C1.77114 14.9334 1.78258 14.9185 1.7864 14.9055C1.85885 14.6225 2.07239 14.4122 2.19251 14.1534C2.22873 14.0771 2.27831 14.0063 2.32597 13.9356C2.34694 13.904 2.38126 13.8779 2.40033 13.8463C2.55095 13.5782 2.69967 13.3064 2.85029 13.0365C2.85792 13.0234 2.85983 13.0067 2.86936 12.9937C3.0238 12.7442 3.18014 12.4966 3.33648 12.2472C3.37271 12.1876 3.40894 12.128 3.44707 12.0685C3.52333 11.9437 3.5996 11.8171 3.67586 11.6924C3.71209 11.6329 3.7426 11.5696 3.77692 11.51C3.84746 11.3908 3.91991 11.2736 3.99236 11.1563C3.99999 11.1433 4.01334 11.1321 4.02096 11.1191C4.17159 10.8491 4.32221 10.5792 4.47283 10.3111C4.51478 10.2367 4.56245 10.1678 4.60821 10.0952C4.65396 10.0226 4.69972 9.95186 4.74548 9.87925C4.81793 9.76198 4.89039 9.64284 4.96284 9.52369C4.97046 9.51066 4.98381 9.49949 4.99144 9.48646C5.14206 9.21654 5.29078 8.94847 5.4395 8.67854C5.45475 8.65062 5.45856 8.61897 5.47572 8.59291C5.62444 8.35835 5.77697 8.1238 5.92569 7.88924C5.97144 7.81664 6.01148 7.74218 6.05534 7.66957C6.11063 7.5765 6.16783 7.48528 6.22693 7.39406C6.25553 7.34752 6.29748 7.30843 6.31654 7.25817C6.38709 7.07573 6.49386 6.91936 6.60635 6.75741C6.77414 6.51726 6.89616 6.24734 7.03916 5.9923C7.07348 5.93087 7.1097 5.8713 7.14593 5.81359C7.21075 5.70934 7.27748 5.60323 7.34231 5.49899C7.40332 5.40032 7.46433 5.30166 7.52535 5.20486C7.55395 5.15832 7.59589 5.11923 7.61496 5.06896C7.6855 4.89584 7.78465 4.74319 7.89142 4.58868C8.06301 4.34109 8.18885 4.06558 8.33566 3.80124C8.3738 3.73422 8.41574 3.66907 8.45959 3.60391C8.47675 3.57785 8.50535 3.55923 8.52061 3.53317C8.67504 3.26511 8.82567 2.99704 8.9782 2.72897C9.02396 2.64893 9.07162 2.56888 9.1231 2.49069C9.14789 2.4516 9.18602 2.41995 9.2089 2.379C9.34999 2.13141 9.47964 1.87452 9.63217 1.63437C9.74085 1.46497 9.87241 1.3086 10.0116 1.16154C10.1775 0.986548 10.3491 0.807837 10.5435 0.666358C10.7437 0.519294 10.9649 0.379677 11.1994 0.301491C11.5941 0.167458 11.9983 0.0445947 12.4197 0.00736335C12.7323 -0.0205602 13.0374 0.0278406 13.3367 0.106026C13.4969 0.148842 13.659 0.191658 13.8153 0.247506C13.9545 0.297768 14.0937 0.3592 14.2233 0.429939C14.4502 0.554664 14.6866 0.660773 14.8754 0.845069C15.0699 1.03495 15.2834 1.20435 15.4264 1.44449C15.5809 1.70325 15.7601 1.94525 15.926 2.19657C15.9603 2.24869 15.9774 2.30826 16.0079 2.36225C16.0804 2.48883 16.1547 2.61542 16.2291 2.74201C16.2653 2.80158 16.3016 2.86115 16.3378 2.92072C16.4026 3.02683 16.4674 3.13107 16.5303 3.23718C16.5742 3.30978 16.6142 3.38611 16.6581 3.45871C16.721 3.56482 16.7877 3.66907 16.8526 3.77518C16.8888 3.83475 16.9346 3.89059 16.9574 3.95575C17.0108 4.11212 17.0852 4.2536 17.2091 4.37088C17.253 4.41183 17.2682 4.47885 17.2987 4.53097C17.3731 4.65756 17.4474 4.78228 17.5218 4.90887C17.5542 4.96286 17.5866 5.01498 17.6152 5.06896C17.6324 5.10247 17.64 5.14343 17.6591 5.17694C17.8269 5.445 17.9965 5.71307 18.1643 5.98113C18.172 5.99416 18.1853 6.00347 18.1929 6.01836C18.334 6.27526 18.4732 6.53216 18.6124 6.78905C18.6315 6.82256 18.6448 6.85979 18.6658 6.8933C18.8221 7.13344 18.9804 7.37172 19.1329 7.61373C19.1825 7.69191 19.213 7.78127 19.2587 7.86318C19.3121 7.95626 19.3712 8.04747 19.4284 8.13869C19.4456 8.16475 19.4723 8.18337 19.4875 8.21129C19.6324 8.47377 19.7716 8.74184 19.9241 9.00059C20.0767 9.25935 20.2445 9.51253 20.4065 9.7657C20.4142 9.77873 20.4294 9.78804 20.437 9.80107C20.58 10.0561 20.7211 10.313 20.8641 10.568C20.9175 10.663 20.9747 10.7542 21.03 10.8473C21.0815 10.9329 21.131 11.0204 21.1825 11.106C21.234 11.1917 21.2893 11.2773 21.3427 11.3611C21.3846 11.4262 21.4266 11.4914 21.4685 11.5565C21.5524 11.6943 21.6382 11.832 21.7202 11.9717C21.7545 12.0312 21.7793 12.0964 21.8155 12.1578C21.8823 12.2714 21.9509 12.3812 22.0195 12.4929C22.0367 12.519 22.0615 12.5394 22.0767 12.5674C22.2216 12.8317 22.3418 13.1128 22.5191 13.3548C22.7078 13.6136 22.7841 13.9337 23.0205 14.1609C23.0472 14.1869 23.0682 14.2242 23.0815 14.2595C23.1387 14.4308 23.2379 14.5741 23.3408 14.7231C23.5086 14.9632 23.6344 15.2294 23.7794 15.4863C23.8175 15.5533 23.8556 15.6222 23.8957 15.6873C23.9624 15.799 24.031 15.9107 24.0997 16.0243C24.1111 16.0448 24.1168 16.069 24.1283 16.0876C24.2903 16.3501 24.4543 16.6125 24.6164 16.875C24.6564 16.9402 24.6926 17.0091 24.7231 17.0798C24.7994 17.2566 24.8738 17.4354 24.9481 17.6141C24.9691 17.6643 24.9862 17.7165 24.9939 17.7686C25.0682 18.2451 25.1102 18.731 24.992 19.1983C24.8947 19.5817 24.7765 19.9708 24.5172 20.2966C24.4028 20.4399 24.3189 20.6037 24.1855 20.7415C23.9624 20.9761 23.7145 21.1659 23.4438 21.3428C22.9805 21.6481 22.4562 21.7858 21.928 21.9143C21.806 21.9441 21.6763 21.9515 21.5505 21.9515C18.702 21.9534 15.8535 21.9515 13.0031 21.9515V21.9459ZM12.6084 15.3132C13.4569 15.3132 14.3053 15.3132 15.1538 15.3113C15.2644 15.3113 15.3768 15.3113 15.4855 15.2946C15.638 15.2704 15.6838 15.1922 15.6495 15.0451C15.64 15.0004 15.6209 14.9557 15.5999 14.9148C15.4226 14.5723 15.148 14.2837 15.0089 13.9189C14.9955 13.8853 14.9574 13.8611 14.9364 13.8276C14.8792 13.7364 14.822 13.6433 14.7686 13.5503C14.7343 13.4888 14.7152 13.42 14.6752 13.3641C14.454 13.0476 14.2672 12.7107 14.0765 12.3738C13.9507 12.1522 13.7962 11.9493 13.7009 11.711C13.6952 11.698 13.6799 11.6868 13.6723 11.6738C13.5122 11.4188 13.3463 11.1656 13.1918 10.9087C13.0412 10.6574 12.8982 10.4005 12.7533 10.1455C12.6999 10.0524 12.6313 10.03 12.5398 10.0952C12.3796 10.2106 12.2328 10.3372 12.1699 10.5345C12.1356 10.6425 12.0784 10.7467 12.0212 10.8473C11.9544 10.9683 11.8763 11.0837 11.8038 11.201C11.7542 11.2792 11.7047 11.3573 11.657 11.4355C11.6093 11.5137 11.5617 11.5938 11.514 11.6738C11.4492 11.7799 11.3844 11.8842 11.3214 11.9903C11.2738 12.0703 11.2299 12.1504 11.1842 12.2323C11.0412 12.4873 10.9001 12.7442 10.7571 12.9992C10.7418 13.0253 10.7113 13.0439 10.6961 13.07C10.6446 13.1463 10.595 13.2245 10.5474 13.3045C10.4787 13.4162 10.412 13.5298 10.3452 13.6433C10.3052 13.7104 10.2652 13.7755 10.227 13.8425C10.0917 14.0845 9.9563 14.3265 9.81902 14.5685C9.79995 14.602 9.76563 14.6263 9.73894 14.6542C9.70653 14.6877 9.66649 14.7175 9.6417 14.7547C9.55591 14.8906 9.4968 15.0451 9.56353 15.1922C9.62645 15.3299 9.78661 15.315 9.92198 15.315C10.8181 15.315 11.7142 15.315 12.6103 15.315L12.6084 15.3132Z" fill="#3F3E3E"/>
<path d="M25.7605 12.8169C25.7605 12.1989 25.7605 11.5808 25.7605 10.9628C25.7605 10.9014 25.7604 10.8381 25.7681 10.7785C25.7871 10.6594 25.8539 10.5812 25.9854 10.5737C26.0808 10.5681 26.1742 10.5514 26.2695 10.5514C26.8796 10.5551 27.4898 10.5626 28.0999 10.5719C28.2734 10.5737 28.4488 10.5812 28.6223 10.6017C28.8606 10.6277 29.0665 10.7171 29.2725 10.8548C29.4669 10.9851 29.5928 11.1415 29.6938 11.3351C29.7892 11.5157 29.8311 11.7018 29.7472 11.8917C29.6481 12.1151 29.568 12.3497 29.3373 12.4967C29.1619 12.6103 29.1695 12.7034 29.3239 12.8542C29.4307 12.9584 29.5432 13.0552 29.65 13.1576C30.037 13.528 30.0485 14.2075 29.6729 14.5817C29.589 14.6655 29.5089 14.7492 29.4193 14.8255C29.3544 14.8795 29.282 14.9447 29.2038 14.9633C28.8816 15.0434 28.5594 15.1513 28.2333 15.1662C27.5603 15.1979 26.8854 15.1774 26.2123 15.1792C26.2047 15.1792 26.1971 15.1792 26.1894 15.1792C25.8424 15.1681 25.7585 15.0843 25.7585 14.7436C25.7585 14.1014 25.7585 13.461 25.7585 12.8188C25.7585 12.8188 25.7604 12.8188 25.7624 12.8188L25.7605 12.8169ZM27.6575 14.3229C27.9378 14.349 28.2009 14.3118 28.4488 14.1572C28.6223 14.0493 28.6986 13.9227 28.6909 13.7216C28.6833 13.5299 28.5804 13.435 28.4221 13.3512C28.0541 13.1576 27.6595 13.1836 27.2648 13.1948C27.1389 13.1985 27.0627 13.273 27.0169 13.381C26.9121 13.636 26.9178 13.8929 27.0188 14.1479C27.0627 14.2596 27.1504 14.3211 27.2743 14.3229C27.4002 14.3266 27.5279 14.3229 27.6556 14.3229H27.6575ZM27.6652 12.4297C27.9435 12.4893 28.2105 12.385 28.4469 12.1747C28.6185 12.0239 28.628 11.7465 28.4431 11.6125C28.2905 11.5008 28.1228 11.4114 27.9226 11.4096C27.7167 11.4096 27.5107 11.4021 27.3048 11.4077C27.1199 11.4133 26.9883 11.5213 26.9597 11.6981C26.9292 11.8824 26.9387 12.0667 27.0169 12.2436C27.0684 12.3608 27.1542 12.4297 27.2896 12.4297C27.4002 12.4297 27.5107 12.4297 27.6652 12.4297Z" fill="#1E1F24"/>
<path d="M50.5676 19.1407C50.5676 18.5375 50.5676 17.9344 50.5676 17.3312C50.5676 17.2549 50.5638 17.1749 50.5771 17.1004C50.6019 16.9515 50.6972 16.8733 50.8498 16.8584C50.8574 16.8584 50.865 16.8584 50.8726 16.8584C51.641 16.8696 52.4094 16.8807 53.1778 16.8956C53.5781 16.9031 53.8985 17.1078 54.2092 17.3238C54.2283 17.3368 54.2474 17.3536 54.2607 17.3703C54.642 17.8301 54.8117 18.3439 54.6363 18.9247C54.5715 19.137 54.4514 19.3343 54.3389 19.5297C54.2989 19.5986 54.2169 19.647 54.1463 19.6973C54.011 19.7922 53.9061 19.9058 53.9099 20.077C53.9099 20.1422 53.9309 20.2167 53.9671 20.2688C54.1711 20.5517 54.3923 20.8217 54.5887 21.1102C54.642 21.1903 54.642 21.315 54.6382 21.4174C54.6382 21.4527 54.5524 21.5142 54.5048 21.5142C54.2359 21.5235 53.9652 21.5179 53.6964 21.5142C53.6601 21.5142 53.6144 21.4974 53.5877 21.4732C53.418 21.315 53.2407 21.1754 53.1511 20.939C53.0614 20.7063 52.8975 20.4978 52.7411 20.2967C52.6286 20.1515 52.1634 20.0845 52.0014 20.1739C51.8565 20.2539 51.7611 20.3805 51.7592 20.5499C51.7573 20.697 51.7707 20.8422 51.784 20.9892C51.8126 21.3113 51.6868 21.4769 51.3607 21.5123C51.1891 21.5309 51.0118 21.516 50.8383 21.5179C50.7258 21.5179 50.6553 21.4602 50.6305 21.3597C50.6019 21.2405 50.5695 21.1177 50.5695 20.9967C50.5638 20.3786 50.5676 19.7606 50.5657 19.1407H50.5676ZM51.763 18.4798C51.763 18.4798 51.763 18.4798 51.7611 18.4798C51.7611 18.6194 51.7535 18.7591 51.7611 18.8968C51.7745 19.1202 51.9213 19.2971 52.1043 19.3045C52.3102 19.3119 52.5219 19.3324 52.7202 19.2971C53.1225 19.2245 53.4676 19.0811 53.5267 18.6976C53.5934 18.2564 53.4428 17.832 52.8841 17.7817C52.6248 17.7594 52.3617 17.7631 52.1005 17.7687C51.8908 17.7743 51.7707 17.9009 51.763 18.1094C51.7573 18.2322 51.763 18.357 51.763 18.4798Z" fill="#1E1F24"/>
<path d="M27.263 16.8305C27.7282 16.8658 28.201 16.864 28.6567 16.9478C29.0647 17.0222 29.3889 17.2568 29.6386 17.6142C29.938 18.0424 29.8979 18.4873 29.8426 18.9489C29.835 19.0085 29.8102 19.0718 29.7759 19.1202C29.6215 19.3473 29.5471 19.6265 29.2668 19.7718C29.1181 19.8481 29.0952 20.0882 29.1772 20.2558C29.2154 20.3321 29.2573 20.4084 29.3088 20.4754C29.4594 20.6727 29.6081 20.8701 29.7721 21.0581C29.8751 21.1754 29.8636 21.302 29.8274 21.4285C29.816 21.4695 29.734 21.5179 29.6844 21.5198C29.4232 21.5253 29.162 21.5198 28.8989 21.5123C28.8474 21.5123 28.7787 21.49 28.7501 21.4527C28.5995 21.2591 28.3841 21.1102 28.3154 20.8533C28.2506 20.6132 28.0695 20.4419 27.8998 20.2688C27.774 20.1403 27.3335 20.0901 27.1772 20.1794C27.038 20.2576 26.9598 20.3842 26.9541 20.5406C26.9484 20.6876 26.9598 20.8347 26.9636 20.9799C26.9636 21.0413 26.9751 21.1046 26.9675 21.1642C26.9427 21.3895 26.8778 21.4714 26.6452 21.49C26.4336 21.5086 26.2201 21.4918 26.0065 21.4881C25.8883 21.4844 25.812 21.423 25.793 21.3075C25.7758 21.2014 25.7529 21.0935 25.7529 20.9874C25.7529 19.7662 25.7548 18.545 25.7529 17.3219C25.7529 16.918 25.793 16.8658 26.2086 16.8547C26.5575 16.8454 26.9064 16.8547 27.2534 16.8547C27.2534 16.8454 27.2534 16.8379 27.2554 16.8286L27.263 16.8305ZM26.9522 18.4668C26.9522 18.5431 26.9522 18.6213 26.9522 18.6976C26.9522 18.774 26.9484 18.8521 26.9579 18.9285C26.9846 19.1518 27.099 19.2933 27.2782 19.2989C27.5147 19.3082 27.7606 19.3343 27.9875 19.284C28.2868 19.217 28.5938 19.1332 28.7044 18.7702C28.8626 18.2546 28.5824 17.8115 28.0294 17.7743C27.7854 17.7575 27.5394 17.7613 27.2954 17.7668C27.0723 17.7706 26.9675 17.8767 26.956 18.0963C26.9484 18.2192 26.956 18.3421 26.956 18.4668H26.9522Z" fill="#1E1F24"/>
<path d="M58.3714 12.8281C58.3714 12.1858 58.3714 11.5455 58.3714 10.9032C58.3714 10.6594 58.4133 10.6091 58.665 10.57C58.7432 10.5588 58.8233 10.5477 58.9014 10.5495C59.4715 10.5532 60.0435 10.557 60.6136 10.57C60.8424 10.5756 61.0712 10.5998 61.3 10.6277C61.4754 10.6482 61.6394 10.7059 61.7671 10.8362C61.7785 10.8474 61.79 10.8604 61.8033 10.8641C62.0703 10.9442 62.1866 11.1769 62.3296 11.3761C62.4039 11.4803 62.4497 11.6125 62.4764 11.7372C62.5431 12.0518 62.545 12.3757 62.4478 12.6792C62.3543 12.9714 62.2018 13.2432 61.9273 13.4275C61.748 13.5466 61.7042 13.7496 61.811 13.9636C61.8529 14.0455 61.9177 14.1163 61.9711 14.1926C62.0378 14.2875 62.1008 14.3843 62.1694 14.4774C62.2247 14.5519 62.2743 14.6338 62.3448 14.6915C62.4745 14.7976 62.4897 14.9205 62.4516 15.0657C62.423 15.1737 62.3563 15.2165 62.2438 15.209C62.015 15.1941 61.7862 15.1811 61.5555 15.1737C61.4354 15.1699 61.3438 15.1253 61.2752 15.0285C61.1303 14.8274 60.9568 14.645 60.8824 14.3992C60.8138 14.1759 60.6193 14.0344 60.4515 13.8836C60.402 13.8389 60.3047 13.837 60.2285 13.8259C60.1579 13.8166 60.0855 13.8222 60.0149 13.8259C59.7194 13.8352 59.6031 13.9357 59.5783 14.2298C59.565 14.3825 59.5859 14.5389 59.5878 14.6934C59.5878 14.7697 59.5935 14.8497 59.5745 14.9223C59.5268 15.1122 59.462 15.1681 59.2599 15.1718C59.0559 15.1755 58.8481 15.1718 58.646 15.1439C58.4439 15.1141 58.379 15.0229 58.3714 14.8255C58.3657 14.6785 58.3809 14.5314 58.3809 14.3843C58.3809 13.8668 58.3809 13.3493 58.3809 12.8299C58.379 12.8299 58.3752 12.8299 58.3733 12.8299L58.3714 12.8281ZM59.5688 12.1784C59.5688 12.318 59.5611 12.4576 59.5688 12.5954C59.5821 12.8169 59.7041 12.9379 59.9291 12.9454C60.1503 12.9528 60.3753 12.9621 60.5945 12.9379C60.9396 12.9007 61.2294 12.7871 61.3457 12.4092C61.4563 12.0499 61.2657 11.6311 60.8996 11.512C60.5736 11.4058 60.2399 11.4524 59.9081 11.4524C59.687 11.4524 59.5783 11.5678 59.5669 11.7837C59.5611 11.914 59.5669 12.0462 59.5669 12.1784H59.5688Z" fill="#1E1F24"/>
<path d="M42.4626 6.50804C42.4626 5.89745 42.4626 5.28685 42.4626 4.67626C42.4626 4.62228 42.4588 4.56643 42.4664 4.5143C42.4931 4.34118 42.6075 4.22948 42.7829 4.23135C43.5208 4.24065 44.2587 4.24624 44.9946 4.27789C45.5323 4.30209 45.9746 4.54967 46.3521 4.91826C46.865 5.42089 47.0805 6.02217 47.0061 6.72585C46.9928 6.85616 46.9947 6.99019 46.9623 7.11678C46.9318 7.2415 46.8669 7.35692 46.8155 7.47606C46.804 7.50398 46.7735 7.52632 46.7659 7.55424C46.6877 7.84651 46.4761 8.05501 46.2587 8.23558C46.0509 8.4087 45.8088 8.56135 45.5552 8.65257C45.1529 8.79405 44.7239 8.84989 44.293 8.85176C43.8335 8.85176 43.3721 8.85176 42.9126 8.85176C42.6094 8.85176 42.4817 8.73634 42.4722 8.4329C42.4626 8.10899 42.4683 7.78322 42.4664 7.4593C42.4664 7.14284 42.4664 6.82451 42.4664 6.50804C42.4664 6.50804 42.4645 6.50804 42.4626 6.50804ZM43.6066 6.53783C43.6066 6.53783 43.6009 6.53783 43.599 6.53783C43.599 6.85429 43.6066 7.17076 43.5971 7.48723C43.5894 7.73295 43.7706 7.96937 44.0222 7.97496C44.6038 7.98985 45.1662 7.93587 45.5437 7.41463C45.6105 7.32155 45.6944 7.22661 45.7211 7.1205C45.8755 6.50804 45.8717 5.92723 45.3454 5.45253C45.212 5.33339 45.0747 5.22728 44.8993 5.20495C44.6019 5.16958 44.3025 5.14165 44.0032 5.14165C43.7477 5.14165 43.6047 5.31664 43.6066 5.56237C43.6066 5.88628 43.6066 6.21019 43.6066 6.5341V6.53783Z" fill="#1E1F24"/>
<path d="M52.5582 12.8095C52.4705 12.3925 52.6745 11.9997 52.8881 11.6385C53.0749 11.3239 53.3628 11.0745 53.6965 10.8753C54.4362 10.4341 55.2199 10.4676 56.0149 10.6351C56.3524 10.7059 56.6251 10.9181 56.8977 11.1154C57.2066 11.3388 57.3496 11.6851 57.5555 11.9829C57.5898 12.0313 57.5974 12.0983 57.6108 12.1579C57.7023 12.6177 57.7023 13.0794 57.6108 13.5392C57.5936 13.6267 57.544 13.7105 57.5021 13.7924C57.4487 13.8947 57.3744 13.9897 57.3305 14.0958C57.2352 14.3192 57.0369 14.4532 56.8786 14.6226C56.789 14.7176 56.667 14.7809 56.5583 14.8572C56.5335 14.8758 56.5087 14.8981 56.4801 14.9093C55.9158 15.1104 55.3552 15.3803 54.7356 15.2165C54.3295 15.1104 53.9157 15.0136 53.5573 14.7529C53.3361 14.5928 53.1321 14.4178 52.991 14.2056C52.7889 13.9003 52.5754 13.582 52.5601 13.1948C52.5563 13.0794 52.5601 12.964 52.5601 12.8113L52.5582 12.8095ZM53.7518 12.8188C53.7518 13.0738 53.7632 13.2823 53.8871 13.4666C54.1007 13.7886 54.3314 14.0921 54.7432 14.1907C54.7508 14.1907 54.7585 14.1982 54.7642 14.2C55.0044 14.3266 55.2446 14.3248 55.4925 14.2094C55.7347 14.0958 55.9959 14.0158 56.1389 13.7644C56.1579 13.7328 56.1999 13.7142 56.2247 13.6844C56.2685 13.6304 56.3181 13.5764 56.3448 13.515C56.4973 13.152 56.4916 12.7778 56.421 12.398C56.3753 12.1486 56.1884 12.0015 56.0283 11.8321C55.9806 11.7819 55.931 11.7297 55.8738 11.6888C55.8052 11.6385 55.7327 11.5827 55.6527 11.5566C55.1741 11.4021 54.7203 11.4096 54.3142 11.7502C53.9653 12.0444 53.7136 12.3832 53.7499 12.8169L53.7518 12.8188Z" fill="#1E1F24"/>
<path d="M42.0851 21.5477C41.7591 21.5477 41.4521 21.4993 41.1375 21.382C40.718 21.2275 40.352 21.0097 40.0717 20.6839C39.841 20.4158 39.6141 20.1292 39.6103 19.7457C39.6103 19.6917 39.6046 19.6358 39.5893 19.5856C39.4711 19.1835 39.5378 18.7888 39.6294 18.3942C39.6522 18.2937 39.7171 18.1987 39.7685 18.1056C39.7933 18.0591 39.8467 18.0219 39.8639 17.9735C39.9611 17.6924 40.1918 17.5137 40.413 17.3517C40.6952 17.1469 41.0021 16.9589 41.3644 16.8993C41.9021 16.8081 42.4378 16.81 42.9679 16.944C43.0956 16.9757 43.2119 17.0464 43.332 17.1041C43.3892 17.1302 43.4388 17.173 43.496 17.1972C43.7686 17.307 43.946 17.523 44.1442 17.7222C44.4055 17.9846 44.4932 18.3253 44.6095 18.6474C44.7372 19.001 44.7258 19.3771 44.5961 19.7401C44.5446 19.8853 44.4893 20.0305 44.436 20.1757C44.4188 20.2185 44.4074 20.2669 44.3807 20.3023C44.0489 20.7472 43.7076 21.1828 43.1185 21.3317C43.0803 21.341 43.0403 21.3522 43.006 21.3708C42.72 21.5328 42.4073 21.557 42.0851 21.5495V21.5477ZM43.4731 19.2151C43.4674 18.9229 43.3854 18.6753 43.231 18.424C43.0823 18.1838 42.884 18.0014 42.6533 17.8953C41.9211 17.5583 41.0784 17.953 40.8153 18.6716C40.6856 19.029 40.6627 19.3585 40.8305 19.6991C40.8744 19.7885 40.8915 19.8965 40.9526 19.9728C41.1718 20.2595 41.4769 20.4382 41.8086 20.5722C41.8868 20.6039 41.9783 20.602 42.0641 20.6132C42.2834 20.643 42.4588 20.5313 42.6437 20.4438C43.17 20.1906 43.3968 19.7513 43.4731 19.2151Z" fill="#1E1F24"/>
<path d="M29.9587 6.64208C29.9587 5.96261 29.9587 5.28314 29.9587 4.60367C29.9587 4.35794 30.0121 4.28906 30.26 4.24997C30.3229 4.24066 30.3858 4.22949 30.4487 4.22949C31.1466 4.24066 31.8425 4.25183 32.5403 4.27045C32.689 4.27417 32.8397 4.30582 32.9865 4.33746C33.1428 4.36911 33.2896 4.42496 33.404 4.5441C33.446 4.58877 33.5013 4.62414 33.5585 4.65021C33.6652 4.70047 33.7377 4.77307 33.7777 4.88104C33.7892 4.90896 33.8025 4.93875 33.8254 4.96109C34.0961 5.23102 34.0999 5.57168 34.0923 5.91607C34.0866 6.18972 34.0446 6.44476 33.8673 6.67931C33.732 6.85803 33.6481 7.07024 33.4326 7.18566C33.3487 7.23034 33.322 7.31411 33.3487 7.40719C33.3754 7.50399 33.3754 7.61568 33.4288 7.69573C33.5985 7.94332 33.7911 8.17788 33.9684 8.42174C34.016 8.4869 34.0713 8.56694 34.0694 8.63954C34.0694 8.83873 33.9932 8.88527 33.7853 8.87038C33.5966 8.85735 33.4059 8.85176 33.2153 8.85549C33.0589 8.85921 32.9426 8.79964 32.8454 8.68608C32.7005 8.51296 32.5746 8.33425 32.4755 8.12575C32.3802 7.92098 32.2086 7.74785 32.0579 7.57101C32.0255 7.53191 31.9435 7.52074 31.8825 7.51702C31.7567 7.50771 31.6289 7.50771 31.5031 7.5133C31.3182 7.5226 31.2381 7.57101 31.2019 7.75158C31.1656 7.9396 31.1675 8.1332 31.158 8.32494C31.1542 8.39382 31.1752 8.46456 31.1714 8.53344C31.1637 8.69725 31.0856 8.79219 30.9216 8.82756C30.6623 8.88341 30.3992 8.8741 30.1456 8.80709C30.0827 8.79033 30.0236 8.71587 29.9892 8.6563C29.9606 8.60604 29.9626 8.53716 29.9626 8.47573C29.9626 7.86513 29.9626 7.25454 29.9626 6.64581L29.9587 6.64208ZM31.1485 5.88815C31.1485 6.01846 31.1428 6.15063 31.1485 6.28094C31.1618 6.4913 31.2781 6.61788 31.4898 6.62161C31.7586 6.62719 32.0274 6.62161 32.2944 6.59927C32.6166 6.57321 32.8263 6.40939 32.9178 6.09106C33.0284 5.70758 32.8397 5.31851 32.4507 5.19192C32.1609 5.09698 31.8596 5.09698 31.5584 5.10815C31.3086 5.1156 31.1637 5.25335 31.1485 5.4935C31.1408 5.62381 31.1485 5.75598 31.1485 5.88629V5.88815Z" fill="#1E1F24"/>
<path d="M35.3356 12.8094C35.3356 12.1988 35.3356 11.5882 35.3356 10.9776C35.3356 10.6388 35.4443 10.5401 35.7971 10.5532C35.8848 10.5569 35.9706 10.5476 36.0583 10.5457C36.369 10.5383 36.5235 10.7021 36.5063 11C36.4873 11.3164 36.4739 11.6329 36.4701 11.9494C36.4663 12.3254 36.636 12.4799 37.0249 12.478C37.3338 12.478 37.6427 12.478 37.9534 12.478C37.9763 12.478 38.0011 12.478 38.024 12.478C38.4644 12.4725 38.5845 12.3496 38.5769 11.914C38.5712 11.5901 38.5826 11.2643 38.5598 10.9404C38.5426 10.6984 38.7409 10.4992 38.9907 10.5457C39.0898 10.5644 39.1966 10.5457 39.2976 10.5457C39.5684 10.5401 39.7114 10.6742 39.7114 10.9348C39.7114 12.1876 39.7095 13.4386 39.7152 14.6914C39.7152 14.8515 39.6618 14.9763 39.5531 15.0861C39.4235 15.2164 38.8343 15.222 38.7028 15.0935C38.596 14.9893 38.5578 14.8608 38.5617 14.7138C38.5693 14.3973 38.5712 14.0808 38.5712 13.7625C38.5712 13.5261 38.5083 13.4516 38.268 13.3921C38.207 13.3772 38.1441 13.366 38.0812 13.3641C37.6999 13.3623 37.3204 13.3604 36.9391 13.366C36.8552 13.366 36.7675 13.3939 36.6874 13.4237C36.5387 13.4796 36.4644 13.5857 36.4739 13.7476C36.4911 14.0566 36.4892 14.3657 36.5178 14.6728C36.5349 14.8683 36.4587 15.0005 36.3118 15.1103C36.2756 15.1382 36.2279 15.1661 36.186 15.168C35.9953 15.1736 35.8047 15.1866 35.6159 15.1643C35.4443 15.1438 35.3852 14.9912 35.3433 14.846C35.328 14.7957 35.3356 14.738 35.3356 14.684C35.3356 14.0585 35.3356 13.4312 35.3356 12.8057V12.8094Z" fill="#1E1F24"/>
<path d="M60.2933 19.122C60.2933 18.4723 60.2933 17.8245 60.2933 17.1748C60.2933 16.9886 60.3505 16.9197 60.5335 16.89C60.6269 16.8751 60.7223 16.8676 60.8176 16.8676C61.7213 16.8658 62.6251 16.8639 63.5288 16.8639C63.5841 16.8639 63.6394 16.8639 63.6947 16.8751C63.832 16.8974 64.0055 16.8844 64.0531 17.05C64.1103 17.253 64.1103 17.467 63.9826 17.6532C63.9521 17.6979 63.8796 17.7258 63.8205 17.737C63.7119 17.7574 63.6013 17.7668 63.4907 17.7668C62.9683 17.7686 62.4439 17.7779 61.9215 17.763C61.5841 17.7519 61.4525 17.938 61.4811 18.2191C61.4887 18.288 61.4925 18.3587 61.5116 18.4239C61.586 18.7087 61.6317 18.7422 61.9387 18.7422C62.4306 18.7422 62.9225 18.7404 63.4144 18.7422C63.7195 18.7422 63.8072 18.8372 63.8034 19.135C63.8034 19.1667 63.8034 19.1964 63.7996 19.2281C63.7652 19.5576 63.689 19.6283 63.3534 19.6302C62.8768 19.632 62.402 19.6265 61.9253 19.6302C61.5879 19.6302 61.4754 19.7512 61.483 20.0863C61.483 20.1086 61.483 20.1328 61.4849 20.1551C61.5192 20.5572 61.605 20.641 62.015 20.6392C62.5545 20.6373 63.0941 20.6354 63.6318 20.6149C64.1161 20.5945 64.1523 20.8383 64.1161 21.1585C64.0836 21.4527 64.0112 21.5159 63.7023 21.5178C63.0445 21.5234 62.3867 21.5178 61.7271 21.5178C61.4487 21.5178 61.1722 21.5215 60.8939 21.5215C60.8233 21.5215 60.7509 21.5215 60.6803 21.5104C60.3734 21.4713 60.2856 21.3689 60.2856 21.071C60.2856 20.4232 60.2856 19.7735 60.2856 19.1257C60.2876 19.1257 60.2914 19.1257 60.2933 19.1257V19.122Z" fill="#1E1F24"/>
<path d="M32.6187 15.1774C32.1516 15.1774 31.6826 15.1774 31.2154 15.1774C31.122 15.1774 31.0229 15.1699 30.9352 15.1439C30.7026 15.0731 30.6244 14.9447 30.6454 14.7083C30.6568 14.578 30.6644 14.4458 30.6644 14.3155C30.6644 13.1874 30.6587 12.0574 30.6568 10.9293C30.6568 10.6929 30.6854 10.6463 30.918 10.5849C31.0076 10.5607 31.1049 10.5514 31.1983 10.5514C32.0868 10.5514 32.9733 10.5514 33.8618 10.5533C33.9648 10.5533 34.0678 10.5588 34.1707 10.57C34.329 10.5886 34.3957 10.6501 34.4148 10.8027C34.4243 10.879 34.4243 10.9572 34.4186 11.0335C34.3976 11.3779 34.3194 11.4524 33.9705 11.4543C33.5034 11.4543 33.0344 11.4524 32.5672 11.4505C32.4872 11.4505 32.409 11.4468 32.3289 11.4505C32.1554 11.4561 31.9705 11.4356 31.8828 11.6385C31.8008 11.8247 31.8446 12.2026 31.9743 12.3236C32.0124 12.359 32.0658 12.3888 32.1173 12.3962C32.2336 12.4167 32.3537 12.4297 32.47 12.4316C32.8818 12.4353 33.2956 12.4316 33.7074 12.4316C34.0678 12.4316 34.1555 12.5191 34.1478 12.8746C34.1478 12.9565 34.1192 13.0403 34.0925 13.1204C34.0468 13.2637 33.9438 13.3214 33.7856 13.3195C33.349 13.3102 32.9123 13.3121 32.4776 13.3121C32.367 13.3121 32.2565 13.3177 32.1459 13.3251C31.9895 13.3363 31.898 13.4275 31.8675 13.569C31.8256 13.7607 31.8332 13.9525 31.9171 14.1368C31.959 14.2298 32.0277 14.2876 32.1325 14.2931C32.2507 14.2987 32.3709 14.3062 32.4891 14.3062C33.0039 14.3062 33.5205 14.3043 34.0353 14.3043C34.2737 14.3043 34.4014 14.3732 34.4605 14.5277C34.5253 14.6971 34.4529 15.0489 34.3175 15.1308C34.2508 15.1718 34.1536 15.1792 34.0697 15.1792C33.5854 15.183 33.103 15.1811 32.6187 15.1811V15.1774Z" fill="#1E1F24"/>
<path d="M32.651 16.8621C33.1429 16.8621 33.6329 16.8621 34.1248 16.8621C34.3307 16.8621 34.4546 16.9663 34.4623 17.1674C34.4661 17.2809 34.4566 17.4001 34.4337 17.5117C34.3841 17.7389 34.3422 17.7668 34.0886 17.7668C33.5566 17.7668 33.0266 17.7631 32.4946 17.7668C32.3764 17.7668 32.2563 17.7742 32.1419 17.8003C31.957 17.8431 31.9074 17.9101 31.8902 18.0888C31.8426 18.5728 32.0027 18.7441 32.5004 18.7441C32.9122 18.7441 33.324 18.7422 33.7378 18.7422C33.8007 18.7422 33.8655 18.7385 33.9284 18.7478C34.1134 18.7739 34.2335 18.893 34.2316 19.0736C34.2316 19.1872 34.2087 19.3026 34.1725 19.4105C34.1172 19.5762 33.9913 19.6432 33.8064 19.6395C33.3698 19.6283 32.9351 19.6265 32.4984 19.6302C32.3726 19.6302 32.2468 19.6525 32.1248 19.6805C31.976 19.714 31.8998 19.8182 31.8921 19.9653C31.8635 20.4921 31.9818 20.6448 32.527 20.641C33.0495 20.6373 33.5719 20.6243 34.0962 20.6168C34.3345 20.6131 34.4699 20.7043 34.5271 20.8979C34.5919 21.1213 34.5195 21.3745 34.3441 21.475C34.2869 21.5085 34.2087 21.5197 34.142 21.5197C33.1581 21.5234 32.1762 21.5234 31.1924 21.5216C30.9045 21.5216 30.6967 21.2814 30.731 20.9985C30.7424 20.9072 30.7558 20.8142 30.7558 20.7211C30.7539 19.539 30.7482 18.3569 30.7444 17.1748C30.7444 17.0035 30.9083 16.8639 31.1314 16.8639C31.2744 16.8639 31.4155 16.8788 31.5585 16.8807C31.9226 16.8825 32.2887 16.8807 32.6529 16.8807C32.6529 16.8751 32.6529 16.8695 32.6529 16.8621H32.651Z" fill="#1E1F24"/>
<path d="M45.0611 15.2016C44.8972 15.1848 44.676 15.1699 44.4586 15.1383C44.2756 15.1122 44.1765 14.9949 44.1212 14.8199C43.9934 14.4067 43.8695 14.3266 43.4176 14.3248C43.0363 14.3248 42.655 14.3452 42.2755 14.3192C41.9438 14.2968 41.7589 14.4607 41.6082 14.7083C41.5873 14.7418 41.5701 14.7771 41.5587 14.8144C41.4805 15.0899 41.286 15.1941 41.0038 15.1811C40.8608 15.1736 40.7178 15.1811 40.5748 15.1867C40.4852 15.1904 40.3918 15.1997 40.3537 15.0973C40.3155 14.9893 40.245 14.8646 40.3479 14.7697C40.5157 14.617 40.5405 14.4048 40.6359 14.2242C40.7884 13.9357 40.9047 13.6341 41.0267 13.3363C41.0934 13.1725 41.1678 13.0124 41.2422 12.8504C41.4042 12.5023 41.5701 12.156 41.7322 11.8079C41.7779 11.7093 41.8141 11.6087 41.858 11.5101C41.9247 11.363 41.9934 11.2178 42.0601 11.0708C42.0982 10.987 42.1364 10.9013 42.1707 10.8139C42.226 10.6705 42.3175 10.5756 42.4815 10.57C42.735 10.5625 42.9905 10.5346 43.2403 10.5551C43.4615 10.5737 43.5988 10.7375 43.6979 10.9218C43.7341 10.9888 43.7475 11.0689 43.7723 11.1415C43.8886 11.4915 44.0849 11.8098 44.2089 12.1616C44.2737 12.3441 44.39 12.5172 44.4453 12.7108C44.451 12.7331 44.4586 12.7573 44.4701 12.7759C44.6226 13.031 44.6912 13.3214 44.8209 13.5801C44.9391 13.8166 45.0421 14.053 45.1241 14.3043C45.1527 14.3899 45.2194 14.4625 45.269 14.5407C45.3624 14.6896 45.4348 14.8404 45.3719 15.021C45.3204 15.1718 45.2747 15.209 45.0573 15.2016H45.0611ZM42.8571 13.448V13.461C42.9276 13.461 43.0001 13.4573 43.0706 13.461C43.4977 13.4926 43.5149 13.2786 43.4405 12.99C43.4291 12.9453 43.4176 12.8951 43.3871 12.8616C43.2346 12.6978 43.1945 12.493 43.1545 12.2882C43.1393 12.2138 43.1202 12.1318 43.0763 12.0704C43.042 12.022 42.9677 11.9736 42.9086 11.9717C42.777 11.9643 42.6531 12.0127 42.5959 12.1412C42.552 12.2398 42.5196 12.3441 42.4986 12.4502C42.4643 12.627 42.4185 12.7946 42.308 12.9453C42.2641 13.0049 42.2412 13.0868 42.2279 13.1613C42.1974 13.3344 42.2698 13.4294 42.4491 13.4461C42.5825 13.4573 42.7179 13.448 42.8533 13.448H42.8571Z" fill="#1E1F24"/>
<path d="M41.6142 8.8759C41.3549 8.85728 41.1261 8.83681 40.8973 8.82378C40.7314 8.81447 40.6399 8.72139 40.5846 8.57991C40.5598 8.51476 40.5388 8.44774 40.5102 8.38445C40.4054 8.15361 40.2319 8.01399 39.9611 8.01399C39.5016 8.01399 39.0402 8.01027 38.5807 8.01399C38.2795 8.01772 38.0964 8.15733 38.003 8.43843C37.8963 8.7549 37.7819 8.84053 37.4348 8.85356C37.2995 8.85915 37.166 8.85728 37.0306 8.85728C36.7999 8.85728 36.676 8.67857 36.758 8.46822C36.7637 8.45332 36.7675 8.43657 36.779 8.42726C36.9734 8.24669 36.9887 7.98235 37.1069 7.77013C37.2461 7.52254 37.3586 7.27309 37.4329 7.00502C37.4482 6.94732 37.4959 6.89891 37.5283 6.84679C37.5492 6.81514 37.5797 6.78536 37.595 6.75185C37.7323 6.42608 37.8657 6.09658 38.003 5.77081C38.0564 5.64236 38.1174 5.51763 38.1765 5.39291C38.2108 5.32217 38.2642 5.25887 38.2795 5.18627C38.3348 4.92379 38.4835 4.70413 38.6131 4.47515C38.6951 4.33181 38.7981 4.24618 38.9659 4.24246C39.1947 4.23687 39.4254 4.2257 39.6542 4.23874C39.74 4.24432 39.8353 4.29831 39.9001 4.35788C40.0565 4.50308 40.169 4.67434 40.2242 4.88656C40.2643 5.03921 40.3558 5.18069 40.4244 5.32589C40.4378 5.35381 40.4626 5.37615 40.474 5.40594C40.6189 5.78011 40.7467 6.15987 40.9106 6.52474C41.0479 6.82818 41.168 7.1372 41.3091 7.43505C41.3987 7.62306 41.4883 7.80922 41.557 8.00655C41.5913 8.10707 41.6542 8.19829 41.7114 8.28951C41.8048 8.43471 41.8582 8.57805 41.7801 8.74745C41.74 8.83495 41.6904 8.89265 41.6123 8.8759H41.6142ZM39.2728 7.13161C39.2728 7.13161 39.2728 7.1372 39.2728 7.13906C39.3605 7.13906 39.4463 7.14092 39.534 7.13906C39.8753 7.12975 39.9573 7.02178 39.8601 6.70345C39.841 6.64016 39.7914 6.58431 39.7609 6.52288C39.719 6.43352 39.6732 6.34603 39.6446 6.25295C39.5989 6.10589 39.5703 5.9551 39.5283 5.80618C39.4921 5.67773 39.3872 5.65725 39.2671 5.65539C39.1432 5.65353 39.0459 5.68517 39.0097 5.8099C38.9716 5.94207 38.9449 6.07983 38.901 6.21014C38.8686 6.31066 38.8362 6.41863 38.7733 6.49868C38.6799 6.61782 38.6456 6.74254 38.6494 6.88588C38.6532 7.04598 38.7085 7.11486 38.8705 7.12975C39.004 7.14278 39.1394 7.13161 39.2728 7.13161Z" fill="#1E1F24"/>
<path d="M65.5519 10.5402C65.7521 10.5364 65.9466 10.5346 66.1296 10.6407C66.2306 10.7003 66.305 10.7691 66.3317 10.8827C66.3794 11.0875 66.448 11.2829 66.5815 11.4542C66.6234 11.5063 66.6406 11.5808 66.6596 11.6478C66.7149 11.8507 66.774 12.048 66.9075 12.2212C66.9494 12.2751 66.9704 12.3459 66.9876 12.4129C67.0352 12.5935 67.0886 12.7703 67.2202 12.9137C67.2259 12.9192 67.2316 12.9267 67.2335 12.9323C67.3174 13.2971 67.5233 13.6117 67.653 13.958C67.7102 14.1088 67.7884 14.2521 67.8475 14.401C67.9066 14.55 67.979 14.7026 67.9962 14.859C68.021 15.1047 67.8894 15.209 67.6396 15.1904C67.5367 15.1829 67.4337 15.181 67.3308 15.1773C67.0066 15.1662 66.7874 15.0098 66.7245 14.7008C66.6749 14.4606 66.5319 14.3545 66.3031 14.3378C66.122 14.3247 65.9389 14.3266 65.7559 14.3266C65.4394 14.3266 65.121 14.334 64.8045 14.3247C64.589 14.3191 64.446 14.3917 64.3507 14.5872C64.2725 14.7473 64.1581 14.8888 64.0666 15.0414C64.0132 15.1308 63.9389 15.1755 63.834 15.1755C63.6758 15.1755 63.5175 15.1755 63.3593 15.1773C63.2372 15.1773 63.1495 15.1196 63.0714 15.0358C62.9989 14.9577 62.9875 14.8795 63.037 14.7827C63.1057 14.6449 63.1533 14.4978 63.2201 14.3582C63.3745 14.0325 63.5328 13.7067 63.6891 13.3828C63.6967 13.3697 63.7082 13.3567 63.7139 13.3437C63.8588 12.9956 64.0018 12.6456 64.1505 12.2993C64.2039 12.1728 64.2764 12.0536 64.3316 11.927C64.3908 11.793 64.4346 11.6534 64.4918 11.5175C64.5337 11.4188 64.589 11.3257 64.6329 11.2289C64.6882 11.1098 64.753 10.9925 64.7873 10.8678C64.8369 10.6872 64.9399 10.5848 65.1305 10.5718C65.2716 10.5606 65.4127 10.5513 65.5538 10.542L65.5519 10.5402ZM65.5309 13.4758C65.5309 13.4758 65.5309 13.4647 65.5328 13.461C65.6434 13.461 65.7559 13.4703 65.8646 13.4591C66.0457 13.4423 66.1315 13.3306 66.1048 13.1594C66.0743 12.9769 66.0305 12.8001 65.9122 12.6437C65.8455 12.5544 65.815 12.4352 65.775 12.3273C65.7464 12.2472 65.7349 12.1616 65.7044 12.0834C65.6396 11.9121 65.5214 11.8768 65.4089 12.0182C65.2945 12.1616 65.2049 12.3273 65.1305 12.4948C65.039 12.6996 64.9799 12.9155 64.8979 13.124C64.8331 13.2916 64.856 13.3716 65.039 13.4163C65.1992 13.4535 65.365 13.4591 65.529 13.4796L65.5309 13.4758Z" fill="#1E1F24"/>
<path d="M46.4206 18.3848C46.4206 18.7254 46.4416 19.0661 46.4149 19.4049C46.3901 19.7326 46.5216 20.0043 46.7085 20.2389C46.8725 20.4455 47.3548 20.7359 47.6751 20.5945C48.0012 20.4511 48.331 20.2985 48.3959 19.8982C48.4264 19.7084 48.4626 19.5166 48.4664 19.3249C48.474 18.8074 48.4702 18.288 48.4664 17.7705C48.4664 17.5843 48.4531 17.4 48.4359 17.2157C48.4245 17.0817 48.474 16.9979 48.598 16.9383C48.8706 16.808 49.1566 16.8415 49.4369 16.8788C49.5513 16.8937 49.6352 17.0016 49.6428 17.1338C49.6428 17.1655 49.6466 17.1952 49.6466 17.2269C49.6466 17.9771 49.6523 18.7273 49.6428 19.4775C49.639 19.7158 49.6066 19.9559 49.5627 20.1905C49.5417 20.3078 49.4693 20.4176 49.414 20.5274C49.393 20.5684 49.3511 20.5982 49.3301 20.6391C49.149 21.0021 48.8248 21.1827 48.4683 21.3503C47.9917 21.5755 47.5036 21.5792 47.004 21.5197C46.8362 21.4992 46.678 21.4098 46.5121 21.3577C46.2833 21.2851 46.0717 21.1864 45.9001 21.017C45.6827 20.803 45.4711 20.587 45.4005 20.278C45.3281 19.9597 45.2804 19.6413 45.2842 19.3137C45.2919 18.6417 45.2804 17.9678 45.2766 17.2958C45.2766 16.983 45.391 16.862 45.7132 16.8527C45.8238 16.849 45.9363 16.8508 46.0469 16.8527C46.3119 16.8602 46.4225 16.9663 46.4244 17.2213C46.4263 17.6085 46.4244 17.9938 46.4244 18.3811H46.4187L46.4206 18.3848Z" fill="#1E1F24"/>
<path d="M66.7777 21.5328C66.4231 21.5551 66.1219 21.5123 65.832 21.3857C65.7672 21.3578 65.6967 21.3373 65.6261 21.328C65.3249 21.2833 65.0904 21.1084 64.8425 20.9557C64.7472 20.8961 64.69 20.8105 64.7148 20.7025C64.7529 20.5294 64.791 20.3544 64.8559 20.1925C64.9073 20.0659 65.1743 20.0156 65.3249 20.0864C65.3611 20.1031 65.3935 20.1255 65.424 20.1497C65.4564 20.1739 65.4831 20.1999 65.5136 20.226C65.731 20.4047 66.5528 20.6672 66.8254 20.6411C67.0408 20.6206 67.2201 20.5406 67.3345 20.3451C67.3955 20.2409 67.3974 20.1478 67.344 20.0398C67.2582 19.8648 67.1152 19.7699 66.9322 19.714C66.5623 19.6042 66.1886 19.4962 65.8206 19.379C65.2696 19.2021 64.8177 18.6604 64.852 18.1466C64.8597 18.0424 64.8921 17.9363 64.9321 17.8376C64.9779 17.724 65.0522 17.6198 65.1018 17.5062C65.1552 17.3871 65.2296 17.294 65.3535 17.2419C65.3687 17.2363 65.3821 17.2289 65.3935 17.2177C65.8702 16.8007 66.4517 16.8175 67.0332 16.8417C67.2468 16.851 67.4565 16.9049 67.67 16.9236C67.9656 16.9496 68.2039 17.1097 68.4632 17.2233C68.5661 17.2679 68.631 17.3648 68.5776 17.4709C68.4727 17.6756 68.3526 17.8748 68.2249 18.0684C68.202 18.1038 68.1067 18.1243 68.0571 18.1094C67.9293 18.0759 67.8054 18.0237 67.6853 17.9679C67.2563 17.7743 66.814 17.6794 66.3526 17.8264C66.1009 17.9065 66.0608 18.0554 66.2 18.2732C66.2801 18.3979 66.3983 18.4687 66.5394 18.5115C66.9074 18.6269 67.2811 18.7311 67.6433 18.867C68.0113 19.0048 68.3164 19.2338 68.5433 19.5521C68.5738 19.5949 68.5928 19.6526 68.5967 19.7029C68.6119 19.9412 68.6272 20.1776 68.6291 20.4159C68.6291 20.4829 68.6062 20.5555 68.5719 20.615C68.4193 20.8813 68.2249 21.127 67.9408 21.2591C67.5633 21.4341 67.1743 21.611 66.772 21.5328H66.7777Z" fill="#1E1F24"/>
<path d="M37.8981 20.2018C37.8199 20.0919 37.7722 19.997 37.6998 19.93C37.6102 19.8481 37.5053 19.7662 37.3928 19.7271C37.0115 19.5949 36.6225 19.4906 36.2412 19.3603C35.9361 19.2542 35.6845 19.0588 35.4938 18.8075C35.347 18.6139 35.3413 18.3756 35.3356 18.141C35.326 17.7222 35.5472 17.4318 35.8656 17.1823C36.102 16.9961 36.3689 16.9068 36.6664 16.8621C37.2346 16.7783 37.7913 16.8249 38.3385 16.9719C38.5253 17.0222 38.6988 17.1283 38.8685 17.2251C38.9219 17.2549 38.9696 17.3294 38.9829 17.3908C39.0249 17.5881 38.8399 17.9381 38.655 18.0517C38.5368 18.1243 38.4186 18.141 38.3004 18.0591C38.0106 17.8581 37.675 17.8022 37.3356 17.7613C37.204 17.7464 37.0668 17.7557 36.9352 17.7706C36.7732 17.7892 36.6492 17.8971 36.6244 18.0181C36.592 18.1782 36.6835 18.3867 36.838 18.4463C37.1392 18.5636 37.4405 18.6846 37.7532 18.7646C38.1383 18.8633 38.4796 19.0271 38.7656 19.2915C38.8476 19.3678 38.9009 19.4795 38.9486 19.5837C38.9982 19.688 39.023 19.8034 39.0611 19.9132C39.1221 20.0957 39.1355 20.2744 39.0535 20.4549C39.0058 20.561 38.9715 20.6727 38.9257 20.7807C38.9086 20.8235 38.8895 20.8738 38.8552 20.8999C38.6607 21.0413 38.4948 21.2089 38.2641 21.3168C37.8313 21.5198 37.3871 21.5607 36.9219 21.5365C36.7293 21.5272 36.5444 21.503 36.3689 21.4174C36.2908 21.3801 36.2069 21.3466 36.1211 21.3355C35.797 21.2908 35.5396 21.1009 35.2555 20.9687C35.1697 20.9278 35.1354 20.8589 35.1239 20.7658C35.0877 20.4642 35.2745 20.2744 35.4728 20.0938C35.5091 20.0603 35.5929 20.0584 35.6501 20.0677C35.7188 20.0789 35.797 20.1012 35.8465 20.1459C36.1039 20.373 36.4471 20.4196 36.7446 20.5629C36.9619 20.6672 37.2079 20.6709 37.4424 20.6057C37.5263 20.5815 37.6006 20.5108 37.6674 20.4494C37.7474 20.3768 37.8161 20.293 37.9 20.2036L37.8981 20.2018Z" fill="#1E1F24"/>
<path d="M57.8987 16.8323C58.055 16.8565 58.3372 16.8695 58.5984 16.9514C58.8806 17.0408 59.1514 17.1804 59.4068 17.3293C59.6223 17.4559 59.6204 17.6867 59.4431 17.8692C59.3725 17.9418 59.3039 18.0181 59.2467 18.1019C59.1704 18.2154 59.0675 18.2601 58.9416 18.2173C58.8177 18.1745 58.688 18.1242 58.5908 18.0423C58.1733 17.6905 57.4449 17.7091 57.0102 18.0386C56.7471 18.2359 56.6022 18.4909 56.4859 18.7646C56.3601 19.0643 56.3581 19.3826 56.5431 19.6767C56.5679 19.7158 56.5946 19.7549 56.6117 19.7978C56.7433 20.1217 57.0064 20.2948 57.321 20.4363C57.8491 20.6746 58.2896 20.5033 58.7109 20.1999C58.9073 20.0584 59.1056 20.0695 59.2658 20.2483C59.3115 20.3004 59.3611 20.3562 59.4221 20.3897C59.5842 20.4791 59.5823 20.6261 59.5842 20.7732C59.5842 20.8737 59.5098 20.9166 59.4335 20.965C59.1247 21.1548 58.8082 21.3224 58.4592 21.4341C57.9464 21.5979 57.4373 21.6277 56.932 21.4099C56.8958 21.395 56.8596 21.3726 56.8215 21.3652C56.4973 21.3038 56.2361 21.1251 56.0111 20.9054C55.7385 20.6392 55.4716 20.3618 55.3877 19.9709C55.3305 19.701 55.197 19.4459 55.2237 19.1574C55.258 18.7832 55.3362 18.4127 55.5078 18.087C55.7042 17.7128 56.0016 17.4168 56.3944 17.1878C56.8329 16.9328 57.2886 16.8546 57.8987 16.8341V16.8323Z" fill="#1E1F24"/>
<path d="M45.2634 10.7338C45.2691 10.7227 45.2729 10.7059 45.2844 10.6966C45.5932 10.4304 46.2853 10.4825 46.5275 10.8009C46.5866 10.8791 46.6209 10.9796 46.6438 11.0764C46.7029 11.3091 46.7563 11.5418 46.8859 11.7521C46.9374 11.8359 46.9603 11.9401 46.9813 12.0369C47.0251 12.2417 47.0918 12.4353 47.1967 12.6215C47.2672 12.7462 47.2882 12.8989 47.3225 13.0403C47.3588 13.1837 47.3759 13.3307 47.4179 13.4704C47.4598 13.6156 47.5761 13.6733 47.7515 13.6677C47.8869 13.664 47.9269 13.5653 47.946 13.4685C48.0185 13.0962 48.1424 12.7425 48.2835 12.3888C48.3807 12.1468 48.4131 11.8843 48.5485 11.6497C48.6267 11.512 48.6324 11.337 48.6839 11.1825C48.7258 11.0596 48.7811 10.9386 48.844 10.8251C48.9546 10.6277 49.1186 10.5123 49.3664 10.5421C49.4675 10.5533 49.5743 10.5309 49.6753 10.5458C49.7668 10.5589 49.8584 10.5905 49.9403 10.6315C50.03 10.6743 50.0566 10.7543 50.0109 10.8474C49.8908 11.0894 49.8259 11.3519 49.7001 11.5958C49.5114 11.9643 49.3989 12.3702 49.2501 12.7592C49.1987 12.8951 49.1338 13.0273 49.0747 13.1613C49.0652 13.1818 49.048 13.2004 49.0385 13.2209C48.8955 13.5876 48.7296 13.9488 48.619 14.3248C48.5352 14.6096 48.3655 14.8367 48.2148 15.0806C48.1881 15.1253 48.1119 15.1625 48.0566 15.1644C47.803 15.1737 47.5494 15.1755 47.2958 15.1662C47.2329 15.1644 47.1567 15.1234 47.1109 15.0787C46.9355 14.8982 46.7963 14.6971 46.7296 14.4477C46.68 14.2634 46.5885 14.0903 46.5141 13.9134C46.4817 13.8352 46.4417 13.757 46.4188 13.677C46.3597 13.461 46.3177 13.2377 46.1614 13.0608C46.1557 13.0552 46.1519 13.0478 46.15 13.0403C46.087 12.655 45.8563 12.3273 45.7439 11.9588C45.6981 11.8042 45.6199 11.6609 45.5551 11.512C45.5265 11.4487 45.4922 11.3873 45.4693 11.3221C45.4007 11.1341 45.3358 10.9461 45.2615 10.7338H45.2634Z" fill="#1E1F24"/>
<path d="M27.3658 4.22021C27.8901 4.22021 28.4125 4.22766 28.9368 4.21649C29.137 4.21277 29.2838 4.28723 29.3696 4.4436C29.4554 4.59997 29.4344 4.76938 29.3315 4.92761C29.2285 5.08398 29.1027 5.16775 28.9006 5.14914C28.7118 5.13238 28.5193 5.13983 28.3305 5.14541C28.0636 5.15472 27.9473 5.27572 27.9473 5.54006C27.9473 6.46899 27.953 7.39605 27.9549 8.32497C27.9549 8.39385 27.9606 8.46459 27.9549 8.53346C27.9358 8.74382 27.8386 8.84435 27.6231 8.84621C27.4268 8.84807 27.2266 8.84621 27.0321 8.81084C26.8052 8.77175 26.748 8.67867 26.7499 8.45156C26.7537 7.55428 26.7499 6.65701 26.7652 5.75973C26.7766 5.1752 26.6717 5.11004 26.115 5.13797C25.972 5.14541 25.829 5.13797 25.686 5.13983C25.5697 5.14169 25.482 5.09701 25.4401 4.99276C25.4 4.8941 25.3562 4.79171 25.3428 4.68747C25.3066 4.40637 25.461 4.19787 25.7947 4.21091C26.3171 4.23138 26.8414 4.21649 27.3658 4.21649V4.22021Z" fill="#1E1F24"/>
<path d="M69.8569 12.3441C69.8569 12.8002 69.8569 13.2563 69.8569 13.7124C69.8569 13.7589 69.855 13.8054 69.8588 13.852C69.8817 14.0754 70.0133 14.2019 70.2478 14.2019C70.6596 14.2038 71.0734 14.2075 71.4852 14.1926C71.7064 14.1852 71.8608 14.2634 71.9428 14.4514C72.0286 14.645 72.0248 14.8423 71.8818 15.0192C71.8036 15.1141 71.714 15.1774 71.5805 15.1774C70.7321 15.1737 69.8817 15.1774 69.0333 15.17C68.7701 15.1681 68.6691 15.0452 68.6672 14.7641C68.6672 14.4793 68.6672 14.1926 68.6672 13.9078C68.6672 12.9175 68.6653 11.929 68.6653 10.9386C68.6653 10.8772 68.6653 10.8139 68.6786 10.7543C68.7015 10.6557 68.7644 10.5812 68.8712 10.5775C69.1152 10.57 69.3631 10.5551 69.6052 10.5775C69.8321 10.5979 69.8798 10.6854 69.8798 10.9051C69.876 11.3835 69.8798 11.8638 69.8798 12.3422H69.8569V12.3441Z" fill="#1E1F24"/>
<path d="M50.6476 12.8281C50.6476 12.1933 50.6476 11.5604 50.6476 10.9256C50.6476 10.6761 50.6781 10.611 50.9279 10.5793C51.1681 10.5495 51.416 10.5644 51.66 10.5793C51.7744 10.5849 51.8316 10.6836 51.8469 10.7915C51.8545 10.853 51.8526 10.9144 51.8526 10.9777C51.8526 12.1989 51.8526 13.4219 51.8488 14.6431C51.8488 14.7716 51.8297 14.9056 51.7897 15.0285C51.7706 15.088 51.6829 15.1644 51.6257 15.1662C51.3817 15.17 51.1338 15.1681 50.8936 15.1327C50.6972 15.1029 50.6247 14.9782 50.6286 14.779C50.6419 14.1293 50.6552 13.4815 50.6667 12.8318C50.661 12.8318 50.6533 12.8318 50.6476 12.8318V12.8281Z" fill="#1E1F24"/>
<path d="M36.123 6.49316C36.123 7.03488 36.1249 7.5766 36.123 8.11645C36.123 8.25607 36.1154 8.39569 36.0925 8.53158C36.0544 8.74752 35.9228 8.84805 35.6978 8.85177C35.5949 8.85363 35.4919 8.85549 35.389 8.85177C35.1201 8.84618 34.9504 8.66934 34.9504 8.41244C34.9543 7.15961 34.9543 5.90863 34.9543 4.6558C34.9543 4.39518 35.103 4.23508 35.368 4.22578C35.4786 4.22205 35.5911 4.22578 35.7017 4.22578C35.9838 4.22578 36.1249 4.35981 36.1249 4.63532C36.1268 5.25336 36.1249 5.87326 36.1249 6.4913L36.123 6.49316Z" fill="#1E1F24"/>
</g>
<defs>
<clipPath id="clip0_16_943">
<rect width="72" height="22" fill="white"/>
</clipPath>
</defs>
</svg>
