<svg width="48" height="23" viewBox="0 0 48 23" fill="none" xmlns="http://www.w3.org/2000/svg">
<g clip-path="url(#clip0_16_928)">
<path d="M13.7178 22.6354C12.72 22.6354 11.7205 22.6406 10.7227 22.6354C10.0767 22.632 9.92873 22.4157 10.0454 21.758C10.3874 19.8243 10.7112 17.8872 11.0482 15.9518C11.3556 14.1834 11.6778 12.4183 11.9819 10.6499C12.2843 8.89507 12.5704 7.13855 12.8663 5.38203C13.0948 4.01566 13.3167 2.64929 13.5583 1.28462C13.6717 0.644032 13.9545 0.420847 14.5808 0.420847C16.2361 0.41744 17.8915 0.398699 19.5452 0.427662C20.7189 0.448106 21.8367 0.671292 22.6043 1.74292C23.0728 2.39714 23.2422 3.15188 23.2602 3.93559C23.3046 5.81137 22.9495 7.59344 21.9468 9.18981C21.5474 9.82529 21.0493 10.3637 20.3408 10.6465C20.2553 10.6806 20.1879 10.7862 20.1402 10.8748C20.1304 10.8935 20.2274 11.0094 20.2915 11.0332C21.4043 11.4591 21.9879 12.3587 22.0832 13.507C22.3052 16.1665 21.8153 18.6726 20.16 20.804C19.1967 22.0443 17.8767 22.6065 16.3463 22.6286C15.4717 22.6406 14.5956 22.6303 13.7211 22.6303C13.7211 22.632 13.7211 22.6337 13.7211 22.6354H13.7178ZM18.2087 14.6144C18.2531 12.9703 17.7994 12.386 16.4663 12.4882C16.3989 12.4933 16.3298 12.4933 16.2608 12.4882C15.9616 12.4694 15.8235 12.6108 15.7709 12.9209C15.4471 14.8291 15.1134 16.7338 14.7764 18.6403C14.5939 19.671 14.5874 19.654 15.595 19.6557C16.3906 19.6557 16.9578 19.3081 17.3013 18.5738C17.926 17.2364 18.0509 15.7814 18.2087 14.6144ZM17.2372 9.56462C17.926 9.66003 18.498 9.31418 18.7972 8.59181C19.3479 7.26292 19.5813 5.85737 19.5106 4.41262C19.4827 3.85722 19.1868 3.56929 18.6378 3.44492C17.6005 3.20981 17.3638 3.40063 17.2043 4.46374C16.9923 5.88803 16.749 7.30892 16.4959 8.7264C16.3446 9.57314 16.3232 9.56803 17.2356 9.56633L17.2372 9.56462Z" fill="#3F3E3E"/>
<path d="M35.8389 6.88302C35.7468 9.52717 35.2816 12.1168 34.6849 14.6775C34.2197 16.6708 33.6279 18.6284 32.4904 20.3542C31.1474 22.3918 29.2487 23.1687 26.9507 22.8399C24.9419 22.552 24.0049 21.4718 23.6022 19.1923C23.2833 17.3812 23.4246 15.5719 23.6844 13.7779C23.9474 11.9618 24.2597 10.1473 24.6575 8.35673C25.1112 6.31399 25.7556 4.33769 26.9112 2.57265C28.6224 -0.037422 31.9759 -0.328756 33.9156 0.782059C34.8296 1.3051 35.2783 2.1808 35.5463 3.17406C35.875 4.3888 35.8635 5.63762 35.8356 6.88473L35.8389 6.88302ZM27.4372 17.4613C27.4635 17.4647 27.4898 17.4664 27.5161 17.4698C27.5161 17.8668 27.4882 18.2655 27.5227 18.6573C27.5654 19.1412 27.8548 19.3661 28.3233 19.3814C28.8756 19.4001 29.1879 19.0594 29.3901 18.6011C30.0624 17.0814 30.3107 15.4373 30.6131 13.8154C30.9649 11.926 31.2887 10.0281 31.5567 8.12502C31.7161 6.99376 31.7852 5.84547 31.8213 4.70228C31.846 3.91687 31.3841 3.55058 30.6805 3.76184C30.4142 3.84191 30.0822 4.09917 29.9983 4.35302C29.612 5.50984 29.2372 6.68028 28.9808 7.87458C28.6076 9.61406 28.315 11.374 28.0323 13.1322C27.8005 14.5684 27.6345 16.0166 27.4405 17.4613H27.4372Z" fill="#1E1F24"/>
<path d="M4.81801 22.6354C4.21637 22.6354 3.61472 22.6388 3.01308 22.6354C2.2865 22.632 2.17472 22.5298 2.0876 21.7784C1.69965 18.3915 1.29856 15.0062 0.931982 11.6175C0.657461 9.05687 0.424036 6.4928 0.172529 3.93043C0.111708 3.30858 0.378009 3.00021 0.989516 2.9951C1.6865 2.98998 2.38513 2.98828 3.08212 2.9951C3.61472 3.00021 3.74952 3.1348 3.81198 3.6851C4.195 7.11465 4.58294 10.5442 4.9528 13.9755C5.01856 14.5786 4.9939 15.1919 5.03335 15.7984C5.04321 15.9398 5.14678 16.0744 5.2076 16.2124C5.31116 16.0932 5.48376 15.9858 5.50678 15.8512C5.69911 14.7081 5.87006 13.5615 6.0328 12.4132C6.45363 9.44532 6.86952 6.47747 7.28048 3.50791C7.3265 3.1791 7.52541 3.01724 7.80157 3.01043C8.66294 2.98828 9.52431 2.98317 10.3857 3.00873C10.7966 3.02065 11.0531 3.3171 10.9988 3.74472C10.8608 4.8368 10.6947 5.92547 10.5057 7.00902C10.2755 8.3311 10.0109 9.64636 9.76431 10.965C9.37637 13.0333 8.98842 15.1033 8.60212 17.1716C8.30952 18.7407 8.0202 20.3098 7.72924 21.8789C7.62239 22.4548 7.44815 22.6184 6.86952 22.6303C6.18568 22.6439 5.50184 22.6337 4.81801 22.6337C4.81801 22.6337 4.81801 22.6337 4.81801 22.6354Z" fill="#1E1F24"/>
<path d="M42.5062 0.419089C43.9972 0.419089 45.4882 0.413978 46.9791 0.4242C47.178 0.4242 47.3835 0.475311 47.5709 0.546867C47.824 0.642274 47.9112 0.853533 47.852 1.12953C47.704 1.81953 47.5725 2.51464 47.4114 3.20124C47.2767 3.77879 47.0284 3.96109 46.4432 3.96279C45.7725 3.9645 45.1019 3.97472 44.4328 3.95427C44.1271 3.94576 43.9808 4.06501 43.9314 4.36827C43.772 5.33087 43.601 6.29005 43.4366 7.25094C43.1079 9.15909 42.7791 11.0672 42.4536 12.9771C42.161 14.691 41.8701 16.4049 41.5791 18.1189C41.3621 19.4018 41.1534 20.6846 40.9249 21.9641C40.8525 22.3645 40.6093 22.6252 40.1884 22.6269C39.2169 22.632 38.2454 22.6405 37.2739 22.6252C36.8334 22.6183 36.669 22.3781 36.7462 21.9249C37.2706 18.8174 37.7934 15.7081 38.3243 12.6006C38.7879 9.88316 39.2547 7.16746 39.7347 4.45346C39.8038 4.06672 39.6969 3.94235 39.3254 3.95257C38.6695 3.97301 38.012 3.96279 37.3561 3.95939C36.7314 3.95598 36.5424 3.71916 36.6558 3.08027C36.7725 2.42605 36.8958 1.77353 37.0224 1.12272C37.1145 0.652496 37.4153 0.420793 37.9528 0.419089C39.4717 0.413978 40.9906 0.419089 42.5079 0.417385L42.5062 0.419089Z" fill="#1E1F24"/>
<path d="M3.12004 2.29999C3.00662 2.22673 2.87018 2.17392 2.78634 2.0734C2.50525 1.73947 2.47894 1.73947 2.29483 2.1211C2.26196 2.18755 2.14853 2.26933 2.09429 2.25399C2.03018 2.23695 1.95127 2.12451 1.94799 2.04955C1.93484 1.68325 1.93483 1.31525 1.9562 0.948955C1.96114 0.858659 2.06799 0.700214 2.12552 0.701918C2.44278 0.710436 2.77648 0.707029 3.06579 0.816066C3.17593 0.858659 3.28936 1.25562 3.21867 1.37488C3.04278 1.66792 2.98689 1.91496 3.21867 2.20799C3.18579 2.23866 3.15292 2.26762 3.12004 2.29829V2.29999ZM2.571 1.55888C2.72223 1.42258 2.82086 1.33229 2.91949 1.2437C2.81922 1.15681 2.72388 1.00858 2.61867 1.00347C2.52004 0.998362 2.41319 1.14147 2.31127 1.21984C2.3836 1.31355 2.45429 1.40725 2.571 1.55888Z" fill="#1E1F24"/>
<path d="M4.5007 2.31702C4.02563 2.31702 3.64755 1.94391 3.65742 1.4788C3.66563 1.05117 4.10454 0.604796 4.50728 0.609907C4.91002 0.616722 5.36372 1.07672 5.36207 1.4822C5.36207 1.93368 4.96755 2.31531 4.5007 2.31702ZM5.03002 1.63383C4.9692 1.20961 4.83111 1.00176 4.52372 0.986425C4.21632 0.971092 4.04207 1.15339 4.00591 1.45835C3.97468 1.72583 4.26399 2.0785 4.49413 2.00865C4.70618 1.94391 4.88043 1.74457 5.03002 1.63554V1.63383Z" fill="#1E1F24"/>
<path d="M0.289249 1.54017C0.289249 1.42773 0.289249 1.31529 0.289249 1.20114C0.289249 0.722397 0.405961 0.611656 0.877742 0.637212C1.32651 0.661063 1.56815 0.916619 1.5287 1.31699C1.49582 1.65092 1.24761 1.72417 1.00432 1.8281C0.876098 1.88262 0.770893 1.99847 0.657468 2.08706C0.581852 2.14669 0.509523 2.20803 0.433907 2.26766C0.384592 2.18077 0.307331 2.09729 0.292537 2.00358C0.269523 1.85195 0.285961 1.69521 0.285961 1.54017H0.289249ZM0.856372 1.57595C1.01089 1.43454 1.1013 1.34936 1.19336 1.26588C1.09802 1.17388 1.01418 1.04951 0.900756 1.00521C0.851441 0.986471 0.68377 1.12617 0.67555 1.20284C0.667331 1.29995 0.769249 1.40899 0.856372 1.57425V1.57595Z" fill="#1E1F24"/>
<path d="M8.29804 0.948963C8.06954 0.960889 7.8953 0.957481 7.72434 0.986444C7.64543 1.00007 7.57475 1.07333 7.50078 1.11933C7.56982 1.19089 7.62735 1.29141 7.71119 1.32718C7.84598 1.38341 7.99886 1.39704 8.14352 1.4277C8.14352 1.4737 8.14023 1.5197 8.14023 1.5657C8.00708 1.58615 7.86571 1.58615 7.74078 1.63215C7.64708 1.66622 7.57475 1.75822 7.49091 1.82467C7.57804 1.89452 7.65694 1.99844 7.75393 2.024C7.92488 2.0683 8.10735 2.06318 8.34406 2.08363C8.0679 2.33237 7.29694 2.36474 7.16215 2.19096C7.03557 2.02741 7.12762 0.782 7.27228 0.698518C7.55502 0.533259 8.14187 0.638889 8.29639 0.947259L8.29804 0.948963Z" fill="#1E1F24"/>
<path d="M10.1228 0.967733C9.92883 0.979659 9.79074 0.960918 9.6691 1.0001C9.48006 1.06144 9.2302 1.11255 9.13979 1.25736C9.05924 1.38855 9.09047 1.70884 9.19568 1.81959C9.31074 1.93884 9.56718 1.91329 9.7628 1.95077C9.85485 1.96781 9.94691 1.98314 10.039 2.00018C9.98965 2.08707 9.96006 2.21314 9.88609 2.25403C9.5491 2.44314 9.0165 2.26766 8.80937 1.9184C8.62198 1.60151 8.70746 1.08358 8.98855 0.839955C9.3617 0.517955 9.70198 0.536696 10.1228 0.967733Z" fill="#1E1F24"/>
<path d="M11.0185 2.26083C11.0037 2.07512 10.9725 1.88942 10.9774 1.70542C10.9889 1.32379 11.0317 0.937048 10.4268 0.937048C10.4416 0.892752 10.458 0.848456 10.4728 0.80416C10.5862 0.749641 10.7161 0.628678 10.8081 0.654234C11.1188 0.739419 11.5166 0.451493 11.778 0.863789C11.2635 1.13127 11.2684 1.13127 11.2668 1.77527C11.2668 1.94223 11.2191 2.1092 11.1928 2.27616C11.1336 2.27105 11.0761 2.26594 11.0169 2.26083H11.0185Z" fill="#1E1F24"/>
<path d="M6.65108 1.36806C6.65108 2.09384 6.46533 2.36472 5.9804 2.29658C5.86533 2.27954 5.76505 2.15006 5.6582 2.07339C5.76341 2.04272 5.88012 2.0308 5.97382 1.97798C6.0856 1.91495 6.23683 1.83317 6.26478 1.72754C6.31409 1.54354 6.2582 1.33228 6.29272 1.14147C6.31903 0.989835 6.41272 0.848428 6.47683 0.703613C6.53601 0.853539 6.60012 1.00347 6.64944 1.1568C6.66916 1.21984 6.65272 1.2965 6.65272 1.36635L6.65108 1.36806Z" fill="#1E1F24"/>
</g>
<defs>
<clipPath id="clip0_16_928">
<rect width="48" height="23" fill="white"/>
</clipPath>
</defs>
</svg>
