<?xml version="1.0" standalone="no"?>
<!DOCTYPE svg PUBLIC "-//W3C//DTD SVG 20010904//EN"
 "http://www.w3.org/TR/2001/REC-SVG-20010904/DTD/svg10.dtd">
<svg version="1.0" xmlns="http://www.w3.org/2000/svg"
 width="720.000000pt" height="720.000000pt" viewBox="0 0 720.000000 720.000000"
 preserveAspectRatio="xMidYMid meet">
<metadata>
Created by potrace 1.14, written by Peter Selinger 2001-2017
</metadata>
<g transform="translate(0.000000,720.000000) scale(0.100000,-0.100000)"
fill="#000000" stroke="none">
<path d="M3479 5516 c-2 -2 -29 -6 -59 -10 -318 -33 -612 -147 -915 -356 -108
-74 -305 -271 -401 -400 -197 -263 -300 -513 -370 -895 -4 -22 -9 -425 -10
-895 -4 -896 -4 -902 39 -1000 28 -64 132 -189 159 -190 4 0 13 -6 20 -13 20
-18 107 -55 158 -67 49 -11 1737 -8 1780 3 14 3 52 11 85 16 33 6 69 12 80 15
11 2 40 9 65 15 319 73 637 256 890 510 312 314 496 696 550 1146 4 39 8 439
8 890 1 898 2 870 -59 986 -28 52 -122 159 -140 159 -4 0 -14 6 -21 13 -7 7
-42 26 -78 42 l-65 30 -856 2 c-471 2 -858 1 -860 -1z"/>
</g>
</svg>
