<?xml version="1.0" standalone="no"?>
<!DOCTYPE svg PUBLIC "-//W3C//DTD SVG 20010904//EN"
 "http://www.w3.org/TR/2001/REC-SVG-20010904/DTD/svg10.dtd">
<svg version="1.0" xmlns="http://www.w3.org/2000/svg"
 width="900.000000pt" height="900.000000pt" viewBox="0 0 900.000000 900.000000"
 preserveAspectRatio="xMidYMid meet">
<metadata>
Created by potrace 1.14, written by Peter Selinger 2001-2017
</metadata>
<g transform="translate(0.000000,900.000000) scale(0.100000,-0.100000)"
fill="#000000" stroke="none">
<path d="M4964 7176 c-44 -13 -105 -31 -135 -40 -59 -18 -535 -155 -559 -161
-8 -2 -206 -58 -440 -125 -234 -67 -432 -123 -440 -125 -8 -3 -78 -23 -155
-45 -77 -23 -165 -48 -195 -56 -30 -8 -76 -21 -101 -30 -25 -8 -56 -16 -68
-19 -12 -2 -59 -15 -104 -28 -45 -14 -91 -27 -102 -30 -37 -9 -550 -157 -595
-171 -25 -8 -104 -31 -175 -51 -72 -20 -140 -45 -151 -54 -29 -23 -54 -74 -54
-107 0 -15 31 -123 69 -238 38 -116 101 -312 141 -436 151 -470 156 -484 184
-512 43 -44 96 -55 169 -35 34 10 69 19 77 21 8 2 80 23 160 46 80 23 152 44
160 46 8 2 157 44 330 94 173 50 338 97 365 105 51 14 133 37 285 81 47 14 92
27 100 29 8 2 157 45 330 95 173 50 322 93 330 95 8 2 150 42 315 90 165 47
307 88 315 90 89 22 452 130 475 141 17 8 38 26 49 40 36 50 32 88 -27 269
-46 142 -171 529 -233 720 -8 28 -19 59 -24 70 -5 11 -19 55 -31 98 -25 84
-52 120 -106 143 -42 18 -63 17 -159 -10z"/>
<path d="M4948 5478 c-19 -7 -78 -78 -201 -246 -280 -380 -396 -536 -404 -547
-35 -44 -173 -234 -181 -251 -20 -38 -20 -91 -2 -122 10 -16 47 -47 82 -68 34
-20 88 -54 119 -75 30 -20 73 -48 95 -61 23 -12 132 -81 244 -153 l203 -130
-1736 -5 -1736 -5 -28 -21 c-54 -40 -53 -22 -53 -690 0 -615 0 -622 21 -648
47 -60 -81 -56 1819 -56 l1740 0 35 22 c19 13 40 36 46 51 13 31 18 1245 5
1266 -11 18 9 13 37 -9 14 -11 28 -20 31 -20 4 0 12 -5 19 -10 9 -8 348 -224
620 -395 145 -91 434 -276 442 -283 6 -4 17 -11 25 -15 8 -4 66 -40 127 -80
553 -356 709 -451 753 -457 88 -12 81 -19 358 358 38 52 95 128 112 152 18 24
80 108 118 159 9 13 74 101 144 195 70 94 133 187 139 208 7 20 9 52 5 73 -7
37 -40 62 -293 220 -26 17 -62 39 -80 50 -18 11 -99 62 -180 114 -81 52 -175
112 -208 133 -33 21 -67 43 -76 49 -8 6 -70 45 -137 87 -67 42 -295 187 -507
322 -211 135 -415 264 -452 287 -38 22 -72 45 -78 50 -5 5 -17 12 -25 16 -8 4
-41 24 -73 45 -51 33 -159 102 -619 395 -68 43 -134 83 -148 88 -35 15 -90 18
-122 7z m32 -1688 c14 -11 21 -20 15 -20 -5 0 -21 9 -35 20 -14 11 -20 20 -15
20 6 0 21 -9 35 -20z"/>
</g>
</svg>
