<svg width="76" height="24" viewBox="0 0 76 24" fill="none" xmlns="http://www.w3.org/2000/svg">
<g clip-path="url(#clip0_16_1394)">
<path d="M51.0621 10.1395C51.0325 10.0985 51.0188 10.078 50.9892 10.0371C50.9732 10.0985 50.9618 10.1441 50.9481 10.1919C50.8912 10.3809 50.857 10.5813 50.7681 10.7544C50.629 11.0254 50.458 11.2827 50.2893 11.5377C50.1685 11.7222 50.0477 11.9112 49.8972 12.0706C49.6396 12.3416 49.3706 12.608 49.0811 12.8471C48.8486 13.0407 48.5956 13.2252 48.3243 13.3595C48.0029 13.5189 47.7019 13.7284 47.3372 13.8013C47.2004 13.8286 47.0682 13.8901 46.9451 13.9562C46.6989 14.086 46.4322 14.111 46.1632 14.1429C46.1108 14.1497 46.0652 14.1998 46.015 14.2226C45.9694 14.2431 45.9216 14.2659 45.8737 14.2681C45.6047 14.2864 45.3334 14.2932 45.0644 14.3137C44.9983 14.3182 44.9345 14.357 44.8706 14.3797C44.8045 14.4025 44.7384 14.4367 44.6723 14.4389C44.3121 14.4549 43.9519 14.4685 43.5918 14.4708C42.094 14.4731 40.594 14.4708 39.0963 14.4708C39.0621 14.4708 39.0302 14.4708 38.996 14.4708C38.8091 14.4799 38.7886 14.505 38.7886 14.6917C38.7886 16.6957 38.7931 18.6996 38.7954 20.7059C38.7954 20.9564 38.7909 21.2069 38.7909 21.4573C38.7909 21.5917 38.9595 21.7466 39.094 21.7466C40.129 21.7466 41.1617 21.7466 42.1966 21.7466C42.2354 21.7466 42.2741 21.7466 42.3106 21.7397C42.3927 21.7215 42.4292 21.7557 42.4292 21.8331C42.4292 22.3068 42.436 22.7781 42.4246 23.2518C42.42 23.4135 42.3494 23.459 42.1875 23.459C39.5226 23.4636 36.8554 23.4659 34.1906 23.4704C33.9284 23.4704 33.9033 23.4476 33.9033 23.1789C33.9033 22.7668 33.9079 22.3569 33.8988 21.9447C33.8965 21.8149 33.9443 21.7602 34.0674 21.7602C34.3706 21.7602 34.6738 21.7602 34.977 21.7602C35.5082 21.7602 36.0393 21.7602 36.5705 21.7579C36.6275 21.7579 36.6913 21.7625 36.7392 21.7397C36.7848 21.7192 36.8418 21.6669 36.844 21.6236C36.86 21.4642 36.8577 21.3025 36.8577 21.1431C36.8577 15.0105 36.8577 8.88022 36.8554 2.74765C36.8554 2.33091 36.9375 2.34913 36.4474 2.34685C35.6564 2.34685 34.863 2.35141 34.072 2.35596C33.9626 2.35596 33.9056 2.32863 33.9056 2.20566C33.9102 1.76161 33.9033 1.31755 33.9056 0.873486C33.9056 0.638932 33.9307 0.618437 34.17 0.61616C34.6009 0.611605 35.034 0.61616 35.4649 0.61616C38.3212 0.61616 41.1754 0.609328 44.0317 0.625269C44.5105 0.627546 44.9915 0.714081 45.4679 0.789229C45.8737 0.852992 46.2795 0.934972 46.6716 1.05111C46.9998 1.14903 47.3099 1.30616 47.6244 1.44052C47.7544 1.49517 47.8889 1.54982 48.0097 1.62497C48.2673 1.78665 48.5203 1.95517 48.7688 2.13052C48.9763 2.27626 49.1837 2.42428 49.3706 2.59507C49.5712 2.77725 49.7605 2.97764 49.9337 3.18943C50.1343 3.43764 50.3099 3.70408 50.4968 3.96368C50.5105 3.9819 50.5241 4.0024 50.5333 4.02289C50.6358 4.23467 50.7453 4.44418 50.8387 4.66052C50.8866 4.7721 50.9094 4.89279 50.9481 5.00893C50.9664 5.06359 50.9345 5.16378 51.0553 5.14784C51.0621 5.14784 51.0826 5.20477 51.0872 5.23438C51.11 5.36873 51.11 5.5122 51.1579 5.63745C51.3243 6.08151 51.2696 6.55062 51.3266 7.00834C51.3288 7.02883 51.3357 7.04933 51.3653 7.06755V6.70774H51.3995C51.3995 7.07438 51.4132 7.43873 51.395 7.80309C51.3744 8.18566 51.3357 8.56824 51.2833 8.94854C51.2285 9.34477 51.1465 9.73646 51.0735 10.1532L51.0621 10.1395ZM44.7019 2.41062C44.7019 2.39695 44.7042 2.38329 44.7065 2.3719C44.4398 2.35596 44.1708 2.32636 43.9041 2.32636C42.4109 2.32636 40.9155 2.33319 39.4223 2.33774C39.2513 2.33774 39.0804 2.33774 38.9094 2.34002C38.8228 2.34002 38.7703 2.3719 38.7749 2.47666C38.7817 2.66111 38.7749 2.84557 38.7749 3.03002C38.7749 5.29359 38.7726 7.55943 38.7703 9.82299C38.7703 10.7316 38.7703 11.6379 38.7612 12.5466C38.7612 12.6809 38.8091 12.7356 38.9413 12.7333C39.1784 12.7333 39.4155 12.7401 39.6526 12.7401C40.8904 12.7401 42.1282 12.7424 43.3661 12.7401C44.1457 12.7401 44.9231 12.7652 45.6845 12.5124C46.072 12.3826 46.4869 12.3439 46.8402 12.1116C46.9292 12.0547 47.0523 12.0456 47.1412 11.9886C47.3577 11.8452 47.5674 11.688 47.7726 11.5309C48.0804 11.2941 48.3311 11.0026 48.5409 10.6747C48.6959 10.431 48.8395 10.1896 48.933 9.91408C49.0424 9.59071 49.1928 9.28101 49.2133 8.93032C49.2247 8.70943 49.2498 8.48626 49.3023 8.2722C49.398 7.89646 49.3798 7.52299 49.3364 7.14725C49.3114 6.92863 49.243 6.71458 49.2179 6.49596C49.1837 6.19992 49.1541 5.90616 49.0264 5.63061C48.9375 5.43933 48.876 5.23665 48.8007 5.03854C48.7916 5.01121 48.7802 4.98388 48.762 4.96339C48.5409 4.72428 48.4451 4.39636 48.1875 4.1823C48.0029 4.02745 47.8478 3.84299 47.6655 3.68586C47.5675 3.60161 47.4421 3.55151 47.3326 3.47864C47.107 3.33062 46.895 3.1621 46.6602 3.03685C46.4846 2.94349 46.2795 2.9025 46.0857 2.83873C46.015 2.81596 45.9421 2.80002 45.8349 2.77269C45.917 2.75903 45.9603 2.7522 46.0036 2.74765V2.71121C45.6526 2.64517 45.2992 2.56091 44.9436 2.51537C44.588 2.46982 44.2301 2.45844 43.8722 2.43111C43.8722 2.42656 43.8722 2.422 43.8722 2.41745H44.7065L44.7019 2.41062Z" fill="#E7EBFF" fill-opacity="0.498"/>
<path d="M61.2042 0.597919C61.5005 0.597919 61.7786 0.597919 62.059 0.597919C63.1077 0.600197 64.1563 0.604751 65.2026 0.602474C65.3212 0.602474 65.3713 0.632078 65.3691 0.759602C65.3645 0.962276 65.3827 1.16495 65.3827 1.36762C65.3827 8.05129 65.3827 14.7372 65.3827 21.4209C65.3827 21.5006 65.3759 21.5826 65.3759 21.6623C65.3759 21.7989 65.4534 21.8786 65.5879 21.8786C66.1578 21.8786 66.7254 21.8786 67.2953 21.8786C67.4709 21.8786 67.496 21.8991 67.496 22.0722C67.496 22.4411 67.4868 22.81 67.4846 23.1766C67.4846 23.2996 67.4526 23.3884 67.2794 23.3383C67.3136 23.3884 67.3295 23.4112 67.3523 23.4453H61.2452C61.1722 22.9717 61.2201 22.5026 61.2064 22.0335C61.2019 21.9014 61.2748 21.8786 61.3865 21.8786C61.945 21.8809 62.5058 21.8718 63.0643 21.8854C63.2148 21.89 63.306 21.7989 63.42 21.7443C63.4519 21.7306 63.461 21.6441 63.461 21.5917C63.4656 21.2751 63.4656 20.9586 63.4656 20.6421C63.4656 14.571 63.4656 8.50218 63.4656 2.43109C63.4656 2.14188 63.4656 2.14643 63.176 2.14871C62.5605 2.15327 61.9428 2.15327 61.3273 2.15554C61.2247 2.15554 61.1882 2.13277 61.1928 2.00752C61.211 1.57257 61.2019 1.13762 61.2042 0.702672C61.2042 0.675345 61.2042 0.648018 61.2042 0.595642V0.597919Z" fill="#E7EBFF" fill-opacity="0.498"/>
<path d="M71.2985 2.15098H69.0667V0.611572H73.1952C73.1952 0.723156 73.1952 0.827909 73.1952 0.934939C73.1974 3.64939 73.202 6.36157 73.2043 9.07603C73.2043 13.0293 73.2043 16.9803 73.2043 20.9336C73.2043 21.1317 73.2111 21.3298 73.2043 21.5302C73.1997 21.767 73.3091 21.8832 73.5531 21.8832C74.0181 21.8832 74.4832 21.8832 74.9482 21.8832C75.1009 21.8832 75.256 21.8832 75.4224 21.8832C75.4292 21.9378 75.4406 21.997 75.4429 22.0562C75.4429 22.4479 75.4429 22.8419 75.4429 23.2336C75.4429 23.4385 75.4201 23.4567 75.2104 23.4567C73.2522 23.4567 71.2917 23.4567 69.3335 23.4567C69.2537 23.4567 69.1739 23.4385 69.0759 23.4248C69.0667 23.188 69.0553 22.958 69.0508 22.728C69.0462 22.539 69.0485 22.35 69.0462 22.161C69.0439 21.9446 69.0873 21.8945 69.2993 21.8923C69.892 21.8877 70.4847 21.8854 71.0774 21.8832C71.237 21.8832 71.3099 21.8194 71.3167 21.6509C71.3236 21.5142 71.3167 21.3776 71.3167 21.2387C71.3167 17.7773 71.3167 14.3182 71.3167 10.8568C71.3167 8.08543 71.3167 5.31632 71.3167 2.54494C71.3167 2.41969 71.3053 2.29217 71.3008 2.15098H71.2985Z" fill="#E7EBFF" fill-opacity="0.498"/>
<path d="M53.3941 21.7671C53.6631 21.7671 53.9207 21.7671 54.1761 21.7671C54.6023 21.7671 55.0286 21.7602 55.4572 21.7671C55.6008 21.7671 55.6441 21.7192 55.6441 21.578C55.6419 19.3555 55.6441 17.1352 55.6441 14.9126C55.6441 13.0885 55.6396 11.2645 55.6441 9.43815C55.6441 9.29468 55.5917 9.27191 55.4732 9.27191C54.8372 9.27419 54.2034 9.27419 53.5674 9.27419C53.3736 9.27419 53.3736 9.27419 53.3759 9.08518C53.3805 8.68439 53.3896 8.28132 53.3873 7.88052C53.3873 7.73934 53.442 7.70062 53.5697 7.70062C53.939 7.70518 54.3083 7.70062 54.6799 7.7029C55.6008 7.70518 56.5195 7.70973 57.4405 7.71429C57.4724 7.71429 57.5043 7.71884 57.5454 7.7234C57.5476 7.76439 57.5522 7.80082 57.5522 7.83726C57.5522 12.3325 57.5522 16.8278 57.5522 21.3207C57.5522 21.3822 57.5522 21.4437 57.5499 21.5052C57.5431 21.7625 57.5431 21.7648 57.8075 21.7648C58.3865 21.7648 58.9656 21.7579 59.5423 21.7648C59.8387 21.7671 59.8045 21.742 59.809 22.0403C59.8136 22.4092 59.8068 22.7781 59.8113 23.1471C59.8113 23.2746 59.7726 23.3247 59.6403 23.3224C59.4169 23.3156 59.1958 23.3247 58.9724 23.3247C57.1601 23.3247 55.3501 23.3247 53.5378 23.3247C53.4101 23.3247 53.3691 23.2974 53.3736 23.1584C53.3896 22.7235 53.385 22.2885 53.3896 21.8536C53.3896 21.8308 53.3919 21.808 53.3964 21.7625L53.3941 21.7671Z" fill="#E7EBFF" fill-opacity="0.498"/>
<path d="M28.1585 9.28781C28.1083 9.28326 28.0582 9.27643 28.008 9.27643C27.388 9.27643 26.7656 9.27643 26.1456 9.27643C25.9222 9.27643 25.9222 9.27643 25.9176 9.05098C25.913 8.6593 25.913 8.26761 25.9017 7.87365C25.8971 7.75296 25.9472 7.71197 26.0567 7.71197C26.2231 7.71197 26.3895 7.70514 26.5536 7.70514C27.6205 7.70514 28.6874 7.70514 29.7542 7.70514C30.0529 7.70514 30.0529 7.70969 30.0529 8.00573C30.0529 11.6835 30.0529 15.3612 30.0529 19.0366C30.0529 19.8633 30.0529 20.6899 30.0551 21.5188C30.0551 21.7374 30.0711 21.7625 30.2968 21.7647C30.8051 21.7693 31.3112 21.767 31.8196 21.7693C31.929 21.7693 32.0384 21.7784 32.1456 21.7693C32.2596 21.7625 32.2937 21.8103 32.2937 21.9173C32.2892 22.3523 32.2892 22.7872 32.2915 23.2222C32.2915 23.3315 32.2276 23.3246 32.1501 23.3246C30.983 23.3246 29.8181 23.3246 28.6509 23.3246C27.8029 23.3246 26.9526 23.3201 26.1045 23.3246C25.97 23.3246 25.9153 23.2996 25.9176 23.147C25.9244 22.7371 25.9108 22.3249 25.9017 21.915C25.8994 21.8035 25.9404 21.767 26.0498 21.767C26.6904 21.767 27.331 21.7625 27.9693 21.767C28.1061 21.767 28.1562 21.7374 28.1539 21.5894C28.1539 19.5376 28.1608 17.4881 28.1608 15.4363C28.1608 13.8901 28.1608 12.3461 28.1562 10.7999C28.1562 10.3513 28.1471 9.90266 28.1425 9.45405C28.1425 9.40395 28.1494 9.35385 28.1517 9.28781H28.1585Z" fill="#E7EBFF" fill-opacity="0.498"/>
<path d="M19.9086 23.4044C19.9952 23.393 20.0818 23.3816 20.1684 23.3702L20.173 23.3474C20.0681 23.336 19.961 23.3155 19.8561 23.3155C19.5096 23.3133 19.3067 23.0833 19.0993 22.8578C18.8941 22.6369 18.8394 22.3523 18.7802 22.079C18.7505 21.9401 18.8235 21.7784 18.8508 21.6281C18.8554 21.6053 18.8759 21.5871 18.8805 21.5644C18.9397 21.2387 19.154 21.036 19.4071 20.8379C19.6783 20.6239 19.961 20.5145 20.3007 20.5396C20.7498 20.5715 21.0871 20.8015 21.3698 21.1362C21.4815 21.2683 21.5408 21.4141 21.559 21.5826C21.5659 21.6372 21.5681 21.7215 21.6753 21.6395C21.6707 21.8695 21.746 22.0949 21.5909 22.3022C21.5567 22.3477 21.5545 22.4183 21.5453 22.4798C21.5134 22.6756 21.3903 22.8191 21.2604 22.9535C21.1897 23.0263 21.0985 23.081 21.0256 23.1516C20.9025 23.2723 20.7475 23.2996 20.5856 23.3269C20.499 23.3406 20.3805 23.2996 20.3417 23.4362C20.3371 23.4499 20.2802 23.4545 20.2482 23.4545C20.1365 23.4499 20.0248 23.4408 19.9108 23.434C19.9108 23.4248 19.9108 23.4157 19.9108 23.4044H19.9086Z" fill="#E7EBFF" fill-opacity="0.498"/>
<path d="M15.3608 23.4134C15.4314 23.3975 15.5021 23.3816 15.5728 23.3656C15.5728 23.3565 15.5728 23.3497 15.5728 23.3406C15.4907 23.3292 15.4086 23.311 15.3289 23.3087C14.9641 23.295 14.7681 23.0514 14.5424 22.81C14.4056 22.662 14.376 22.4934 14.3053 22.3386C14.1982 22.1086 14.1982 21.8444 14.3167 21.6008C14.3281 21.5757 14.3509 21.5529 14.3577 21.5279C14.4352 21.2273 14.6381 21.036 14.8729 20.8424C15.167 20.6011 15.4839 20.5031 15.8418 20.551C16.0903 20.5851 16.3387 20.6489 16.5279 20.847C16.6351 20.9586 16.7741 21.0451 16.8562 21.1704C16.952 21.3138 16.9998 21.4892 17.0705 21.6509C17.0705 21.6509 17.0887 21.6304 17.1093 21.6076C17.1138 21.6235 17.1207 21.6349 17.1207 21.6463C17.1298 21.7647 17.1457 21.8809 17.148 21.9993C17.148 22.0722 17.1845 22.1496 17.0728 22.2088C17.0181 22.2384 17.0181 22.3796 17.0044 22.4729C16.9725 22.6779 16.8699 22.8373 16.7103 22.9648C16.6374 23.024 16.5621 23.0787 16.4983 23.147C16.3524 23.2996 16.1541 23.2996 15.9672 23.3428C15.8805 23.3633 15.8053 23.4362 15.7187 23.4476C15.6047 23.4613 15.4839 23.4385 15.3676 23.4317C15.3676 23.4248 15.3676 23.4203 15.3676 23.4134H15.3608Z" fill="#E7EBFF" fill-opacity="0.498"/>
<path d="M15.2262 11.6151C15.2262 11.6151 15.2102 11.5969 15.1943 11.5764C15.2148 11.5673 15.2285 11.5582 15.2421 11.5582C15.4815 11.5468 15.7209 11.5332 15.9625 11.5309C16.0514 11.5309 16.154 11.5309 16.195 11.647C16.2019 11.6675 16.252 11.6789 16.2839 11.6857C16.5347 11.7358 16.6943 11.918 16.8311 12.1047C16.9382 12.2505 16.9929 12.4349 17.0704 12.5989C17.0704 12.5989 17.0864 12.5784 17.1228 12.5306C17.1342 12.7697 17.1456 12.9838 17.157 13.1978C17.1479 13.2001 17.1388 13.2046 17.1297 13.2069C17.1137 13.1864 17.0955 13.1682 17.0681 13.1341C17.0453 13.2388 17.0294 13.3299 17.0066 13.421C16.9245 13.7466 16.7376 13.9721 16.4367 14.1474C16.0286 14.3843 15.6114 14.3592 15.1829 14.2863C15.1099 14.2749 15.0438 14.2089 14.9777 14.1634C14.8865 14.1019 14.7839 14.0472 14.7087 13.9675C14.5697 13.8218 14.4443 13.6738 14.3713 13.4688C14.3007 13.2707 14.2232 13.0817 14.2482 12.8699C14.2801 12.608 14.3576 12.3575 14.5309 12.1503C14.6198 12.0433 14.7042 11.9248 14.8136 11.8429C14.9367 11.7495 15.0849 11.6903 15.2285 11.6129L15.2262 11.6151Z" fill="#E7EBFF" fill-opacity="0.498"/>
<path d="M21.6821 17.1784C21.6821 17.2831 21.6935 17.3879 21.6798 17.4881C21.6684 17.5769 21.6274 17.6634 21.6 17.75C21.5887 17.7864 21.5659 17.8183 21.559 17.8547C21.4883 18.2988 21.1988 18.5698 20.8181 18.7497C20.6973 18.8089 20.54 18.7998 20.401 18.8157C20.3189 18.8248 20.2368 18.8248 20.1525 18.8271C20.1525 18.8385 20.1525 18.8522 20.1525 18.8635L20.4078 18.8818C20.4078 18.8931 20.4055 18.9045 20.4032 18.9159C20.2209 18.8863 20.018 19.0002 19.8561 18.8112C19.8447 18.7998 19.8219 18.7952 19.806 18.7884C19.6555 18.7292 19.4982 18.6791 19.3546 18.6062C19.2839 18.5698 19.2338 18.4924 19.1791 18.4286C19.0514 18.2851 18.9101 18.153 18.8941 17.9413C18.8896 17.8798 18.8485 17.8206 18.8257 17.7568C18.8052 17.6999 18.771 17.6429 18.7733 17.586C18.7915 17.0759 18.9466 16.6319 19.3888 16.3267C19.6076 16.1741 19.8265 16.0398 20.1069 16.0238C20.6312 15.9942 21.0233 16.2197 21.3516 16.6045C21.4724 16.7457 21.5522 16.896 21.5567 17.0873C21.5567 17.1192 21.6092 17.1488 21.6388 17.1807C21.6548 17.1784 21.6707 17.1761 21.6867 17.1738L21.6821 17.1784Z" fill="#E7EBFF" fill-opacity="0.498"/>
<path d="M11.2916 23.3634C11.3486 23.393 11.3713 23.4066 11.4261 23.434H10.8083C10.8083 23.434 10.8083 23.4112 10.8083 23.3998C10.9291 23.3884 11.0499 23.377 11.173 23.3657C10.9017 23.2655 10.5826 23.3657 10.3364 23.1448C10.1175 22.9466 9.90098 22.7576 9.86679 22.4252C9.83031 22.457 9.81436 22.4707 9.78928 22.4935C9.70493 22.227 9.68214 21.9674 9.73001 21.701C9.73913 21.6509 9.78016 21.6054 9.8098 21.5598C9.82576 21.5325 9.85767 21.5097 9.86451 21.4801C9.92606 21.2023 10.1062 21.0201 10.3227 20.847C10.6168 20.6125 10.9359 20.4986 11.2984 20.5465C11.7384 20.6057 12.078 20.8288 12.3448 21.1955C12.5066 21.4186 12.4815 21.6805 12.591 21.9105C12.6251 21.9834 12.5727 22.0995 12.5545 22.1952C12.5454 22.2453 12.5089 22.2931 12.5089 22.3432C12.5066 22.555 12.3903 22.7371 12.2695 22.8761C12.0894 23.081 11.8934 23.3042 11.5742 23.3178C11.4922 23.3201 11.4101 23.3452 11.2916 23.3657V23.3634Z" fill="#E7EBFF" fill-opacity="0.498"/>
<path d="M21.6708 12.6604C21.6754 12.7401 21.6822 12.8198 21.6822 12.9018C21.6822 13.0134 21.6959 13.1272 21.6002 13.2183C21.5705 13.2456 21.5614 13.3048 21.5591 13.3504C21.5455 13.6669 21.3335 13.8787 21.1214 14.0472C20.9391 14.193 20.7271 14.3342 20.4467 14.3159C20.2005 14.3 19.9474 14.3797 19.7035 14.2886C19.642 14.2658 19.5895 14.218 19.5348 14.1816C19.5075 14.1634 19.4847 14.1315 19.4573 14.1246C19.2932 14.0882 19.2316 13.9334 19.1177 13.8423C18.8942 13.6646 18.8942 13.3914 18.8031 13.1637C18.7483 13.0316 18.8031 12.8517 18.819 12.6968C18.8236 12.6422 18.8692 12.5943 18.8783 12.5397C18.9398 12.1776 19.186 11.9453 19.4642 11.7427C19.5508 11.6812 19.6762 11.6698 19.7947 11.6334C19.7719 11.6151 19.7537 11.6015 19.7286 11.5833C19.7377 11.5742 19.7468 11.5628 19.7582 11.5582C20.0477 11.4876 20.3395 11.4785 20.629 11.5537C20.6541 11.5605 20.6701 11.5992 20.6929 11.622C20.7111 11.6402 20.7339 11.6652 20.7544 11.6675C21.012 11.6971 21.1648 11.8839 21.3266 12.0546C21.4543 12.1913 21.5523 12.3416 21.5569 12.5397C21.5569 12.5807 21.6116 12.6217 21.6412 12.6627C21.6526 12.6627 21.6617 12.6627 21.6731 12.6604H21.6708Z" fill="#E7EBFF" fill-opacity="0.498"/>
<path d="M15.4975 18.8658C15.6069 18.8727 15.714 18.8772 15.8235 18.8841V18.925C15.6844 18.9159 15.518 18.9524 15.4177 18.8863C15.2262 18.7611 14.9823 18.7588 14.8113 18.604C14.7452 18.5447 14.6677 18.4878 14.6244 18.4149C14.5355 18.2647 14.3736 18.1576 14.3599 17.9549C14.3531 17.857 14.271 17.7682 14.2528 17.668C14.214 17.4494 14.2619 17.2467 14.3349 17.0327C14.401 16.8346 14.5127 16.6729 14.6335 16.5157C14.7224 16.3996 14.8478 16.2971 14.9777 16.2334C15.1738 16.1354 15.363 16.0261 15.6069 16.0216C16.0355 16.0148 16.382 16.1673 16.6806 16.4543C16.8539 16.6205 16.9519 16.8186 17.034 17.0486C17.1069 17.2513 17.1457 17.4403 17.1457 17.6475C17.1457 17.6794 17.1388 17.7113 17.1343 17.7637C17.1069 17.7295 17.0932 17.7113 17.0636 17.6726C16.9268 18.5857 16.3478 18.8886 15.4929 18.8135C15.4952 18.8294 15.4975 18.8476 15.4998 18.8636L15.4975 18.8658Z" fill="#E7EBFF" fill-opacity="0.498"/>
<path d="M6.28782 23.4089C6.36304 23.3953 6.43827 23.3793 6.5135 23.3657C6.5135 23.3588 6.5135 23.352 6.5135 23.3429C6.41776 23.3315 6.31973 23.3065 6.22399 23.3087C6.03934 23.3133 5.8866 23.2336 5.76578 23.1152C5.58341 22.933 5.34861 22.7804 5.33037 22.4798C5.33037 22.457 5.28934 22.4388 5.26882 22.4183C5.24602 22.4274 5.22323 22.4388 5.19815 22.4479C5.19815 22.1883 5.18903 21.9265 5.20499 21.6668C5.20955 21.5963 5.32125 21.537 5.33493 21.4619C5.36684 21.2661 5.47855 21.1249 5.61076 20.9951C6.10545 20.51 6.71867 20.3848 7.29541 20.7195C7.49602 20.8357 7.64648 21.0178 7.80605 21.1886C7.99754 21.3959 7.93827 21.635 8.0135 21.8513C8.09557 22.0904 7.98842 22.3159 7.95195 22.5481C7.94511 22.5868 7.90408 22.621 7.87444 22.6574C7.85165 22.6848 7.81061 22.7053 7.80149 22.7371C7.71715 23.0127 7.47323 23.1288 7.25894 23.2655C7.16092 23.3292 7.01274 23.3133 6.88736 23.3406C6.84633 23.3497 6.7597 23.3156 6.77338 23.4203C6.77338 23.4271 6.70955 23.4522 6.67535 23.4522C6.54542 23.4522 6.41548 23.4408 6.28554 23.434C6.28554 23.4271 6.28554 23.4203 6.28554 23.4112L6.28782 23.4089Z" fill="#E7EBFF" fill-opacity="0.498"/>
<path d="M17.0659 8.1424C17.0751 8.10141 17.0819 8.0627 17.091 8.02171C17.1024 8.02171 17.1115 8.02171 17.1229 8.02171V8.70943C17.1229 8.70943 17.1138 8.70943 17.1092 8.71171C17.1024 8.67072 17.0933 8.632 17.0865 8.59101C17.0796 8.59101 17.0705 8.59101 17.0637 8.59101C17.0454 8.68666 17.0203 8.7823 17.0112 8.87794C16.9793 9.17398 16.7878 9.37438 16.5804 9.54973C16.2931 9.78883 15.9421 9.84349 15.5773 9.81161C15.55 9.80933 15.5203 9.80022 15.493 9.8025C15.1374 9.83438 14.8752 9.63854 14.6586 9.40854C14.5424 9.28557 14.3805 9.16943 14.376 8.95081C14.3737 8.82784 14.2734 8.70943 14.2551 8.5819C14.2255 8.38606 14.2278 8.1925 14.3463 8.01032C14.4238 7.88735 14.4444 7.74161 14.5424 7.61408C14.7134 7.39547 14.9048 7.24289 15.1579 7.1222C15.3904 7.01062 15.6229 6.99012 15.8577 7.01973C16.1746 7.05844 16.455 7.18596 16.6921 7.42052C16.9041 7.62774 17.0226 7.86002 17.0705 8.1424H17.0659Z" fill="#E7EBFF" fill-opacity="0.498"/>
<path d="M2.22784 23.352C2.25292 23.4704 2.16857 23.4795 1.71948 23.4157C1.82435 23.3952 1.89045 23.3816 1.95884 23.3679C1.95884 23.3588 1.96112 23.352 1.9634 23.3428C1.85626 23.3292 1.7514 23.2996 1.64425 23.3019C1.4596 23.3041 1.32739 23.1971 1.2134 23.0855C1.03103 22.9102 0.869178 22.728 0.766595 22.4729C0.657172 22.202 0.641215 21.9378 0.700486 21.6896C0.746078 21.496 0.828145 21.2911 0.974042 21.1157C1.19517 20.847 1.46872 20.6671 1.78103 20.5692C1.97252 20.51 2.20732 20.5327 2.41249 20.576C2.80231 20.658 3.08498 20.9199 3.32663 21.225C3.35854 21.266 3.39273 21.3116 3.40413 21.3594C3.49988 21.7533 3.55459 22.1541 3.41325 22.5435C3.33118 22.7713 3.16249 22.9557 2.96644 23.1128C2.75216 23.2859 2.5014 23.3292 2.23012 23.352H2.22784Z" fill="#E7EBFF" fill-opacity="0.498"/>
<path d="M6.5113 18.859C6.59793 18.8681 6.68683 18.8772 6.77346 18.884C6.77346 18.8886 6.77346 18.8931 6.77346 18.9H6.2879C6.30614 18.8567 6.31525 18.8339 6.32437 18.8157C5.76586 18.7155 5.41708 18.4035 5.2917 17.8411C5.2689 17.8752 5.25294 17.898 5.23699 17.9231C5.22787 17.9071 5.21647 17.898 5.21419 17.8866C5.20507 17.6885 5.18683 17.4904 5.19139 17.2923C5.19139 17.2194 5.25066 17.1465 5.28258 17.0759C5.29626 17.0463 5.31905 17.019 5.32361 16.9871C5.40568 16.5909 5.68835 16.3745 6.0189 16.1878C6.67316 15.8143 7.35249 16.1263 7.72407 16.5544C7.8768 16.7298 7.96343 16.9233 7.99534 17.1693C8.02726 17.4198 8.03182 17.6521 7.98167 17.8957C7.96115 17.9982 7.93835 18.0847 7.85173 18.1644C7.76282 18.2464 7.72179 18.3785 7.63972 18.4719C7.47559 18.6563 7.26814 18.7725 7.01738 18.7952C6.84869 18.8112 6.68 18.8203 6.5113 18.8339C6.5113 18.8431 6.5113 18.8522 6.5113 18.8613V18.859Z" fill="#E7EBFF" fill-opacity="0.498"/>
<path d="M10.4709 14.2453C10.4481 14.1998 10.4412 14.1497 10.4162 14.1383C10.0902 13.9926 9.92604 13.7284 9.85765 13.3868C9.83485 13.4028 9.81434 13.4164 9.78242 13.4392C9.70263 13.1659 9.64792 12.8904 9.74595 12.6376C9.88045 12.2938 10.0469 11.9522 10.3865 11.7495C10.4777 11.6948 10.5894 11.6789 10.7011 11.6425C10.6852 11.6197 10.6692 11.6015 10.6532 11.581C10.6669 11.5742 10.6783 11.5628 10.692 11.5628C10.9314 11.5514 11.1707 11.5332 11.4101 11.5309C11.5104 11.5309 11.6198 11.5354 11.6791 11.6493C11.6882 11.6698 11.727 11.6744 11.7543 11.6857C12.176 11.8497 12.4177 12.1594 12.5134 12.5943C12.5362 12.7037 12.6046 12.813 12.5932 12.9177C12.5431 13.3549 12.4222 13.7785 12.0575 14.0586C11.882 14.193 11.6859 14.3091 11.4283 14.3182C11.1001 14.3273 10.7786 14.366 10.4732 14.2476L10.4709 14.2453Z" fill="#E7EBFF" fill-opacity="0.498"/>
<path d="M2.20032 18.8522C2.2368 18.8636 2.27555 18.8727 2.31203 18.8841C2.11142 18.8977 1.90397 18.9911 1.73072 18.8112C1.71476 18.793 1.67829 18.7907 1.65093 18.7884C1.37282 18.7542 1.2064 18.5561 1.01491 18.3808C0.839382 18.2214 0.777832 18.005 0.711723 17.8046C0.634215 17.5633 0.629656 17.3037 0.741358 17.0577C0.761875 17.0144 0.786951 16.9735 0.798349 16.9279C0.894094 16.5818 1.15397 16.3745 1.44349 16.206C2.1251 15.803 2.8409 16.1195 3.22616 16.5954C3.36294 16.764 3.46324 16.937 3.44956 17.1579C3.44956 17.1807 3.44728 17.2148 3.46096 17.2262C3.6137 17.3492 3.502 17.4904 3.49516 17.6247C3.47692 18.0005 3.30595 18.3056 3.03695 18.5493C2.91613 18.6586 2.74516 18.7178 2.58786 18.7747C2.46932 18.8157 2.3371 18.8135 2.20944 18.8294C2.20716 18.8362 2.20488 18.8453 2.2026 18.8522H2.20032Z" fill="#E7EBFF" fill-opacity="0.498"/>
<path d="M21.6707 3.60842C21.6798 3.82931 21.6981 4.02515 21.5932 4.22782C21.5066 4.39406 21.4975 4.58762 21.3698 4.75158C21.1259 5.07039 20.8409 5.28901 20.426 5.28445C20.1935 5.28445 19.9587 5.28673 19.733 5.24119C19.5849 5.21158 19.439 5.11594 19.3159 5.0203C19.1973 4.92693 19.1061 4.79713 19.0035 4.68327C18.9944 4.67188 18.983 4.66277 18.9785 4.64911C18.8918 4.35307 18.6776 4.07525 18.7824 3.74733C18.8941 3.39891 19.0081 3.0596 19.3318 2.81139C19.6464 2.56772 19.9747 2.46752 20.3554 2.49485C20.7361 2.5199 21.0256 2.71802 21.2855 2.98445C21.4405 3.14386 21.5499 3.31238 21.559 3.5401C21.559 3.59931 21.5727 3.6699 21.6707 3.60842Z" fill="#E7EBFF" fill-opacity="0.498"/>
<path d="M21.6707 8.14695C21.6753 8.23121 21.6912 8.31774 21.6798 8.402C21.6662 8.50447 21.6274 8.60467 21.6001 8.70487C21.5909 8.73675 21.5704 8.76636 21.5681 8.79824C21.5499 9.08744 21.3767 9.3015 21.1806 9.47913C20.9937 9.64764 20.7931 9.82071 20.5013 9.80249C20.2938 9.78883 20.0864 9.80249 19.8789 9.79339C19.7285 9.78655 19.5849 9.76834 19.4732 9.6317C19.4025 9.54517 19.2703 9.50873 19.1996 9.4222C19.0811 9.2719 18.958 9.13299 18.885 8.93942C18.7551 8.59556 18.7482 8.28814 18.8941 7.94428C19.0491 7.57764 19.2726 7.31121 19.6396 7.14952C19.7923 7.08121 19.9359 7.01972 20.1115 7.01061C20.5947 6.98784 20.98 7.16546 21.3037 7.51616C21.4428 7.66873 21.5453 7.82586 21.559 8.03537C21.5613 8.07863 21.6069 8.11962 21.632 8.16289C21.6457 8.15834 21.6593 8.1515 21.673 8.14695H21.6707Z" fill="#E7EBFF" fill-opacity="0.498"/>
<path d="M5.28695 13.3368C5.26416 13.3709 5.25048 13.3914 5.23224 13.421C5.22312 13.4005 5.21401 13.3891 5.21401 13.3777C5.20489 13.207 5.18893 13.0384 5.18893 12.8676C5.18893 12.7538 5.17297 12.6308 5.29379 12.5488C5.31659 12.5329 5.33027 12.4896 5.33255 12.46C5.34622 12.2141 5.52404 12.0683 5.66993 11.9044C5.77708 11.786 5.90473 11.7017 6.06887 11.6744C6.0985 11.6698 6.12358 11.6311 6.1441 11.5878C6.40625 11.5081 6.67981 11.4763 6.95109 11.54C7.01948 11.556 7.07875 11.6061 7.14258 11.6425C7.15853 11.6516 7.17449 11.6675 7.19045 11.6721C7.55063 11.7381 7.70337 12.0456 7.91537 12.2847C7.92449 12.2961 7.93361 12.3097 7.93589 12.3211C7.97008 12.5989 8.00884 12.879 8.03391 13.1569C8.04075 13.2274 8.01112 13.3072 7.98832 13.3777C7.88802 13.6738 7.72388 13.9197 7.45717 14.1042C7.06507 14.3797 6.62966 14.3456 6.19425 14.2977C6.11218 14.2886 6.03239 14.2226 5.95717 14.1771C5.85914 14.1156 5.76112 14.0541 5.66993 13.9835C5.48072 13.8377 5.35534 13.6487 5.32115 13.4074C5.31887 13.3869 5.30519 13.3664 5.29151 13.3345L5.28695 13.3368Z" fill="#E7EBFF" fill-opacity="0.498"/>
<path d="M11.132 6.99691C11.5994 6.99691 11.9732 7.19275 12.2627 7.53433C12.3858 7.68007 12.4884 7.8577 12.5089 8.06493C12.5203 8.19017 12.5659 8.31087 12.5887 8.43384C12.5979 8.47938 12.6024 8.53176 12.5887 8.57275C12.4907 8.82552 12.3972 9.08285 12.2764 9.32423C12.2286 9.41988 12.1237 9.49047 12.0371 9.55879C11.7088 9.82067 11.3235 9.84344 10.9269 9.80473C10.8995 9.80245 10.8699 9.79562 10.8425 9.79562C10.5941 9.80701 10.4254 9.65671 10.243 9.52235C10.0515 9.37661 9.98767 9.14661 9.85773 8.96898C9.67308 8.71621 9.67536 8.45889 9.73235 8.21295C9.80302 7.9078 9.95576 7.6277 10.1928 7.39087C10.3593 7.22235 10.5667 7.15859 10.7582 7.05839C10.8653 7.00374 11.0067 7.01285 11.132 6.99463V6.99691Z" fill="#E7EBFF" fill-opacity="0.498"/>
<path d="M17.0523 3.63801C17.0751 3.59702 17.0888 3.57197 17.1161 3.51959C17.1275 3.74048 17.1389 3.93405 17.1503 4.12761C17.1412 4.12989 17.1321 4.13216 17.1207 4.13672C17.107 4.10939 17.0933 4.08207 17.066 4.03197C17.0477 4.13217 17.0295 4.20959 17.0204 4.28702C16.9702 4.68325 16.7423 4.94741 16.4072 5.14781C16.1085 5.32771 15.7894 5.289 15.4725 5.27761C15.2582 5.27078 15.0462 5.24801 14.8775 5.09315C14.759 4.98612 14.6245 4.90187 14.5447 4.74474C14.4809 4.61494 14.3874 4.50335 14.3304 4.36216C14.2119 4.06613 14.1868 3.78603 14.3395 3.49454C14.4079 3.36474 14.4216 3.21217 14.5447 3.10286C14.686 2.97761 14.8 2.8182 14.9459 2.69979C15.0417 2.62236 15.1693 2.56999 15.2901 2.53811C15.6982 2.43335 16.0994 2.47434 16.4482 2.71573C16.6534 2.85692 16.8631 3.0186 16.9543 3.27137C16.9953 3.38296 17.0158 3.50365 17.05 3.63801H17.0523Z" fill="#E7EBFF" fill-opacity="0.498"/>
<path d="M5.18682 8.87336C5.18682 8.67068 5.1777 8.46801 5.19137 8.26761C5.19593 8.19246 5.25065 8.12187 5.28256 8.049C5.3008 8.00573 5.33271 7.96474 5.33727 7.9192C5.36007 7.70514 5.50369 7.57078 5.64046 7.42504C5.77724 7.28157 5.94593 7.2087 6.12147 7.12217C6.71417 6.83068 7.43682 7.13583 7.75369 7.56395C7.8973 7.75751 7.97709 7.96246 8.00444 8.20841C8.02952 8.4293 8.03408 8.63652 7.98621 8.84831C7.91782 9.15573 7.73089 9.38118 7.49153 9.57246C7.06751 9.90722 6.57967 9.84118 6.10779 9.76375C5.87299 9.72504 5.69745 9.52692 5.53788 9.35157C5.43074 9.23316 5.33955 9.10108 5.33043 8.93029C5.33043 8.90524 5.28256 8.88474 5.2552 8.86197L5.1891 8.87563L5.18682 8.87336Z" fill="#E7EBFF" fill-opacity="0.498"/>
<path d="M5.1844 4.33939C5.1844 4.16632 5.17984 3.99098 5.1844 3.81791C5.18896 3.70632 5.1616 3.5788 5.2961 3.5082C5.3189 3.49682 5.32802 3.45127 5.33486 3.41939C5.4192 3.02543 5.69732 2.80682 6.03698 2.63375C6.47239 2.41286 6.90096 2.44246 7.30902 2.67474C7.50051 2.78404 7.64413 2.96395 7.8037 3.12335C8.02938 3.35107 7.98835 3.63117 8.02482 3.87711C8.06358 4.13444 8.02027 4.40999 7.83562 4.66048C7.692 4.85404 7.53014 5.00434 7.34321 5.15008C7.1996 5.26167 7.03546 5.27989 6.87589 5.28444C6.62057 5.29127 6.36297 5.28444 6.11221 5.248C5.99139 5.22979 5.87057 5.14553 5.76799 5.06583C5.66312 4.98385 5.57194 4.87909 5.49671 4.76979C5.42832 4.66731 5.38957 4.54434 5.33486 4.43276C5.31662 4.39632 5.28242 4.36672 5.25507 4.33484C5.23227 4.33484 5.20947 4.33711 5.18668 4.33939H5.1844Z" fill="#E7EBFF" fill-opacity="0.498"/>
<path d="M1.6488 11.622C1.6488 11.622 1.62372 11.6037 1.58497 11.5764C1.81065 11.5149 2.02494 11.4762 2.23922 11.5104C2.70883 11.5878 3.08497 11.8337 3.34257 12.2277C3.49758 12.4622 3.49074 12.7515 3.49074 13.0247C3.49074 13.3936 3.3608 13.717 3.08725 13.9743C3.03482 14.0244 2.96871 14.0631 2.90716 14.1041C2.85473 14.1406 2.80229 14.1793 2.74758 14.2134C2.71339 14.2362 2.67919 14.2658 2.64044 14.2726C2.27798 14.325 1.91552 14.3774 1.55305 14.2772C1.50062 14.2635 1.45731 14.2157 1.40944 14.1816C1.30457 14.1041 1.19287 14.0358 1.10169 13.947C0.755182 13.6168 0.609285 13.2001 0.686792 12.7355C0.727826 12.4941 0.791656 12.2391 1.00138 12.0615C1.09029 11.9863 1.14956 11.877 1.2453 11.8132C1.36612 11.7313 1.50974 11.6812 1.64652 11.6151L1.6488 11.622Z" fill="#E7EBFF" fill-opacity="0.498"/>
<path d="M9.83728 4.3508C9.82132 4.37357 9.80765 4.39406 9.78713 4.42595C9.70278 4.14585 9.62755 3.85208 9.74838 3.60842C9.88059 3.33971 9.97862 3.0505 10.2453 2.83416C10.5896 2.55406 10.9543 2.44931 11.3715 2.50396C11.7909 2.55862 12.0941 2.79773 12.3426 3.13931C12.5136 3.37387 12.4885 3.65169 12.5888 3.89991C12.6162 3.96822 12.5706 4.0707 12.5523 4.15495C12.5364 4.22783 12.5136 4.3007 12.4862 4.36901C12.4178 4.52842 12.3791 4.71971 12.2651 4.83357C12.0348 5.06357 11.7841 5.29812 11.4171 5.28674C11.1617 5.27763 10.9042 5.28218 10.6534 5.24575C10.5303 5.22753 10.4049 5.14783 10.3092 5.06357C10.1861 4.95426 10.0812 4.82218 9.98774 4.68555C9.92619 4.59446 9.89883 4.48288 9.84412 4.35307L9.83728 4.3508Z" fill="#E7EBFF" fill-opacity="0.498"/>
<path d="M9.85532 17.8957C9.84164 17.9595 9.8348 17.9914 9.82569 18.0232C9.65927 17.7659 9.66839 17.2467 9.83252 16.9894C9.91231 16.8641 9.94879 16.7047 10.0468 16.5977C10.1836 16.4474 10.3546 16.3313 10.5164 16.206C10.6737 16.0831 10.8584 16.0398 11.0567 16.0307C11.6129 16.0056 12.0164 16.2516 12.3424 16.6911C12.4974 16.9029 12.4815 17.1579 12.5932 17.3742C12.6114 17.4084 12.6046 17.4585 12.5977 17.4995C12.5385 17.8046 12.4701 18.1166 12.274 18.3603C12.0529 18.6335 11.7611 18.8294 11.3804 18.8157C11.1342 18.8066 10.8857 18.8157 10.6464 18.7725C10.4708 18.7406 10.3272 18.6222 10.1881 18.4924C10.0149 18.3307 9.91915 18.1485 9.85532 17.8934V17.8957Z" fill="#E7EBFF" fill-opacity="0.498"/>
<path d="M0.654785 8.48854C0.702657 7.90785 0.928341 7.51161 1.34096 7.2224C1.40479 7.17914 1.49597 7.17686 1.56436 7.13815C2.02029 6.87626 2.46254 6.98329 2.85919 7.23834C3.17378 7.44102 3.44962 7.7029 3.46102 8.14013C3.46558 8.33141 3.49977 8.51587 3.47241 8.71171C3.41314 9.11706 3.18518 9.37894 2.87287 9.62032C2.59248 9.83666 2.28928 9.78884 1.98381 9.80706C1.90858 9.81161 1.83336 9.79567 1.75813 9.79112C1.42758 9.76607 1.21785 9.56112 1.01041 9.32884C0.900986 9.20587 0.821198 9.08517 0.782445 8.92805C0.739132 8.75725 0.6867 8.59102 0.654785 8.48626V8.48854Z" fill="#E7EBFF" fill-opacity="0.498"/>
<path d="M2.10929 5.29814C1.94516 5.28448 1.77191 5.29131 1.61689 5.24805C1.47328 5.20706 1.33422 5.12052 1.2134 5.03171C1.09486 4.94517 1.00139 4.82448 0.896528 4.71973C0.88741 4.71062 0.876012 4.69923 0.869173 4.68785C0.720997 4.34626 0.5751 3.98874 0.695921 3.62438C0.793945 3.32379 0.921605 3.02547 1.21112 2.81141C1.50519 2.59507 1.8061 2.48121 2.16401 2.4926C2.53331 2.50399 2.83878 2.65201 3.09182 2.91616C3.17616 3.00498 3.25595 3.09834 3.33346 3.19399C3.36309 3.23042 3.39273 3.27141 3.40413 3.31468C3.49759 3.71319 3.54091 4.11399 3.40413 4.51022C3.26507 4.91329 2.75443 5.27082 2.3099 5.28676C2.24379 5.28904 2.17768 5.28676 2.11157 5.28676V5.29587L2.10929 5.29814Z" fill="#E7EBFF" fill-opacity="0.498"/>
<path d="M56.2574 5.10908C56.1389 5.09769 56.0477 5.09769 55.9611 5.07948C55.8995 5.06809 55.7969 5.1068 55.8038 4.97245C55.8038 4.94967 55.708 4.9269 55.6601 4.89957C55.5895 4.85858 55.5142 4.81987 55.4504 4.7675C55.0469 4.42591 55.0332 3.9773 55.0925 3.50136C55.1313 3.18027 55.3364 2.99126 55.5598 2.79542C55.7969 2.58819 56.0568 2.48571 56.3714 2.49938C56.7042 2.51304 56.955 2.67928 57.1943 2.89334C57.6047 3.25997 57.6138 3.72225 57.5226 4.20502C57.477 4.44413 57.2924 4.60353 57.1328 4.7766C57.0325 4.88363 56.8752 4.89502 56.7886 4.977C56.6153 5.14096 56.417 5.06581 56.262 5.10908H56.2574Z" fill="#E7EBFF" fill-opacity="0.498"/>
<path d="M28.3591 5.01804C28.3363 4.99072 28.3181 4.94745 28.2885 4.93834C28.0309 4.86319 27.8804 4.67874 27.7482 4.45557C27.5271 4.08894 27.6228 3.70636 27.6638 3.32834C27.6752 3.21903 27.7664 3.1029 27.8485 3.01864C28.1449 2.71121 28.4686 2.45844 28.9382 2.49943C29.3075 2.53131 29.5628 2.74082 29.8204 2.9822C30.0643 3.2122 30.1145 3.50824 30.1167 3.79517C30.119 4.08666 30.0666 4.39181 29.8227 4.61953C29.6813 4.75161 29.5765 4.9224 29.3622 4.94745C29.3439 4.94745 29.3143 4.96567 29.3143 4.9725C29.3211 5.13191 29.1912 5.07725 29.1228 5.07953C28.8607 5.09092 28.5962 5.08408 28.3341 5.08408C28.3432 5.06131 28.3523 5.04082 28.3591 5.01804Z" fill="#E7EBFF" fill-opacity="0.498"/>
<path d="M11.3349 18.9023H10.8242C10.8242 18.9023 10.8242 18.8795 10.8242 18.8704H11.3349C11.3349 18.8704 11.3349 18.8932 11.3349 18.9023Z" fill="#E7EBFF" fill-opacity="0.498"/>
</g>
<defs>
<clipPath id="clip0_16_1394">
<rect width="75" height="23" fill="white" transform="translate(0.600098 0.5)"/>
</clipPath>
</defs>
</svg>
