<svg width="75" height="22" viewBox="0 0 75 22" fill="none" xmlns="http://www.w3.org/2000/svg">
<g clip-path="url(#clip0_16_1428)">
<path d="M65.2733 0.499987C66.4004 0.517997 67.5256 0.532005 68.6527 0.55802C69.1007 0.568026 69.5468 0.606048 69.977 0.75013C70.1721 0.816168 70.3693 0.880204 70.5664 0.940239C70.662 0.968255 70.7596 0.984264 70.8572 1.00227C71.0882 1.0443 71.3052 1.11634 71.4904 1.26843C71.5661 1.33046 71.6597 1.37449 71.7513 1.40651C71.9604 1.47655 72.1436 1.58261 72.3009 1.73669C72.3188 1.7547 72.3368 1.77472 72.3567 1.78472C72.6932 1.94481 72.9083 2.25299 73.1931 2.47712C73.2488 2.52114 73.2906 2.58718 73.3344 2.64922C73.3782 2.70925 73.4081 2.78129 73.4539 2.83732C73.665 3.09347 73.8164 3.38764 73.9916 3.6658C74.1887 3.97597 74.3082 4.29816 74.4058 4.64035C74.4237 4.70439 74.4436 4.77043 74.4775 4.82646C74.6627 5.13464 74.7284 5.47483 74.7523 5.82703C74.824 6.91565 74.822 8.00227 74.6826 9.08489C74.6667 9.21497 74.6388 9.35104 74.587 9.46911C74.4217 9.84733 74.36 10.2496 74.2863 10.6498C74.2445 10.8799 74.1748 11.096 74.0513 11.3002C73.9717 11.4322 73.9239 11.5883 73.8821 11.7384C73.8124 11.9785 73.7367 12.2087 73.5734 12.4108C73.4838 12.5229 73.4579 12.6829 73.3902 12.815C73.3205 12.9531 73.2349 13.0852 73.1532 13.2173C73.1353 13.2453 73.1074 13.2653 73.0895 13.2933C72.8784 13.6195 72.6673 13.9457 72.4582 14.2719C72.4443 14.2919 72.4383 14.3199 72.4224 14.3379C72.2292 14.552 72.0361 14.7661 71.8409 14.9763C71.7453 15.0783 71.6437 15.1744 71.5422 15.2724C71.4824 15.3285 71.4187 15.3805 71.357 15.4345C71.2574 15.5206 71.1579 15.6066 71.0603 15.6947C71.0364 15.7167 71.0204 15.7527 70.9946 15.7687C70.662 15.9808 70.3274 16.193 69.9909 16.4031C69.9212 16.4471 69.8296 16.4651 69.7758 16.5211C69.5866 16.7153 69.3377 16.7793 69.0988 16.8693C68.9534 16.9254 68.818 17.0074 68.6746 17.0695C68.5312 17.1335 68.3898 17.2095 68.2385 17.2416C67.8661 17.3216 67.4977 17.4056 67.1392 17.5477C66.719 17.7158 66.265 17.7338 65.8189 17.7478C64.8671 17.7799 63.9152 17.7999 62.9613 17.8059C61.643 17.8159 60.3267 17.8079 59.0084 17.8079C58.8252 17.8079 58.644 17.8079 58.4608 17.7959C58.2158 17.7819 58.0983 17.6478 58.1322 17.4016C58.162 17.1895 58.2098 16.9754 58.2776 16.7713C58.411 16.3731 58.4727 15.9648 58.5165 15.5506C58.5663 15.0623 58.6539 14.584 58.7814 14.1078C58.9068 13.6455 58.9327 13.1592 59.0164 12.6849C59.0701 12.3748 59.1239 12.0626 59.2155 11.7624C59.3589 11.2882 59.3987 10.8019 59.4565 10.3156C59.4983 9.95139 59.564 9.59719 59.6835 9.24698C59.7771 8.96682 59.8189 8.66465 59.8527 8.36848C59.9185 7.79816 59.9882 7.23584 60.1614 6.68152C60.2729 6.32131 60.3048 5.93109 60.3486 5.55287C60.3944 5.15465 60.4741 4.76843 60.5756 4.38221C60.6891 3.94996 60.7429 3.5017 60.8026 3.05945C60.8584 2.65522 60.9181 2.25699 61.0496 1.86677C61.1332 1.61663 61.1571 1.34847 61.2049 1.08632C61.2188 1.01228 61.2168 0.936236 61.2288 0.864195C61.2666 0.64607 61.3702 0.548014 61.5912 0.524001C61.7067 0.511994 61.8222 0.511994 61.9397 0.511994C63.0509 0.511994 64.1601 0.511994 65.2713 0.511994V0.497986L65.2733 0.499987ZM64.642 14.0657C64.883 14.0637 65.1239 14.0777 65.3629 14.0597C65.6178 14.0397 65.8727 14.0037 66.1216 13.9477C66.3805 13.8916 66.6274 13.7916 66.8863 13.7315C67.1611 13.6675 67.4399 13.6195 67.6431 13.3934C67.6689 13.3633 67.7128 13.3473 67.7506 13.3313C68.1728 13.1652 68.4555 12.817 68.7861 12.5309C68.8359 12.4888 68.8757 12.4308 68.9096 12.3748C69.1027 12.0486 69.4015 11.7884 69.505 11.4062C69.515 11.3682 69.5468 11.3322 69.5747 11.3042C69.7101 11.1701 69.7699 11 69.8157 10.8199C69.8953 10.4977 69.967 10.1735 70.1303 9.87735C70.1801 9.78529 70.198 9.67323 70.2139 9.56717C70.3255 8.82675 70.3713 8.08232 70.3195 7.33189C70.2856 6.84161 70.2677 6.36534 69.957 5.93709C69.8057 5.72697 69.6862 5.49284 69.513 5.28872C69.2919 5.02857 68.9753 4.90651 68.7343 4.68038C68.6905 4.64035 68.6129 4.63235 68.5471 4.62034C68.3281 4.57432 68.107 4.53629 67.888 4.49027C67.1532 4.33818 66.4044 4.30616 65.6616 4.36219C65.0124 4.41022 64.879 4.39621 64.7894 5.20468C64.7516 5.54087 64.6898 5.87906 64.5982 6.20525C64.4986 6.55945 64.425 6.91365 64.3871 7.27786C64.3274 7.84018 64.2617 8.3985 64.0725 8.93881C63.9948 9.16294 63.9709 9.40908 63.947 9.64721C63.8873 10.2175 63.8335 10.7879 63.6364 11.3342C63.6005 11.4342 63.5806 11.5423 63.5647 11.6504C63.4771 12.2507 63.3675 12.849 63.3158 13.4514C63.2779 13.8856 63.3655 14.0457 63.8495 14.0657C64.1143 14.0777 64.3792 14.0677 64.644 14.0677L64.642 14.0657Z" fill="#E7EBFF" fill-opacity="0.498"/>
<path d="M46.813 17.8079C46.1997 17.8079 45.5863 17.8119 44.973 17.8079C44.6225 17.8039 44.5349 17.6978 44.501 17.3436C44.4532 16.8653 44.3975 16.3871 44.3218 15.9108C44.274 15.6106 44.033 15.4285 43.7283 15.4105C43.6467 15.4045 43.5631 15.4085 43.4794 15.4085C41.9042 15.4085 40.331 15.4085 38.7559 15.4085C38.2162 15.4085 37.9175 15.6086 37.7263 16.1209C37.6307 16.3791 37.5351 16.6272 37.3599 16.8493C37.2563 16.9794 37.2105 17.1635 37.1607 17.3296C37.0652 17.6498 36.8123 17.7518 36.5275 17.8119C36.4717 17.8239 36.412 17.8179 36.3542 17.8179C35.243 17.8179 34.1338 17.8179 33.0226 17.8179C32.8892 17.8179 32.7558 17.8199 32.6264 17.8019C32.3575 17.7638 32.2619 17.5417 32.4412 17.3416C32.6084 17.1575 32.6841 16.9294 32.8076 16.7273C33.0007 16.4091 33.176 16.0829 33.3672 15.7647C33.4767 15.5806 33.6041 15.4085 33.6858 15.2084C33.7037 15.1624 33.7216 15.1123 33.7535 15.0763C33.9566 14.8502 34.09 14.586 34.1916 14.3019C34.1996 14.2799 34.2135 14.2538 34.2314 14.2398C34.4465 14.0517 34.5022 13.7676 34.6476 13.5434C34.8328 13.2593 34.9782 12.9551 35.1574 12.6709C35.2829 12.4748 35.3904 12.2727 35.5059 12.0726C35.6891 11.7584 35.8663 11.4422 36.0476 11.1301C36.183 10.8959 36.3184 10.6618 36.4578 10.4277C36.6251 10.1435 36.7784 9.84933 36.9556 9.57517C37.101 9.35104 37.2444 9.13492 37.34 8.88478C37.3639 8.82474 37.3997 8.76271 37.4455 8.71868C37.5909 8.5846 37.6745 8.41651 37.7383 8.2344C37.796 8.06831 37.8697 7.91222 38.0091 7.79415C38.021 7.78415 38.035 7.77014 38.0409 7.75613C38.1724 7.39592 38.4253 7.10176 38.6025 6.76757C38.6842 6.61548 38.7817 6.4714 38.8654 6.31931C38.945 6.17523 39.0187 6.02714 39.0944 5.88106C39.1362 5.80101 39.1541 5.69695 39.2179 5.64092C39.4031 5.47083 39.4867 5.2467 39.5883 5.02857C39.64 4.91851 39.7177 4.82045 39.7854 4.71639C39.8033 4.68838 39.8332 4.66837 39.8491 4.64035C40.0582 4.25613 40.2633 3.87191 40.4724 3.48769C40.5162 3.40765 40.5521 3.31759 40.6138 3.25556C40.7691 3.10547 40.8428 2.91536 40.9265 2.72526C40.9822 2.59918 41.0679 2.48512 41.1415 2.36705C41.1634 2.33303 41.2092 2.30902 41.2212 2.273C41.3447 1.89678 41.6195 1.60662 41.7867 1.25642C41.8465 1.13035 41.9202 1.00828 42.0038 0.896211C42.181 0.662077 42.424 0.566023 42.7187 0.568024C43.6128 0.574027 44.509 0.568024 45.4031 0.570025C45.7237 0.570025 45.8133 0.656074 45.9448 0.942238C46.1618 1.41251 46.2196 1.91479 46.2793 2.41708C46.3251 2.81331 46.4108 3.19953 46.5223 3.58575C46.6278 3.94996 46.6756 4.33217 46.7274 4.71039C46.7811 5.10662 46.8608 5.49284 46.9763 5.87706C47.0759 6.20925 47.1276 6.55745 47.1734 6.90164C47.2312 7.32989 47.2989 7.75213 47.4343 8.16637C47.5379 8.48655 47.5777 8.83074 47.6195 9.16894C47.6733 9.59918 47.749 10.0194 47.8864 10.4337C47.9839 10.7298 48.0258 11.048 48.0636 11.3602C48.1214 11.8385 48.195 12.3107 48.3524 12.771C48.4519 13.0652 48.4778 13.3873 48.5176 13.6995C48.5774 14.1538 48.659 14.598 48.7924 15.0383C48.9099 15.4245 48.9557 15.8347 49.0055 16.237C49.0473 16.5772 49.0991 16.9114 49.2286 17.2295C49.2505 17.2836 49.2684 17.3396 49.2823 17.3956C49.3261 17.5657 49.2983 17.6518 49.129 17.7078C48.9597 17.7659 48.7765 17.8099 48.5993 17.8119C48.0039 17.8239 47.4064 17.8159 46.809 17.8159C46.809 17.8139 46.809 17.8119 46.809 17.8099L46.813 17.8079ZM42.9159 6.23926C42.7864 6.36133 42.6928 6.46539 42.5833 6.54944C42.4061 6.68552 42.2866 6.85161 42.2169 7.06574C42.1571 7.24384 42.0635 7.41193 41.9819 7.58403C41.9062 7.73812 41.8226 7.89021 41.7469 8.0443C41.6712 8.20038 41.5996 8.35848 41.5239 8.51256C41.4522 8.66065 41.3725 8.80473 41.2989 8.95081C41.2192 9.11291 41.1475 9.281 41.0679 9.44309C41.0061 9.56717 40.9205 9.68323 40.8687 9.81131C40.7811 10.0354 40.7233 10.2696 40.5441 10.4477C40.4943 10.4977 40.4744 10.5777 40.4465 10.6478C40.337 10.9159 40.2613 11.1921 40.0662 11.4242C39.9128 11.6083 40.0164 11.8144 40.2574 11.8645C40.3211 11.8785 40.3888 11.8805 40.4545 11.8805C41.1993 11.8845 41.9421 11.8885 42.6869 11.8925C42.886 11.8925 43.0851 11.8965 43.2823 11.8845C43.5312 11.8705 43.6686 11.7244 43.6487 11.4843C43.5949 10.8739 43.575 10.2536 43.4595 9.65322C43.3121 8.88678 43.1628 8.12434 43.119 7.3439C43.1031 7.06374 43.0533 6.78558 43.0095 6.50742C42.9955 6.42337 42.9517 6.34532 42.9119 6.24127L42.9159 6.23926Z" fill="#E7EBFF" fill-opacity="0.498"/>
<path d="M7.18234 18.2821C6.64665 18.2301 6.03729 18.1761 5.42992 18.1101C5.3184 18.098 5.21086 18.04 5.10333 18C4.9022 17.9239 4.70704 17.8359 4.50392 17.7699C4.25898 17.6898 4.00607 17.6338 3.82287 17.4337C3.80096 17.4097 3.77109 17.3896 3.74122 17.3776C3.08008 17.0675 2.56431 16.5772 2.12222 16.0169C1.85936 15.6847 1.55666 15.3645 1.44714 14.9282C1.42922 14.8562 1.39934 14.7801 1.35155 14.7261C1.17233 14.522 1.12055 14.2739 1.07674 14.0157C1.01501 13.6395 0.951282 13.2613 0.871627 12.8871C0.787989 12.4908 0.778032 12.0966 0.843747 11.6984C0.937343 11.1241 1.03293 10.5517 1.13648 9.9774C1.1544 9.87334 1.20021 9.77329 1.24203 9.67323C1.34159 9.43709 1.44116 9.20096 1.54671 8.96883C1.60844 8.83475 1.68013 8.70468 1.74983 8.5746C1.77373 8.53058 1.81754 8.49856 1.83546 8.45253C1.97087 8.10033 2.18793 7.80016 2.42093 7.50999C2.59219 7.29787 2.76145 7.07975 2.95263 6.88564C3.23142 6.60147 3.50424 6.3033 3.82287 6.07117C4.11361 5.85905 4.38045 5.61691 4.70505 5.43881C5.03164 5.25871 5.38013 5.12863 5.69875 4.95053C6.103 4.7224 6.52916 4.63435 6.96727 4.5523C7.2839 4.49227 7.59256 4.38221 7.90919 4.33218C8.56038 4.22812 9.21554 4.22812 9.86275 4.35219C10.3347 4.44224 10.7987 4.56031 11.2647 4.67237C11.3762 4.70039 11.4817 4.75242 11.5853 4.80245C11.7705 4.8905 11.9537 4.98455 12.1349 5.08061C12.2664 5.15065 12.3938 5.22669 12.5193 5.30473C12.6666 5.39679 12.812 5.49084 12.9574 5.58689C13.0251 5.63292 13.0948 5.67895 13.1565 5.73298C13.274 5.83504 13.4014 5.93309 13.501 6.05116C13.7181 6.31131 13.9869 6.52543 14.1542 6.8276C14.2299 6.96368 14.3354 7.08375 14.4151 7.21983C14.4868 7.3399 14.5445 7.46797 14.6062 7.59404C14.6899 7.76414 14.7715 7.93424 14.8492 8.10834C14.9049 8.23641 14.9707 8.36648 14.9965 8.50256C15.126 9.16294 15.2415 9.83132 15.1977 10.5057C15.1559 11.1581 15.0543 11.8084 14.9746 12.4588C14.9667 12.5329 14.9507 12.6109 14.9129 12.6729C14.7257 12.9731 14.6739 13.3313 14.5206 13.6375C14.3334 14.0097 14.1661 14.4019 13.8854 14.7221C13.8694 14.7401 13.8475 14.7581 13.8376 14.7801C13.6743 15.1303 13.3895 15.3925 13.1665 15.6987C13.1047 15.7827 13.0111 15.8448 12.9335 15.9168C12.6965 16.1349 12.4635 16.357 12.2225 16.5732C12.1369 16.6492 12.0413 16.7173 11.9418 16.7753C11.7566 16.8854 11.5574 16.9714 11.414 17.1415C11.3981 17.1595 11.3782 17.1795 11.3563 17.1875C10.8923 17.3176 10.5398 17.6898 10.0499 17.7739C9.84283 17.8099 9.65166 17.9299 9.44655 17.996C9.25936 18.058 9.06818 18.1261 8.87303 18.1461C8.33734 18.2021 7.79967 18.2341 7.18433 18.2821H7.18234ZM4.59751 11.9465C4.59751 11.9465 4.61544 11.9465 4.6234 11.9465C4.6234 12.1126 4.61145 12.2807 4.62539 12.4448C4.64929 12.709 4.64929 12.9791 4.77475 13.2233C4.84246 13.3553 4.95397 13.4694 5.00177 13.6075C5.13718 14.0037 5.45182 14.2599 5.76049 14.472C6.09305 14.7001 6.50327 14.8322 6.89558 14.9502C7.13454 15.0223 7.40537 15.0143 7.66027 15.0083C8.01474 15.0003 8.37319 14.9803 8.68584 14.7681C8.76549 14.7141 8.86705 14.6881 8.96264 14.6621C9.22152 14.592 9.46646 14.504 9.64967 14.2879C9.70144 14.2258 9.78508 14.1918 9.8508 14.1418C9.92249 14.0878 10.0041 14.0377 10.0619 13.9697C10.2869 13.6975 10.5757 13.4754 10.7151 13.1352C10.725 13.1132 10.7429 13.0932 10.7609 13.0772C10.9082 12.9431 10.97 12.763 11.0357 12.5829C11.1074 12.3888 11.199 12.2027 11.2726 12.0106C11.3304 11.8565 11.4061 11.7004 11.42 11.5383C11.4559 11.1161 11.4817 10.6938 11.4738 10.2696C11.4698 10.0154 11.422 9.75328 11.3404 9.51514C11.2527 9.25899 11.1054 9.02286 10.9759 8.78072C10.9461 8.72469 10.8923 8.67866 10.8485 8.63063C10.7748 8.55259 10.7071 8.46454 10.6235 8.4005C10.3845 8.21239 10.1395 8.03029 9.89461 7.85219C9.85677 7.82417 9.80101 7.82017 9.75322 7.81016C9.16775 7.67809 8.5783 7.59804 7.97889 7.6901C7.56468 7.75413 7.12857 7.76014 6.80596 8.09233C6.78406 8.11434 6.74821 8.12234 6.71834 8.13635C6.22249 8.36848 5.86205 8.7547 5.54342 9.18295C5.30645 9.50113 5.07545 9.82532 4.9719 10.2175C4.96393 10.2496 4.94601 10.2796 4.92609 10.3056C4.75085 10.5517 4.68314 10.8319 4.66124 11.1261C4.63933 11.3982 4.62141 11.6724 4.6015 11.9465H4.59751Z" fill="#E7EBFF" fill-opacity="0.498"/>
<path d="M16.8806 21.496C16.558 21.496 16.2334 21.504 15.9108 21.492C15.7555 21.486 15.5962 21.458 15.4508 21.408C15.2557 21.3419 15.178 21.2079 15.2457 21.0198C15.5125 20.2753 15.5265 19.4869 15.6559 18.7184C15.6659 18.6524 15.6699 18.5844 15.6957 18.5243C15.9427 17.914 15.9726 17.2616 16.0582 16.6212C16.096 16.3351 16.1916 16.0569 16.2494 15.7728C16.323 15.4065 16.3888 15.0403 16.4485 14.6721C16.4863 14.442 16.4923 14.2079 16.5381 13.9797C16.5959 13.6956 16.6974 13.4214 16.7492 13.1372C16.8288 12.697 16.8727 12.2487 16.9483 11.8085C17.0041 11.4823 17.0957 11.1621 17.1614 10.8379C17.2311 10.4877 17.3028 10.1375 17.3486 9.78533C17.4143 9.29105 17.4522 8.79477 17.6294 8.3205C17.6951 8.1444 17.711 7.94828 17.7489 7.76018C17.7608 7.69414 17.7628 7.6281 17.7787 7.56406C17.8783 7.15183 17.9699 7.07979 18.3901 7.07979C18.9696 7.07979 19.5511 7.08979 20.1306 7.07579C20.4532 7.06778 20.6603 7.20786 20.7658 7.51604C20.8734 7.83022 21.178 7.90826 21.411 7.67012C21.5763 7.50203 21.7695 7.41198 21.9766 7.32393C22.1279 7.25789 22.2633 7.15983 22.4147 7.0958C22.5879 7.02175 22.7652 6.94171 22.9504 6.91369C23.3825 6.84365 23.8206 6.78562 24.2567 6.7556C24.5196 6.73759 24.7864 6.76761 25.0493 6.79963C25.3779 6.83765 25.7065 6.89168 26.0311 6.95572C26.1485 6.97973 26.2581 7.04777 26.3656 7.1078C26.4672 7.16183 26.5588 7.23788 26.6603 7.28991C26.8874 7.40797 27.1343 7.49002 27.2797 7.72816C27.3115 7.78019 27.3812 7.8102 27.435 7.85223C27.4868 7.89425 27.5565 7.92627 27.5843 7.9803C27.7954 8.39054 28.1798 8.70271 28.2495 9.19099C28.2614 9.27104 28.2913 9.35509 28.3371 9.42313C28.5402 9.7253 28.594 10.0695 28.6119 10.4197C28.6537 11.2001 28.6756 11.9806 28.5442 12.757C28.5243 12.8711 28.4884 12.9832 28.4506 13.0912C28.353 13.3814 28.2475 13.6696 28.1559 13.9617C28.0961 14.1538 28.0523 14.3479 27.897 14.492C27.8791 14.508 27.8592 14.53 27.8532 14.5521C27.7317 14.9683 27.421 15.2745 27.2259 15.6467C27.21 15.6767 27.202 15.7107 27.1801 15.7347C26.979 15.9509 26.7758 16.167 26.5727 16.3811C26.5568 16.3991 26.5289 16.4071 26.515 16.4271C26.3337 16.7053 26.0311 16.8494 25.804 17.0755C25.7403 17.1375 25.6607 17.1876 25.581 17.2276C25.3719 17.3296 25.1628 17.4257 24.9916 17.5918C24.9298 17.6518 24.8342 17.6838 24.7506 17.7119C24.4837 17.7999 24.2109 17.8639 23.9759 18.036C23.8883 18.1001 23.7589 18.1181 23.6474 18.1361C22.7751 18.2722 21.9009 18.3062 21.0247 18.1581C20.8176 18.1241 20.6244 18.0661 20.4611 17.918C20.4014 17.8639 20.3198 17.8319 20.2441 17.7979C20.0151 17.6959 19.806 17.5738 19.6307 17.3857C19.4196 17.1575 19.2583 17.1976 19.1329 17.4877C19.111 17.5398 19.099 17.5998 19.0911 17.6558C19.0473 18.012 18.9477 18.3522 18.8621 18.7004C18.7525 19.1507 18.7167 19.617 18.641 20.0752C18.5912 20.3694 18.5215 20.6595 18.4678 20.9517C18.4359 21.1258 18.3304 21.2479 18.2089 21.3659C18.1133 21.46 18.0097 21.504 17.8763 21.502C17.5457 21.498 17.2132 21.502 16.8826 21.502L16.8806 21.496ZM25.4516 11.9105C25.5452 11.4103 25.1987 10.994 24.9776 10.5378C24.9677 10.5158 24.9457 10.4997 24.9298 10.4797C24.6012 10.0475 24.1133 9.86738 23.6294 9.71329C23.2969 9.60723 22.9404 9.64525 22.5959 9.71729C22.5402 9.7293 22.4864 9.75331 22.4326 9.77333C22.2494 9.84537 22.0702 9.94342 21.881 9.98745C21.4887 10.0795 21.2438 10.3877 20.9391 10.6078C20.8076 10.7019 20.7081 10.8439 20.6025 10.97C20.5448 11.038 20.499 11.1181 20.4512 11.1941C20.4074 11.2642 20.3755 11.3462 20.3198 11.4023C20.1804 11.5443 20.0987 11.7104 20.0589 11.9025C20.027 12.0566 19.9971 12.2127 19.9553 12.3648C19.792 12.9571 19.8697 13.5335 20.0748 14.0998C20.1186 14.2199 20.1983 14.3339 20.2799 14.434C20.5946 14.8122 20.957 15.1164 21.4708 15.1784C21.5345 15.1864 21.5942 15.2244 21.658 15.2425C21.9587 15.3345 22.2614 15.3345 22.564 15.2525C22.7234 15.2104 22.8827 15.1664 23.044 15.1304C23.3287 15.0643 23.6115 15.0023 23.8107 14.7602C23.8365 14.7302 23.8804 14.7162 23.9122 14.6901C24.0436 14.5921 24.191 14.508 24.3045 14.39C24.661 14.0238 25.0234 13.6575 25.1509 13.1312C25.1648 13.0752 25.1947 13.0232 25.2245 12.9732C25.4197 12.665 25.4655 12.3228 25.4516 11.9085V11.9105Z" fill="#E7EBFF" fill-opacity="0.498"/>
<path d="M56.5051 0.548017C57.0348 0.548017 57.5665 0.540013 58.0962 0.554021C58.2575 0.558023 58.4188 0.612054 58.5742 0.662082C58.6697 0.6921 58.7136 0.774146 58.6797 0.882208C58.5164 1.40251 58.5045 1.94482 58.4228 2.47912C58.381 2.75528 58.2874 3.02543 58.2336 3.30159C58.158 3.69181 58.0823 4.08404 58.0325 4.47826C57.9708 4.95654 57.8812 5.4248 57.7597 5.89307C57.6362 6.37134 57.6024 6.87563 57.5247 7.36591C57.4889 7.58604 57.459 7.81217 57.3873 8.02229C57.2399 8.45053 57.1802 8.89279 57.1304 9.33904C57.0766 9.81731 56.993 10.2876 56.8616 10.7538C56.7381 11.1901 56.7202 11.6544 56.6425 12.1026C56.5828 12.4448 56.4892 12.781 56.4274 13.1232C56.3398 13.6035 56.2721 14.0898 56.1845 14.57C56.1247 14.9042 56.063 15.2404 55.9674 15.5646C55.83 16.0309 55.7942 16.5111 55.7404 16.9894C55.7245 17.1295 55.7006 17.2696 55.6866 17.4097C55.6707 17.5577 55.593 17.6638 55.4556 17.7058C55.2983 17.7538 55.135 17.8099 54.9757 17.8099C53.8904 17.8179 52.8051 17.8159 51.7198 17.8139C51.3793 17.8139 51.2697 17.6778 51.2996 17.3296C51.3355 16.9054 51.3992 16.4891 51.5426 16.0869C51.6899 15.6747 51.7059 15.2404 51.7576 14.8122C51.8074 14.3999 51.8851 13.9957 52.0006 13.5935C52.1061 13.2293 52.1519 12.845 52.1977 12.4668C52.2515 12.0126 52.3312 11.5663 52.4586 11.1261C52.5622 10.7699 52.598 10.3936 52.6478 10.0234C52.7095 9.56317 52.7713 9.10691 52.9186 8.65865C53.0202 8.35448 53.054 8.02629 53.0879 7.70411C53.1397 7.20782 53.2153 6.72154 53.3627 6.23927C53.4702 5.88507 53.5001 5.50685 53.5499 5.13664C53.6116 4.68438 53.6753 4.23612 53.8127 3.79587C53.9143 3.47369 53.9502 3.12949 53.99 2.7933C54.0497 2.28101 54.1075 1.77072 54.2927 1.28244C54.3365 1.16637 54.3524 1.0403 54.3783 0.918229C54.4341 0.648074 54.5396 0.55202 54.8184 0.548017C55.1589 0.542014 55.4975 0.548017 55.838 0.548017C56.061 0.548017 56.2861 0.548017 56.5091 0.548017H56.5051Z" fill="#E7EBFF" fill-opacity="0.498"/>
<path d="M32.9271 7.08776C33.3075 7.08776 33.6898 7.08575 34.0702 7.08776C34.3191 7.08976 34.3888 7.14379 34.4565 7.38593C34.4804 7.47198 34.5023 7.56803 34.4884 7.65408C34.4426 7.97426 34.4147 8.30245 34.3191 8.60862C34.1837 9.04888 34.102 9.49513 34.0582 9.95139C34.0084 10.4737 33.9208 10.986 33.7635 11.4883C33.6699 11.7864 33.6261 12.1066 33.6122 12.4188C33.5823 13.1132 33.4031 13.7676 33.0884 14.3759C32.9231 14.6961 32.732 15.0083 32.5468 15.3165C32.4054 15.5506 32.2859 15.7927 32.1425 16.0229C31.9732 16.297 31.8219 16.5812 31.6566 16.8533C31.5232 17.0715 31.3718 17.2776 31.2802 17.5197C31.2364 17.6358 31.1448 17.7038 31.0253 17.7378C30.635 17.8519 30.2368 17.8159 29.8405 17.7999C29.6792 17.7939 29.5617 17.6118 29.5896 17.4016C29.6393 17.0314 29.6831 16.6572 29.7827 16.301C29.9002 15.8828 29.9759 15.4605 30.0177 15.0303C30.0655 14.526 30.1292 14.0277 30.2726 13.5374C30.3841 13.1592 30.42 12.755 30.4697 12.3608C30.5295 11.8905 30.5833 11.4242 30.7207 10.966C30.8222 10.6258 30.866 10.2676 30.9059 9.91337C30.9676 9.35105 31.0194 8.79073 31.2086 8.25042C31.2663 8.08833 31.2802 7.91023 31.3121 7.73813C31.3221 7.6901 31.3221 7.63807 31.332 7.59004C31.4236 7.1698 31.5292 7.08575 31.9553 7.08575C32.2779 7.08575 32.6005 7.08575 32.9251 7.08575L32.9271 7.08776Z" fill="#E7EBFF" fill-opacity="0.498"/>
<path d="M33.2098 5.92709C32.8792 5.92709 32.5487 5.93109 32.2181 5.92308C32.1225 5.92108 32.0229 5.89307 31.9333 5.85705C31.8337 5.81702 31.78 5.73297 31.7919 5.61891C31.8477 5.09261 31.8975 4.56431 31.9672 4.03801C32.003 3.76185 32.2241 3.60176 32.4232 3.44166C32.473 3.40164 32.5646 3.39964 32.6363 3.39964C33.3054 3.39564 33.9765 3.39164 34.6456 3.39964C35.0797 3.40364 35.2589 3.6798 35.1594 4.09804C35.0698 4.47626 35.022 4.86248 34.9562 5.2467C34.9343 5.36877 34.9224 5.49284 34.8965 5.61491C34.8567 5.80702 34.7969 5.87105 34.5958 5.88306C34.1338 5.91108 33.6718 5.92508 33.2098 5.9451C33.2098 5.93909 33.2098 5.93309 33.2098 5.92709Z" fill="#E7EBFF" fill-opacity="0.498"/>
</g>
<defs>
<clipPath id="clip0_16_1428">
<rect width="74" height="21" fill="white" transform="translate(0.800049 0.5)"/>
</clipPath>
</defs>
</svg>
