<svg width="156" height="40" viewBox="0 0 156 40" fill="none" xmlns="http://www.w3.org/2000/svg">
<path d="M24.7048 24.7361C24.9679 24.5583 24.9839 24.3556 24.9467 24.1444C24.9174 23.9778 24.8058 23.9417 24.6862 24.0556C24.6384 24.1 24.6038 24.1639 24.5693 24.2222C24.5347 24.2806 24.5161 24.3528 24.4736 24.4028C24.2637 24.6361 24.0484 24.8639 23.8358 25.0944C23.7667 25.1694 23.6976 25.2444 23.6391 25.3278C23.4106 25.65 23.198 25.9833 22.9615 26.3C22.8206 26.4889 22.6558 26.6611 22.4858 26.8222C22.4326 26.8722 22.3104 26.9 22.2492 26.8694C22.1722 26.8333 22.0951 26.7389 22.0712 26.6528C22.0446 26.5611 22.0845 26.45 22.0898 26.3444C22.1004 26.0306 21.9596 25.8611 21.6592 25.875C21.3616 25.8889 21.0639 25.9278 20.769 25.9722C20.1338 26.0639 19.5013 26.1722 18.8635 26.2556C18.0715 26.3583 17.2716 26.4194 16.4796 26.325C15.4272 26.2 14.3722 26.0472 13.3304 25.8444C12.8254 25.7472 12.3205 25.5639 11.8607 25.325C11.4435 25.1083 10.9997 24.8861 10.71 24.4722C10.4921 24.1611 10.2502 23.8583 10.1918 23.4528C10.1652 23.2722 10.1918 23.1139 10.2768 22.9556C10.3938 22.7333 10.4974 22.5056 10.6143 22.2833C10.6569 22.2056 10.7127 22.1333 10.7738 22.0694C10.9784 21.8611 11.1963 21.6639 11.3957 21.45C11.5976 21.2333 11.5498 21.0361 11.2761 20.925C11.2256 20.9056 11.1671 20.9028 11.114 20.8861C10.8748 20.8028 10.6383 20.7167 10.3991 20.6306C10.2848 20.5889 10.1705 20.5389 10.0536 20.5111C9.69482 20.425 9.38122 20.2528 9.057 20.0694C8.49625 19.7528 8.05509 19.3167 7.65911 18.8194C7.43321 18.5361 7.25516 18.225 7.2897 17.8194C7.31628 17.5111 7.47308 17.275 7.62456 17.0417C7.82919 16.7278 8.05509 16.4306 8.29693 16.1472C8.44309 15.9778 8.62647 15.8389 8.80718 15.7111C9.17924 15.4472 9.56459 15.2 9.94197 14.9444C10.3619 14.6639 10.8269 14.4833 11.2708 14.2583C11.5631 14.1111 11.8448 13.9833 12.1584 13.9028C12.379 13.8444 12.5836 13.7194 12.7989 13.6361C12.9849 13.5639 13.1736 13.5 13.3649 13.4472C13.846 13.3139 14.3243 13.175 14.808 13.0639C15.1535 12.9861 15.5069 12.9528 15.8551 12.8917C16.2245 12.8278 16.5939 12.7556 16.966 12.6917C17.2609 12.6389 17.5533 12.5583 17.8509 12.55C19.1452 12.5139 20.4394 12.4722 21.731 12.4833C22.4246 12.4889 23.1209 12.5722 23.8013 12.7528C24.0564 12.8222 24.3275 12.8306 24.5852 12.8972C24.9493 12.9889 25.3081 13.1056 25.6669 13.2111C25.9433 13.2944 26.2223 13.3694 26.4907 13.4694C26.6449 13.525 26.7857 13.6222 26.9292 13.7028C26.9877 13.7361 27.0355 13.7944 27.0967 13.8111C27.5192 13.9306 27.8169 14.2472 28.1464 14.5139C28.2235 14.575 28.2819 14.6639 28.3404 14.7444C28.3882 14.8083 28.4095 14.8944 28.4653 14.9472C28.9437 15.425 28.8214 16.0222 28.7709 16.6056C28.7683 16.65 28.755 16.7 28.7284 16.7361C28.4281 17.1306 28.2288 17.6083 27.8301 17.9222C27.4793 18.1972 27.1392 18.4917 26.7777 18.7528C26.6263 18.8611 26.4323 18.9 26.2595 18.9778C26.116 19.0417 25.9672 19.1083 25.9964 19.3222C26.0256 19.5417 26.0496 19.7667 26.302 19.8444C26.3871 19.8722 26.4721 19.8917 26.5598 19.9111C26.7937 19.9583 26.9983 20.0667 27.1658 20.2472C27.2428 20.3306 27.3225 20.4139 27.4129 20.4778C27.8009 20.7472 27.963 21.1556 28.0667 21.6028C28.0853 21.6778 28.0879 21.7667 28.0693 21.8417C27.9657 22.275 27.8594 22.6972 27.5272 23.0389C27.1631 23.4111 26.7751 23.7306 26.3605 24.0333C26.023 24.2806 25.6483 24.4444 25.3081 24.6778C25.1486 24.7889 24.9759 24.7778 24.7075 24.7389L24.7048 24.7361ZM24.7606 17.4861C24.7181 17.4278 24.6915 17.4028 24.6809 17.3722C24.5852 17.1 24.7022 16.7083 24.9254 16.5444C25.0078 16.4833 25.0902 16.4306 25.1726 16.3694C25.8609 15.8611 25.8449 14.8472 25.138 14.3722C25.0822 14.3361 25.0237 14.2972 24.9812 14.2472C24.8058 14.0333 24.564 13.9556 24.3168 13.8806C24.083 13.8111 23.8544 13.7278 23.6205 13.6528C23.3787 13.575 23.1395 13.4639 22.8924 13.4389C22.1881 13.3667 21.4812 13.2889 20.7769 13.2889C19.6049 13.2889 18.4356 13.3333 17.2636 13.3778C16.6789 13.4 16.0969 13.4722 15.5415 13.7028C15.3315 13.7917 15.0897 13.8111 14.8612 13.8472C14.4811 13.9111 14.0772 13.8889 13.7317 14.0944C13.4473 14.2639 13.1311 14.3194 12.8334 14.4306C12.3471 14.6111 11.882 14.8472 11.4143 15.0778C11.2282 15.1694 11.0582 15.3028 10.8854 15.425C10.7764 15.5028 10.6755 15.5889 10.5745 15.6778C10.4841 15.7611 10.4097 15.8667 10.3114 15.9389C9.85958 16.2833 9.73734 17.1778 10.2104 17.625C10.609 18 11.0502 18.2944 11.5658 18.4528C11.9989 18.5861 12.4428 18.6861 12.8839 18.7944C13.0115 18.8278 13.1444 18.8556 13.2746 18.8667C13.9124 18.9194 14.5529 18.9972 15.1907 19.0111C16.7082 19.0417 18.2177 18.9528 19.7059 18.6139C19.9956 18.5472 20.1178 18.2806 19.9637 18.0222C19.9238 17.9528 19.868 17.8944 19.8335 17.8222C19.7591 17.6694 19.7936 17.575 19.9557 17.5472C20.086 17.5222 20.2188 17.525 20.3517 17.5306C20.5617 17.5389 20.7716 17.5694 20.9789 17.5722C21.9968 17.5806 23.0146 17.575 24.0298 17.5972C24.2557 17.6028 24.4922 17.6583 24.7022 17.7472C25.0237 17.8806 25.0849 18.2389 24.8616 18.5083C24.8244 18.5528 24.7766 18.5861 24.7474 18.6333C24.6915 18.7278 24.7155 18.8111 24.8111 18.8639C24.9546 18.9417 25.2549 18.8861 25.3666 18.7611C25.5074 18.6 25.6483 18.4417 25.7838 18.275C26.0443 17.9583 25.9353 17.5361 25.5659 17.3917C25.2922 17.2861 25.0291 17.2556 24.7527 17.4889L24.7606 17.4861ZM21.8745 22.1694C21.8373 22.1361 21.8054 22.1194 21.7868 22.0944C21.6353 21.8806 21.5955 21.6528 21.6406 21.3806C21.7044 21.0083 21.5264 20.8361 21.1702 20.8861C20.5909 20.9667 20.0089 21.0417 19.4322 21.1444C17.8775 21.4278 16.3148 21.4917 14.7416 21.4C14.3004 21.375 13.8592 21.3361 13.4181 21.3194C12.945 21.3028 12.5517 21.6 12.3816 22.0806C12.2328 22.4972 12.3683 23.0694 12.7404 23.3167C13.0806 23.5444 13.4526 23.7833 13.838 23.8639C14.7681 24.0556 15.7116 24.2 16.6577 24.2833C17.8562 24.3889 19.0362 24.1278 20.2188 23.9639C20.644 23.9056 20.6999 23.8167 20.6945 23.3778C20.6945 23.2 20.761 23.1167 20.9178 23.1056C21.0267 23.0972 21.1384 23.0972 21.25 23.0972C22.0473 23.1028 22.8419 23.1139 23.6391 23.1083C23.8358 23.1083 24.0325 23.0667 24.2265 23.0306C24.4098 22.9944 24.5294 22.8833 24.6145 22.6972C24.75 22.3972 24.9041 22.1028 25.1672 21.8889C25.6376 21.5056 25.6164 20.8806 25.1141 20.4778C24.9387 20.3361 24.7686 20.1917 24.5906 20.0556C24.2557 19.8 23.8119 19.8861 23.5807 20.2389C23.5116 20.3417 23.4292 20.4361 23.3521 20.5333C23.1156 20.8361 22.8339 21.1139 22.6532 21.45C22.4645 21.8 22.1668 21.9611 21.8798 22.1639L21.8745 22.1694ZM25.6058 23.3222C25.5978 23.0667 25.348 22.8833 25.1354 22.9028C24.8723 22.9306 24.758 23.125 24.859 23.3806C24.9095 23.5083 24.952 23.6389 25.0131 23.7611C25.1035 23.9444 25.2629 23.975 25.3772 23.8083C25.4888 23.6444 25.5499 23.4444 25.6058 23.3194V23.3222Z" fill="#E7EBFF" fill-opacity="0.498"/>
<path d="M145.574 27.0278C145.258 26.9889 144.936 26.9695 144.625 26.9056C144.376 26.8556 144.33 26.7861 144.333 26.5222C144.333 26.3417 144.344 26.1445 144.413 25.9833C144.562 25.6361 144.602 25.275 144.639 24.9083C144.713 24.1861 144.793 23.4695 144.992 22.7667C145.096 22.4056 145.136 22.0222 145.17 21.6445C145.229 21.0361 145.306 20.4333 145.476 19.8445C145.569 19.5278 145.625 19.1917 145.646 18.8611C145.678 18.3417 145.17 17.9778 144.692 18.1556C144.599 18.1917 144.509 18.2361 144.416 18.275C143.99 18.4528 143.799 18.7667 143.767 19.2556C143.717 20 143.634 20.7445 143.4 21.4639C143.305 21.7528 143.291 22.075 143.262 22.3833C143.198 23.0611 143.1 23.7278 142.922 24.3889C142.8 24.8389 142.773 25.3195 142.709 25.7861C142.688 25.9445 142.685 26.1083 142.659 26.2667C142.584 26.6917 142.319 26.9639 141.92 26.9833C141.49 27.0028 141.056 27.0111 140.626 26.9833C140.054 26.9472 139.852 26.6667 140.039 26.1195C140.219 25.5889 140.254 25.0389 140.336 24.4945C140.429 23.9028 140.48 23.3056 140.679 22.7361C140.745 22.5445 140.769 22.3306 140.783 22.125C140.833 21.3528 140.931 20.5917 141.152 19.8472C141.242 19.5417 141.288 19.2167 141.314 18.8972C141.357 18.3445 140.873 17.9806 140.363 18.1611C140.238 18.2056 140.11 18.2528 139.996 18.3195C139.69 18.4889 139.462 18.7167 139.438 19.1139C139.417 19.4695 139.385 19.8278 139.329 20.1778C139.257 20.6195 139.138 21.0528 139.066 21.4945C138.968 22.1083 138.896 22.725 138.808 23.3389C138.776 23.5667 138.76 23.8 138.691 24.0167C138.486 24.6583 138.415 25.3195 138.34 25.9861C138.33 26.0778 138.324 26.1695 138.308 26.2611C138.213 26.7278 137.934 26.9806 137.474 26.9945C137.099 27.0056 136.722 27.0056 136.347 26.9945C135.786 26.975 135.643 26.8028 135.68 26.2306C135.685 26.1389 135.704 26.0472 135.723 25.9583C135.824 25.4278 135.922 24.8972 136.026 24.3667C136.121 23.8695 136.225 23.375 136.323 22.8806C136.355 22.7111 136.387 22.5417 136.406 22.3695C136.499 21.5111 136.597 20.6556 136.818 19.8167C136.956 19.2861 137.014 18.7278 137.057 18.1806C137.097 17.65 137.275 17.1695 137.431 16.6806C137.501 16.4611 137.663 16.3 137.899 16.2972C138.295 16.2945 138.691 16.3083 139.087 16.3361C139.188 16.3445 139.289 16.4222 139.385 16.475C139.542 16.5611 139.693 16.6583 139.847 16.7472C140.009 16.8389 140.142 16.8167 140.302 16.7C140.761 16.3722 141.28 16.1611 141.827 16.075C142.526 15.9639 143.089 16.3222 143.61 16.75C143.887 16.975 144.03 17.0389 144.293 16.8306C144.711 16.5 145.202 16.3639 145.675 16.1806C145.827 16.1222 145.994 16.0861 146.156 16.0722C147.039 16.0083 147.714 16.4278 148.237 17.1222C148.362 17.2861 148.399 17.5528 148.41 17.7722C148.436 18.3722 148.399 18.9639 148.221 19.5472C148.017 20.2167 147.846 20.9 147.711 21.5861C147.602 22.1361 147.581 22.7056 147.498 23.2639C147.453 23.5695 147.357 23.8667 147.304 24.1722C147.206 24.7611 147.124 25.3528 147.036 25.9445C147.015 26.0917 147.015 26.2472 146.972 26.3861C146.858 26.7583 146.581 26.9722 146.207 26.9889C145.997 27 145.787 26.9889 145.577 26.9889C145.577 27.0028 145.577 27.0139 145.574 27.0278Z" fill="#E7EBFF" fill-opacity="0.498"/>
<path d="M34.708 12.6C35.2156 12.6 35.7259 12.6055 36.2335 12.6C36.7916 12.5916 37.3151 12.7694 37.7802 13.05C38.0885 13.2361 38.3941 13.5 38.5137 13.9055C38.5775 14.1139 38.6731 14.3083 38.7555 14.5111C38.7768 14.5639 38.8087 14.6166 38.8113 14.6722C38.8432 15.2805 38.899 15.8916 38.7449 16.4916C38.6758 16.7583 38.6014 17.025 38.5482 17.2944C38.4712 17.6889 38.4127 18.0916 38.1682 18.425C38.1416 18.4611 38.123 18.5083 38.115 18.55C38.0433 19.0416 37.7377 19.4055 37.456 19.7639C37.2513 20.0222 37.0175 20.2805 36.6985 20.4194C36.6082 20.4583 36.5205 20.5111 36.4354 20.5666C36.3398 20.6278 36.2999 20.7111 36.3398 20.8305C36.4195 21.0833 36.4859 21.3444 36.6906 21.525C36.8952 21.7055 36.9537 21.9416 36.9723 22.2028C37.0387 23.2722 37.1078 24.3416 37.1689 25.4083C37.1796 25.6 37.2301 25.7555 37.3417 25.9139C37.4427 26.0555 37.5144 26.2389 37.5437 26.4111C37.6128 26.8083 37.4772 26.9778 37.0892 26.9861C36.5816 26.9972 36.0714 26.9861 35.5638 26.9861C35.5425 26.9861 35.5186 26.9861 35.4973 26.9833C34.9711 26.9333 34.6974 26.6861 34.5991 26.1416C34.5539 25.8833 34.5432 25.6166 34.5273 25.3528C34.4582 24.2139 34.3918 23.0778 34.3253 21.9389C34.3227 21.8805 34.3174 21.8222 34.3067 21.7666C34.2536 21.4916 34.0516 21.2528 33.8789 21.2583C33.5626 21.2694 33.2968 21.5055 33.265 21.825C33.2145 22.3166 33.1773 22.8111 33.1214 23.3028C33.0975 23.5305 33.071 23.7639 33.0019 23.9805C32.7892 24.6305 32.7201 25.3055 32.6457 25.9805C32.6298 26.1389 32.5952 26.2972 32.5501 26.45C32.4597 26.7583 32.2365 26.95 31.9468 26.9666C31.4286 26.9944 30.9077 26.9944 30.3921 26.9528C29.9722 26.9194 29.9058 26.8222 29.9323 26.3666C29.9509 26.0472 30.0227 25.7305 30.0759 25.4139C30.1822 24.7666 30.2885 24.1194 30.4027 23.475C30.4585 23.1583 30.5383 22.8472 30.6047 22.5305C30.6446 22.3389 30.6924 22.15 30.7163 21.9555C30.7907 21.4083 30.8519 20.8583 30.9236 20.3111C30.9396 20.1861 30.9555 20.0583 30.9954 19.9389C31.2585 19.1583 31.3063 18.3389 31.394 17.525C31.41 17.3639 31.4206 17.1972 31.4737 17.05C31.697 16.4278 31.7528 15.7694 31.8378 15.1194C31.9202 14.5028 32.0026 13.8889 32.17 13.2889C32.3056 12.7916 32.4836 12.6111 32.9806 12.5972C33.5546 12.5833 34.1313 12.5944 34.7054 12.5944L34.708 12.6ZM36.1537 15.775C36.1511 15.3333 36.0926 14.9416 35.6674 14.7416C35.6196 14.7194 35.5797 14.6694 35.5345 14.6389C35.1731 14.375 34.7691 14.4833 34.5751 14.9C34.5326 14.9916 34.4848 15.0889 34.4662 15.1889C34.3652 15.7666 34.2695 16.3444 34.1738 16.925C34.0888 17.4444 34.0622 17.975 33.8443 18.4694C33.7699 18.6416 33.8044 18.875 33.8257 19.0778C33.8337 19.1583 33.9293 19.2694 34.0064 19.2944C34.3865 19.4111 34.7665 19.4611 35.0881 19.125C35.1651 19.0444 35.2714 18.9916 35.3405 18.9028C35.4495 18.7639 35.5638 18.6166 35.6222 18.45C35.7099 18.2028 35.7179 17.925 35.8189 17.6861C36.082 17.0666 36.074 16.4055 36.1511 15.7805L36.1537 15.775Z" fill="#E7EBFF" fill-opacity="0.498"/>
<path d="M83.953 16.2305C84.2693 16.2639 84.5909 16.2778 84.9044 16.3361C85.1782 16.3889 85.2685 16.55 85.2313 16.8361C85.2127 16.9722 85.1915 17.1139 85.141 17.2389C84.8752 17.8889 84.8779 18.5889 84.7662 19.2694C84.6972 19.6889 84.6201 20.1055 84.5457 20.525C84.4899 20.8305 84.4314 21.1361 84.3782 21.4416C84.256 22.1666 84.1337 22.8944 84.0195 23.6222C83.9716 23.9278 83.9424 24.2361 83.9265 24.5444C83.9132 24.7666 84.0407 24.9055 84.2427 24.9778C84.5483 25.0889 84.854 25.1083 85.1489 24.9639C85.5237 24.7805 85.6831 24.4194 85.7496 24.025C85.8612 23.3778 85.9329 22.725 86.0339 22.0778C86.1641 21.2361 86.2439 20.3778 86.4538 19.5583C86.6691 18.7166 86.7169 17.8555 86.8657 17.0083C86.9401 16.5805 87.2405 16.2833 87.6497 16.2694C88.0696 16.2528 88.4895 16.2583 88.9094 16.2611C88.9865 16.2611 89.0636 16.2833 89.138 16.3028C89.5658 16.425 89.6854 16.6083 89.5207 17.0333C89.2204 17.8083 89.1858 18.6278 89.0928 19.4389C89.0715 19.6222 89.0609 19.8111 89.0051 19.9833C88.734 20.7972 88.7048 21.6583 88.5666 22.4972C88.532 22.7139 88.5001 22.9305 88.4603 23.1444C88.3779 23.5861 88.2769 24.0222 88.2131 24.4666C88.1387 24.9694 88.0749 25.4694 87.9155 25.9528C87.8517 26.1444 87.849 26.3611 87.8278 26.5666C87.7587 27.2444 87.7002 27.9194 87.3866 28.5389C87.3016 28.7083 87.2803 28.9139 87.2405 29.1027C87.2006 29.3 87.1342 29.4778 86.9906 29.6166C86.9428 29.6639 86.8923 29.7166 86.8684 29.7778C86.7382 30.1139 86.5362 30.3916 86.2917 30.65C85.9648 30.9944 85.63 31.3278 85.1941 31.5055C84.7955 31.6694 84.3889 31.825 83.9716 31.9361C83.0468 32.1778 82.1512 32.0611 81.2981 31.6027C81.136 31.5139 81.0324 31.3805 81.043 31.1944C81.0669 30.7694 81.0908 30.3416 81.1493 29.9222C81.1891 29.6305 81.5346 29.4333 81.8482 29.5C82.098 29.5528 82.3399 29.6389 82.587 29.6916C83.286 29.8333 83.9132 29.7083 84.45 29.1722C84.7211 28.9028 84.8752 28.6 84.9363 28.2194C84.9682 28.0194 85.0719 27.8305 85.1224 27.6333C85.1888 27.3805 85.2632 27.1222 85.2792 26.8639C85.2951 26.5916 85.1516 26.4972 84.8938 26.5694C84.7795 26.6 84.6493 26.6361 84.5616 26.7139C84.3118 26.9416 84.0168 27.0194 83.7059 27.0472C83.2435 27.0861 82.7678 27.1305 82.3266 26.9528C81.92 26.7889 81.5745 26.525 81.4283 26.0583C81.4018 25.9694 81.3752 25.8805 81.3433 25.7972C81.1971 25.4305 81.2104 25.0611 81.2742 24.6778C81.4097 23.8833 81.5213 23.0861 81.6409 22.2889C81.6595 22.1639 81.6622 22.0333 81.6994 21.9139C81.904 21.2611 81.9519 20.5805 82.0502 19.9111C82.0768 19.7305 82.1007 19.5416 82.1592 19.3722C82.3877 18.725 82.4356 18.0444 82.4993 17.3694C82.5073 17.2889 82.5073 17.2083 82.5153 17.1278C82.5764 16.5805 82.8873 16.2861 83.4135 16.2722C83.5916 16.2666 83.767 16.2722 83.9451 16.2722C83.9451 16.2611 83.9451 16.2528 83.9477 16.2416L83.953 16.2305Z" fill="#E7EBFF" fill-opacity="0.498"/>
<path d="M100.156 15.6667C100.095 16.0167 100.031 16.3639 99.9729 16.7139C99.9038 17.1222 99.8241 17.5278 99.7736 17.9389C99.7338 18.2639 99.6912 18.5694 99.4946 18.8444C99.3883 18.9972 99.3484 19.2028 99.2926 19.3889C99.2341 19.5917 99.1517 19.7667 99.0109 19.9278C98.8195 20.1472 98.6681 20.4055 98.4767 20.625C98.0887 21.0667 97.6236 21.3805 97.0523 21.5083C96.7493 21.575 96.4516 21.6639 96.146 21.7055C95.952 21.7333 95.7474 21.7083 95.5534 21.6805C95.3355 21.6472 95.1468 21.6861 94.9554 21.8083C94.7295 21.9528 94.6073 22.1278 94.5648 22.4056C94.4478 23.1556 94.3017 23.9 94.1768 24.6472C94.1209 24.9861 94.097 25.3333 94.0545 25.675C94.0253 25.9028 93.9854 26.1305 93.9509 26.3555C93.8924 26.7333 93.6346 26.9361 93.313 26.9555C92.7656 26.9889 92.2075 26.9805 91.66 26.9305C91.2667 26.8944 91.2056 26.7667 91.2268 26.35C91.2322 26.2361 91.2454 26.1139 91.2906 26.0139C91.5484 25.425 91.5883 24.7861 91.6733 24.1611C91.7451 23.625 91.8035 23.0972 91.9391 22.5667C92.1065 21.9028 92.1623 21.2055 92.2713 20.525C92.4148 19.6389 92.4972 18.7361 92.7231 17.8722C92.9729 16.9194 93.0234 15.9417 93.1881 14.9805C93.22 14.8 93.2732 14.6222 93.3104 14.4444C93.3848 14.0972 93.4858 13.7528 93.5203 13.4C93.5841 12.7528 93.8392 12.6861 94.2963 12.6C94.3389 12.5917 94.384 12.5944 94.4292 12.5944C95.4896 12.5944 96.5526 12.5944 97.613 12.5944C98.1259 12.5944 98.6149 12.7611 99.0189 13.05C99.3776 13.3055 99.7311 13.6167 99.8241 14.1361C99.9145 14.6417 100.17 15.1139 100.154 15.6583L100.156 15.6667ZM97.4536 15.8278C97.5094 15.2805 97.3472 14.875 96.8423 14.6139C96.4623 14.4194 96.1088 14.4944 95.9467 14.8917C95.8989 15.0083 95.8723 15.1305 95.8431 15.2528C95.8059 15.4083 95.7979 15.575 95.7447 15.725C95.5055 16.3917 95.4737 17.0972 95.3966 17.7944C95.3514 18.1972 95.3169 18.5944 95.1229 18.9583C95.0112 19.1667 95.0644 19.3667 95.1946 19.5389C95.3275 19.7111 95.5268 19.7861 95.7288 19.7583C96.2922 19.6805 96.829 19.1444 96.9725 18.5583C97.0204 18.3583 97.0842 18.1611 97.1373 17.9639C97.2117 17.7 97.3154 17.4417 97.3499 17.1722C97.4057 16.7278 97.419 16.2778 97.4482 15.8305L97.4536 15.8278Z" fill="#E7EBFF" fill-opacity="0.498"/>
<path d="M103.606 24.0306C103.664 23.2972 103.709 22.5611 103.781 21.8278C103.805 21.5778 103.893 21.3361 103.946 21.0917C104.039 20.6667 104.137 20.2389 104.217 19.8111C104.267 19.5389 104.307 19.2667 104.475 19.0361C104.507 18.9917 104.533 18.9361 104.544 18.8806C104.639 18.3833 104.897 17.9639 105.16 17.5583C105.503 17.0333 105.891 16.5417 106.518 16.3528C106.603 16.3278 106.683 16.2889 106.763 16.25C107.305 15.9833 107.831 16.0139 108.344 16.3417C108.57 16.4861 108.809 16.6083 109.04 16.7444C109.173 16.8222 109.293 16.8194 109.397 16.6972C109.654 16.4 110.013 16.35 110.359 16.2861C110.563 16.25 110.778 16.2444 110.986 16.2667C111.119 16.2806 111.254 16.3528 111.368 16.4278C111.544 16.5472 111.56 16.7111 111.517 16.9361C111.403 17.5222 111.345 18.1194 111.252 18.7111C111.095 19.7111 110.991 20.725 110.752 21.7056C110.569 22.4611 110.521 23.2278 110.38 23.9833C110.324 24.2889 110.279 24.5972 110.223 24.9028C110.189 25.0917 110.22 25.2611 110.303 25.4333C110.659 26.1667 110.263 26.9389 109.474 27.0333C109.157 27.0722 108.833 27.0472 108.514 27.05C108.28 27.05 108.089 26.95 107.916 26.7917C107.826 26.7111 107.728 26.6333 107.621 26.5778C107.39 26.4611 107.172 26.4694 106.991 26.6889C106.803 26.9167 106.532 26.9556 106.274 27.0083C105.835 27.1 105.392 27.0806 104.958 26.9639C104.584 26.8611 104.352 26.5611 104.121 26.2639C104.113 26.2556 104.113 26.2417 104.105 26.2333C103.667 25.7194 103.656 25.0833 103.635 24.45C103.63 24.3111 103.635 24.1722 103.635 24.0361C103.624 24.0361 103.614 24.0361 103.603 24.0361L103.606 24.0306ZM106.141 23.6222C106.141 23.8056 106.133 23.9917 106.141 24.175C106.162 24.5528 106.346 24.8278 106.657 25.0055C107.055 25.2333 107.518 25.0528 107.627 24.6389C107.853 23.7833 108.033 22.9194 108.097 22.0306C108.121 21.7111 108.198 21.3972 108.254 21.0806C108.389 20.3111 108.538 19.5444 108.655 18.7722C108.695 18.5056 108.546 18.275 108.336 18.1278C108.153 18 107.924 18.0611 107.77 18.1722C107.491 18.375 107.199 18.6028 107.084 18.95C106.909 19.4806 106.675 19.9917 106.609 20.5611C106.548 21.075 106.484 21.5944 106.354 22.0917C106.223 22.5972 106.136 23.1 106.136 23.6222H106.141Z" fill="#E7EBFF" fill-opacity="0.498"/>
<path d="M122.536 23.5778C122.56 23.0944 122.573 22.6111 122.61 22.1278C122.629 21.9 122.684 21.675 122.735 21.45C122.825 21.0472 122.937 20.6472 123.017 20.2416C123.08 19.9139 123.142 19.5889 123.306 19.2916C123.383 19.1528 123.41 18.9889 123.479 18.8416C123.569 18.6472 123.676 18.4611 123.777 18.2722C123.798 18.2333 123.841 18.2 123.851 18.1583C123.957 17.7389 124.255 17.4528 124.518 17.1528C124.71 16.9361 124.93 16.7055 125.183 16.5916C125.818 16.3055 126.453 15.9666 127.181 16.0528C127.42 16.0805 127.662 16.125 127.888 16.2083C128.292 16.3583 128.712 16.4861 129.012 16.8416C129.105 16.9528 129.198 17.0666 129.283 17.1861C129.905 18.0583 129.841 19.075 129.807 20.075C129.788 20.625 129.706 21.1778 129.634 21.725C129.602 21.975 129.52 22.2166 129.461 22.4639C129.395 22.7333 129.32 22.9972 129.267 23.2694C129.201 23.5972 129.145 23.9278 128.93 24.1944C128.917 24.2111 128.903 24.2333 128.898 24.2555C128.8 24.7805 128.494 25.1972 128.212 25.6194C128 25.9389 127.75 26.2305 127.415 26.425C127.319 26.4805 127.213 26.5278 127.131 26.6028C126.87 26.8416 126.565 26.975 126.227 26.9944C125.709 27.025 125.183 27.0833 124.675 27.0166C123.854 26.9055 123.266 26.4083 122.926 25.6055C122.865 25.4583 122.743 25.3361 122.703 25.1861C122.634 24.9333 122.589 24.6694 122.565 24.4083C122.541 24.1333 122.56 23.8555 122.56 23.5778C122.552 23.5778 122.544 23.5778 122.536 23.5778ZM125.002 23.875C125.002 24.0361 124.999 24.2666 125.002 24.4972C125.005 24.6889 125.106 24.8139 125.26 24.9083C125.674 25.1639 126.142 25.0139 126.325 24.5528C126.413 24.3305 126.461 24.0861 126.565 23.875C126.724 23.55 126.812 23.2139 126.857 22.8555C126.921 22.3778 126.987 21.9 127.064 21.425C127.131 21.0166 127.24 20.6166 127.29 20.2083C127.343 19.7639 127.354 19.3139 127.38 18.8666C127.394 18.6416 127.298 18.4639 127.144 18.3194C126.987 18.1694 126.647 18.075 126.533 18.1778C126.278 18.4083 125.967 18.5972 125.876 18.975C125.709 19.6889 125.539 20.4028 125.387 21.1222C125.3 21.5361 125.281 21.9694 125.183 22.3805C125.068 22.8528 124.962 23.3194 124.997 23.8778L125.002 23.875Z" fill="#E7EBFF" fill-opacity="0.498"/>
<path d="M56.0909 27.1111C55.6896 27.0444 55.2697 27.0306 54.8897 26.9C54.5097 26.7694 54.1615 26.525 53.9356 26.15C53.9117 26.1111 53.8958 26.0639 53.8612 26.0361C53.5503 25.775 53.4892 25.3944 53.428 25.0194C53.3643 24.6333 53.2978 24.2444 53.2712 23.8556C53.2526 23.5944 53.2872 23.3278 53.3164 23.0639C53.3935 22.3083 53.4785 21.5528 53.5609 20.7972C53.5609 20.7861 53.5609 20.775 53.5662 20.7639C53.7602 20.1417 53.917 19.5056 54.1376 18.9C54.3555 18.3 54.6877 17.7167 55.1395 17.2528C55.4824 16.9 55.8358 16.5417 56.3328 16.4111C56.5135 16.3639 56.6862 16.275 56.8616 16.2111C57.4915 15.9833 58.116 15.9611 58.7299 16.2667C58.7804 16.2917 58.8309 16.3222 58.8841 16.3333C59.3996 16.4417 59.7026 16.85 60.0295 17.225C60.08 17.2833 60.1172 17.3583 60.1437 17.4333C60.4919 18.4056 60.7151 19.3917 60.5211 20.4417C60.3803 21.2 60.2819 21.9667 60.1464 22.725C60.1065 22.9472 60.0029 23.1556 59.9311 23.3694C59.862 23.575 59.8089 23.7861 59.7318 23.9889C59.6441 24.2222 59.5458 24.4528 59.4448 24.6806C59.4076 24.7639 59.3465 24.8361 59.3172 24.9222C59.0967 25.5389 58.6635 25.9917 58.1957 26.3889C57.635 26.8667 56.9733 27.1167 56.2318 27.0611C56.1866 27.0583 56.1441 27.0611 56.0989 27.0611L56.0909 27.1111ZM55.7215 23.7778C55.7375 23.7778 55.7561 23.7806 55.772 23.7833C55.772 24.025 55.7694 24.2667 55.772 24.5083C55.7773 24.7639 55.889 24.9778 56.1255 25.0361C56.37 25.0972 56.665 25.1111 56.8218 24.8528C57.0078 24.5444 57.2257 24.2528 57.3081 23.8806C57.4277 23.3417 57.5712 22.8111 57.7014 22.275C57.7307 22.1528 57.7466 22.025 57.7599 21.9C57.8423 21.1806 57.9326 20.4611 58.0017 19.7389C58.031 19.4222 58.0496 19.0944 58.0124 18.7778C57.9778 18.4917 57.8237 18.1778 57.5473 18.1278C57.2682 18.0778 56.9972 18.2611 56.8297 18.5361C56.8005 18.5833 56.7793 18.6389 56.7527 18.6889C56.7022 18.7778 56.6411 18.8611 56.5985 18.9556C56.5348 19.1 56.4577 19.2417 56.4285 19.3944C56.3168 19.9917 56.2849 20.6083 56.0458 21.1778C56.0112 21.2611 55.9953 21.3556 55.9846 21.4472C55.8943 22.225 55.8092 23.0028 55.7215 23.7778Z" fill="#E7EBFF" fill-opacity="0.498"/>
<path d="M72.8762 21.925C72.4882 21.925 72.1029 21.9222 71.7149 21.925C71.5607 21.925 71.4039 21.9361 71.2524 21.9555C71.0584 21.9805 70.9229 22.0972 70.8777 22.2944C70.8299 22.4944 70.7953 22.7 70.7634 22.9055C70.7183 23.2 70.6997 23.5028 70.6306 23.7917C70.5535 24.1028 70.6093 24.3861 70.7076 24.6694C70.8751 25.1555 71.4624 25.3028 71.8185 24.9361C72.063 24.6833 72.257 24.3972 72.3102 24.0194C72.3766 23.5472 72.4616 23.4778 72.9108 23.4555C73.2297 23.4389 73.5513 23.4444 73.8728 23.4472C73.9605 23.4472 74.0482 23.4722 74.1333 23.4917C74.6356 23.5972 74.6169 23.9944 74.4761 24.3722C74.4017 24.575 74.2927 24.7639 74.2316 24.9694C74.0535 25.5667 73.6735 26.0083 73.2297 26.3917C73.0357 26.5583 72.8151 26.7055 72.5839 26.8083C72.3527 26.9111 72.1002 26.9805 71.8504 27.0083C71.1674 27.0861 70.4764 27.1361 69.8147 26.8917C69.4612 26.7611 69.1609 26.5222 68.9085 26.225C68.8367 26.1389 68.7623 26.0528 68.6959 25.9611C68.6321 25.8694 68.5444 25.7778 68.5205 25.675C68.3902 25.1167 68.2414 24.5583 68.1723 23.9917C68.1218 23.5861 68.1643 23.1639 68.2122 22.7528C68.2892 22.0778 68.4088 21.4083 68.5019 20.7361C68.5444 20.4361 68.6214 20.1583 68.7517 19.8833C68.8633 19.65 68.9164 19.3833 68.9829 19.1278C69.044 18.8944 69.0865 18.6528 69.2726 18.4805C69.3044 18.45 69.331 18.4083 69.3443 18.3667C69.4745 17.9194 69.7801 17.5833 70.0698 17.2611C70.3887 16.9055 70.7369 16.55 71.2232 16.4194C71.372 16.3778 71.5235 16.3305 71.6617 16.2611C72.0524 16.0611 72.4723 16 72.8922 16.0583C73.6522 16.1611 74.322 16.4167 74.8163 17.1139C75.1511 17.5833 75.2574 18.075 75.2813 18.6222C75.3106 19.2944 75.2335 19.9555 75.1431 20.6194C75.09 20.9944 74.9279 21.3194 74.7737 21.65C74.6781 21.8583 74.4974 21.9333 74.2794 21.9305C73.8144 21.925 73.3493 21.9305 72.8869 21.9305V21.925H72.8762ZM72.0285 20.525C72.0285 20.525 72.0285 20.5333 72.0285 20.5361C72.1268 20.5305 72.2278 20.5305 72.3261 20.5222C72.6955 20.4917 72.8045 20.3944 72.9055 20.0278C72.9613 19.8278 73.0224 19.6333 73.0835 19.4361C73.2137 19.0083 73.2111 18.6194 72.8842 18.2555C72.5919 17.9333 72.2145 17.9167 71.9248 18.25C71.481 18.7611 71.2976 19.375 71.2498 20.0444C71.2312 20.2833 71.3906 20.4861 71.6325 20.5194C71.7627 20.5389 71.8956 20.5222 72.0285 20.5222V20.525Z" fill="#E7EBFF" fill-opacity="0.498"/>
<path d="M43.0847 21.9222C42.6754 21.9222 42.2662 21.9139 41.8569 21.9277C41.6948 21.9333 41.5274 21.9694 41.3732 22.0194C41.1819 22.0833 41.0464 22.2305 41.0224 22.4416C40.9374 23.1472 40.7726 23.85 40.8763 24.5694C40.9427 25.0361 41.4264 25.2777 41.8303 25.0722C42.1625 24.9027 42.3778 24.6555 42.4363 24.2694C42.4442 24.225 42.4575 24.1805 42.4708 24.1361C42.5984 23.65 42.7685 23.4722 43.2495 23.4416C43.6322 23.4166 44.0202 23.45 44.4055 23.4833C44.6421 23.5055 44.7271 23.625 44.7457 23.8722C44.7696 24.2139 44.7244 24.5389 44.5304 24.8277C44.4932 24.8833 44.4507 24.9444 44.4374 25.0083C44.3232 25.5139 43.9697 25.8583 43.6853 26.2472C43.672 26.2666 43.6588 26.2861 43.6402 26.2972C43.1007 26.5972 42.6117 27.0389 41.9526 27.0333C41.4131 27.0305 40.871 27.0166 40.3315 26.9805C40.0524 26.9611 39.8239 26.7972 39.5927 26.625C39.2764 26.3944 39.0558 26.1111 38.8645 25.7639C38.7236 25.5083 38.612 25.2639 38.5589 24.975C38.3516 23.8694 38.4472 22.7694 38.5961 21.6722C38.6412 21.3333 38.7529 21.0055 38.8299 20.6694C38.8831 20.4333 38.9336 20.1972 38.9788 19.9611C39.0479 19.5889 39.0983 19.2083 39.3561 18.9083C39.3854 18.875 39.4093 18.8277 39.4146 18.7861C39.4784 18.2944 39.7813 17.9305 40.0551 17.5639C40.2544 17.2944 40.5255 17.0833 40.762 16.8472C41.1633 16.4472 41.6948 16.3305 42.1918 16.1583C42.7339 15.9722 43.3 15.9639 43.8395 16.2389C43.9272 16.2833 44.0202 16.3277 44.1159 16.3527C44.5411 16.4527 44.7962 16.8027 45.0965 17.0833C45.1204 17.1055 45.147 17.1361 45.155 17.1666C45.3118 17.75 45.6333 18.2916 45.6014 18.925C45.5882 19.1666 45.5616 19.4055 45.5191 19.6444C45.4314 20.1305 45.3118 20.6111 45.232 21.0972C45.1443 21.6361 45.0593 21.9333 44.2833 21.9333C43.8847 21.9333 43.486 21.9333 43.09 21.9333V21.9222H43.0847ZM43.3531 19.1472C43.3531 19.1472 43.3691 19.1416 43.3771 19.1416C43.3398 18.8944 43.3319 18.6361 43.2601 18.4C43.1724 18.1111 42.7818 17.9055 42.5319 18.025C42.221 18.175 41.934 18.3722 41.833 18.7583C41.7878 18.9333 41.7294 19.1139 41.6363 19.2666C41.4822 19.525 41.4636 19.8111 41.4423 20.0972C41.429 20.2777 41.5486 20.4527 41.7214 20.4722C42.027 20.5055 42.3406 20.5389 42.6436 20.5C43.0688 20.4444 43.2335 20.2389 43.3 19.8C43.3319 19.5833 43.3345 19.3639 43.3505 19.1472H43.3531Z" fill="#E7EBFF" fill-opacity="0.498"/>
<path d="M118.791 26.9889C118.56 26.9889 118.326 26.9973 118.095 26.9889C117.765 26.975 117.609 26.8334 117.641 26.4945C117.694 25.9334 117.739 25.3611 117.89 24.825C118.084 24.1417 118.114 23.4389 118.223 22.7473C118.281 22.3834 118.374 22.0278 118.432 21.6667C118.547 20.95 118.645 20.2334 118.754 19.5167C118.783 19.325 118.844 19.1389 118.879 18.95C118.914 18.75 118.945 18.5473 118.956 18.3445C118.964 18.1861 118.868 18.0889 118.725 18.0473C118.64 18.0223 118.552 18.0028 118.47 17.9723C118.207 17.8778 118.095 17.725 118.092 17.4361C118.092 17.2417 118.092 17.0445 118.114 16.85C118.143 16.5528 118.286 16.4111 118.56 16.3278C118.759 16.2695 118.953 16.1861 119.145 16.0973C119.389 15.9834 119.498 15.7639 119.525 15.4917C119.551 15.2056 119.602 14.9195 119.615 14.6334C119.647 13.9056 119.947 13.2528 120.123 12.5639C120.16 12.4139 120.272 12.2861 120.351 12.15C120.375 12.1111 120.42 12.0861 120.439 12.0473C120.628 11.6611 120.978 11.4556 121.284 11.1973C121.972 10.6139 122.759 10.4306 123.617 10.5556C123.825 10.5861 124.035 10.7139 124.205 10.8528C124.311 10.9389 124.399 11.1278 124.396 11.2667C124.393 11.6556 124.359 12.05 124.298 12.4361C124.247 12.7639 123.923 12.9306 123.538 12.8473C123.317 12.8 123.105 12.7861 122.884 12.8473C122.669 12.9084 122.536 13.0334 122.485 13.2584C122.326 14 122.158 14.7389 122.01 15.4834C121.983 15.6195 122.004 15.7806 122.047 15.9195C122.14 16.2278 122.19 16.2639 122.501 16.2584C122.746 16.2528 122.958 16.325 123.152 16.4695C123.283 16.5667 123.346 16.6889 123.288 16.8556C123.195 17.1278 123.12 17.4056 123.004 17.6667C122.916 17.8667 122.735 17.9639 122.517 17.9723C122.363 17.9778 122.209 17.9945 122.055 18.0084C121.76 18.0334 121.595 18.2056 121.537 18.5028C121.529 18.5473 121.513 18.5917 121.507 18.6361C121.324 19.7723 121.146 20.9084 120.957 22.0417C120.901 22.3695 120.816 22.6917 120.747 23.0167C120.699 23.2417 120.633 23.4667 120.622 23.6945C120.577 24.6806 120.391 25.6361 120.093 26.5723C120.016 26.8111 119.894 26.95 119.652 26.9639C119.365 26.9806 119.078 26.9945 118.791 27.0084V26.9917V26.9889Z" fill="#E7EBFF" fill-opacity="0.498"/>
<path d="M45.8592 23.4417C45.8406 22.7917 45.8937 22.1 46.1196 21.4195C46.2419 21.0528 46.2684 20.6528 46.3243 20.2667C46.3668 19.9917 46.4066 19.7195 46.5714 19.4889C46.6033 19.4445 46.6325 19.3889 46.6405 19.3334C46.7229 18.7806 47.0152 18.3278 47.2943 17.8778C47.5122 17.5278 47.7779 17.2139 48.0836 16.925C48.4795 16.5445 48.9606 16.4 49.4336 16.2223C50.0927 15.9778 50.7518 15.9528 51.3949 16.3028C51.6261 16.4306 51.8866 16.4778 52.0965 16.675C52.6706 17.2139 52.9709 17.8695 52.9735 18.675C52.9735 18.9528 52.9735 19.2278 52.9576 19.5056C52.923 20.1111 52.5775 20.4639 52.0008 20.4723C51.6713 20.4778 51.3364 20.4723 51.0069 20.4361C50.6827 20.4 50.6083 20.2889 50.6295 19.9556C50.6428 19.7389 50.6827 19.5223 50.7066 19.3056C50.7491 18.9306 50.7544 18.5667 50.4462 18.2861C50.2282 18.0861 49.9492 18.0778 49.7286 18.275C49.3672 18.6 49.1333 18.9806 49.027 19.4889C48.841 20.3695 48.6603 21.2445 48.5566 22.1389C48.5221 22.4473 48.4211 22.7445 48.3732 23.05C48.3148 23.425 48.2669 23.8028 48.2483 24.1806C48.2404 24.3334 48.2935 24.5028 48.36 24.6417C48.4742 24.8834 48.6815 25.0417 48.942 25.0361C49.2237 25.0306 49.4894 24.9528 49.6223 24.6361C49.71 24.425 49.8296 24.2278 49.912 24.0139C49.9784 23.8445 50.0103 23.6639 50.0528 23.4861C50.0688 23.4195 50.0608 23.3473 50.0741 23.2806C50.1512 22.85 50.3292 22.6445 50.7465 22.6C51.076 22.5667 51.4109 22.5723 51.7404 22.5917C52.0008 22.6084 52.1842 22.7861 52.3224 23.0056C52.4101 23.1417 52.4075 23.3 52.3224 23.4334C52.1045 23.7834 52.0593 24.1861 51.9663 24.5778C51.9317 24.7278 51.8414 24.8639 51.767 25.0028C51.7351 25.0611 51.6686 25.1056 51.6474 25.1667C51.5065 25.5806 51.1983 25.8723 50.9405 26.2C50.9192 26.2278 50.9033 26.2639 50.8767 26.2778C50.3877 26.5306 49.9944 26.9806 49.4044 27.025C48.8516 27.0667 48.3041 27.1 47.754 26.9723C47.3341 26.875 47.0285 26.5945 46.7176 26.3278C46.4492 26.0973 46.2419 25.8139 46.1781 25.4389C46.1754 25.4167 46.1675 25.3917 46.1568 25.375C45.8034 24.7945 45.8406 24.1417 45.8485 23.4389L45.8592 23.4417Z" fill="#E7EBFF" fill-opacity="0.498"/>
<path d="M63.4524 26.9722C63.1866 26.9722 62.9208 26.9889 62.6577 26.9667C62.3123 26.9389 62.2405 26.8528 62.1927 26.5056C62.1714 26.3472 62.1501 26.1861 62.1501 26.025C62.1342 24.9278 62.0598 23.8389 61.9402 22.75C61.8472 21.9139 61.81 21.0722 61.7568 20.2334C61.6984 19.2889 61.6532 18.3473 61.6027 17.4028C61.5947 17.2417 61.5921 17.0806 61.5974 16.9195C61.608 16.5584 61.794 16.3084 62.1289 16.2889C62.6471 16.2611 63.168 16.2667 63.6862 16.2834C63.9148 16.2889 64.0849 16.5084 64.1088 16.7806C64.1221 16.9278 64.1114 17.0806 64.1088 17.2306C64.0689 18.8889 64.0291 20.55 63.9918 22.2084C63.9918 22.3111 63.9919 22.4167 64.0078 22.5195C64.0264 22.6445 64.1008 22.7306 64.2257 22.7445C64.3613 22.7611 64.4277 22.6722 64.4543 22.5472C64.5234 22.2222 64.5818 21.8917 64.6642 21.5695C64.7147 21.3723 64.7998 21.1834 64.8635 20.9917C64.9486 20.7445 65.031 20.4945 65.108 20.2445C65.1931 19.9722 65.2728 19.6973 65.3578 19.425C65.419 19.2278 65.4828 19.0306 65.5492 18.8361C65.6555 18.5222 65.7698 18.2111 65.8681 17.8945C65.9372 17.6778 65.9957 17.4528 66.0382 17.2306C66.1684 16.5695 66.4926 16.2778 67.1358 16.2667C67.4573 16.2611 67.7789 16.2528 68.0978 16.2667C68.2599 16.2723 68.43 16.3056 68.5815 16.3667C68.8233 16.4639 68.911 16.6723 68.7702 16.8917C68.539 17.2556 68.4832 17.6917 68.3051 18.0611C68.1005 18.4861 67.9676 18.9306 67.7816 19.3528C67.6301 19.6972 67.5105 20.0584 67.351 20.3917C67.1517 20.8056 66.9816 21.225 66.8674 21.6695C66.8541 21.7223 66.8275 21.7806 66.7903 21.8195C66.6016 22.0195 66.5378 22.275 66.4847 22.5361C66.4342 22.7861 66.3385 23.0111 66.1923 23.225C66.0913 23.3695 66.0408 23.5556 65.9904 23.7306C65.9213 23.975 65.8654 24.2167 65.7113 24.425C65.6342 24.5306 65.6023 24.675 65.5598 24.8056C65.4642 25.1 65.3897 25.3973 65.2064 25.6556C65.1266 25.7695 65.1001 25.9334 65.0735 26.0778C65.0044 26.4473 64.7679 26.6861 64.4941 26.8889C64.4011 26.9556 64.2682 26.9778 64.1513 26.9861C63.9201 27 63.6862 26.9917 63.455 26.9917C63.455 26.9861 63.455 26.9806 63.455 26.975L63.4524 26.9722Z" fill="#E7EBFF" fill-opacity="0.498"/>
<path d="M100.454 26.9889C100.223 26.9889 99.9888 26.9972 99.7576 26.9889C99.4467 26.975 99.2925 26.8389 99.3191 26.5139C99.3643 25.9416 99.4041 25.3583 99.5477 24.8083C99.7363 24.0916 99.8134 23.3639 99.9064 22.6333C99.9489 22.2916 100.029 21.9555 100.092 21.6194C100.162 21.2472 100.233 20.875 100.302 20.5028C100.427 19.8111 100.55 19.1222 100.672 18.4305C100.714 18.1916 100.773 17.9555 100.791 17.7166C100.845 17.1055 100.93 16.5055 101.116 15.9222C101.179 15.7194 101.174 15.4916 101.198 15.2722C101.288 14.4944 101.371 13.7194 101.599 12.9639C101.7 12.6278 101.708 12.2611 101.759 11.9083C101.775 11.7944 101.785 11.6805 101.796 11.5666C101.854 11.0361 102.288 10.8361 102.654 10.8222C102.987 10.8083 103.319 10.8222 103.648 10.8166C104.066 10.8083 104.491 11.0583 104.345 11.6472C104.156 12.4 104.182 13.1805 104.018 13.9333C104.002 14 103.999 14.0722 103.975 14.1361C103.701 14.925 103.654 15.7583 103.563 16.5805C103.542 16.775 103.529 16.9778 103.465 17.1555C103.22 17.8222 103.21 18.5333 103.088 19.2222C103.008 19.6639 102.923 20.1028 102.848 20.5444C102.771 20.9972 102.71 21.4555 102.63 21.9083C102.575 22.225 102.503 22.5389 102.436 22.8528C102.394 23.0555 102.338 23.2555 102.312 23.4611C102.248 23.9389 102.226 24.425 102.139 24.9C102.032 25.475 101.881 26.0444 101.745 26.6139C101.69 26.8444 101.533 26.9639 101.312 26.975C101.025 26.9861 100.738 26.9778 100.451 26.9778C100.451 26.9833 100.451 26.9916 100.451 26.9972L100.454 26.9889Z" fill="#E7EBFF" fill-opacity="0.498"/>
<path d="M113.915 27.0639C113.519 27.0639 113.115 27.0945 112.751 26.8778C112.703 26.85 112.647 26.8306 112.604 26.7973C112.214 26.475 111.953 25.6417 112.11 25.1334C112.331 24.425 112.386 23.6889 112.463 22.9584C112.49 22.7195 112.511 22.4723 112.583 22.2445C112.804 21.5473 112.841 20.8195 112.968 20.1056C113.04 19.7111 113.136 19.3195 113.216 18.9278C113.24 18.8167 113.255 18.7 113.255 18.5861C113.255 18.15 113.192 18.075 112.785 17.9834C112.437 17.9056 112.349 17.7834 112.37 17.4084C112.381 17.2361 112.384 17.0639 112.394 16.8917C112.421 16.5556 112.503 16.45 112.806 16.3472C112.995 16.2834 113.181 16.2111 113.37 16.1445C113.646 16.0472 113.766 15.8389 113.79 15.5445C113.824 15.1417 113.875 14.7445 113.907 14.3417C113.922 14.1667 113.997 14.0389 114.132 13.9417C114.223 13.875 114.297 13.7861 114.393 13.7306C114.505 13.6667 114.629 13.5972 114.752 13.5889C115.116 13.5695 115.48 13.5778 115.847 13.5806C115.934 13.5806 116.022 13.6 116.107 13.625C116.58 13.7695 116.705 14.0167 116.556 14.5111C116.476 14.775 116.383 15.0334 116.306 15.3C116.272 15.4195 116.24 15.5472 116.24 15.6722C116.243 16.025 116.399 16.1972 116.734 16.2445C116.92 16.2695 117.109 16.2778 117.292 16.3195C117.55 16.3778 117.68 16.5806 117.662 16.85C117.63 17.2695 117.42 17.5889 117.12 17.8417C117.011 17.9334 116.838 17.9667 116.692 17.9722C115.982 18.0028 115.799 18.1722 115.714 18.9056C115.666 19.3167 115.623 19.7306 115.576 20.1417C115.562 20.2556 115.554 20.375 115.517 20.4806C115.304 21.1195 115.281 21.7917 115.164 22.4472C115.108 22.7528 115.031 23.0528 114.978 23.3584C114.908 23.7445 114.842 24.1306 114.797 24.5167C114.754 24.8639 114.914 25.0695 115.251 25.1056C115.413 25.1222 115.581 25.0973 115.743 25.0723C116.115 25.0195 116.237 25.1167 116.235 25.5056C116.235 25.6778 116.205 25.8472 116.181 26.0195C116.155 26.2167 116.057 26.3611 115.878 26.4417C115.828 26.4639 115.772 26.4889 115.738 26.5278C115.32 26.9972 114.77 27.0361 114.212 27.0556C114.114 27.0584 114.013 27.0556 113.915 27.0556V27.0639Z" fill="#E7EBFF" fill-opacity="0.498"/>
<path d="M75.2893 26.2305C75.3238 26.0361 75.3796 25.7083 75.4381 25.3805C75.5444 24.7917 75.6507 24.2028 75.7597 23.6166C75.8367 23.2111 75.9351 22.8083 75.9988 22.4C76.0972 21.775 76.1743 21.1472 76.2673 20.5194C76.2965 20.3139 76.3204 20.1028 76.3869 19.9111C76.5729 19.3722 76.6127 18.8111 76.6686 18.2472C76.7164 17.7805 76.7244 17.3 76.9131 16.8583C77.0725 16.4833 77.317 16.2389 77.7475 16.2528C78.0346 16.2639 78.3296 16.2333 78.5927 16.3805C78.7548 16.4694 78.9142 16.5778 79.0498 16.7055C79.257 16.9055 79.3474 16.9389 79.6105 16.8222C79.6796 16.7916 79.7514 16.7528 79.8098 16.7028C80.1633 16.4055 80.5885 16.3333 81.0164 16.2722C81.306 16.2305 81.4974 16.4139 81.6728 16.6055C81.8004 16.7444 81.7126 16.9139 81.6834 17.0666C81.617 17.4389 81.5372 17.8111 81.4708 18.1833C81.4469 18.3194 81.4575 18.4611 81.4363 18.5972C81.3937 18.8833 81.2848 18.9778 81.011 18.9555C80.8675 18.9444 80.724 18.9222 80.5858 18.8805C80.2616 18.7833 79.9507 18.8444 79.6424 18.9555C79.2703 19.0889 79.0471 19.3694 79.0152 19.7694C78.9753 20.2916 78.8345 20.7833 78.7176 21.2889C78.59 21.8333 78.5554 22.4028 78.4677 22.9611C78.4119 23.3222 78.3322 23.6805 78.2631 24.0417C78.2206 24.2555 78.1701 24.4694 78.1382 24.6833C78.0744 25.1166 78.0399 25.5555 77.9575 25.9833C77.9096 26.2278 77.8166 26.4722 77.6944 26.6833C77.6173 26.8166 77.4472 26.9639 77.3117 26.9694C76.7935 26.9944 76.2726 26.9972 75.757 26.95C75.3291 26.9111 75.2813 26.8139 75.2866 26.2305H75.2893Z" fill="#E7EBFF" fill-opacity="0.498"/>
<path d="M131.186 26.9889C131.021 26.9889 130.854 26.9917 130.689 26.9889C130.131 26.975 129.966 26.7639 130.049 26.1778C130.123 25.6417 130.19 25.1056 130.28 24.5722C130.352 24.1528 130.469 23.7444 130.538 23.325C130.631 22.7583 130.687 22.1833 130.772 21.6167C130.822 21.2778 130.907 20.9417 130.966 20.6028C131.083 19.9333 131.189 19.2639 131.303 18.5944C131.37 18.2111 131.441 17.825 131.51 17.4417C131.548 17.2389 131.593 17.0361 131.625 16.8306C131.67 16.5472 131.824 16.3833 132.09 16.3139C132.499 16.2056 132.906 16.225 133.296 16.3778C133.432 16.4306 133.549 16.5583 133.658 16.6694C133.913 16.9306 134.237 16.9528 134.514 16.7139C134.888 16.3917 135.667 16.2 136.071 16.3361C136.339 16.425 136.438 16.55 136.424 16.8417C136.4 17.4556 136.275 18.0528 136.071 18.6278C135.965 18.925 135.824 18.9778 135.529 18.9167C135.313 18.8722 135.093 18.8333 134.875 18.8389C134.37 18.8556 133.995 19.1222 133.743 19.5667C133.679 19.6806 133.658 19.8278 133.644 19.9611C133.578 20.6611 133.498 21.3583 133.275 22.0278C133.203 22.2417 133.19 22.4806 133.166 22.7083C133.089 23.475 133.015 24.2417 132.789 24.9861C132.69 25.3111 132.685 25.6667 132.637 26.0083C132.624 26.1 132.619 26.1917 132.6 26.2833C132.494 26.8222 132.353 26.9528 131.819 26.9833C131.609 26.9972 131.399 26.9833 131.189 26.9833V26.9889H131.186Z" fill="#E7EBFF" fill-opacity="0.498"/>
</svg>
