<svg width="73" height="22" viewBox="0 0 73 22" fill="none" xmlns="http://www.w3.org/2000/svg">
<g clip-path="url(#clip0_16_1368)">
<path d="M13.403 21.946C10.6174 21.946 7.83182 21.9441 5.04624 21.9479C4.59437 21.9479 4.1425 21.9739 3.69063 21.9963C3.41035 22.0111 3.16058 21.9255 2.91463 21.8082C2.76591 21.7375 2.60766 21.6854 2.45895 21.6128C2.31214 21.542 2.16723 21.462 2.02995 21.3745C1.85264 21.2609 1.67723 21.1474 1.52279 21.0003C1.294 20.7825 1.08045 20.5628 0.948896 20.2762C0.945083 20.2687 0.943176 20.2613 0.939363 20.2557C0.718194 19.9839 0.620956 19.6563 0.514185 19.3342C0.487492 19.2542 0.44936 19.1741 0.439827 19.0903C0.390254 18.651 0.350215 18.2136 0.537065 17.7891C0.58473 17.683 0.598077 17.5639 0.641929 17.4578C0.691502 17.3386 0.758234 17.2251 0.819246 17.1096C0.826872 17.0966 0.842125 17.0873 0.849752 17.0743C1.008 16.8099 1.16435 16.5437 1.32641 16.2794C1.48466 16.0225 1.65244 15.7712 1.81451 15.5161C1.84311 15.4696 1.88124 15.4268 1.89649 15.3765C1.94988 15.2127 2.02233 15.0601 2.15961 14.9428C2.17104 14.9335 2.18248 14.9186 2.1863 14.9055C2.25875 14.6226 2.47229 14.4122 2.59241 14.1535C2.62864 14.0771 2.67821 14.0064 2.72587 13.9357C2.74685 13.904 2.78117 13.878 2.80023 13.8463C2.95086 13.5782 3.09957 13.3065 3.2502 13.0365C3.25782 13.0235 3.25973 13.0067 3.26926 12.9937C3.4237 12.7443 3.58004 12.4967 3.73639 12.2472C3.77261 12.1877 3.80884 12.1281 3.84697 12.0685C3.92324 11.9438 3.9995 11.8172 4.07577 11.6925C4.11199 11.6329 4.1425 11.5696 4.17682 11.51C4.24736 11.3909 4.31981 11.2736 4.39227 11.1564C4.39989 11.1433 4.41324 11.1321 4.42087 11.1191C4.57149 10.8492 4.72211 10.5793 4.87274 10.3112C4.91468 10.2367 4.96235 10.1679 5.00811 10.0953C5.05387 10.0227 5.09963 9.95192 5.14538 9.87932C5.21784 9.76204 5.29029 9.6429 5.36274 9.52376C5.37037 9.51073 5.38371 9.49956 5.39134 9.48652C5.54196 9.2166 5.69068 8.94853 5.8394 8.6786C5.85465 8.65068 5.85846 8.61903 5.87562 8.59297C6.02434 8.35841 6.17687 8.12386 6.32559 7.8893C6.37135 7.8167 6.41139 7.74224 6.45524 7.66964C6.51053 7.57656 6.56773 7.48534 6.62683 7.39412C6.65543 7.34758 6.69738 7.30849 6.71645 7.25823C6.78699 7.0758 6.89376 6.91942 7.00625 6.75747C7.17404 6.51732 7.29606 6.2474 7.43906 5.99236C7.47338 5.93093 7.5096 5.87136 7.54583 5.81365C7.61065 5.7094 7.67739 5.6033 7.74221 5.49905C7.80322 5.40038 7.86424 5.30172 7.92525 5.20492C7.95385 5.15838 7.99579 5.11929 8.01486 5.06903C8.08541 4.8959 8.18455 4.74325 8.29132 4.58874C8.46292 4.34115 8.58876 4.06564 8.73557 3.8013C8.7737 3.73428 8.81564 3.66913 8.8595 3.60397C8.87666 3.57791 8.90526 3.55929 8.92051 3.53323C9.07495 3.26517 9.22557 2.9971 9.3781 2.72904C9.42386 2.64899 9.47152 2.56894 9.523 2.49076C9.54779 2.45166 9.58592 2.42002 9.6088 2.37906C9.74989 2.13147 9.87954 1.87458 10.0321 1.63443C10.1408 1.46503 10.2723 1.30866 10.4115 1.1616C10.5774 0.986609 10.749 0.807898 10.9434 0.666419C11.1436 0.519355 11.3648 0.379738 11.5993 0.301552C11.994 0.167519 12.3982 0.0446557 12.8196 0.00742439C13.1322 -0.0204991 13.4373 0.0279016 13.7367 0.106087C13.8968 0.148904 14.0589 0.19172 14.2152 0.247567C14.3544 0.297829 14.4936 0.359261 14.6232 0.43C14.8501 0.554725 15.0865 0.660834 15.2753 0.84513C15.4698 1.03501 15.6833 1.20441 15.8263 1.44455C15.9808 1.70331 16.16 1.94532 16.3259 2.19663C16.3602 2.24875 16.3773 2.30832 16.4078 2.36231C16.4803 2.48889 16.5546 2.61548 16.629 2.74207C16.6652 2.80164 16.7015 2.86121 16.7377 2.92078C16.8025 3.02689 16.8673 3.13113 16.9303 3.23724C16.9741 3.30984 17.0141 3.38617 17.058 3.45877C17.1209 3.56488 17.1876 3.66913 17.2525 3.77524C17.2887 3.83481 17.3345 3.89065 17.3573 3.95581C17.4107 4.11218 17.4851 4.25366 17.609 4.37094C17.6529 4.41189 17.6681 4.47891 17.6986 4.53103C17.773 4.65762 17.8473 4.78234 17.9217 4.90893C17.9541 4.96292 17.9865 5.01504 18.0151 5.06903C18.0323 5.10253 18.0399 5.14349 18.059 5.177C18.2268 5.44506 18.3965 5.71313 18.5642 5.98119C18.5719 5.99423 18.5852 6.00353 18.5928 6.01843C18.7339 6.27532 18.8731 6.53222 19.0123 6.78911C19.0314 6.82262 19.0447 6.85985 19.0657 6.89336C19.222 7.1335 19.3803 7.37178 19.5328 7.61379C19.5824 7.69197 19.6129 7.78133 19.6586 7.86324C19.712 7.95632 19.7711 8.04753 19.8283 8.13875C19.8455 8.16481 19.8722 8.18343 19.8874 8.21135C20.0323 8.47383 20.1715 8.7419 20.3241 9.00066C20.4766 9.25941 20.6444 9.51259 20.8064 9.76576C20.8141 9.77879 20.8293 9.7881 20.8369 9.80113C20.9799 10.0562 21.121 10.3131 21.264 10.5681C21.3174 10.663 21.3746 10.7543 21.4299 10.8473C21.4814 10.933 21.5309 11.0205 21.5824 11.1061C21.6339 11.1917 21.6892 11.2774 21.7426 11.3611C21.7845 11.4263 21.8265 11.4914 21.8684 11.5566C21.9523 11.6943 22.0381 11.8321 22.1201 11.9717C22.1544 12.0313 22.1792 12.0964 22.2154 12.1579C22.2822 12.2714 22.3508 12.3813 22.4194 12.493C22.4366 12.519 22.4614 12.5395 22.4766 12.5674C22.6215 12.8318 22.7417 13.1129 22.919 13.3549C23.1077 13.6136 23.184 13.9338 23.4204 14.1609C23.4471 14.187 23.4681 14.2242 23.4814 14.2596C23.5386 14.4308 23.6378 14.5742 23.7407 14.7231C23.9085 14.9633 24.0343 15.2295 24.1793 15.4864C24.2174 15.5534 24.2555 15.6222 24.2956 15.6874C24.3623 15.7991 24.4309 15.9108 24.4996 16.0243C24.511 16.0448 24.5167 16.069 24.5282 16.0876C24.6902 16.3501 24.8542 16.6126 25.0163 16.8751C25.0563 16.9402 25.0925 17.0091 25.123 17.0799C25.1993 17.2567 25.2737 17.4354 25.348 17.6141C25.369 17.6644 25.3861 17.7165 25.3938 17.7686C25.4681 18.2452 25.5101 18.7311 25.3919 19.1983C25.2946 19.5818 25.1764 19.9709 24.9171 20.2966C24.8027 20.44 24.7188 20.6038 24.5854 20.7416C24.3623 20.9761 24.1144 21.166 23.8437 21.3428C23.3804 21.6481 22.8561 21.7859 22.3279 21.9143C22.2059 21.9441 22.0762 21.9516 21.9504 21.9516C19.1019 21.9534 16.2534 21.9516 13.403 21.9516V21.946ZM13.0083 15.3132C13.8568 15.3132 14.7052 15.3132 15.5537 15.3114C15.6643 15.3114 15.7767 15.3114 15.8854 15.2946C16.038 15.2704 16.0837 15.1922 16.0494 15.0452C16.0399 15.0005 16.0208 14.9558 15.9998 14.9149C15.8225 14.5723 15.5479 14.2838 15.4088 13.9189C15.3954 13.8854 15.3573 13.8612 15.3363 13.8277C15.2791 13.7365 15.2219 13.6434 15.1685 13.5503C15.1342 13.4889 15.1151 13.42 15.0751 13.3642C14.8539 13.0477 14.6671 12.7108 14.4764 12.3738C14.3506 12.1523 14.1961 11.9494 14.1008 11.7111C14.0951 11.6981 14.0798 11.6869 14.0722 11.6739C13.9121 11.4188 13.7462 11.1657 13.5917 10.9088C13.4411 10.6575 13.2981 10.4006 13.1532 10.1455C13.0998 10.0524 13.0312 10.0301 12.9397 10.0953C12.7795 10.2107 12.6327 10.3373 12.5698 10.5346C12.5355 10.6426 12.4783 10.7468 12.4211 10.8473C12.3543 10.9683 12.2762 11.0837 12.2037 11.201C12.1542 11.2792 12.1046 11.3574 12.0569 11.4356C12.0092 11.5138 11.9616 11.5938 11.9139 11.6739C11.8491 11.78 11.7843 11.8842 11.7213 11.9903C11.6737 12.0704 11.6298 12.1504 11.5841 12.2323C11.4411 12.4874 11.3 12.7443 11.157 12.9993C11.1417 13.0254 11.1112 13.044 11.096 13.07C11.0445 13.1464 10.9949 13.2246 10.9473 13.3046C10.8786 13.4163 10.8119 13.5298 10.7452 13.6434C10.7051 13.7104 10.6651 13.7756 10.6269 13.8426C10.4916 14.0846 10.3562 14.3266 10.2189 14.5686C10.1999 14.6021 10.1655 14.6263 10.1388 14.6542C10.1064 14.6877 10.0664 14.7175 10.0416 14.7548C9.95581 14.8907 9.8967 15.0452 9.96343 15.1922C10.0264 15.33 10.1865 15.3151 10.3219 15.3151C11.218 15.3151 12.1141 15.3151 13.0102 15.3151L13.0083 15.3132Z" fill="#E7EBFF" fill-opacity="0.498"/>
<path d="M26.1604 12.8169C26.1604 12.1989 26.1604 11.5808 26.1604 10.9628C26.1604 10.9014 26.1604 10.8381 26.168 10.7785C26.187 10.6594 26.2538 10.5812 26.3853 10.5737C26.4807 10.5681 26.5741 10.5514 26.6694 10.5514C27.2795 10.5551 27.8897 10.5626 28.4998 10.5719C28.6733 10.5737 28.8487 10.5812 29.0222 10.6017C29.2605 10.6277 29.4664 10.7171 29.6724 10.8548C29.8668 10.9851 29.9927 11.1415 30.0937 11.3351C30.1891 11.5157 30.231 11.7018 30.1471 11.8917C30.048 12.1151 29.9679 12.3497 29.7372 12.4967C29.5618 12.6103 29.5694 12.7034 29.7238 12.8542C29.8306 12.9584 29.9431 13.0552 30.0499 13.1576C30.4369 13.528 30.4484 14.2075 30.0728 14.5817C29.9889 14.6655 29.9088 14.7492 29.8192 14.8255C29.7543 14.8795 29.6819 14.9447 29.6037 14.9633C29.2815 15.0434 28.9593 15.1513 28.6332 15.1662C27.9602 15.1979 27.2853 15.1774 26.6122 15.1792C26.6046 15.1792 26.597 15.1792 26.5893 15.1792C26.2423 15.1681 26.1584 15.0843 26.1584 14.7436C26.1584 14.1014 26.1584 13.461 26.1584 12.8188C26.1584 12.8188 26.1604 12.8188 26.1623 12.8188L26.1604 12.8169ZM28.0574 14.3229C28.3377 14.349 28.6008 14.3118 28.8487 14.1572C29.0222 14.0493 29.0985 13.9227 29.0908 13.7216C29.0832 13.5299 28.9803 13.435 28.822 13.3512C28.454 13.1576 28.0594 13.1836 27.6647 13.1948C27.5388 13.1985 27.4626 13.273 27.4168 13.381C27.312 13.636 27.3177 13.8929 27.4187 14.1479C27.4626 14.2596 27.5503 14.3211 27.6742 14.3229C27.8001 14.3266 27.9278 14.3229 28.0555 14.3229H28.0574ZM28.0651 12.4297C28.3434 12.4893 28.6104 12.385 28.8468 12.1747C29.0184 12.0239 29.0279 11.7465 28.843 11.6125C28.6904 11.5008 28.5227 11.4114 28.3225 11.4096C28.1166 11.4096 27.9106 11.4021 27.7047 11.4077C27.5198 11.4133 27.3882 11.5213 27.3596 11.6981C27.3291 11.8824 27.3386 12.0667 27.4168 12.2436C27.4683 12.3608 27.5541 12.4297 27.6895 12.4297C27.8001 12.4297 27.9106 12.4297 28.0651 12.4297Z" fill="#E7EBFF" fill-opacity="0.498"/>
<path d="M50.9675 19.1406C50.9675 18.5375 50.9675 17.9343 50.9675 17.3312C50.9675 17.2549 50.9637 17.1748 50.977 17.1003C51.0018 16.9514 51.0971 16.8732 51.2497 16.8583C51.2573 16.8583 51.2649 16.8583 51.2725 16.8583C52.0409 16.8695 52.8093 16.8807 53.5777 16.8956C53.9781 16.903 54.2984 17.1078 54.6091 17.3237C54.6282 17.3368 54.6473 17.3535 54.6606 17.3703C55.0419 17.8301 55.2116 18.3439 55.0362 18.9247C54.9714 19.1369 54.8513 19.3342 54.7388 19.5297C54.6988 19.5986 54.6168 19.647 54.5462 19.6972C54.4109 19.7922 54.306 19.9057 54.3098 20.077C54.3098 20.1421 54.3308 20.2166 54.367 20.2687C54.571 20.5517 54.7922 20.8216 54.9886 21.1102C55.0419 21.1902 55.042 21.3149 55.0381 21.4173C55.0381 21.4527 54.9523 21.5141 54.9047 21.5141C54.6358 21.5234 54.3651 21.5178 54.0963 21.5141C54.06 21.5141 54.0143 21.4974 53.9876 21.4732C53.8179 21.3149 53.6406 21.1753 53.551 20.9389C53.4614 20.7062 53.2974 20.4977 53.141 20.2967C53.0285 20.1514 52.5633 20.0844 52.4013 20.1738C52.2564 20.2538 52.161 20.3804 52.1591 20.5498C52.1572 20.6969 52.1706 20.8421 52.1839 20.9892C52.2125 21.3112 52.0867 21.4769 51.7606 21.5123C51.589 21.5309 51.4117 21.516 51.2382 21.5178C51.1257 21.5178 51.0552 21.4601 51.0304 21.3596C51.0018 21.2405 50.9694 21.1176 50.9694 20.9966C50.9637 20.3786 50.9675 19.7605 50.9656 19.1406H50.9675ZM52.1629 18.4798C52.1629 18.4798 52.1629 18.4798 52.161 18.4798C52.161 18.6194 52.1534 18.759 52.161 18.8968C52.1744 19.1201 52.3212 19.297 52.5042 19.3044C52.7101 19.3119 52.9218 19.3324 53.1201 19.297C53.5224 19.2244 53.8675 19.081 53.9266 18.6976C53.9933 18.2564 53.8427 17.8319 53.284 17.7817C53.0247 17.7593 52.7616 17.7631 52.5004 17.7686C52.2907 17.7742 52.1706 17.9008 52.1629 18.1093C52.1572 18.2322 52.1629 18.3569 52.1629 18.4798Z" fill="#E7EBFF" fill-opacity="0.498"/>
<path d="M27.6629 16.8304C28.1281 16.8658 28.6009 16.8639 29.0566 16.9477C29.4646 17.0222 29.7888 17.2567 30.0385 17.6141C30.3379 18.0423 30.2978 18.4872 30.2425 18.9489C30.2349 19.0084 30.2101 19.0717 30.1758 19.1201C30.0214 19.3473 29.947 19.6265 29.6667 19.7717C29.518 19.848 29.4951 20.0882 29.5771 20.2557C29.6153 20.332 29.6572 20.4083 29.7087 20.4754C29.8593 20.6727 30.008 20.87 30.172 21.058C30.275 21.1753 30.2635 21.3019 30.2273 21.4285C30.2159 21.4694 30.1339 21.5178 30.0843 21.5197C29.8231 21.5253 29.5619 21.5197 29.2988 21.5123C29.2473 21.5123 29.1786 21.4899 29.15 21.4527C28.9994 21.2591 28.784 21.1102 28.7153 20.8533C28.6505 20.6131 28.4694 20.4419 28.2997 20.2687C28.1739 20.1403 27.7334 20.09 27.5771 20.1794C27.4379 20.2576 27.3597 20.3841 27.354 20.5405C27.3483 20.6876 27.3597 20.8346 27.3635 20.9798C27.3635 21.0413 27.375 21.1046 27.3674 21.1641C27.3426 21.3894 27.2777 21.4713 27.0451 21.4899C26.8335 21.5085 26.62 21.4918 26.4064 21.4881C26.2882 21.4843 26.2119 21.4229 26.1929 21.3075C26.1757 21.2014 26.1528 21.0934 26.1528 20.9873C26.1528 19.7661 26.1547 18.5449 26.1528 17.3219C26.1528 16.9179 26.1929 16.8658 26.6085 16.8546C26.9574 16.8453 27.3063 16.8546 27.6533 16.8546C27.6533 16.8453 27.6533 16.8379 27.6553 16.8286L27.6629 16.8304ZM27.3521 18.4667C27.3521 18.5431 27.3521 18.6212 27.3521 18.6976C27.3521 18.7739 27.3483 18.8521 27.3578 18.9284C27.3845 19.1518 27.4989 19.2933 27.6781 19.2989C27.9146 19.3082 28.1605 19.3342 28.3874 19.284C28.6867 19.2169 28.9937 19.1332 29.1043 18.7702C29.2625 18.2545 28.9823 17.8115 28.4293 17.7742C28.1853 17.7575 27.9393 17.7612 27.6953 17.7668C27.4722 17.7705 27.3674 17.8766 27.3559 18.0963C27.3483 18.2191 27.3559 18.342 27.3559 18.4667H27.3521Z" fill="#E7EBFF" fill-opacity="0.498"/>
<path d="M58.7713 12.8281C58.7713 12.1858 58.7713 11.5455 58.7713 10.9032C58.7713 10.6594 58.8133 10.6091 59.0649 10.57C59.1431 10.5588 59.2232 10.5477 59.3013 10.5495C59.8714 10.5532 60.4434 10.557 61.0135 10.57C61.2423 10.5756 61.4711 10.5998 61.6999 10.6277C61.8753 10.6482 62.0393 10.7059 62.167 10.8362C62.1784 10.8474 62.1899 10.8604 62.2032 10.8641C62.4702 10.9442 62.5865 11.1769 62.7295 11.3761C62.8038 11.4803 62.8496 11.6125 62.8763 11.7372C62.943 12.0518 62.9449 12.3757 62.8477 12.6792C62.7542 12.9714 62.6017 13.2432 62.3272 13.4275C62.1479 13.5466 62.1041 13.7496 62.2109 13.9636C62.2528 14.0455 62.3176 14.1163 62.371 14.1926C62.4377 14.2875 62.5007 14.3843 62.5693 14.4774C62.6246 14.5519 62.6742 14.6338 62.7447 14.6915C62.8744 14.7976 62.8896 14.9205 62.8515 15.0657C62.8229 15.1737 62.7562 15.2165 62.6437 15.209C62.4149 15.1941 62.1861 15.1811 61.9554 15.1737C61.8353 15.1699 61.7437 15.1253 61.6751 15.0285C61.5302 14.8274 61.3567 14.645 61.2823 14.3992C61.2137 14.1759 61.0192 14.0344 60.8514 13.8836C60.8019 13.8389 60.7046 13.837 60.6284 13.8259C60.5578 13.8166 60.4854 13.8222 60.4148 13.8259C60.1193 13.8352 60.003 13.9357 59.9782 14.2298C59.9649 14.3825 59.9858 14.5389 59.9877 14.6934C59.9877 14.7697 59.9935 14.8497 59.9744 14.9223C59.9267 15.1122 59.8619 15.1681 59.6598 15.1718C59.4558 15.1755 59.248 15.1718 59.0459 15.1439C58.8438 15.1141 58.7789 15.0229 58.7713 14.8255C58.7656 14.6785 58.7808 14.5314 58.7808 14.3843C58.7808 13.8668 58.7808 13.3493 58.7808 12.8299C58.7789 12.8299 58.7751 12.8299 58.7732 12.8299L58.7713 12.8281ZM59.9687 12.1784C59.9687 12.318 59.961 12.4576 59.9687 12.5954C59.982 12.8169 60.104 12.9379 60.329 12.9454C60.5502 12.9528 60.7752 12.9621 60.9944 12.9379C61.3395 12.9007 61.6293 12.7871 61.7456 12.4092C61.8562 12.0499 61.6656 11.6311 61.2995 11.512C60.9735 11.4058 60.6398 11.4524 60.308 11.4524C60.0869 11.4524 59.9782 11.5678 59.9668 11.7837C59.961 11.914 59.9668 12.0462 59.9668 12.1784H59.9687Z" fill="#E7EBFF" fill-opacity="0.498"/>
<path d="M42.8625 6.50804C42.8625 5.89745 42.8625 5.28685 42.8625 4.67626C42.8625 4.62228 42.8587 4.56643 42.8663 4.5143C42.893 4.34118 43.0074 4.22948 43.1828 4.23135C43.9207 4.24065 44.6586 4.24624 45.3945 4.27789C45.9322 4.30209 46.3745 4.54967 46.752 4.91826C47.2649 5.42089 47.4804 6.02217 47.406 6.72585C47.3927 6.85616 47.3946 6.99019 47.3622 7.11678C47.3317 7.2415 47.2668 7.35692 47.2154 7.47606C47.2039 7.50398 47.1734 7.52632 47.1658 7.55424C47.0876 7.84651 46.876 8.05501 46.6586 8.23558C46.4508 8.4087 46.2087 8.56135 45.9551 8.65257C45.5528 8.79405 45.1238 8.84989 44.6929 8.85176C44.2334 8.85176 43.772 8.85176 43.3125 8.85176C43.0093 8.85176 42.8816 8.73634 42.8721 8.4329C42.8625 8.10899 42.8682 7.78322 42.8663 7.4593C42.8663 7.14284 42.8663 6.82451 42.8663 6.50804C42.8663 6.50804 42.8644 6.50804 42.8625 6.50804ZM44.0065 6.53783C44.0065 6.53783 44.0008 6.53783 43.9989 6.53783C43.9989 6.85429 44.0065 7.17076 43.997 7.48723C43.9893 7.73295 44.1705 7.96937 44.4221 7.97496C45.0037 7.98985 45.5661 7.93587 45.9436 7.41463C46.0104 7.32155 46.0943 7.22661 46.121 7.1205C46.2754 6.50804 46.2716 5.92723 45.7453 5.45253C45.6119 5.33339 45.4746 5.22728 45.2992 5.20495C45.0018 5.16958 44.7024 5.14165 44.4031 5.14165C44.1476 5.14165 44.0046 5.31664 44.0065 5.56237C44.0065 5.88628 44.0065 6.21019 44.0065 6.5341V6.53783Z" fill="#E7EBFF" fill-opacity="0.498"/>
<path d="M52.9581 12.8095C52.8704 12.3925 53.0744 11.9997 53.288 11.6385C53.4748 11.3239 53.7627 11.0745 54.0964 10.8753C54.8361 10.4341 55.6198 10.4676 56.4148 10.6351C56.7523 10.7059 57.025 10.9181 57.2976 11.1154C57.6065 11.3388 57.7495 11.6851 57.9554 11.9829C57.9897 12.0313 57.9973 12.0983 58.0107 12.1579C58.1022 12.6177 58.1022 13.0794 58.0107 13.5392C57.9935 13.6267 57.9439 13.7105 57.902 13.7924C57.8486 13.8947 57.7743 13.9897 57.7304 14.0958C57.6351 14.3192 57.4368 14.4532 57.2785 14.6226C57.1889 14.7176 57.0669 14.7809 56.9582 14.8572C56.9334 14.8758 56.9086 14.8981 56.88 14.9093C56.3157 15.1104 55.7551 15.3803 55.1355 15.2165C54.7294 15.1104 54.3156 15.0136 53.9572 14.7529C53.736 14.5928 53.532 14.4178 53.3909 14.2056C53.1888 13.9003 52.9753 13.582 52.96 13.1948C52.9562 13.0794 52.96 12.964 52.96 12.8113L52.9581 12.8095ZM54.1517 12.8188C54.1517 13.0738 54.1631 13.2823 54.287 13.4666C54.5006 13.7886 54.7313 14.0921 55.1431 14.1907C55.1507 14.1907 55.1584 14.1982 55.1641 14.2C55.4043 14.3266 55.6445 14.3248 55.8924 14.2094C56.1346 14.0958 56.3958 14.0158 56.5388 13.7644C56.5578 13.7328 56.5998 13.7142 56.6246 13.6844C56.6684 13.6304 56.718 13.5764 56.7447 13.515C56.8972 13.152 56.8915 12.7778 56.8209 12.398C56.7752 12.1486 56.5883 12.0015 56.4282 11.8321C56.3805 11.7819 56.3309 11.7297 56.2737 11.6888C56.2051 11.6385 56.1327 11.5827 56.0526 11.5566C55.574 11.4021 55.1202 11.4096 54.7141 11.7502C54.3652 12.0444 54.1135 12.3832 54.1498 12.8169L54.1517 12.8188Z" fill="#E7EBFF" fill-opacity="0.498"/>
<path d="M42.485 21.5476C42.159 21.5476 41.852 21.4992 41.5374 21.3819C41.1179 21.2274 40.7519 21.0096 40.4716 20.6838C40.2409 20.4158 40.014 20.1291 40.0102 19.7456C40.0102 19.6916 40.0045 19.6358 39.9892 19.5855C39.871 19.1834 39.9377 18.7888 40.0293 18.3941C40.0521 18.2936 40.117 18.1987 40.1684 18.1056C40.1932 18.059 40.2466 18.0218 40.2638 17.9734C40.361 17.6923 40.5917 17.5136 40.8129 17.3516C41.0951 17.1469 41.402 16.9588 41.7643 16.8993C42.302 16.8081 42.8377 16.8099 43.3678 16.944C43.4955 16.9756 43.6118 17.0463 43.7319 17.1041C43.7891 17.1301 43.8387 17.1729 43.8959 17.1971C44.1685 17.307 44.3459 17.5229 44.5442 17.7221C44.8054 17.9846 44.8931 18.3252 45.0094 18.6473C45.1371 19.001 45.1257 19.377 44.996 19.74C44.9445 19.8852 44.8892 20.0304 44.8359 20.1756C44.8187 20.2185 44.8073 20.2669 44.7806 20.3022C44.4488 20.7471 44.1075 21.1827 43.5184 21.3317C43.4803 21.341 43.4402 21.3521 43.4059 21.3708C43.1199 21.5327 42.8072 21.5569 42.485 21.5495V21.5476ZM43.873 19.2151C43.8673 18.9228 43.7853 18.6752 43.6309 18.4239C43.4822 18.1838 43.2839 18.0013 43.0532 17.8952C42.321 17.5583 41.4783 17.9529 41.2152 18.6715C41.0855 19.0289 41.0626 19.3584 41.2304 19.6991C41.2743 19.7884 41.2914 19.8964 41.3525 19.9727C41.5717 20.2594 41.8768 20.4381 42.2085 20.5722C42.2867 20.6038 42.3782 20.6019 42.464 20.6131C42.6833 20.6429 42.8587 20.5312 43.0436 20.4437C43.5699 20.1905 43.7968 19.7512 43.873 19.2151Z" fill="#E7EBFF" fill-opacity="0.498"/>
<path d="M30.3586 6.64208C30.3586 5.96261 30.3586 5.28314 30.3586 4.60367C30.3586 4.35794 30.412 4.28906 30.6599 4.24997C30.7228 4.24066 30.7857 4.22949 30.8486 4.22949C31.5465 4.24066 32.2424 4.25183 32.9402 4.27045C33.0889 4.27417 33.2396 4.30582 33.3864 4.33746C33.5427 4.36911 33.6895 4.42496 33.8039 4.5441C33.8459 4.58877 33.9012 4.62414 33.9584 4.65021C34.0651 4.70047 34.1376 4.77307 34.1776 4.88104C34.1891 4.90896 34.2024 4.93875 34.2253 4.96109C34.496 5.23102 34.4998 5.57168 34.4922 5.91607C34.4865 6.18972 34.4445 6.44476 34.2672 6.67931C34.1319 6.85803 34.048 7.07024 33.8325 7.18566C33.7486 7.23034 33.7219 7.31411 33.7486 7.40719C33.7753 7.50399 33.7753 7.61568 33.8287 7.69573C33.9984 7.94332 34.191 8.17788 34.3683 8.42174C34.4159 8.4869 34.4712 8.56694 34.4693 8.63954C34.4693 8.83873 34.3931 8.88527 34.1852 8.87038C33.9965 8.85735 33.8058 8.85176 33.6152 8.85549C33.4588 8.85921 33.3425 8.79964 33.2453 8.68608C33.1004 8.51296 32.9745 8.33425 32.8754 8.12575C32.7801 7.92098 32.6085 7.74785 32.4578 7.57101C32.4254 7.53191 32.3434 7.52074 32.2824 7.51702C32.1566 7.50771 32.0288 7.50771 31.903 7.5133C31.7181 7.5226 31.638 7.57101 31.6018 7.75158C31.5655 7.9396 31.5674 8.1332 31.5579 8.32494C31.5541 8.39382 31.5751 8.46456 31.5713 8.53344C31.5636 8.69725 31.4855 8.79219 31.3215 8.82756C31.0622 8.88341 30.7991 8.8741 30.5455 8.80709C30.4826 8.79033 30.4235 8.71587 30.3891 8.6563C30.3605 8.60604 30.3625 8.53716 30.3625 8.47573C30.3625 7.86513 30.3625 7.25454 30.3625 6.64581L30.3586 6.64208ZM31.5484 5.88815C31.5484 6.01846 31.5427 6.15063 31.5484 6.28094C31.5617 6.4913 31.678 6.61788 31.8897 6.62161C32.1585 6.62719 32.4273 6.62161 32.6943 6.59927C33.0165 6.57321 33.2262 6.40939 33.3177 6.09106C33.4283 5.70758 33.2396 5.31851 32.8506 5.19192C32.5608 5.09698 32.2596 5.09698 31.9583 5.10815C31.7085 5.1156 31.5636 5.25335 31.5484 5.4935C31.5408 5.62381 31.5484 5.75598 31.5484 5.88629V5.88815Z" fill="#E7EBFF" fill-opacity="0.498"/>
<path d="M35.7355 12.8095C35.7355 12.1989 35.7355 11.5883 35.7355 10.9777C35.7355 10.6389 35.8442 10.5402 36.197 10.5532C36.2847 10.557 36.3705 10.5477 36.4582 10.5458C36.7689 10.5383 36.9234 10.7022 36.9062 11C36.8872 11.3165 36.8738 11.633 36.87 11.9494C36.8662 12.3255 37.0359 12.48 37.4248 12.4781C37.7337 12.4781 38.0426 12.4781 38.3533 12.4781C38.3762 12.4781 38.401 12.4781 38.4239 12.4781C38.8643 12.4725 38.9844 12.3497 38.9768 11.914C38.9711 11.5901 38.9825 11.2644 38.9597 10.9404C38.9425 10.6984 39.1408 10.4993 39.3906 10.5458C39.4897 10.5644 39.5965 10.5458 39.6975 10.5458C39.9683 10.5402 40.1113 10.6742 40.1113 10.9349C40.1113 12.1877 40.1094 13.4387 40.1151 14.6915C40.1151 14.8516 40.0617 14.9763 39.953 15.0862C39.8234 15.2165 39.2342 15.2221 39.1027 15.0936C38.9959 14.9894 38.9578 14.8609 38.9616 14.7138C38.9692 14.3974 38.9711 14.0809 38.9711 13.7626C38.9711 13.5262 38.9082 13.4517 38.6679 13.3921C38.6069 13.3772 38.544 13.3661 38.4811 13.3642C38.0998 13.3623 37.7204 13.3605 37.339 13.3661C37.2551 13.3661 37.1674 13.394 37.0873 13.4238C36.9386 13.4796 36.8643 13.5857 36.8738 13.7477C36.891 14.0567 36.8891 14.3657 36.9177 14.6729C36.9348 14.8684 36.8586 15.0005 36.7117 15.1104C36.6755 15.1383 36.6279 15.1662 36.5859 15.1681C36.3952 15.1737 36.2046 15.1867 36.0158 15.1643C35.8442 15.1439 35.7851 14.9912 35.7432 14.846C35.7279 14.7958 35.7355 14.738 35.7355 14.6841C35.7355 14.0586 35.7355 13.4312 35.7355 12.8057V12.8095Z" fill="#E7EBFF" fill-opacity="0.498"/>
<path d="M60.6932 19.122C60.6932 18.4723 60.6932 17.8245 60.6932 17.1748C60.6932 16.9887 60.7504 16.9198 60.9334 16.89C61.0268 16.8751 61.1222 16.8677 61.2175 16.8677C62.1212 16.8658 63.025 16.864 63.9287 16.864C63.984 16.864 64.0393 16.864 64.0946 16.8751C64.2319 16.8975 64.4054 16.8844 64.453 17.0501C64.5102 17.253 64.5102 17.4671 64.3825 17.6533C64.352 17.6979 64.2795 17.7259 64.2204 17.737C64.1118 17.7575 64.0012 17.7668 63.8906 17.7668C63.3682 17.7687 62.8438 17.778 62.3214 17.7631C61.984 17.7519 61.8524 17.9381 61.881 18.2192C61.8886 18.2881 61.8924 18.3588 61.9115 18.4239C61.9859 18.7088 62.0316 18.7423 62.3386 18.7423C62.8305 18.7423 63.3224 18.7404 63.8143 18.7423C64.1194 18.7423 64.2071 18.8372 64.2033 19.1351C64.2033 19.1667 64.2033 19.1965 64.1995 19.2281C64.1651 19.5576 64.0889 19.6284 63.7533 19.6302C63.2767 19.6321 62.8019 19.6265 62.3252 19.6302C61.9878 19.6302 61.8753 19.7512 61.8829 20.0863C61.8829 20.1087 61.8829 20.1329 61.8848 20.1552C61.9191 20.5573 62.0049 20.6411 62.4149 20.6392C62.9544 20.6374 63.494 20.6355 64.0317 20.615C64.516 20.5945 64.5522 20.8384 64.516 21.1586C64.4835 21.4527 64.4111 21.516 64.1022 21.5179C63.4444 21.5235 62.7867 21.5179 62.127 21.5179C61.8486 21.5179 61.5721 21.5216 61.2938 21.5216C61.2232 21.5216 61.1508 21.5216 61.0802 21.5104C60.7733 21.4713 60.6855 21.3689 60.6855 21.0711C60.6855 20.4233 60.6855 19.7736 60.6855 19.1258C60.6875 19.1258 60.6913 19.1258 60.6932 19.1258V19.122Z" fill="#E7EBFF" fill-opacity="0.498"/>
<path d="M33.0186 15.1774C32.5515 15.1774 32.0825 15.1774 31.6153 15.1774C31.5219 15.1774 31.4228 15.1699 31.3351 15.1439C31.1025 15.0731 31.0243 14.9447 31.0453 14.7083C31.0567 14.578 31.0643 14.4458 31.0643 14.3155C31.0643 13.1874 31.0586 12.0574 31.0567 10.9293C31.0567 10.6929 31.0853 10.6463 31.3179 10.5849C31.4075 10.5607 31.5048 10.5514 31.5982 10.5514C32.4867 10.5514 33.3733 10.5514 34.2617 10.5533C34.3647 10.5533 34.4677 10.5588 34.5706 10.57C34.7289 10.5886 34.7956 10.6501 34.8147 10.8027C34.8242 10.879 34.8242 10.9572 34.8185 11.0335C34.7975 11.3779 34.7193 11.4524 34.3704 11.4543C33.9033 11.4543 33.4343 11.4524 32.9671 11.4505C32.8871 11.4505 32.8089 11.4468 32.7288 11.4505C32.5553 11.4561 32.3704 11.4356 32.2827 11.6385C32.2007 11.8247 32.2445 12.2026 32.3742 12.3236C32.4123 12.359 32.4657 12.3888 32.5172 12.3962C32.6335 12.4167 32.7536 12.4297 32.8699 12.4316C33.2817 12.4353 33.6955 12.4316 34.1073 12.4316C34.4677 12.4316 34.5554 12.5191 34.5477 12.8746C34.5477 12.9565 34.5191 13.0403 34.4924 13.1204C34.4467 13.2637 34.3437 13.3214 34.1855 13.3195C33.7489 13.3102 33.3122 13.3121 32.8775 13.3121C32.7669 13.3121 32.6564 13.3177 32.5458 13.3251C32.3894 13.3363 32.2979 13.4275 32.2674 13.569C32.2255 13.7607 32.2331 13.9525 32.317 14.1368C32.3589 14.2298 32.4276 14.2876 32.5324 14.2931C32.6506 14.2987 32.7708 14.3062 32.889 14.3062C33.4038 14.3062 33.9205 14.3043 34.4352 14.3043C34.6736 14.3043 34.8013 14.3732 34.8604 14.5277C34.9252 14.6971 34.8528 15.0489 34.7174 15.1308C34.6507 15.1718 34.5535 15.1792 34.4696 15.1792C33.9853 15.183 33.5029 15.1811 33.0186 15.1811V15.1774Z" fill="#E7EBFF" fill-opacity="0.498"/>
<path d="M33.0509 16.8621C33.5428 16.8621 34.0328 16.8621 34.5247 16.8621C34.7306 16.8621 34.8546 16.9663 34.8622 17.1674C34.866 17.2809 34.8565 17.4001 34.8336 17.5117C34.784 17.7389 34.7421 17.7668 34.4885 17.7668C33.9565 17.7668 33.4265 17.7631 32.8945 17.7668C32.7763 17.7668 32.6562 17.7742 32.5418 17.8003C32.3569 17.8431 32.3073 17.9101 32.2901 18.0888C32.2425 18.5728 32.4026 18.7441 32.9003 18.7441C33.3121 18.7441 33.7239 18.7422 34.1377 18.7422C34.2006 18.7422 34.2654 18.7385 34.3283 18.7478C34.5133 18.7739 34.6334 18.893 34.6315 19.0736C34.6315 19.1872 34.6086 19.3026 34.5724 19.4105C34.5171 19.5762 34.3912 19.6432 34.2063 19.6395C33.7697 19.6283 33.335 19.6265 32.8984 19.6302C32.7725 19.6302 32.6467 19.6525 32.5247 19.6805C32.3759 19.714 32.2997 19.8182 32.292 19.9653C32.2634 20.4921 32.3817 20.6448 32.927 20.641C33.4494 20.6373 33.9718 20.6243 34.4961 20.6168C34.7344 20.6131 34.8698 20.7043 34.927 20.8979C34.9918 21.1213 34.9194 21.3745 34.744 21.475C34.6868 21.5085 34.6086 21.5197 34.5419 21.5197C33.558 21.5234 32.5761 21.5234 31.5923 21.5216C31.3044 21.5216 31.0966 21.2814 31.1309 20.9985C31.1423 20.9072 31.1557 20.8142 31.1557 20.7211C31.1538 19.539 31.1481 18.3569 31.1443 17.1748C31.1443 17.0035 31.3082 16.8639 31.5313 16.8639C31.6743 16.8639 31.8154 16.8788 31.9584 16.8807C32.3225 16.8825 32.6886 16.8807 33.0528 16.8807C33.0528 16.8751 33.0528 16.8695 33.0528 16.8621H33.0509Z" fill="#E7EBFF" fill-opacity="0.498"/>
<path d="M45.461 15.2016C45.2971 15.1848 45.0759 15.1699 44.8585 15.1383C44.6755 15.1122 44.5764 14.9949 44.5211 14.8199C44.3933 14.4067 44.2694 14.3266 43.8175 14.3248C43.4362 14.3248 43.0549 14.3452 42.6755 14.3192C42.3437 14.2968 42.1588 14.4607 42.0081 14.7083C41.9872 14.7418 41.97 14.7771 41.9586 14.8144C41.8804 15.0899 41.6859 15.1941 41.4037 15.1811C41.2607 15.1736 41.1177 15.1811 40.9747 15.1867C40.8851 15.1904 40.7917 15.1997 40.7536 15.0973C40.7154 14.9893 40.6449 14.8646 40.7479 14.7697C40.9156 14.617 40.9404 14.4048 41.0358 14.2242C41.1883 13.9357 41.3046 13.6341 41.4266 13.3363C41.4933 13.1725 41.5677 13.0124 41.6421 12.8504C41.8041 12.5023 41.97 12.156 42.1321 11.8079C42.1778 11.7093 42.214 11.6087 42.2579 11.5101C42.3246 11.363 42.3933 11.2178 42.46 11.0708C42.4981 10.987 42.5363 10.9013 42.5706 10.8139C42.6259 10.6705 42.7174 10.5756 42.8814 10.57C43.1349 10.5625 43.3904 10.5346 43.6402 10.5551C43.8614 10.5737 43.9987 10.7375 44.0978 10.9218C44.134 10.9888 44.1474 11.0689 44.1722 11.1415C44.2885 11.4915 44.4848 11.8098 44.6088 12.1616C44.6736 12.3441 44.7899 12.5172 44.8452 12.7108C44.8509 12.7331 44.8585 12.7573 44.87 12.7759C45.0225 13.031 45.0912 13.3214 45.2208 13.5801C45.339 13.8166 45.442 14.053 45.524 14.3043C45.5526 14.3899 45.6193 14.4625 45.6689 14.5407C45.7623 14.6896 45.8347 14.8404 45.7718 15.021C45.7203 15.1718 45.6746 15.209 45.4572 15.2016H45.461ZM43.257 13.448V13.461C43.3275 13.461 43.4 13.4573 43.4705 13.461C43.8976 13.4926 43.9148 13.2786 43.8404 12.99C43.829 12.9453 43.8175 12.8951 43.787 12.8616C43.6345 12.6978 43.5944 12.493 43.5544 12.2882C43.5392 12.2138 43.5201 12.1318 43.4762 12.0704C43.4419 12.022 43.3676 11.9736 43.3085 11.9717C43.1769 11.9643 43.053 12.0127 42.9958 12.1412C42.9519 12.2398 42.9195 12.3441 42.8985 12.4502C42.8642 12.627 42.8184 12.7946 42.7079 12.9453C42.664 13.0049 42.6411 13.0868 42.6278 13.1613C42.5973 13.3344 42.6697 13.4294 42.849 13.4461C42.9824 13.4573 43.1178 13.448 43.2532 13.448H43.257Z" fill="#E7EBFF" fill-opacity="0.498"/>
<path d="M42.0141 8.87596C41.7548 8.85734 41.526 8.83687 41.2972 8.82384C41.1313 8.81453 41.0398 8.72145 40.9845 8.57997C40.9597 8.51482 40.9387 8.4478 40.9101 8.38451C40.8053 8.15367 40.6318 8.01405 40.361 8.01405C39.9015 8.01405 39.4401 8.01033 38.9806 8.01405C38.6794 8.01778 38.4963 8.1574 38.4029 8.43849C38.2962 8.75496 38.1818 8.84059 37.8347 8.85362C37.6994 8.85921 37.5659 8.85735 37.4305 8.85735C37.1998 8.85735 37.0759 8.67863 37.1579 8.46828C37.1636 8.45338 37.1674 8.43663 37.1789 8.42732C37.3733 8.24675 37.3886 7.98241 37.5068 7.77019C37.646 7.5226 37.7585 7.27315 37.8328 7.00509C37.8481 6.94738 37.8958 6.89898 37.9282 6.84685C37.9491 6.81521 37.9797 6.78542 37.9949 6.75191C38.1322 6.42614 38.2656 6.09664 38.4029 5.77087C38.4563 5.64242 38.5173 5.51769 38.5764 5.39297C38.6107 5.32223 38.6641 5.25894 38.6794 5.18633C38.7347 4.92385 38.8834 4.70419 39.013 4.47522C39.095 4.33188 39.198 4.24624 39.3658 4.24252C39.5946 4.23694 39.8253 4.22577 40.0541 4.2388C40.1399 4.24438 40.2352 4.29837 40.3 4.35794C40.4564 4.50314 40.5689 4.6744 40.6241 4.88662C40.6642 5.03927 40.7557 5.18075 40.8243 5.32595C40.8377 5.35388 40.8625 5.37621 40.8739 5.406C41.0188 5.78017 41.1466 6.15993 41.3105 6.5248C41.4478 6.82824 41.5679 7.13726 41.709 7.43511C41.7986 7.62313 41.8882 7.80928 41.9569 8.00661C41.9912 8.10713 42.0541 8.19835 42.1113 8.28957C42.2047 8.43477 42.2581 8.57811 42.18 8.74751C42.1399 8.83501 42.0903 8.89271 42.0122 8.87596H42.0141ZM39.6727 7.13167C39.6727 7.13167 39.6727 7.13726 39.6727 7.13912C39.7604 7.13912 39.8462 7.14098 39.9339 7.13912C40.2752 7.12981 40.3572 7.02184 40.26 6.70351C40.2409 6.64022 40.1913 6.58437 40.1608 6.52294C40.1189 6.43358 40.0731 6.34609 40.0445 6.25301C39.9988 6.10595 39.9702 5.95516 39.9282 5.80624C39.892 5.67779 39.7871 5.65731 39.667 5.65545C39.5431 5.65359 39.4459 5.68523 39.4096 5.80996C39.3715 5.94213 39.3448 6.07989 39.3009 6.2102C39.2685 6.31072 39.2361 6.41869 39.1732 6.49874C39.0798 6.61788 39.0455 6.7426 39.0493 6.88595C39.0531 7.04604 39.1084 7.11492 39.2704 7.12981C39.4039 7.14284 39.5393 7.13167 39.6727 7.13167Z" fill="#E7EBFF" fill-opacity="0.498"/>
<path d="M65.9518 10.5402C66.152 10.5365 66.3465 10.5346 66.5295 10.6407C66.6305 10.7003 66.7049 10.7692 66.7316 10.8827C66.7793 11.0875 66.8479 11.283 66.9814 11.4542C67.0233 11.5064 67.0405 11.5808 67.0595 11.6479C67.1148 11.8508 67.1739 12.0481 67.3074 12.2212C67.3494 12.2752 67.3703 12.3459 67.3875 12.413C67.4351 12.5935 67.4885 12.7704 67.6201 12.9137C67.6258 12.9193 67.6315 12.9267 67.6334 12.9323C67.7173 13.2972 67.9232 13.6118 68.0529 13.9581C68.1101 14.1088 68.1883 14.2522 68.2474 14.4011C68.3065 14.55 68.3789 14.7027 68.3961 14.8591C68.4209 15.1048 68.2893 15.209 68.0395 15.1904C67.9366 15.183 67.8336 15.1811 67.7307 15.1774C67.4066 15.1662 67.1873 15.0098 67.1244 14.7008C67.0748 14.4607 66.9318 14.3546 66.703 14.3378C66.5219 14.3248 66.3388 14.3266 66.1558 14.3266C65.8393 14.3266 65.5209 14.3341 65.2044 14.3248C64.9889 14.3192 64.8459 14.3918 64.7506 14.5873C64.6724 14.7474 64.558 14.8888 64.4665 15.0415C64.4131 15.1308 64.3388 15.1755 64.2339 15.1755C64.0757 15.1755 63.9174 15.1755 63.7592 15.1774C63.6371 15.1774 63.5494 15.1197 63.4713 15.0359C63.3988 14.9577 63.3874 14.8795 63.4369 14.7827C63.5056 14.645 63.5532 14.4979 63.62 14.3583C63.7744 14.0325 63.9327 13.7067 64.089 13.3828C64.0966 13.3698 64.1081 13.3568 64.1138 13.3437C64.2587 12.9956 64.4017 12.6457 64.5504 12.2994C64.6038 12.1728 64.6763 12.0537 64.7315 11.9271C64.7907 11.7931 64.8345 11.6534 64.8917 11.5175C64.9337 11.4189 64.9889 11.3258 65.0328 11.229C65.0881 11.1099 65.1529 10.9926 65.1872 10.8679C65.2368 10.6873 65.3398 10.5849 65.5304 10.5719C65.6715 10.5607 65.8126 10.5514 65.9537 10.5421L65.9518 10.5402ZM65.9308 13.4759C65.9308 13.4759 65.9308 13.4647 65.9327 13.461C66.0433 13.461 66.1558 13.4703 66.2645 13.4592C66.4456 13.4424 66.5314 13.3307 66.5047 13.1594C66.4742 12.977 66.4304 12.8002 66.3121 12.6438C66.2454 12.5544 66.2149 12.4353 66.1749 12.3273C66.1463 12.2473 66.1348 12.1616 66.1043 12.0835C66.0395 11.9122 65.9213 11.8768 65.8088 12.0183C65.6944 12.1616 65.6048 12.3273 65.5304 12.4949C65.4389 12.6996 65.3798 12.9156 65.2978 13.1241C65.233 13.2916 65.2559 13.3717 65.4389 13.4163C65.5991 13.4536 65.7649 13.4592 65.9289 13.4796L65.9308 13.4759Z" fill="#E7EBFF" fill-opacity="0.498"/>
<path d="M46.8205 18.3848C46.8205 18.7255 46.8415 19.0662 46.8148 19.405C46.79 19.7326 46.9215 20.0044 47.1084 20.239C47.2724 20.4456 47.7547 20.736 48.0751 20.5945C48.4011 20.4512 48.7309 20.2985 48.7958 19.8983C48.8263 19.7084 48.8625 19.5167 48.8663 19.3249C48.8739 18.8074 48.8701 18.288 48.8663 17.7705C48.8663 17.5844 48.853 17.4001 48.8358 17.2158C48.8244 17.0817 48.8739 16.998 48.9979 16.9384C49.2705 16.8081 49.5565 16.8416 49.8368 16.8788C49.9512 16.8937 50.0351 17.0017 50.0427 17.1339C50.0427 17.1655 50.0465 17.1953 50.0465 17.2269C50.0465 17.9772 50.0522 18.7274 50.0427 19.4776C50.0389 19.7159 50.0065 19.956 49.9626 20.1906C49.9416 20.3078 49.8692 20.4177 49.8139 20.5275C49.7929 20.5685 49.751 20.5982 49.73 20.6392C49.5489 21.0022 49.2247 21.1828 48.8682 21.3503C48.3916 21.5756 47.9035 21.5793 47.4039 21.5197C47.2361 21.4992 47.0779 21.4099 46.912 21.3578C46.6832 21.2852 46.4716 21.1865 46.3 21.0171C46.0826 20.803 45.871 20.5871 45.8004 20.2781C45.728 19.9597 45.6803 19.6414 45.6841 19.3138C45.6918 18.6417 45.6803 17.9678 45.6765 17.2958C45.6765 16.9831 45.7909 16.8621 46.1131 16.8528C46.2237 16.849 46.3362 16.8509 46.4468 16.8528C46.7118 16.8602 46.8224 16.9663 46.8243 17.2214C46.8262 17.6086 46.8243 17.9939 46.8243 18.3811H46.8186L46.8205 18.3848Z" fill="#E7EBFF" fill-opacity="0.498"/>
<path d="M67.1776 21.5327C66.823 21.5551 66.5218 21.5123 66.2319 21.3857C66.1671 21.3578 66.0966 21.3373 66.026 21.328C65.7248 21.2833 65.4903 21.1083 65.2424 20.9557C65.1471 20.8961 65.0899 20.8105 65.1147 20.7025C65.1528 20.5294 65.1909 20.3544 65.2558 20.1924C65.3072 20.0658 65.5742 20.0156 65.7248 20.0863C65.761 20.1031 65.7934 20.1254 65.8239 20.1496C65.8563 20.1738 65.883 20.1999 65.9135 20.2259C66.1309 20.4046 66.9527 20.6671 67.2253 20.641C67.4408 20.6206 67.62 20.5405 67.7344 20.3451C67.7954 20.2408 67.7973 20.1477 67.7439 20.0398C67.6581 19.8648 67.5151 19.7698 67.3321 19.714C66.9622 19.6042 66.5885 19.4962 66.2205 19.3789C65.6695 19.2021 65.2176 18.6603 65.2519 18.1465C65.2596 18.0423 65.292 17.9362 65.332 17.8375C65.3778 17.724 65.4521 17.6197 65.5017 17.5062C65.5551 17.387 65.6295 17.294 65.7534 17.2418C65.7686 17.2362 65.782 17.2288 65.7934 17.2176C66.2701 16.8006 66.8516 16.8174 67.4331 16.8416C67.6467 16.8509 67.8564 16.9049 68.0699 16.9235C68.3655 16.9496 68.6038 17.1097 68.8631 17.2232C68.9661 17.2679 69.0309 17.3647 68.9775 17.4708C68.8726 17.6756 68.7525 17.8748 68.6248 18.0684C68.6019 18.1037 68.5066 18.1242 68.457 18.1093C68.3292 18.0758 68.2053 18.0237 68.0852 17.9678C67.6562 17.7742 67.2139 17.6793 66.7525 17.8264C66.5008 17.9064 66.4607 18.0553 66.5999 18.2731C66.68 18.3979 66.7982 18.4686 66.9393 18.5114C67.3073 18.6268 67.681 18.7311 68.0432 18.867C68.4112 19.0047 68.7163 19.2337 68.9432 19.552C68.9737 19.5948 68.9927 19.6526 68.9966 19.7028C69.0118 19.9411 69.0271 20.1775 69.029 20.4158C69.029 20.4828 69.0061 20.5554 68.9718 20.615C68.8192 20.8812 68.6248 21.1269 68.3407 21.2591C67.9632 21.4341 67.5742 21.6109 67.1719 21.5327H67.1776Z" fill="#E7EBFF" fill-opacity="0.498"/>
<path d="M38.298 20.2017C38.2198 20.0919 38.1721 19.9969 38.0997 19.9299C38.0101 19.848 37.9052 19.7661 37.7927 19.727C37.4114 19.5948 37.0224 19.4906 36.6411 19.3603C36.336 19.2542 36.0844 19.0587 35.8937 18.8074C35.7469 18.6138 35.7412 18.3755 35.7355 18.141C35.7259 17.7221 35.9471 17.4317 36.2655 17.1822C36.5019 16.9961 36.7688 16.9067 37.0663 16.8621C37.6345 16.7783 38.1912 16.8248 38.7384 16.9719C38.9252 17.0221 39.0987 17.1283 39.2684 17.2251C39.3218 17.2548 39.3695 17.3293 39.3828 17.3907C39.4248 17.5881 39.2398 17.938 39.0549 18.0516C38.9367 18.1242 38.8185 18.141 38.7003 18.059C38.4105 17.858 38.0749 17.8021 37.7355 17.7612C37.604 17.7463 37.4667 17.7556 37.3351 17.7705C37.1731 17.7891 37.0491 17.8971 37.0243 18.0181C36.9919 18.1782 37.0834 18.3867 37.2379 18.4462C37.5391 18.5635 37.8404 18.6845 38.1531 18.7646C38.5382 18.8632 38.8795 19.0271 39.1655 19.2914C39.2475 19.3677 39.3008 19.4794 39.3485 19.5837C39.3981 19.6879 39.4229 19.8033 39.461 19.9132C39.522 20.0956 39.5354 20.2743 39.4534 20.4549C39.4057 20.561 39.3714 20.6727 39.3256 20.7807C39.3085 20.8235 39.2894 20.8737 39.2551 20.8998C39.0606 21.0413 38.8947 21.2088 38.664 21.3168C38.2312 21.5197 37.787 21.5607 37.3218 21.5365C37.1292 21.5271 36.9443 21.5029 36.7688 21.4173C36.6907 21.3801 36.6068 21.3466 36.521 21.3354C36.1969 21.2907 35.9395 21.1008 35.6554 20.9687C35.5696 20.9277 35.5353 20.8588 35.5238 20.7658C35.4876 20.4642 35.6744 20.2743 35.8727 20.0937C35.909 20.0602 35.9928 20.0584 36.05 20.0677C36.1187 20.0788 36.1969 20.1012 36.2464 20.1459C36.5038 20.373 36.847 20.4195 37.1445 20.5628C37.3618 20.6671 37.6078 20.6708 37.8423 20.6057C37.9262 20.5815 38.0005 20.5107 38.0673 20.4493C38.1473 20.3767 38.216 20.2929 38.2999 20.2036L38.298 20.2017Z" fill="#E7EBFF" fill-opacity="0.498"/>
<path d="M58.2986 16.8323C58.4549 16.8565 58.7371 16.8695 58.9983 16.9514C59.2805 17.0408 59.5513 17.1804 59.8067 17.3293C60.0222 17.4559 60.0203 17.6867 59.843 17.8692C59.7724 17.9418 59.7038 18.0181 59.6466 18.1019C59.5703 18.2154 59.4674 18.2601 59.3415 18.2173C59.2176 18.1745 59.0879 18.1242 58.9907 18.0423C58.5732 17.6905 57.8448 17.7091 57.4101 18.0386C57.147 18.2359 57.0021 18.4909 56.8858 18.7646C56.76 19.0643 56.758 19.3826 56.943 19.6767C56.9678 19.7158 56.9945 19.7549 57.0116 19.7978C57.1432 20.1217 57.4063 20.2948 57.7209 20.4363C58.249 20.6746 58.6895 20.5033 59.1108 20.1999C59.3072 20.0584 59.5055 20.0695 59.6657 20.2483C59.7114 20.3004 59.761 20.3562 59.822 20.3897C59.9841 20.4791 59.9822 20.6261 59.9841 20.7732C59.9841 20.8737 59.9097 20.9166 59.8334 20.965C59.5246 21.1548 59.2081 21.3224 58.8591 21.4341C58.3463 21.5979 57.8372 21.6277 57.3319 21.4099C57.2957 21.395 57.2595 21.3726 57.2214 21.3652C56.8972 21.3038 56.636 21.1251 56.411 20.9054C56.1384 20.6392 55.8715 20.3618 55.7876 19.9709C55.7304 19.701 55.5969 19.4459 55.6236 19.1574C55.6579 18.7832 55.7361 18.4127 55.9077 18.087C56.1041 17.7128 56.4015 17.4168 56.7943 17.1878C57.2328 16.9328 57.6885 16.8546 58.2986 16.8341V16.8323Z" fill="#E7EBFF" fill-opacity="0.498"/>
<path d="M45.6633 10.7338C45.669 10.7226 45.6728 10.7059 45.6843 10.6966C45.9931 10.4304 46.6852 10.4825 46.9274 10.8008C46.9865 10.879 47.0208 10.9795 47.0437 11.0763C47.1028 11.309 47.1562 11.5417 47.2858 11.7521C47.3373 11.8358 47.3602 11.9401 47.3812 12.0369C47.425 12.2417 47.4917 12.4353 47.5966 12.6214C47.6671 12.7461 47.6881 12.8988 47.7224 13.0403C47.7587 13.1836 47.7758 13.3307 47.8178 13.4703C47.8597 13.6155 47.976 13.6732 48.1514 13.6676C48.2868 13.6639 48.3268 13.5652 48.3459 13.4684C48.4184 13.0961 48.5423 12.7424 48.6834 12.3887C48.7806 12.1467 48.813 11.8842 48.9484 11.6497C49.0266 11.5119 49.0323 11.3369 49.0838 11.1824C49.1257 11.0596 49.181 10.9386 49.2439 10.825C49.3545 10.6277 49.5185 10.5123 49.7663 10.542C49.8674 10.5532 49.9742 10.5309 50.0752 10.5458C50.1667 10.5588 50.2583 10.5904 50.3402 10.6314C50.4299 10.6742 50.4565 10.7543 50.4108 10.8473C50.2907 11.0893 50.2258 11.3518 50.1 11.5957C49.9113 11.9643 49.7988 12.3701 49.65 12.7592C49.5986 12.8951 49.5337 13.0272 49.4746 13.1613C49.4651 13.1817 49.4479 13.2004 49.4384 13.2208C49.2954 13.5876 49.1295 13.9487 49.0189 14.3247C48.9351 14.6096 48.7654 14.8367 48.6147 15.0805C48.5881 15.1252 48.5118 15.1625 48.4565 15.1643C48.2029 15.1736 47.9493 15.1755 47.6957 15.1662C47.6328 15.1643 47.5566 15.1234 47.5108 15.0787C47.3354 14.8981 47.1962 14.6971 47.1295 14.4476C47.0799 14.2633 46.9884 14.0902 46.914 13.9133C46.8816 13.8352 46.8416 13.757 46.8187 13.6769C46.7596 13.461 46.7176 13.2376 46.5613 13.0607C46.5556 13.0552 46.5518 13.0477 46.5499 13.0403C46.4869 12.6549 46.2562 12.3273 46.1438 11.9587C46.098 11.8042 46.0198 11.6608 45.955 11.5119C45.9264 11.4486 45.8921 11.3872 45.8692 11.322C45.8006 11.134 45.7357 10.946 45.6614 10.7338H45.6633Z" fill="#E7EBFF" fill-opacity="0.498"/>
<path d="M27.7657 4.22015C28.29 4.22015 28.8124 4.2276 29.3367 4.21643C29.5369 4.21271 29.6837 4.28717 29.7695 4.44354C29.8553 4.59991 29.8343 4.76931 29.7314 4.92755C29.6284 5.08392 29.5026 5.16769 29.3005 5.14907C29.1117 5.13232 28.9192 5.13977 28.7304 5.14535C28.4635 5.15466 28.3472 5.27566 28.3472 5.54C28.3472 6.46893 28.3529 7.39599 28.3548 8.32491C28.3548 8.39379 28.3605 8.46453 28.3548 8.5334C28.3357 8.74376 28.2385 8.84429 28.023 8.84615C27.8267 8.84801 27.6265 8.84615 27.432 8.81078C27.2051 8.77168 27.1479 8.67861 27.1498 8.4515C27.1536 7.55422 27.1498 6.65694 27.1651 5.75967C27.1765 5.17514 27.0716 5.10998 26.5149 5.13791C26.3719 5.14535 26.2289 5.13791 26.0859 5.13977C25.9696 5.14163 25.8819 5.09695 25.84 4.9927C25.7999 4.89404 25.7561 4.79165 25.7427 4.68741C25.7065 4.40631 25.8609 4.19781 26.1946 4.21084C26.717 4.23132 27.2413 4.21643 27.7657 4.21643V4.22015Z" fill="#E7EBFF" fill-opacity="0.498"/>
<path d="M70.2568 12.344C70.2568 12.8001 70.2568 13.2562 70.2568 13.7123C70.2568 13.7588 70.2549 13.8054 70.2587 13.8519C70.2816 14.0753 70.4132 14.2019 70.6477 14.2019C71.0595 14.2037 71.4733 14.2075 71.8851 14.1926C72.1063 14.1851 72.2607 14.2633 72.3427 14.4513C72.4285 14.6449 72.4247 14.8423 72.2817 15.0191C72.2035 15.1141 72.1139 15.1773 71.9804 15.1773C71.132 15.1736 70.2816 15.1773 69.4332 15.1699C69.17 15.168 69.069 15.0452 69.0671 14.7641C69.0671 14.4793 69.0671 14.1926 69.0671 13.9078C69.0671 12.9174 69.0652 11.9289 69.0652 10.9386C69.0652 10.8771 69.0652 10.8138 69.0785 10.7543C69.1014 10.6556 69.1643 10.5811 69.2711 10.5774C69.5151 10.57 69.763 10.5551 70.0052 10.5774C70.232 10.5979 70.2797 10.6854 70.2797 10.905C70.2759 11.3835 70.2797 11.8638 70.2797 12.3422H70.2568V12.344Z" fill="#E7EBFF" fill-opacity="0.498"/>
<path d="M51.0475 12.828C51.0475 12.1932 51.0475 11.5603 51.0475 10.9255C51.0475 10.6761 51.078 10.6109 51.3278 10.5793C51.568 10.5495 51.8159 10.5644 52.0599 10.5793C52.1743 10.5849 52.2315 10.6835 52.2468 10.7915C52.2544 10.8529 52.2525 10.9144 52.2525 10.9776C52.2525 12.1988 52.2525 13.4219 52.2487 14.6431C52.2487 14.7715 52.2296 14.9056 52.1896 15.0284C52.1705 15.088 52.0828 15.1643 52.0256 15.1662C51.7816 15.1699 51.5337 15.168 51.2935 15.1327C51.0971 15.1029 51.0246 14.9782 51.0285 14.779C51.0418 14.1293 51.0552 13.4815 51.0666 12.8318C51.0609 12.8318 51.0532 12.8318 51.0475 12.8318V12.828Z" fill="#E7EBFF" fill-opacity="0.498"/>
<path d="M36.5229 6.49316C36.5229 7.03488 36.5248 7.5766 36.5229 8.11645C36.5229 8.25607 36.5153 8.39569 36.4924 8.53158C36.4543 8.74752 36.3227 8.84805 36.0977 8.85177C35.9948 8.85363 35.8918 8.85549 35.7889 8.85177C35.52 8.84618 35.3503 8.66934 35.3503 8.41244C35.3542 7.15961 35.3542 5.90863 35.3542 4.6558C35.3542 4.39518 35.5029 4.23508 35.7679 4.22578C35.8785 4.22205 35.991 4.22578 36.1016 4.22578C36.3837 4.22578 36.5248 4.35981 36.5248 4.63532C36.5267 5.25336 36.5248 5.87326 36.5248 6.4913L36.5229 6.49316Z" fill="#E7EBFF" fill-opacity="0.498"/>
</g>
<defs>
<clipPath id="clip0_16_1368">
<rect width="72" height="22" fill="white" transform="translate(0.399902)"/>
</clipPath>
</defs>
</svg>
