<svg width="49" height="24" viewBox="0 0 49 24" fill="none" xmlns="http://www.w3.org/2000/svg">
<g clip-path="url(#clip0_16_1356)">
<path d="M13.9177 23.1354C12.9199 23.1354 11.9205 23.1405 10.9227 23.1354C10.2766 23.132 10.1287 22.9156 10.2454 22.258C10.5873 20.3243 10.9111 18.3872 11.2481 16.4517C11.5555 14.6833 11.8777 12.9183 12.1818 11.1498C12.4843 9.39501 12.7703 7.63849 13.0662 5.88197C13.2947 4.5156 13.5166 3.14923 13.7583 1.78456C13.8717 1.14397 14.1544 0.920786 14.7807 0.920786C16.4361 0.917379 18.0914 0.898638 19.7451 0.927601C20.9188 0.948045 22.0366 1.17123 22.8043 2.24286C23.2728 2.89708 23.4421 3.65182 23.4602 4.43553C23.5046 6.31131 23.1495 8.09338 22.1468 9.68975C21.7473 10.3252 21.2492 10.8636 20.5407 11.1464C20.4553 11.1805 20.3879 11.2861 20.3402 11.3747C20.3303 11.3935 20.4273 11.5093 20.4914 11.5332C21.6043 11.9591 22.1879 12.8586 22.2832 14.0069C22.5051 16.6664 22.0153 19.1726 20.3599 21.3039C19.3966 22.5442 18.0766 23.1064 16.5462 23.1286C15.6717 23.1405 14.7955 23.1303 13.921 23.1303C13.921 23.132 13.921 23.1337 13.921 23.1354H13.9177ZM18.4087 15.1143C18.4531 13.4703 17.9994 12.8859 16.6662 12.9881C16.5988 12.9932 16.5298 12.9932 16.4607 12.9881C16.1616 12.9694 16.0235 13.1108 15.9709 13.4209C15.647 15.329 15.3133 17.2337 14.9763 19.1402C14.7939 20.1709 14.7873 20.1539 15.795 20.1556C16.5906 20.1556 17.1577 19.808 17.5013 19.0737C18.1259 17.7363 18.2509 16.2814 18.4087 15.1143ZM17.4372 10.0646C18.1259 10.16 18.698 9.81412 18.9972 9.09175C19.5479 7.76286 19.7813 6.3573 19.7106 4.91256C19.6827 4.35716 19.3868 4.06923 18.8377 3.94486C17.8005 3.70975 17.5637 3.90056 17.4043 4.96368C17.1922 6.38797 16.949 7.80886 16.6958 9.22634C16.5446 10.0731 16.5232 10.068 17.4355 10.0663L17.4372 10.0646Z" fill="#E7EBFF" fill-opacity="0.498"/>
<path d="M36.0388 7.38296C35.9468 10.0271 35.4816 12.6167 34.8849 15.1774C34.4196 17.1707 33.8279 19.1283 32.6903 20.8541C31.3473 22.8918 29.4487 23.6687 27.1506 23.3398C25.1418 23.0519 24.2049 21.9718 23.8021 19.6922C23.4832 17.8812 23.6246 16.0719 23.8843 14.2779C24.1473 12.4617 24.4596 10.6473 24.8575 8.85666C25.3112 6.81392 25.9555 4.83763 27.1112 3.07259C28.8224 0.462517 32.1758 0.171183 34.1155 1.282C35.0295 1.80504 35.4783 2.68074 35.7462 3.674C36.075 4.88874 36.0635 6.13755 36.0355 7.38467L36.0388 7.38296ZM27.6372 17.9613C27.6635 17.9647 27.6898 17.9664 27.7161 17.9698C27.7161 18.3667 27.6881 18.7654 27.7227 19.1573C27.7654 19.6411 28.0547 19.866 28.5232 19.8813C29.0755 19.9001 29.3879 19.5593 29.5901 19.101C30.2624 17.5813 30.5106 15.9373 30.8131 14.3153C31.1649 12.4259 31.4887 10.528 31.7566 8.62496C31.9161 7.4937 31.9851 6.34541 32.0213 5.20222C32.0459 4.41681 31.584 4.05052 30.8805 4.26178C30.6142 4.34185 30.2821 4.59911 30.1983 4.85296C29.812 6.00978 29.4372 7.18022 29.1807 8.37452C28.8076 10.114 28.515 11.8739 28.2322 13.6321C28.0005 15.0684 27.8344 16.5165 27.6405 17.9613H27.6372Z" fill="#E7EBFF" fill-opacity="0.498"/>
<path d="M5.01796 23.1354C4.41632 23.1354 3.81467 23.1388 3.21303 23.1354C2.48645 23.132 2.37467 23.0298 2.28755 22.2784C1.8996 18.8915 1.49851 15.5062 1.13193 12.1175C0.857412 9.55687 0.623988 6.9928 0.372481 4.43043C0.311659 3.80858 0.57796 3.50021 1.18947 3.4951C1.88645 3.48998 2.58508 3.48828 3.28207 3.4951C3.81467 3.50021 3.94947 3.6348 4.01193 4.1851C4.39495 7.61465 4.78289 11.0442 5.15275 14.4755C5.21851 15.0786 5.19385 15.6919 5.2333 16.2984C5.24317 16.4398 5.34673 16.5744 5.40755 16.7124C5.51111 16.5932 5.68371 16.4858 5.70673 16.3512C5.89906 15.2081 6.07002 14.0615 6.23276 12.9132C6.65358 9.94532 7.06947 6.97747 7.48043 4.00791C7.52645 3.6791 7.72536 3.51724 8.00152 3.51043C8.86289 3.48828 9.72426 3.48317 10.5856 3.50873C10.9966 3.52065 11.253 3.8171 11.1988 4.24472C11.0607 5.3368 10.8947 6.42547 10.7056 7.50902C10.4755 8.8311 10.2108 10.1464 9.96426 11.465C9.57632 13.5333 9.18837 15.6033 8.80207 17.6716C8.50947 19.2407 8.22015 20.8098 7.92919 22.3789C7.82234 22.9548 7.6481 23.1184 7.06947 23.1303C6.38563 23.1439 5.7018 23.1337 5.01796 23.1337C5.01796 23.1337 5.01796 23.1337 5.01796 23.1354Z" fill="#E7EBFF" fill-opacity="0.498"/>
<path d="M42.7062 0.919089C44.1971 0.919089 45.6881 0.913978 47.1791 0.9242C47.378 0.9242 47.5835 0.975311 47.7708 1.04687C48.024 1.14227 48.1111 1.35353 48.0519 1.62953C47.904 2.31953 47.7725 3.01464 47.6114 3.70124C47.4766 4.27879 47.2284 4.46109 46.6432 4.46279C45.9725 4.4645 45.3018 4.47472 44.6328 4.45427C44.327 4.44576 44.1807 4.56501 44.1314 4.86827C43.9719 5.83087 43.801 6.79005 43.6366 7.75094C43.3078 9.65909 42.9791 11.5672 42.6536 13.4771C42.361 15.191 42.07 16.9049 41.7791 18.6189C41.5621 19.9018 41.3533 21.1846 41.1248 22.4641C41.0525 22.8645 40.8092 23.1252 40.3884 23.1269C39.4169 23.132 38.4454 23.1405 37.4739 23.1252C37.0333 23.1183 36.8689 22.8781 36.9462 22.4249C37.4706 19.3174 37.9933 16.2081 38.5243 13.1006C38.9878 10.3832 39.4547 7.66746 39.9347 4.95346C40.0037 4.56672 39.8969 4.44235 39.5254 4.45257C38.8695 4.47301 38.2119 4.46279 37.5561 4.45939C36.9314 4.45598 36.7424 4.21916 36.8558 3.58027C36.9725 2.92605 37.0958 2.27353 37.2224 1.62272C37.3144 1.1525 37.6152 0.920793 38.1528 0.919089C39.6717 0.913978 41.1906 0.919089 42.7078 0.917385L42.7062 0.919089Z" fill="#E7EBFF" fill-opacity="0.498"/>
<path d="M3.31999 2.79999C3.20657 2.72673 3.07013 2.67392 2.98629 2.5734C2.7052 2.23947 2.6789 2.23947 2.49479 2.6211C2.46191 2.68755 2.34848 2.76933 2.29424 2.75399C2.23013 2.73695 2.15122 2.62451 2.14794 2.54955C2.13479 2.18325 2.13479 1.81525 2.15616 1.44896C2.16109 1.35866 2.26794 1.20021 2.32547 1.20192C2.64273 1.21044 2.97643 1.20703 3.26575 1.31607C3.37588 1.35866 3.48931 1.75562 3.41862 1.87488C3.24273 2.16792 3.18684 2.41496 3.41862 2.70799C3.38575 2.73866 3.35287 2.76762 3.31999 2.79829V2.79999ZM2.77095 2.05888C2.92218 1.92258 3.02081 1.83229 3.11944 1.7437C3.01917 1.65681 2.92383 1.50858 2.81862 1.50347C2.71999 1.49836 2.61314 1.64147 2.51122 1.71984C2.58355 1.81355 2.65424 1.90725 2.77095 2.05888Z" fill="#E7EBFF" fill-opacity="0.498"/>
<path d="M4.70065 2.81702C4.22559 2.81702 3.8475 2.44391 3.85737 1.9788C3.86559 1.55117 4.30449 1.1048 4.70723 1.10991C5.10997 1.11672 5.56367 1.57672 5.56202 1.9822C5.56202 2.43368 5.1675 2.81531 4.70065 2.81702ZM5.22997 2.13383C5.16915 1.70961 5.03107 1.50176 4.72367 1.48643C4.41627 1.47109 4.24202 1.65339 4.20586 1.95835C4.17463 2.22583 4.46394 2.5785 4.69408 2.50865C4.90613 2.44391 5.08038 2.24457 5.22997 2.13554V2.13383Z" fill="#E7EBFF" fill-opacity="0.498"/>
<path d="M0.4892 2.04017C0.4892 1.92773 0.4892 1.81529 0.4892 1.70114C0.4892 1.2224 0.605913 1.11166 1.07769 1.13721C1.52646 1.16106 1.7681 1.41662 1.72865 1.81699C1.69578 2.15092 1.44756 2.22417 1.20427 2.3281C1.07605 2.38262 0.970844 2.49847 0.857419 2.58706C0.781803 2.64669 0.709474 2.70803 0.633858 2.76766C0.584543 2.68077 0.507282 2.59729 0.492488 2.50358C0.469474 2.35195 0.485913 2.19521 0.485913 2.04017H0.4892ZM1.05632 2.07595C1.21084 1.93454 1.30126 1.84936 1.39331 1.76588C1.29797 1.67388 1.21413 1.54951 1.10071 1.50521C1.05139 1.48647 0.883721 1.62617 0.875502 1.70284C0.867282 1.79995 0.9692 1.90899 1.05632 2.07425V2.07595Z" fill="#E7EBFF" fill-opacity="0.498"/>
<path d="M8.49799 1.44896C8.26949 1.46089 8.09525 1.45748 7.92429 1.48644C7.84538 1.50007 7.7747 1.57333 7.70073 1.61933C7.76977 1.69089 7.8273 1.79141 7.91114 1.82718C8.04593 1.88341 8.19881 1.89704 8.34347 1.9277C8.34347 1.9737 8.34018 2.0197 8.34018 2.0657C8.20703 2.08615 8.06566 2.08615 7.94073 2.13215C7.84703 2.16622 7.7747 2.25822 7.69086 2.32467C7.77799 2.39452 7.85689 2.49844 7.95388 2.524C8.12484 2.5683 8.3073 2.56318 8.54401 2.58363C8.26785 2.83237 7.49689 2.86474 7.3621 2.69096C7.23552 2.52741 7.32758 1.282 7.47223 1.19852C7.75497 1.03326 8.34182 1.13889 8.49634 1.44726L8.49799 1.44896Z" fill="#E7EBFF" fill-opacity="0.498"/>
<path d="M10.3228 1.46773C10.1288 1.47966 9.9907 1.46092 9.86905 1.5001C9.68001 1.56144 9.43015 1.61255 9.33974 1.75736C9.25919 1.88855 9.29042 2.20884 9.39563 2.31959C9.5107 2.43884 9.76713 2.41329 9.96275 2.45077C10.0548 2.46781 10.1469 2.48314 10.2389 2.50018C10.1896 2.58707 10.16 2.71314 10.086 2.75403C9.74905 2.94314 9.21645 2.76766 9.00933 2.4184C8.82193 2.10151 8.90741 1.58358 9.1885 1.33996C9.56165 1.01796 9.90193 1.0367 10.3228 1.46773Z" fill="#E7EBFF" fill-opacity="0.498"/>
<path d="M11.2185 2.76083C11.2037 2.57512 11.1725 2.38942 11.1774 2.20542C11.1889 1.82379 11.2316 1.43705 10.6267 1.43705C10.6415 1.39275 10.6579 1.34846 10.6727 1.30416C10.7862 1.24964 10.916 1.12868 11.0081 1.15423C11.3188 1.23942 11.7166 0.951493 11.9779 1.36379C11.4634 1.63127 11.4684 1.63127 11.4667 2.27527C11.4667 2.44223 11.419 2.6092 11.3927 2.77616C11.3336 2.77105 11.276 2.76594 11.2168 2.76083H11.2185Z" fill="#E7EBFF" fill-opacity="0.498"/>
<path d="M6.85103 1.86806C6.85103 2.59384 6.66528 2.86472 6.18035 2.79658C6.06528 2.77954 5.965 2.65006 5.85815 2.57339C5.96336 2.54272 6.08007 2.5308 6.17377 2.47798C6.28555 2.41495 6.43678 2.33317 6.46473 2.22754C6.51405 2.04354 6.45815 1.83228 6.49267 1.64147C6.51898 1.48984 6.61268 1.34843 6.67678 1.20361C6.73596 1.35354 6.80007 1.50347 6.84939 1.6568C6.86911 1.71984 6.85268 1.7965 6.85268 1.86635L6.85103 1.86806Z" fill="#E7EBFF" fill-opacity="0.498"/>
</g>
<defs>
<clipPath id="clip0_16_1356">
<rect width="48" height="23" fill="white" transform="translate(0.199951 0.5)"/>
</clipPath>
</defs>
</svg>
