<svg width="906" height="606" viewBox="0 0 906 606" fill="none" xmlns="http://www.w3.org/2000/svg">
<path d="M54.1765 -33H1V20.1667M54.1765 -33V20.1667M54.1765 -33H107.353M54.1765 20.1667H1M54.1765 20.1667H107.353M54.1765 20.1667V73.3333M1 20.1667V73.3333M107.353 -33V20.1667M107.353 -33H160.529M107.353 20.1667H160.529M107.353 20.1667V73.3333M160.529 -33V20.1667M160.529 -33H213.706M160.529 20.1667H213.706M160.529 20.1667V73.3333M213.706 -33V20.1667M213.706 -33H266.882M213.706 20.1667H266.882M213.706 20.1667V73.3333M266.882 -33V20.1667M266.882 -33H320.059M266.882 20.1667H320.059M266.882 20.1667V73.3333M320.059 -33V20.1667M320.059 -33H373.235M320.059 20.1667H373.235M320.059 20.1667V73.3333M373.235 -33V20.1667M373.235 -33H426.412M373.235 20.1667H426.412M373.235 20.1667V73.3333M426.412 -33V20.1667M426.412 -33H479.588M426.412 20.1667H479.588M426.412 20.1667V73.3333M479.588 -33V20.1667M479.588 -33H532.765M479.588 20.1667H532.765M479.588 20.1667V73.3333M532.765 -33V20.1667M532.765 -33H585.941M532.765 20.1667H585.941M532.765 20.1667V73.3333M585.941 -33V20.1667M585.941 -33H639.118M585.941 20.1667H639.118M585.941 20.1667V73.3333M639.118 -33V20.1667M639.118 -33H692.294M639.118 20.1667H692.294M639.118 20.1667V73.3333M692.294 -33V20.1667M692.294 -33H745.471M692.294 20.1667H745.471M692.294 20.1667V73.3333M745.471 -33V20.1667M745.471 -33H798.647M745.471 20.1667H798.647M745.471 20.1667V73.3333M798.647 -33V20.1667M798.647 -33H851.824M798.647 20.1667H851.824M798.647 20.1667V73.3333M851.824 -33V20.1667M851.824 -33H905V20.1667M851.824 20.1667H905M851.824 20.1667V73.3333M905 20.1667V73.3333M54.1765 73.3333H1M54.1765 73.3333H107.353M54.1765 73.3333V126.5M1 73.3333V126.5M107.353 73.3333H160.529M107.353 73.3333V126.5M160.529 73.3333H213.706M160.529 73.3333V126.5M213.706 73.3333H266.882M213.706 73.3333V126.5M266.882 73.3333H320.059M266.882 73.3333V126.5M320.059 73.3333H373.235M320.059 73.3333V126.5M373.235 73.3333H426.412M373.235 73.3333V126.5M426.412 73.3333H479.588M426.412 73.3333V126.5M479.588 73.3333H532.765M479.588 73.3333V126.5M532.765 73.3333H585.941M532.765 73.3333V126.5M585.941 73.3333H639.118M585.941 73.3333V126.5M639.118 73.3333H692.294M639.118 73.3333V126.5M692.294 73.3333H745.471M692.294 73.3333V126.5M745.471 73.3333H798.647M745.471 73.3333V126.5M798.647 73.3333H851.824M798.647 73.3333V126.5M851.824 73.3333H905M851.824 73.3333V126.5M905 73.3333V126.5M54.1765 126.5H1M54.1765 126.5H107.353M54.1765 126.5V179.667M1 126.5V179.667M107.353 126.5H160.529M107.353 126.5V179.667M160.529 126.5H213.706M160.529 126.5V179.667M213.706 126.5H266.882M213.706 126.5V179.667M266.882 126.5H320.059M266.882 126.5V179.667M320.059 126.5H373.235M320.059 126.5V179.667M373.235 126.5H426.412M373.235 126.5V179.667M426.412 126.5H479.588M426.412 126.5V179.667M479.588 126.5H532.765M479.588 126.5V179.667M532.765 126.5H585.941M532.765 126.5V179.667M585.941 126.5H639.118M585.941 126.5V179.667M639.118 126.5H692.294M639.118 126.5V179.667M692.294 126.5H745.471M692.294 126.5V179.667M745.471 126.5H798.647M745.471 126.5V179.667M798.647 126.5H851.824M798.647 126.5V179.667M851.824 126.5H905M851.824 126.5V179.667M905 126.5V179.667M54.1765 179.667H1M54.1765 179.667H107.353M54.1765 179.667V232.833M1 179.667V232.833M107.353 179.667H160.529M107.353 179.667V232.833M160.529 179.667H213.706M160.529 179.667V232.833M213.706 179.667H266.882M213.706 179.667V232.833M266.882 179.667H320.059M266.882 179.667V232.833M320.059 179.667H373.235M320.059 179.667V232.833M373.235 179.667H426.412M373.235 179.667V232.833M426.412 179.667H479.588M426.412 179.667V232.833M479.588 179.667H532.765M479.588 179.667V232.833M532.765 179.667H585.941M532.765 179.667V232.833M585.941 179.667H639.118M585.941 179.667V232.833M639.118 179.667H692.294M639.118 179.667V232.833M692.294 179.667H745.471M692.294 179.667V232.833M745.471 179.667H798.647M745.471 179.667V232.833M798.647 179.667H851.824M798.647 179.667V232.833M851.824 179.667H905M851.824 179.667V232.833M905 179.667V232.833M54.1765 232.833H1M54.1765 232.833H107.353M54.1765 232.833V286M1 232.833V286M107.353 232.833H160.529M107.353 232.833V286M160.529 232.833H213.706M160.529 232.833V286M213.706 232.833H266.882M213.706 232.833V286M266.882 232.833H320.059M266.882 232.833V286M320.059 232.833H373.235M320.059 232.833V286M373.235 232.833H426.412M373.235 232.833V286M426.412 232.833H479.588M426.412 232.833V286M479.588 232.833H532.765M479.588 232.833V286M532.765 232.833H585.941M532.765 232.833V286M585.941 232.833H639.118M585.941 232.833V286M639.118 232.833H692.294M639.118 232.833V286M692.294 232.833H745.471M692.294 232.833V286M745.471 232.833H798.647M745.471 232.833V286M798.647 232.833H851.824M798.647 232.833V286M851.824 232.833H905M851.824 232.833V286M905 232.833V286M54.1765 286H1M54.1765 286H107.353M54.1765 286V339.167M1 286V339.167M107.353 286H160.529M107.353 286V339.167M160.529 286H213.706M160.529 286V339.167M213.706 286H266.882M213.706 286V339.167M266.882 286H320.059M266.882 286V339.167M320.059 286H373.235M320.059 286V339.167M373.235 286H426.412M373.235 286V339.167M426.412 286H479.588M426.412 286V339.167M479.588 286H532.765M479.588 286V339.167M532.765 286H585.941M532.765 286V339.167M585.941 286H639.118M585.941 286V339.167M639.118 286H692.294M639.118 286V339.167M692.294 286H745.471M692.294 286V339.167M745.471 286H798.647M745.471 286V339.167M798.647 286H851.824M798.647 286V339.167M851.824 286H905M851.824 286V339.167M905 286V339.167M54.1765 339.167H1M54.1765 339.167H107.353M54.1765 339.167V392.333M1 339.167V392.333M107.353 339.167H160.529M107.353 339.167V392.333M160.529 339.167H213.706M160.529 339.167V392.333M213.706 339.167H266.882M213.706 339.167V392.333M266.882 339.167H320.059M266.882 339.167V392.333M320.059 339.167H373.235M320.059 339.167V392.333M373.235 339.167H426.412M373.235 339.167V392.333M426.412 339.167H479.588M426.412 339.167V392.333M479.588 339.167H532.765M479.588 339.167V392.333M532.765 339.167H585.941M532.765 339.167V392.333M585.941 339.167H639.118M585.941 339.167V392.333M639.118 339.167H692.294M639.118 339.167V392.333M692.294 339.167H745.471M692.294 339.167V392.333M745.471 339.167H798.647M745.471 339.167V392.333M798.647 339.167H851.824M798.647 339.167V392.333M851.824 339.167H905M851.824 339.167V392.333M905 339.167V392.333M54.1765 392.333H1M54.1765 392.333H107.353M54.1765 392.333V445.5M1 392.333V445.5M107.353 392.333H160.529M107.353 392.333V445.5M160.529 392.333H213.706M160.529 392.333V445.5M213.706 392.333H266.882M213.706 392.333V445.5M266.882 392.333H320.059M266.882 392.333V445.5M320.059 392.333H373.235M320.059 392.333V445.5M373.235 392.333H426.412M373.235 392.333V445.5M426.412 392.333H479.588M426.412 392.333V445.5M479.588 392.333H532.765M479.588 392.333V445.5M532.765 392.333H585.941M532.765 392.333V445.5M585.941 392.333H639.118M585.941 392.333V445.5M639.118 392.333H692.294M639.118 392.333V445.5M692.294 392.333H745.471M692.294 392.333V445.5M745.471 392.333H798.647M745.471 392.333V445.5M798.647 392.333H851.824M798.647 392.333V445.5M851.824 392.333H905M851.824 392.333V445.5M905 392.333V445.5M54.1765 445.5H1M54.1765 445.5H107.353M54.1765 445.5V498.667M1 445.5V498.667M107.353 445.5H160.529M107.353 445.5V498.667M160.529 445.5H213.706M160.529 445.5V498.667M213.706 445.5H266.882M213.706 445.5V498.667M266.882 445.5H320.059M266.882 445.5V498.667M320.059 445.5H373.235M320.059 445.5V498.667M373.235 445.5H426.412M373.235 445.5V498.667M426.412 445.5H479.588M426.412 445.5V498.667M479.588 445.5H532.765M479.588 445.5V498.667M532.765 445.5H585.941M532.765 445.5V498.667M585.941 445.5H639.118M585.941 445.5V498.667M639.118 445.5H692.294M639.118 445.5V498.667M692.294 445.5H745.471M692.294 445.5V498.667M745.471 445.5H798.647M745.471 445.5V498.667M798.647 445.5H851.824M798.647 445.5V498.667M851.824 445.5H905M851.824 445.5V498.667M905 445.5V498.667M54.1765 498.667H1M54.1765 498.667H107.353M54.1765 498.667V551.833M1 498.667V551.833M107.353 498.667H160.529M107.353 498.667V551.833M160.529 498.667H213.706M160.529 498.667V551.833M213.706 498.667H266.882M213.706 498.667V551.833M266.882 498.667H320.059M266.882 498.667V551.833M320.059 498.667H373.235M320.059 498.667V551.833M373.235 498.667H426.412M373.235 498.667V551.833M426.412 498.667H479.588M426.412 498.667V551.833M479.588 498.667H532.765M479.588 498.667V551.833M532.765 498.667H585.941M532.765 498.667V551.833M585.941 498.667H639.118M585.941 498.667V551.833M639.118 498.667H692.294M639.118 498.667V551.833M692.294 498.667H745.471M692.294 498.667V551.833M745.471 498.667H798.647M745.471 498.667V551.833M798.647 498.667H851.824M798.647 498.667V551.833M851.824 498.667H905M851.824 498.667V551.833M905 498.667V551.833M54.1765 551.833H1M54.1765 551.833H107.353M54.1765 551.833V605M1 551.833V605H54.1765M107.353 551.833H160.529M107.353 551.833V605M160.529 551.833H213.706M160.529 551.833V605M213.706 551.833H266.882M213.706 551.833V605M266.882 551.833H320.059M266.882 551.833V605M320.059 551.833H373.235M320.059 551.833V605M373.235 551.833H426.412M373.235 551.833V605M426.412 551.833H479.588M426.412 551.833V605M479.588 551.833H532.765M479.588 551.833V605M532.765 551.833H585.941M532.765 551.833V605M585.941 551.833H639.118M585.941 551.833V605M639.118 551.833H692.294M639.118 551.833V605M692.294 551.833H745.471M692.294 551.833V605M745.471 551.833H798.647M745.471 551.833V605M798.647 551.833H851.824M798.647 551.833V605M851.824 551.833H905M851.824 551.833V605M905 551.833V605H851.824M54.1765 605H107.353M107.353 605H160.529M160.529 605H213.706M213.706 605H266.882M266.882 605H320.059M320.059 605H373.235M373.235 605H426.412M426.412 605H479.588M479.588 605H532.765M532.765 605H585.941M585.941 605H639.118M639.118 605H692.294M692.294 605H745.471M745.471 605H798.647M798.647 605H851.824" stroke="url(#paint0_radial_1130_3438)" stroke-opacity="0.08" stroke-width="2"/>
<defs>
<radialGradient id="paint0_radial_1130_3438" cx="0" cy="0" r="1" gradientUnits="userSpaceOnUse" gradientTransform="translate(453 303.041) rotate(90) scale(301.278 452.682)">
<stop stop-color="white"/>
<stop offset="1" stop-color="white" stop-opacity="0"/>
</radialGradient>
</defs>
</svg>
